<?xml version="1.0" encoding="UTF-8"?>
<svg xmlns="http://www.w3.org/2000/svg" xmlns:xlink="http://www.w3.org/1999/xlink" version="1.1" viewBox="0 0 1600 800">
  <!-- Generator: Adobe Illustrator 29.1.0, SVG Export Plug-In . SVG Version: 2.1.0 Build 142)  -->
  <defs>
    <style>
      .st0 {
        stroke-dasharray: 16.9 16.9 0 0 0 0;
      }

      .st0, .st1, .st2, .st3, .st4, .st5, .st6, .st7, .st8, .st9, .st10, .st11, .st12, .st13, .st14, .st15, .st16, .st17, .st18, .st19, .st20, .st21, .st22, .st23, .st24, .st25, .st26, .st27, .st28, .st29, .st30, .st31, .st32 {
        fill: none;
      }

      .st0, .st1, .st2, .st3, .st4, .st5, .st6, .st8, .st9, .st12, .st13, .st14, .st15, .st16, .st17, .st18, .st19, .st20, .st21, .st22, .st23, .st25, .st28, .st30, .st31, .st32 {
        stroke-linecap: round;
      }

      .st0, .st1, .st3, .st4, .st5, .st8, .st12, .st13, .st14, .st15, .st16, .st19, .st23, .st29, .st30 {
        stroke-linejoin: round;
      }

      .st0, .st1, .st3, .st4, .st8, .st13, .st14, .st15, .st19, .st23, .st30 {
        stroke-width: 2.2px;
      }

      .st0, .st1, .st4, .st13, .st14, .st19, .st23, .st30 {
        stroke: #e8292a;
      }

      .st33, .st34 {
        letter-spacing: .2em;
      }

      .st33, .st35 {
        fill: #00993f;
      }

      .st36 {
        stroke-width: 1.1px;
      }

      .st36, .st37 {
        fill: #0000f8;
      }

      .st36, .st38, .st2, .st39, .st6, .st7, .st9, .st10, .st40, .st17, .st18, .st20, .st21, .st22, .st24, .st25, .st26, .st27, .st28, .st31, .st32 {
        stroke-miterlimit: 10;
      }

      .st36, .st39, .st40, .st31 {
        stroke: blue;
      }

      .st41 {
        fill: #31aa3a;
      }

      .st42 {
        fill: url(#linear-gradient2);
      }

      .st43 {
        fill: url(#linear-gradient1);
      }

      .st44 {
        fill: url(#linear-gradient9);
      }

      .st45 {
        fill: url(#linear-gradient3);
      }

      .st46 {
        fill: url(#linear-gradient6);
      }

      .st47 {
        fill: url(#linear-gradient8);
      }

      .st48 {
        fill: url(#linear-gradient7);
      }

      .st49 {
        fill: url(#linear-gradient5);
      }

      .st50 {
        fill: url(#linear-gradient4);
      }

      .st51, .st52, .st53, .st54 {
        mix-blend-mode: multiply;
      }

      .st51, .st52, .st55 {
        opacity: .2;
      }

      .st51, .st56, .st57, .st58 {
        fill: #1a1818;
      }

      .st1 {
        stroke-dasharray: 17.6 17.6 0 0 0 0;
      }

      .st59 {
        fill: url(#linear-gradient10);
      }

      .st38, .st9, .st12, .st18, .st26, .st29 {
        stroke-width: 4.5px;
      }

      .st38, .st60 {
        fill: #fff;
      }

      .st38, .st11, .st12, .st24, .st26, .st27, .st29 {
        stroke: #c7c9ca;
      }

      .st2, .st6, .st25, .st28 {
        stroke-width: .9px;
      }

      .st2, .st6, .st25, .st28, .st32 {
        stroke: #fff;
      }

      .st3 {
        stroke-dasharray: 18 18 0 0 0 0;
      }

      .st3, .st5, .st8, .st15 {
        stroke: #00b0eb;
      }

      .st61 {
        fill: #e6001c;
      }

      .st62, .st54 {
        fill: #e6001c;
      }

      .st39 {
        stroke-width: 1.3px;
      }

      .st39, .st63, .st40 {
        fill: blue;
      }

      .st64 {
        fill: url(#linear-gradient);
      }

      .st4 {
        stroke-dasharray: 15.4 15.4 0 0 0 0;
      }

      .st5 {
        stroke-width: .7px;
      }

      .st34, .st65 {
        font-size: 31.4px;
      }

      .st66 {
        fill: #c7c9ca;
      }

      .st6 {
        stroke-dasharray: 15.2 4.8;
      }

      .st7, .st17 {
        stroke: #97999c;
      }

      .st7, .st32 {
        stroke-width: 1.1px;
      }

      .st8 {
        stroke-dasharray: 18 18 0 0 0 0;
      }

      .st67 {
        isolation: isolate;
      }

      .st9, .st18 {
        stroke: #0b8535;
      }

      .st68 {
        fill: #ff004d;
      }

      .st69 {
        fill: #00b0eb;
      }

      .st70 {
        fill: #ff0;
      }

      .st10, .st20, .st21, .st22 {
        stroke: #aeb0b3;
      }

      .st10, .st22 {
        stroke-width: 10px;
      }

      .st57 {
        font-family: Acrom-Regular, Acrom;
      }

      .st11 {
        stroke-width: 2.8px;
      }

      .st35, .st65 {
        font-family: Acrom-ExtraBold, Acrom;
        font-weight: 700;
      }

      .st71 {
        fill: #818386;
      }

      .st13 {
        stroke-dasharray: 15.4 15.4 0 0 0 0;
      }

      .st72 {
        fill: #009cea;
      }

      .st15 {
        stroke-dasharray: 17.4 17.4 0 0 0 0;
      }

      .st40 {
        stroke-width: 2.1px;
      }

      .st16 {
        stroke: #31aa3a;
        stroke-width: 11px;
      }

      .st73 {
        fill: #eeeeef;
      }

      .st17 {
        stroke-width: 4.6px;
      }

      .st74 {
        fill: red;
      }

      .st75 {
        fill: #00a3ff;
      }

      .st75, .st54 {
        font-family: Perfograma-Regular, Perfograma;
        font-size: 68px;
      }

      .st76 {
        fill: #aeb0b3;
      }

      .st18 {
        stroke-dasharray: 0 9 0 0 0 0;
      }

      .st77 {
        fill: #3db8ff;
      }

      .st19 {
        stroke-dasharray: 14.6 14.6 0 0 0 0;
      }

      .st78 {
        fill: #4fc7ff;
      }

      .st79 {
        fill: #0b8535;
      }

      .st20 {
        stroke-width: 23.3px;
      }

      .st21 {
        stroke-width: 9.9px;
      }

      .st23 {
        stroke-dasharray: 14.6 14.6 0 0 0 0;
      }

      .st24 {
        stroke-width: 2.6px;
      }

      .st25 {
        stroke-dasharray: 11.3 2.8;
      }

      .st27 {
        stroke-width: 3.1px;
      }

      .st80 {
        fill: #e5001c;
      }

      .st28 {
        stroke-dasharray: 12.9 3.2;
      }

      .st81 {
        clip-path: url(#clippath);
      }

      .st30 {
        stroke-dasharray: 16.8 16.8 0 0 0 0;
      }

      .st58 {
        letter-spacing: .2em;
      }

      .st31 {
        stroke-width: 18.6px;
      }

      .st32 {
        stroke-dasharray: 13.7 3.4;
      }
    </style>
    <clipPath id="clippath">
      <path class="st11" d="M1191.3,234.1c.8,0,.5,1.2,1.2,1.3.4.1.3.7.8.9.3-.2.8-.5,1.2-.5.4,0,.2.5.3.8.1,0,.5.3.6.4-.2.6.6.7,1,.6.5-.3,1.2.2,1.6.2.6,0,.2,1,.2,1.4,0,.5.4,1.4,1,.9.2-.3.8,0,.6.3,0,0,0,.3,0,.3-.1,0-.6-.3-.6,0-.1.5.4.8.5,1.2,0,.2.3.6.5.5,0-.3.1-.8.5-.7,1.6-.6.4.6.2,1.4.1.6,1.1.8,1.6,1.1.4-.1,1.3-1,1.5-.2,1.4,0,2.1,1.5,2.9,2.3,0,.4.6.2.9,0,.1,0,.4.2.5,0,.3-.2.6.4.9.5,1.1-.9,1.5.8,2.4,1.2,2,1.4.7-2.7,1-3.7.3-2.5-.1-5,0-7.5-1.8-6.6-3.1-5.1,1.5-10.4,3.9-3.9-6.2-4.4-1.8-7.4,1.1-1,1.7.6,2.6.2.8-.9-.6-1.5-.9-2.3-.4-1.4.7-2.5,1.7-3.3.7-.3,1.7-.2,2.4-.8.8-1,1.2-2.5,2.4-3.2,2.3-2.2,2.1-6,3.9-9,1.2-2.9-4.9-1.9-.3-5.3,2.4-1.4,2.4-3.9,4.4-5,2.8-.9,8.8-5.5,4.9-7.6,0-2.6,2.1.6,3,.5,1.6-1.3-2.7-2-1.9-3.5-.6-3.9,0-4.4,2.6-6.9-2.4-5,1.3-4.2-1.6-6.1-1-1.6,3-2.6,3.5-4.4-2.1-6.2-1.5,4.4-4-.9-3.4-.8-5-5.1-6.9-2.3-.8.9-1.6,2-2.8,1.5-1-1.2-1.3.2-2.4.2-.9-1.2-1.4-1.5-3.1-1.8-4-.8-8.3-13.9-11.9-5.9-.3,1.9-3.1,1.3-2.7-.4.9-2-1-3.4-1-4.9.2-2.1-1.5-1.7-2.6-.9-.4,0-1.6-2.4-2.6-3-1.9.7-1.1.4-2.9-.5-1.2-.8-1.9-2.7-2.7-3.9-1.9.2-3.9-3.5-2.2-4.1.6-2.7-4.6-2.1-1.2-4.1.4-4.3-2.2-2.6-.6-5.2-.2,0-2.2-.1-2.3-1.2-.9-1.1-1.4,2.5-1.6,1.3-.6-1-.5-2.6-1-3.7,0-2.8-2.4.5-1.1,1.6.9.3.6.9,0,1.2-2.3,1.1-.7-2.4-2.6-2.5-1.3-2-.4-3.6,0-5.7-2.2-.7-2,.3-3.1-2.2-1.5.4-2.7-2-.7-1,1.9-2.9.9-3.2,0-3.3-3-.7,3.4-2.6-2.1-4.7,1.8-3.7-2.1-4.4-1.3-7.7-.2-.2-.6-.2-.8.1-.5,2.9-1.9-.6-1-1.4.2-.2.5-.2,1.4.3-.1-1.5,2.9-2.6.2-3.3-.5.5.3,2.5-1.3,1.3-.2-.6.5-2.1,1.2-1.8.3-1.2-1.4-3.8,1-3,2.4.3-.9-1.5-.2-2.5,2.1,0,1.4-.5.7-1.7,1.7-2-.1-1.1-1-1.8-.1-1,.4-2,1.4-2.3,0-.3.3-1.1.4-1.4-1.3.5-1.6-1.2-2.7-1.5-.3,0-1.1.2-1.3-.1,0-.8.2-1.8.9-2.4.2-.2.8-.7,1.2-.8-.1-.3-.4-.5-.7-.6-3.1-2.1,2.1-1.7-2.1-4.3-.1,0-.8-.7-1-.6-.3.2-.6.4-.9.4-.6.1-1.4-.3-1.9-.6-1.6-.3-.3,1.9-.9,3.6.2.6-.9.2-1.2.2-1.3,1.8-2.4.5-3.9-.2-4.7-2-1.9-2.6-3.8-6.5-1.1.2-2.8,1.5-4,1.8-3.2.4-5.7-1.2-5.8,3.3-.3.3.5,1.5.6,2.1-.3.4-.9.5-1.2.9,0,.6.2,1.5.3,2.1-.4.5-.5,1.3-.3,1.9.6,1.5-1,.9-1.8,1.6-6.1.7-10.2,5.5-9.8,11.5.5,2.8-2.9,1.4-3.7,3.2-4.9,3.9,3,4.1-.4,7.9-1.4.4-.7,1.7-.5,2.6-2.4.7-.4,2.2-4.4,2.9-.2.3-.6.3-.8.7-.5,0-1.6,0-1.3.8-.2.3.1.9.2,1.2-.1.7,0,1.6.3,2.3.4.4,1,.7,1.1,1.2.1.6.6.3,1.1.3,1.2,1.3-.4,4.1-2,4-.5.8-1.2,1-2,.9-.3.3,0,.7-.4,1,.1.4.1.8-.3,1-.2.2-.4,0-.6,0-.5.2-.9-.2-1.2-.6-.5.3-.9.4-1,1-1.4,1-1-.7-2.3.4,0,.5,0,.8-.4,1,.3.5.2,1-.2,1.4-.3.6-.2,1,.1,1.5-.5.4.3.9.3,1.4.1.4-.7.6-.7,1.1-.1.8,0,.8-.9,1-.1.6-.1,1.6-.3,2-.2,0,0,.4,0,.6,0,.4-.2.8,0,1.1-.6.7-1.7,1.3-2.5,1.8-.3.6-.6,1.2-1.2,1.4.2.2-.2.5-.3.7-1.1,1.3.7,1.1,1.3,1.8,1.1,1.1,2.8,1,4,1.7.2.7,1.2.4,1.4,1.1,0,.4.7.5.8,1-.2.9,0,.9-.8.7-.6,0,2.2,1.1-.3,1.1-.6,2-.6,1-1.2,0-.4,0-.5.7-1,.8-.6,0-.8-.9-1.3-.9-.6.4-.4,1.1.1,1.6,0,.6-.5,1.2.2,1.6,1.1,1.1-.2.9-.9,1.2-.2.3-1,0-.8.5.5.4,1.5,0,1.8.8.1,2.2-1.5.3-1.5,1.2-.2.4.1.8.3,1.2,0,1.2-1.3,0-1.6,1-.1.5.3.9.7,1.3.4,1.3,1.1,1.8,0,2.8,0,.7.5,1.1.9,1.6-.2,1.4.1,2.9.5,4.3-.4,2.2,1.7.6,3,.7.6-.6.8,0,1.4.1,1.2-1.4,1.5-.7,2.1.7-.3,1.2.8,1.4,1,2.4.3,1.2,1.6,1.3,1.6,3.2,0,.7.6,1.3,1,1.8.2.7.3,1.7.8,2.2.3.9,1.9.3,1.6,1.6.3,1.9-1,1.2-.5,3-.6.5,0,1.2-.2,1.9-.2,1.1.5.6,1.2.5,3.8,1.5,2.5-2.4,6.8.5.3.4,0,.8,0,1.1.5.5,1.3,1.5,1.7,1.8-3.1,4.3-6.5,7.1-.2,10.2.3.3.6.5,1-.1.4.6,1.4.6,1.9.5.3.2-.4,1.3.7.7,1.5-.6-1.4,1.9-.7,4.4,2.7,5.3-4.3.7-2.7,4.9-1.8,1-1.8,3-1.8,4.8-.9.5-1.9,1-2.6,1.8-.6.3-1.4.7-1.7,1.3,0,1.8.9,3,2.8,2.2.2-.5.3-.5.8-.2.4,1-.1,1.1-.5,1.9.5,0,.5.2.4.6,0,.2.2.8,0,1-.6-.2-.9.8-1.5.9,0,.3,0,.7-.3.9-.6,0-1.1.3-1.5.8-.9,0-1,.9-.7,1.6-.3.8-1.2,1-1.9,1.2-.2,0-.5.4-.7.5-.1-.1-.3-.2-.5-.2-.7.2-1.2,1.2-1.7,1.3-1.6,0,0,1.3.4,2,1.1-.3,2.1-1.1,3.2-1.4.1.7.3,1.5.8,2.2,1.2,1.8-2,.7-1.1,3.1.7,1.4,2.7,1.2,2.4,3.1,1.8.3,2.3,2.7,3.2,2.4.3-.3.6,0,.8.2,2.3-.7,2.9,1.6,5.6-.7,1.3-.6,2.5,1.4,3.8.5,1.3-.9,2.3.8,3.3,1.5.8.3,2-.5,2.4.5,0,.6,0,1.3.3,1.9.3.2.8.5.8.9.2.6,0,1.2-.4,1.7.2,1.1.4,2.4,1.1,3.2.3,0,.5-.3.6-.6.8-.4.9.7.6,1.2,0,1.4-1.2-.5-1.3,1.2.7,1.9,3.3-2.3,4.3-.3.2.2.5.8.8.3.7.1,1.5-.4,2.3-.5.6.2.7.9.4,1.4,0,.2.2.2.4,0,.4,0,1,0,1.4.2,1.7,1.3,1.5-5.9,3.9-4.2.3,0,.7,0,1.1,0,.2,0,.7-.6.8-.3-.5.6.8-.1,1,.4.3.3-.1,1.2,0,1.5.8.8,2,1.4,3.2,1.3,0-1.4-.8-3,.4-4.2.5-.7,1.3-.7,1.7,0,.7-.4,1.7-.5,1.5-1.6.8-1.2.4-2.7.7-4,.5,0,.5.7.8.8.9,0,2.1-1.2,1.4.6.6.1,1-.8,1.5-.9.3,0,.3-.6.7-.7,0,.1.3.4.3.5.1,0,.5-.1.6-.2,0-.7-.9-1.3-1-2-.1-1.3,2.2-.9,3-2,.7-.7.5,0,.8.4.4,0,1-.2,1.4,0,.3.2.8,0,1.2,0,.4.5,1,.3,1.6,0,.9.2,2.6.6,2.2-.8.1,0,.5.3.6.3.3,0,.9-.5,1.2-.2,0,0,.2.1.3,0,.2-.4.9.4,1.2.1.3-.1.2-1,.3-1.2.6,0,0-1-.4-.8"/>
    </clipPath>
    <linearGradient id="linear-gradient" x1="1143.4" y1="295.6" x2="1143.4" y2="176.8" gradientUnits="userSpaceOnUse">
      <stop offset="0" stop-color="#00b0eb"/>
      <stop offset="1" stop-color="#4072b9"/>
    </linearGradient>
    <linearGradient id="linear-gradient1" x1="413.2" y1="520.9" x2="395.4" y2="425.7" gradientUnits="userSpaceOnUse">
      <stop offset="0" stop-color="#4072b9"/>
      <stop offset="1" stop-color="#00b0eb"/>
    </linearGradient>
    <linearGradient id="linear-gradient2" x1="501.9" y1="548.1" x2="1177.6" y2="515.2" gradientUnits="userSpaceOnUse">
      <stop offset="0" stop-color="#7cbe31"/>
      <stop offset="1" stop-color="#02572b"/>
    </linearGradient>
    <linearGradient id="linear-gradient3" x1="501.9" y1="547.6" x2="1177.5" y2="514.8" xlink:href="#linear-gradient2"/>
    <linearGradient id="linear-gradient4" x1="501.9" y1="548.4" x2="1177.6" y2="515.5" xlink:href="#linear-gradient2"/>
    <linearGradient id="linear-gradient5" x1="501.9" y1="547.6" x2="1177.5" y2="514.8" xlink:href="#linear-gradient2"/>
    <linearGradient id="linear-gradient6" x1="501.9" y1="547.3" x2="1177.5" y2="514.5" xlink:href="#linear-gradient2"/>
    <linearGradient id="linear-gradient7" x1="501.8" y1="546.7" x2="1177.5" y2="513.9" xlink:href="#linear-gradient2"/>
    <linearGradient id="linear-gradient8" x1="-2834.9" y1="4207.3" x2="-2834.9" y2="4107.9" gradientTransform="translate(3510.3 -3920.3)" xlink:href="#linear-gradient"/>
    <linearGradient id="linear-gradient9" x1="-2834.9" y1="4207.3" x2="-2834.9" y2="4107.9" gradientTransform="translate(3510.3 -3920.3)" xlink:href="#linear-gradient"/>
    <linearGradient id="linear-gradient10" x1="-2834.9" y1="4207.3" x2="-2834.9" y2="4107.9" gradientTransform="translate(3510.3 -3920.3)" xlink:href="#linear-gradient"/>
  </defs>
  <g class="st67">
    <g id="LHC_LOGO">
      <g>
        <g>
          <polygon class="st72" points="1429.4 714 1429.4 706.2 1421.7 706.2 1414.1 713.8 1414.1 721.5 1421.9 721.5 1429.4 714"/>
          <polygon class="st72" points="1406.6 736.8 1406.6 729 1398.9 729 1391.3 736.6 1391.3 744.3 1399.1 744.3 1406.6 736.8"/>
          <polygon class="st80" points="1421.6 744.3 1429.4 744.3 1429.4 736.6 1421.8 729 1414.1 729 1414.1 736.8 1421.6 744.3"/>
          <polygon class="st80" points="1398.8 721.5 1406.6 721.5 1406.6 713.8 1399 706.2 1391.3 706.2 1391.3 714 1398.8 721.5"/>
        </g>
        <g>
          <polygon class="st60" points="1401.7 729.6 1401.7 716 1410 715 1410.6 715 1419 716 1419 729.6 1410.9 736.4 1409.8 736.4 1401.7 729.6"/>
          <path class="st60" d="M1410.6,715.7l7.6.9v12.6l-7.6,6.4h-.5s-7.6-6.4-7.6-6.4v-12.6l7.6-.9h.5M1410.7,714.2h0s-.5,0-.5,0h0s0,0,0,0l-7.6.9-1.3.2v14.7l.5.5,7.6,6.4.4.4h.6s.5,0,.5,0h.5s.4-.4.4-.4l7.6-6.4.5-.5v-14.7l-1.3-.2-7.6-.9h0Z"/>
        </g>
        <g>
          <polygon class="st72" points="1410.1 715.7 1402.5 716.6 1402.5 729.3 1410.1 735.7 1410.1 715.7"/>
          <polygon class="st80" points="1410.6 715.7 1418.2 716.6 1418.2 729.3 1410.6 735.6 1410.6 715.7"/>
        </g>
        <g>
          <path class="st56" d="M1440.2,742.2v-10.5h2.4v8.3h4.2v2.2h-6.6Z"/>
          <path class="st56" d="M1453.5,742.4c-2.8,0-4.4-1.5-4.4-4.4v-6.2h2.4v6.1c0,1.5.6,2.4,2,2.4s2-.9,2-2.4v-6.1h2.4v6.2c0,2.9-1.7,4.4-4.5,4.4Z"/>
          <path class="st56" d="M1467.8,742.2l-2.1-3.5-2.1,3.5h-2.9l3.5-5.1-3.5-5.4h2.9l2.1,3.5,2.1-3.5h2.9l-3.5,5.1,3.5,5.4h-2.9Z"/>
          <path class="st56" d="M1473.6,742.2v-10.5h6.6v2.2h-4.2v1.9h3.8v2.1h-3.8v2h4.2v2.2h-6.6Z"/>
          <path class="st56" d="M1492.4,742.2v-5.2c-.1,0-3,3.7-3,3.7h-.3l-2.9-3.7v5.2h-2.5l.5-10.6h.3s4.8,6,4.8,6l4.6-6h.3s.5,10.6.5,10.6h-2.4Z"/>
          <path class="st56" d="M1501.5,742.3c-.9,0-2.1,0-3.1-.2v-10.3c.8-.1,2.1-.2,2.9-.2,3.1,0,4.6,1.4,4.6,2.8s-.6,1.8-1.8,2.3c1.4.4,2.1,1.3,2.1,2.5s-1.5,3.1-4.7,3.1ZM1501.8,733.7c-.4,0-.8,0-1.1,0v2.2c.3,0,.5,0,.9,0,1.2,0,1.8-.4,1.8-1.2s-.5-1.1-1.6-1.1ZM1501.6,737.7c-.4,0-.7,0-.9,0v2.4c.3,0,.5,0,1,0,1.2,0,1.8-.5,1.8-1.3s-.6-1.3-1.9-1.3Z"/>
          <path class="st56" d="M1514.4,742.4c-3.3,0-5.3-2.3-5.3-5.4s2.2-5.4,5.4-5.4,5.3,2.3,5.3,5.4-2.2,5.4-5.4,5.4ZM1514.4,733.7c-1.7,0-2.8,1.4-2.8,3.3s1.1,3.3,2.8,3.3,2.8-1.4,2.8-3.3-1.1-3.3-2.8-3.3Z"/>
          <path class="st56" d="M1527.5,742.4c-2.8,0-4.4-1.5-4.4-4.4v-6.2h2.4v6.1c0,1.5.6,2.4,2,2.4s2-.9,2-2.4v-6.1h2.4v6.2c0,2.9-1.7,4.4-4.5,4.4Z"/>
          <path class="st56" d="M1541.1,742.2l-1.8-3.4c-.1,0-.3,0-.4,0-.4,0-.6,0-.9,0v3.4h-2.4v-10.4c.9-.1,1.9-.2,3.1-.2,3.3,0,4.6,1.6,4.6,3.5s-.7,2.4-1.8,3l2.5,4.1h-2.8ZM1539,733.8c-.4,0-.6,0-.9,0v2.9c.3,0,.5,0,.8,0,1.2,0,1.9-.6,1.9-1.6s-.7-1.4-1.7-1.4Z"/>
          <path class="st56" d="M1555.6,736.3v5c-1.2.7-2.4,1.1-4,1.1-3.1,0-5.5-2.2-5.5-5.4s2.5-5.4,5.6-5.4,2.5.4,3.5.9l-1,2c-.7-.4-1.5-.6-2.4-.6-2.1,0-3.2,1.3-3.2,3.2s1.3,3.3,3.1,3.3,1.2,0,1.5-.3v-1.5h-2.1v-2.1h4.4Z"/>
        </g>
        <g>
          <path class="st72" d="M1443.7,723.5c-.2,0-.5,0-.8,0-.3,0-.6-.1-.9-.3-.3-.1-.6-.3-.8-.6-.3-.2-.5-.6-.7-.9s-.4-.9-.5-1.5c-.1-.6-.2-1.3-.2-2.1v-5.6c0-.8,0-1.5.2-2.1.1-.6.3-1,.5-1.4s.4-.7.7-.9c.3-.2.5-.4.8-.5s.6-.2.9-.2c.3,0,.5,0,.8,0,.6,0,1.2,0,1.6.3s.8.4,1,.7.4.7.6,1.1c.1.4.2.8.2,1.3s0,.7,0,.9c0,.3,0,.6-.2,1h-2v-.8c0-.9,0-1.5-.3-2s-.5-.7-.8-.7-.4,0-.6.1c-.2,0-.3.2-.4.4-.1.2-.2.5-.3.8,0,.3,0,.8,0,1.3v7.3c0,.5,0,.9,0,1.2,0,.3.1.6.2.8s.2.3.4.4c.2,0,.4.1.6.1s.3,0,.4-.1.3-.2.4-.3.2-.3.3-.6c0-.2,0-.5,0-.8v-1.6h2.2v1.5c0,1.3-.3,2.2-.9,2.8-.6.6-1.4.9-2.5.9Z"/>
          <path class="st72" d="M1451.3,718l-3.2-10.6h2.4l2,7.6h.1l1.9-7.6h2.4l-3.2,10.6v5.3h-2.4v-5.3Z"/>
          <path class="st72" d="M1458.7,707.4h2.4c.4,0,.7,0,1.1,0,.4,0,.8,0,1.1.2s.7.2,1,.4c.3.2.6.4.9.6.2.3.4.6.6,1,.1.4.2.9.2,1.4v.8c0,.4,0,.8-.2,1.2-.1.4-.3.7-.5.9-.2.3-.4.5-.7.7s-.5.3-.8.4h0c.8.2,1.4.6,1.8,1.2.4.6.6,1.4.6,2.3v.8c0,.6,0,1.1-.2,1.5-.1.4-.3.8-.5,1.1-.2.3-.5.5-.8.7-.3.2-.7.3-1,.5-.4.1-.8.2-1.2.2s-.9,0-1.3,0h-2.5v-15.9ZM1461.5,714.2c.3,0,.6,0,.9-.1s.5-.2.7-.4.3-.4.4-.6c.1-.3.2-.6.2-1v-.7c0-.4,0-.7-.1-1,0-.3-.2-.5-.4-.7-.2-.2-.4-.4-.7-.5-.3-.1-.6-.2-1-.2h-.5v5.1h.5ZM1461.8,721.7c.3,0,.6,0,.9-.1.3,0,.5-.2.7-.4s.3-.4.4-.7c.1-.3.2-.6.2-1v-1.2c0-.4,0-.7-.1-1,0-.3-.2-.5-.4-.7-.2-.2-.4-.3-.7-.4-.3-.1-.6-.2-1-.2h-.7v5.7h.7Z"/>
          <path class="st72" d="M1468.9,707.4h5.9v1.9h-3.5v4.8h2.7v1.9h-2.7v5.5h3.6v1.9h-6v-15.9Z"/>
          <path class="st72" d="M1477,707.4h2.6c.3,0,.6,0,1,0,.4,0,.7,0,1.1.2.4,0,.7.2,1,.4s.6.5.9.8.5.8.6,1.3c.2.5.2,1.1.2,1.8v.4c0,1.2-.2,2.2-.5,3-.3.8-.9,1.3-1.5,1.6l2.6,6.4h-2.6l-2.1-6h-.9v6h-2.4v-15.9ZM1479.7,715.6c.4,0,.8,0,1.1-.1.3,0,.5-.3.7-.5s.3-.5.4-.9.1-.8.1-1.3v-1.3c0-.4,0-.8-.1-1.1,0-.3-.2-.5-.4-.7-.2-.2-.4-.3-.7-.4-.3,0-.7-.1-1.1-.1h-.4v6.5h.4Z"/>
          <path class="st72" d="M1486.5,720.1c0-.3,0-.7,0-.9,0-.3.1-.6.2-.9h1.9v.8c0,.4,0,.8,0,1.1,0,.3.1.6.3.8.1.2.3.4.5.5.2.1.4.2.7.2.5,0,.8-.1,1.1-.4.2-.3.4-.6.4-1.1s0-.5,0-.7c0-.2,0-.4-.2-.6,0-.2-.2-.4-.3-.6-.1-.2-.3-.5-.6-.8l-2.5-3c-.4-.6-.8-1.1-1-1.7-.2-.6-.4-1.2-.4-1.9s0-1,.2-1.5c.2-.4.4-.8.7-1.1.3-.3.7-.6,1.2-.7s1-.3,1.6-.3,1.3.1,1.8.3c.5.2.8.5,1.1.8s.5.7.6,1.1.2.8.2,1.2,0,.7,0,.9c0,.3-.1.6-.2,1h-1.9v-.8c0-.8-.1-1.5-.4-1.9-.2-.5-.6-.7-1.2-.7s-.8.1-1,.4c-.2.3-.3.6-.3,1s0,.4,0,.6c0,.2,0,.3.1.5,0,.2.1.3.2.4,0,.1.2.3.3.4l2.8,3.4c.5.7.9,1.3,1.2,1.9.3.6.4,1.3.4,1.9s0,1.1-.3,1.5-.4.8-.8,1.2c-.3.3-.7.6-1.2.7-.5.2-1,.3-1.6.3s-1.3,0-1.8-.3c-.5-.2-.9-.4-1.1-.8-.3-.3-.5-.7-.6-1.1-.1-.4-.2-.8-.2-1.2Z"/>
          <path class="st72" d="M1496.5,707.4h5.9v1.9h-3.5v4.8h2.7v1.9h-2.7v5.5h3.6v1.9h-6v-15.9Z"/>
          <path class="st72" d="M1508,723.5c-.2,0-.5,0-.8,0-.3,0-.6-.1-.9-.3-.3-.1-.6-.3-.8-.6-.3-.2-.5-.6-.7-.9s-.4-.9-.5-1.5c-.1-.6-.2-1.3-.2-2.1v-5.6c0-.8,0-1.5.2-2.1.1-.6.3-1,.5-1.4s.4-.7.7-.9c.3-.2.5-.4.8-.5s.6-.2.9-.2c.3,0,.5,0,.8,0,.6,0,1.2,0,1.6.3s.8.4,1,.7.4.7.6,1.1c.1.4.2.8.2,1.3s0,.7,0,.9c0,.3,0,.6-.2,1h-2v-.8c0-.9,0-1.5-.3-2s-.5-.7-.8-.7-.4,0-.6.1c-.2,0-.3.2-.4.4-.1.2-.2.5-.3.8,0,.3,0,.8,0,1.3v7.3c0,.5,0,.9,0,1.2,0,.3.1.6.2.8s.2.3.4.4c.2,0,.4.1.6.1s.3,0,.4-.1.3-.2.4-.3.2-.3.3-.6c0-.2,0-.5,0-.8v-1.6h2.2v1.5c0,1.3-.3,2.2-.9,2.8-.6.6-1.4.9-2.5.9Z"/>
          <path class="st72" d="M1513.6,707.4h2.4v11.7c0,.5,0,.9,0,1.2,0,.3.1.6.2.8.1.2.2.3.4.4s.4.1.6.1.4,0,.6-.1.3-.2.4-.4c.1-.2.2-.5.3-.8,0-.3,0-.7,0-1.2v-11.7h2.4v11c0,.8,0,1.4-.2,2-.1.6-.3,1-.5,1.4s-.4.7-.7.9c-.3.2-.5.4-.8.5-.3.1-.6.2-.8.2-.3,0-.5,0-.8,0s-.5,0-.8,0c-.3,0-.6-.1-.8-.2-.3-.1-.6-.3-.8-.5-.3-.2-.5-.5-.7-.9s-.4-.8-.5-1.4-.2-1.2-.2-2v-11Z"/>
          <path class="st72" d="M1524.3,707.4h2.6c.3,0,.6,0,1,0,.4,0,.7,0,1.1.2.4,0,.7.2,1,.4s.6.5.9.8.5.8.6,1.3c.2.5.2,1.1.2,1.8v.4c0,1.2-.2,2.2-.5,3-.3.8-.9,1.3-1.5,1.6l2.6,6.4h-2.6l-2.1-6h-.9v6h-2.4v-15.9ZM1527,715.6c.4,0,.8,0,1.1-.1.3,0,.5-.3.7-.5s.3-.5.4-.9.1-.8.1-1.3v-1.3c0-.4,0-.8-.1-1.1,0-.3-.2-.5-.4-.7-.2-.2-.4-.3-.7-.4-.3,0-.7-.1-1.1-.1h-.4v6.5h.4Z"/>
          <path class="st72" d="M1534.5,707.4h2.4v15.9h-2.4v-15.9Z"/>
          <path class="st72" d="M1541.5,709.3h-2.6v-1.9h7.5v1.9h-2.6v14h-2.4v-14Z"/>
          <path class="st72" d="M1550.3,718l-3.2-10.6h2.4l2,7.6h.1l1.9-7.6h2.4l-3.2,10.6v5.3h-2.4v-5.3Z"/>
        </g>
        <g>
          <path class="st60" d="M1403.9,719.8c-.6,0-1.1-.5-1.1-1.1s.5-1.1,1.1-1.1,1.1.5,1.1,1.1-.5,1.1-1.1,1.1ZM1403.9,717.8c-.4,0-.7.3-.7.8s.3.8.7.8.7-.3.7-.8-.3-.8-.7-.8Z"/>
          <path class="st60" d="M1406.5,719.8c-.6,0-1.1-.5-1.1-1.1s.5-1.1,1.1-1.1,1.1.5,1.1,1.1-.5,1.1-1.1,1.1ZM1406.5,717.8c-.4,0-.7.3-.7.8s.3.8.7.8.7-.3.7-.8-.3-.8-.7-.8Z"/>
          <path class="st60" d="M1408.1,719.7v-2.2h.4v2.2h-.4Z"/>
          <path class="st60" d="M1409.1,719.7v-2.2h.4v2.2h-.4Z"/>
          <path class="st60" d="M1403.9,722.8c-.6,0-1.1-.5-1.1-1.1s.5-1.1,1.1-1.1,1.1.5,1.1,1.1-.5,1.1-1.1,1.1ZM1403.9,720.8c-.4,0-.7.3-.7.8s.3.8.7.8.7-.3.7-.8-.3-.8-.7-.8Z"/>
          <path class="st60" d="M1406,722.7v-2.2h.4v2.2h-.4Z"/>
          <path class="st60" d="M1408.4,722.8c-.6,0-1.1-.5-1.1-1.1s.5-1.1,1.1-1.1,1.1.5,1.1,1.1-.5,1.1-1.1,1.1ZM1408.4,720.8c-.4,0-.7.3-.7.8s.3.8.7.8.7-.3.7-.8-.3-.8-.7-.8Z"/>
          <path class="st60" d="M1403.8,725.8c-.6,0-1.1-.5-1.1-1.1s.5-1.1,1.1-1.1,1.1.5,1.1,1.1-.5,1.1-1.1,1.1ZM1403.8,723.8c-.4,0-.7.3-.7.8s.3.8.7.8.7-.3.7-.8-.3-.8-.7-.8Z"/>
          <path class="st60" d="M1406.1,725.8c-.6,0-1.1-.5-1.1-1.1s.5-1.1,1.1-1.1,1.1.5,1.1,1.1-.5,1.1-1.1,1.1ZM1406.1,723.8c-.4,0-.7.3-.7.8s.3.8.7.8.7-.3.7-.8-.3-.8-.7-.8Z"/>
          <path class="st60" d="M1408.4,725.8c-.6,0-1.1-.5-1.1-1.1s.5-1.1,1.1-1.1,1.1.5,1.1,1.1-.5,1.1-1.1,1.1ZM1408.4,723.8c-.4,0-.7.3-.7.8s.3.8.7.8.7-.3.7-.8-.3-.8-.7-.8Z"/>
          <path class="st60" d="M1402.9,728.8v-2.2h.4v2.2h-.4Z"/>
          <path class="st60" d="M1403.8,728.8v-2.2h.4v2.2h-.4Z"/>
          <path class="st60" d="M1405.8,728.8c-.6,0-1.1-.5-1.1-1.1s.5-1.1,1.1-1.1,1.1.5,1.1,1.1-.5,1.1-1.1,1.1ZM1405.8,726.9c-.4,0-.7.3-.7.8s.3.8.7.8.7-.3.7-.8-.3-.8-.7-.8Z"/>
          <path class="st60" d="M1408.4,728.8c-.6,0-1.1-.5-1.1-1.1s.5-1.1,1.1-1.1,1.1.5,1.1,1.1-.5,1.1-1.1,1.1ZM1408.4,726.9c-.4,0-.7.3-.7.8s.3.8.7.8.7-.3.7-.8-.3-.8-.7-.8Z"/>
          <path class="st60" d="M1406.4,731.8v-2.2h.4v2.2h-.4Z"/>
          <path class="st60" d="M1408.4,731.8c-.6,0-1.1-.5-1.1-1.1s.5-1.1,1.1-1.1,1.1.5,1.1,1.1-.5,1.1-1.1,1.1ZM1408.4,729.9c-.4,0-.7.3-.7.8s.3.8.7.8.7-.3.7-.8-.3-.8-.7-.8Z"/>
        </g>
      </g>
    </g>
    <g id="CSWL_SPRING">
      <g class="st55">
        <path class="st56" d="M1294.7,339h-89.9v30.8c8.6-6.8,21.3-10.3,38.2-10.3,24,0,42.2,6.9,54.6,20.5,12.4,13.7,18.6,31.5,18.6,53.3s-1.6,18.4-4.8,27c-3.2,8.6-8,16.6-14.4,24.2-6.4,7.6-15.4,13.6-26.8,18.1-11.5,4.5-24.6,6.8-39.3,7.1h-1.9c-17.3,0-33-3.3-47-10-14-6.6-28.1-16.1-42.2-28.3l35.6-32.7c12.2,7.7,22.1,12.8,29.7,15.4,7.6,2.6,15.4,3.9,23.3,3.9h2.6c9.4,0,17.4-2.6,23.9-7.7,6.5-5.1,9.8-12.2,9.8-21.2s-3.3-17.1-9.8-22.3c-6.5-5.2-15.6-7.9-27.1-7.9s-10.8.8-16.4,2.4c-5.6,1.6-9.9,3.2-13,4.8-3.1,1.6-6.6,3.6-10.4,5.9-3.9,2.4-5.9,3.5-6.1,3.5l-25-19.3v-108.8h138.1v51.4Z"/>
      </g>
      <path class="st61" d="M1294.7,322.6h-89.9v30.8c8.6-6.8,21.3-10.3,38.2-10.3,24,0,42.2,6.9,54.6,20.5,12.4,13.7,18.6,31.5,18.6,53.3s-1.6,18.4-4.8,27c-3.2,8.6-8,16.6-14.4,24.2-6.4,7.6-15.4,13.6-26.8,18.1-11.5,4.5-24.6,6.8-39.3,7.1h-1.9c-17.3,0-33-3.3-47-10-14-6.6-28.1-16.1-42.2-28.3l35.6-32.7c12.2,7.7,22.1,12.8,29.7,15.4,7.6,2.6,15.4,3.9,23.3,3.9h2.6c9.4,0,17.4-2.6,23.9-7.7,6.5-5.1,9.8-12.2,9.8-21.2s-3.3-17.1-9.8-22.3c-6.5-5.2-15.6-7.9-27.1-7.9s-10.8.8-16.4,2.4c-5.6,1.6-9.9,3.2-13,4.8-3.1,1.6-6.6,3.6-10.4,5.9-3.9,2.4-5.9,3.5-6.1,3.5l-25-19.3v-108.8h138.1v51.4Z"/>
      <g>
        <line class="st32" x1="766.1" y1="487.7" x2="766.1" y2="487.7"/>
        <line class="st32" x1="766.1" y1="490.9" x2="766.1" y2="490.9"/>
      </g>
      <g>
        <path class="st68" d="M400.5,191.2c-5.3-3.8-10.9-7.3-16-11.4-13.3-10.8-23-24.3-29.1-40.3-1.8-4.8-3-9.8-4.4-14.7-.2-.6,0-1.4.3-1.9.2-.4,1.1-.6,1.5-.5.5.2,1.1.8,1.2,1.3.6,1.9.9,3.8,1.4,5.7,5.4,19.1,15.7,35.1,31,47.8,3.2,2.7,6.7,5.1,10.2,7.4,5,3.3,10.1,6.5,15.2,9.6,6.8,4.1,15,2.7,20.3-3.1,6.1-6.8,5-18.1-2.5-23.3-4.6-3.2-9.4-6.1-14.3-9.1-8.1-4.9-15.1-11.1-20.4-19-.2-.3-.4-.6-.6-.9-.5-.9-.3-1.8.5-2.3.7-.5,1.7-.3,2.2.5,1,1.4,2,2.8,3,4.2,4.5,5.7,10,10.4,16.1,14.2,5.2,3.2,10.4,6.3,15.4,9.8,8.3,5.8,10.2,17.9,4.4,26.3-6,8.7-17.4,11-26.4,5.4-3.1-1.9-6.1-3.8-9.2-5.8,0,0-.1.2-.2.3Z"/>
        <path class="st68" d="M391.3,206.3c-5.6-3.9-11.2-7.7-16.7-11.8-5.7-4.3-10.7-9.4-15.4-14.8-.8-1-.8-1.9,0-2.6.7-.6,1.7-.5,2.5.4,8.1,9.4,17.5,17.2,28.1,23.6,4.4,2.7,8.6,5.5,13,8.1,14.1,8.5,32,5.6,42.8-6.8,12.4-14.1,10.5-36.4-4.1-48-3.9-3.1-8.4-5.6-12.6-8.3-.4-.3-.8-.5-1.2-.8-.7-.6-.9-1.3-.4-2.2.5-.8,1.3-1,2.2-.6.6.3,1.1.6,1.6,1,3.5,2.3,7.2,4.4,10.6,6.8,13.4,9.3,19,27.6,13.2,42.9-7.4,19.5-28.5,29.1-48.1,21.7-2.6-1-5.1-2.5-7.5-3.9-2.7-1.5-5.3-3.3-7.9-4.9,0,0-.1.2-.2.2Z"/>
        <path class="st68" d="M435.4,139.6c-3.1-2-6.4-3.8-9.4-6-11-8.1-16.1-19.1-15.4-32.7,0-1.4,1-2.2,2.1-1.9,1.1.3,1.3,1.1,1.2,2.2-.4,5.4.5,10.6,2.6,15.6,2.9,6.8,7.6,12,13.9,15.8,5.4,3.3,10.9,6.7,16.1,10.2,16.9,11.5,23.9,34.1,16.7,53.2-3.9,10.3-10.5,18.3-20,23.9-.4.3-1,.6-1.4.5-.6-.2-1.3-.6-1.6-1.1-.4-.7,0-1.5.7-2,1.7-1.1,3.4-2.1,5-3.3,21.5-16.3,22.5-48.4,2-65.9-3.8-3.3-8.3-5.9-12.4-8.8,0,0,0,0,0,.1Z"/>
        <path class="st68" d="M404.9,183.5c-4.9-3.5-9.9-7-14.8-10.6-.7-.5-1.3-1-1.8-1.6-.8-.8-.9-1.7-.2-2.4.6-.7,1.6-.7,2.4,0,7.9,7,17.2,11.9,26.1,17.6,3.2,2,7.1,1.3,9.3-1.5,2.3-2.9,2.2-6.8-.3-9.5-.6-.7-1.4-1.2-2.2-1.7-5.7-3.6-11.6-7-17.1-10.9-19.3-13.8-29.5-32.6-30.9-56.2,0-1.3.6-2,1.6-2.1,1,0,1.7.7,1.7,2.1.6,11.7,3.8,22.7,9.9,32.7,5.8,9.7,13.7,17.3,23.2,23.3,4.7,2.9,9.4,5.8,14,8.8,6.6,4.2,6.7,13.7.1,17.7-3.8,2.4-7.7,2.3-11.5,0-3.1-1.9-6.2-3.9-9.4-5.9,0,0-.1.2-.2.2Z"/>
        <path class="st68" d="M433.1,251.2c-.2-.7-.6-1.3-.5-1.8.1-.5.6-1,1.1-1.3.5-.3,1.2-.3,1.8-.4,16.3-3.8,29.6-12.3,39.7-25.7,18.9-24.9,18.6-59.5-.7-84.1-.1-.1-.2-.3-.3-.4-.8-1-.7-1.9,0-2.5.8-.7,1.8-.5,2.6.5,6,7.5,10.3,15.8,12.9,25,5.1,18.3,3.6,36.1-5.2,52.9-10.5,20.2-27,32.7-49.2,37.8-.6.1-1.3,0-2.2.1Z"/>
        <path class="st68" d="M475.4,211.8c-.4.6-.7,1.1-1.1,1.7-.6.9-1.5,1.1-2.3.7-.8-.4-1.1-1.5-.6-2.4.8-1.5,1.7-2.9,2.4-4.3,12.3-24.1,6.6-54.1-13.7-72-2.8-2.5-5.9-4.6-9.1-6.7-5-3.3-10.3-6.3-15.2-9.8-4.7-3.3-7.1-8.1-7.7-13.8-.1-1.2.4-2,1.4-2.1,1-.1,1.8.5,1.9,1.8.6,5.5,3.3,9.7,8,12.7,5.6,3.5,11.3,6.9,16.8,10.6,23.2,15.6,33.4,46.3,24,72.8-1.3,3.7-3.1,7.3-4.6,11,0,0-.2,0-.2,0Z"/>
        <path class="st68" d="M384.6,212.1c-5.5-3.3-11.9-7.6-17.9-12.7-13.6-11.5-24.3-25.3-32.1-41.3-.6-1.2-.3-2.1.6-2.5,1-.5,1.8,0,2.4,1.2,6.4,13.2,14.9,24.9,25.6,35.1,6.1,5.9,12.9,11,20.1,15.5,5.3,3.3,10.5,6.8,16,9.9,10.4,6,21.5,7.1,33,3.9.4-.1.8-.3,1.2-.3.9-.1,1.6.3,1.9,1.2.2.9-.1,1.5-.9,1.9-.3.1-.5.2-.8.3-13.2,3.8-25.7,2.2-37.5-4.9-3.5-2.1-6.9-4.3-11.5-7.2Z"/>
        <path class="st68" d="M376.3,228.1c-5.7-4-11.4-8-17.1-12-.3-.2-.7-.5-.9-.8-.6-.7-.5-1.5.1-2.1.6-.7,1.4-.8,2.1-.2,1.1.8,2.1,1.6,3.2,2.4,9.1,6.7,18.4,12.9,28.4,18.1,19.9,10.3,39.8,9.6,59.3-1.6,5.3-3,9.9-7,13.9-11.6.9-1,1.9-1.2,2.7-.5.8.7.7,1.7-.2,2.7-17.8,20-46.1,26.8-70.9,16.9-4.3-1.7-8.3-3.9-12.1-6.3-2.8-1.8-5.5-3.5-8.3-5.2,0,0-.1.2-.2.2Z"/>
        <path class="st68" d="M404,232.6c-.9-.6-1.1-1.3-.8-2.1.4-.9,1.1-1.2,2-1,1.5.3,2.9.8,4.4,1.1,19.9,3.6,36.7-2,49.8-17.3,10.5-12.3,14-26.7,11.1-42.7,0-.4-.2-.7-.2-1.1,0-.9.5-1.4,1.4-1.6.8-.1,1.4.2,1.8,1,.1.3.2.6.2,1,3,16.2-.4,31-10.5,44-13.7,17.8-36.4,25.1-57.9,19.2-.5-.1-1.1-.3-1.4-.4Z"/>
        <path class="st68" d="M393.1,100c.6-.2,1.3-.6,1.8-.4.5.1,1,.8,1.3,1.3.2.3,0,.8,0,1.2-.1,17.2,6.4,31.3,19.9,42.1,2.9,2.3,6.1,4.1,9.2,6.1,3.9,2.5,8,4.7,11.7,7.5,8.9,6.7,12.5,15.8,11.2,26.8-.2,1.3-.9,1.9-2,1.7-1-.2-1.5-1-1.3-2.2,1.3-10.9-2.8-19.3-12-25.2-5.4-3.5-11.1-6.6-16.3-10.4-16.1-11.5-23.8-27.2-23.6-46.9,0-.5.1-.9.2-1.6Z"/>
        <path class="st68" d="M409.4,175.5c-5.2-3.2-10.4-6.5-15.1-10.6-12.4-10.8-20.9-24.1-25.1-40-1.2-4.4-1.7-9-2.5-13.4,0-.3,0-.7,0-1,.1-.8.6-1.3,1.4-1.4.9,0,1.5.3,1.8,1.1,0,.3.1.7.1,1,2.2,20.7,11.1,37.9,26.8,51.5,3.2,2.8,6.7,5.1,10.3,7.4,4.3,2.9,8.7,5.5,13.1,8.2.2.2.5.3.7.5.9.6,1.2,1.5.7,2.4-.5.8-1.4,1-2.4.5-1.3-.8-2.5-1.6-3.7-2.3-2-1.3-4.1-2.5-6.1-3.8Z"/>
        <path class="st68" d="M379.8,219.6c-5.2-3.2-11.4-7.2-17.1-11.9-11.7-9.5-21.5-20.6-29.4-33.4-.7-1.1-.5-2.1.4-2.6.9-.5,1.8-.2,2.5.9,6.5,10.5,14.2,19.8,23.4,28,6,5.4,12.5,10.2,19.4,14.5,5.8,3.6,11.6,7.2,17.5,10.8,1,.6,1.3,1.4.8,2.3-.5.9-1.4,1.1-2.4.6-1.3-.7-2.5-1.4-3.7-2.2-3.4-2.1-6.8-4.3-11.3-7.1Z"/>
        <path class="st68" d="M468.6,162.3c-.4-.6-.7-1-.9-1.4-4.4-10.6-11.5-18.7-21.2-24.7-5.3-3.2-10.6-6.4-15.6-10-8-5.8-11.7-13.9-11.5-23.8,0-1.3.7-2,1.7-2,1,0,1.6.8,1.6,2.1-.2,9.8,4,17.4,12.3,22.6,5.5,3.5,11,6.8,16.4,10.4,8.9,6,15.3,14.1,19.4,24,.4.8.5,1.7-.3,2.3-.5.3-1.2.3-1.9.5Z"/>
        <path class="st68" d="M385.6,191.8c-20.3-14.5-34.2-33.8-41.4-58-.4-1.3,0-2.2,1-2.5,1-.3,1.8.3,2.2,1.6,4.6,15.4,12.2,29.1,23,41,5.4,5.9,11.4,11.1,17.9,15.6,1.2.8,1.5,1.8.9,2.7-.6.9-1.5.9-2.7.1-.2-.2-.5-.3-.9-.6Z"/>
        <path class="st68" d="M376.1,238.1c-3.1-2-6.2-3.9-9.3-5.9-.3-.2-.7-.4-1-.7-.6-.6-.7-1.4-.2-2,.4-.4,1.2-.6,1.8-.7.4,0,.8.4,1.2.6,5.6,3.5,11.1,7.1,16.8,10.4,12,7.1,25,10.1,38.9,9.4.4,0,.7,0,1.1,0,.9,0,1.4.7,1.5,1.5,0,.9-.4,1.5-1.3,1.7-.3,0-.7,0-1,.1-13.1.7-25.5-1.7-37.2-7.8-3.9-2-7.6-4.4-11.3-6.6,0,0,0,0,0-.1Z"/>
        <path class="st68" d="M401.1,201.7c-2.1-1.3-4.1-2.6-6.2-3.9-1.1-.7-1.4-1.6-.9-2.5.6-.9,1.5-1.1,2.7-.3,3.5,2.2,7,4.5,10.6,6.6,12.2,7.3,27.4,3.3,34.5-8.9.7-1.2,1.6-1.6,2.5-1,.9.5,1.1,1.5.4,2.6-6.1,10.1-15,14.8-26.7,14.3-4.6-.2-8.9-1.7-12.8-4.2-1.4-.9-2.7-1.7-4.1-2.6Z"/>
        <path class="st68" d="M358.5,115.5c.7-.2,1.3-.6,1.8-.5.5.1,1.1.7,1.3,1.2.3.6.3,1.4.4,2.2,2.9,16.6,10,31.2,21.3,43.7.1.2.3.3.4.5.7.8.7,1.8,0,2.5-.7.6-1.7.6-2.4-.2-1.5-1.6-2.9-3.3-4.3-5-9.9-12.5-16.1-26.6-18.5-42.4,0-.6,0-1.1,0-1.9Z"/>
        <path class="st68" d="M418.4,139.1c-3.7-3-6.8-6.5-9.4-10.5-5.4-8.4-7.8-17.5-7.4-27.5,0-.4,0-.9.2-1.3.3-.8.9-1.3,1.7-1.2.9.1,1.4.6,1.5,1.5,0,.2,0,.4,0,.5-.7,14.3,4.4,26.1,15.2,35.6.9.8,1.1,1.7.4,2.5-.6.7-1.5.8-2.3.3Z"/>
        <path class="st68" d="M454.6,116.6c4,2.5,9.2,5.7,13.7,9.8.7.6,1.4,1.3,2.1,1.9.7.7.8,1.7.2,2.4-.6.7-1.6.8-2.4,0-7.6-7.4-17-12.2-25.8-17.9-.3-.2-.6-.4-.8-.6-.6-.6-.7-1.3-.2-2,.4-.7,1.1-1,1.9-.7.3.1.7.3,1,.5,3.1,1.9,6.1,3.8,10.3,6.5Z"/>
        <path class="st68" d="M338.3,142.9c.7-.3,1.3-.7,1.7-.6.6.2,1.3.6,1.5,1.2,1.1,2.4,2,4.8,3,7.2,3.1,6.8,6.8,13.3,11.2,19.4.4.5.6,1.4.4,2-.3,1.3-2.1,1.4-3,.1-1.8-2.7-3.7-5.3-5.4-8.1-3.7-6-6.8-12.4-9.3-19-.2-.6-.2-1.3-.4-2.1Z"/>
        <path class="st68" d="M384.1,102c.6-.2,1.2-.6,1.8-.5.5,0,1,.7,1.3,1.1.2.2,0,.6,0,1,0,8.7,1.8,17,5.4,25,.3.6.3,1.5,0,2-.7,1.2-2.4.9-2.9-.6-1.4-3.7-2.8-7.4-3.9-11.1-1.4-4.9-1.9-10-1.9-15.2,0-.5,0-1,.1-1.7Z"/>
        <path class="st68" d="M351.4,209.6c-1.7-1.7-3.6-3.3-5.4-5.2-3-3.2-5.8-6.4-8.8-9.6,0-.1-.2-.2-.3-.3-.7-.9-.7-1.9.1-2.5.8-.6,1.7-.4,2.4.4,2.5,2.8,5,5.7,7.7,8.5,1.9,2,3.9,3.8,5.8,5.7.2.2.5.4.7.7.6.8.5,1.5-.1,2.2-.6.6-1.4.6-2.3.1Z"/>
      </g>
      <g>
        <path class="st78" d="M945.8,380.4c-5,7-9.6,14.4-15.1,21-14.3,17.5-32.1,30.3-53.2,38.3-6.3,2.4-12.9,4-19.3,5.8-.8.2-1.9,0-2.5-.4-.5-.3-.8-1.5-.6-2,.3-.7,1.1-1.4,1.8-1.6,2.5-.7,5-1.2,7.5-1.9,25.2-7.1,46.2-20.7,63-40.8,3.5-4.2,6.7-8.8,9.7-13.4,4.3-6.6,8.6-13.3,12.6-20.1,5.4-8.9,3.6-19.7-4.1-26.7-8.9-8.1-23.9-6.6-30.7,3.3-4.2,6.1-8.1,12.4-11.9,18.8-6.5,10.7-14.7,19.8-25.1,26.9-.4.3-.8.6-1.2.8-1.2.7-2.4.4-3.1-.7-.6-1-.4-2.2.6-3,1.8-1.4,3.7-2.6,5.5-4,7.6-5.9,13.7-13.1,18.8-21.3,4.2-6.8,8.3-13.7,12.9-20.3,7.7-11,23.6-13.5,34.6-5.8,11.5,8,14.5,22.9,7.2,34.8-2.5,4-5.1,8.1-7.6,12.1.1,0,.2.2.3.2Z"/>
        <path class="st78" d="M965.7,392.5c-5.2,7.3-10.1,14.8-15.5,22-5.7,7.5-12.3,14.2-19.5,20.3-1.3,1.1-2.6,1.1-3.5,0-.8-1-.6-2.3.6-3.3,12.4-10.6,22.6-23.1,31.1-37.1,3.5-5.8,7.2-11.4,10.7-17.2,11.1-18.6,7.4-42.1-8.9-56.5-18.6-16.3-48-13.9-63.3,5.5-4.1,5.2-7.3,11.1-11,16.6-.3.5-.6,1.1-1,1.6-.8,1-1.8,1.2-2.8.6-1-.6-1.4-1.8-.8-2.9.4-.7.9-1.4,1.3-2.1,3-4.7,5.8-9.4,8.9-14,12.2-17.7,36.4-25.1,56.5-17.4,25.7,9.8,38.3,37.6,28.6,63.4-1.3,3.5-3.3,6.7-5.2,9.9-2,3.5-4.3,6.9-6.5,10.4.1,0,.2.2.3.2Z"/>
        <path class="st78" d="M877.9,334.4c-2.6,4.2-5,8.5-7.9,12.4-10.7,14.5-25.2,21.2-43.1,20.3-1.8,0-2.9-1.3-2.5-2.7.4-1.4,1.5-1.7,2.9-1.6,7.1.5,14-.6,20.6-3.4,8.9-3.8,15.8-10.1,20.9-18.3,4.4-7.1,8.8-14.3,13.5-21.3,15.1-22.3,44.9-31.6,70.2-22.1,13.6,5.1,24.1,13.9,31.5,26.4.3.6.8,1.3.7,1.8-.2.8-.8,1.7-1.4,2.1-1,.6-1.9,0-2.6-1-1.4-2.2-2.8-4.5-4.3-6.5-21.5-28.3-63.8-29.6-86.9-2.6-4.3,5.1-7.7,10.9-11.5,16.4,0,0,.1,0,.2.1Z"/>
        <path class="st78" d="M935.7,374.7c-4.6,6.5-9.3,13-13.9,19.5-.6.9-1.3,1.7-2.1,2.4-1,1.1-2.3,1.1-3.2.2-.9-.8-1-2.1,0-3.1,9.2-10.5,15.7-22.7,23.2-34.3,2.7-4.2,1.7-9.4-1.9-12.2-3.8-3.1-9-3-12.5.4-.9.8-1.6,1.9-2.2,2.9-4.8,7.5-9.2,15.3-14.4,22.6-18.1,25.4-43,38.9-74.1,40.7-1.7.1-2.7-.7-2.7-2.1,0-1.4.9-2.2,2.8-2.3,15.5-.7,29.9-5,43.1-13.1,12.7-7.7,22.9-18,30.7-30.6,3.8-6.2,7.7-12.4,11.6-18.5,5.6-8.7,18-8.8,23.4-.2,3.1,5,3,10.1-.1,15.1-2.6,4.1-5.2,8.2-7.7,12.3.1,0,.2.2.3.2Z"/>
        <path class="st78" d="M1025,337.4c-.9.3-1.8.8-2.4.6-.7-.2-1.4-.8-1.7-1.5-.4-.7-.4-1.6-.6-2.4-5-21.5-16.3-39-33.9-52.4-32.8-24.9-78.4-24.5-110.9.9-.2.1-.4.3-.6.4-1.3,1-2.5,1-3.3,0-.9-1.1-.7-2.3.7-3.4,9.9-7.8,20.9-13.6,33-17,24.1-6.7,47.5-4.7,69.8,6.9,26.6,13.8,43.2,35.6,49.8,64.9.2.9.1,1.8.2,2.9Z"/>
        <path class="st78" d="M973,281.6c.7.5,1.5.9,2.2,1.4,1.2.8,1.5,2,.9,3-.6,1.1-1.9,1.4-3.2.7-1.9-1-3.8-2.2-5.7-3.2-31.7-16.3-71.3-8.8-94.9,18.1-3.3,3.7-6.1,7.8-8.8,11.9-4.4,6.6-8.3,13.6-12.9,20.1-4.3,6.2-10.7,9.4-18.2,10.1-1.6.2-2.6-.6-2.8-1.9-.2-1.4.7-2.3,2.4-2.5,7.3-.7,12.8-4.3,16.7-10.5,4.6-7.4,9.2-14.9,14-22.1,20.6-30.6,61.1-44,95.9-31.6,4.9,1.7,9.6,4.1,14.4,6.1,0,.1,0,.2-.1.3Z"/>
        <path class="st78" d="M973.4,401.4c-4.4,7.2-10.1,15.8-16.7,23.6-15.2,18-33.3,32.1-54.5,42.3-1.5.7-2.8.4-3.4-.8-.6-1.3,0-2.4,1.6-3.2,17.5-8.4,32.9-19.7,46.3-33.7,7.7-8.1,14.5-16.9,20.4-26.4,4.4-7,8.9-13.9,13-21,7.9-13.7,9.4-28.3,5.1-43.5-.1-.5-.4-1-.4-1.5-.2-1.2.4-2.1,1.6-2.4,1.1-.3,2,.2,2.5,1.2.2.3.3.7.4,1.1,5,17.4,2.9,33.9-6.4,49.4-2.8,4.6-5.7,9.1-9.5,15.2Z"/>
        <path class="st78" d="M994.5,412.4c-5.3,7.5-10.5,15-15.8,22.5-.3.4-.6.9-1.1,1.2-.9.7-1.9.6-2.8-.1-.9-.8-1-1.8-.3-2.8,1-1.4,2.1-2.8,3.1-4.2,8.8-11.9,17-24.3,23.8-37.4,13.6-26.2,12.6-52.5-2.1-78.2-4-7-9.3-13-15.3-18.4-1.3-1.2-1.6-2.5-.7-3.5,1-1,2.3-.9,3.6.2,26.4,23.5,35.3,60.7,22.3,93.5-2.2,5.6-5.1,10.9-8.4,15.9-2.3,3.6-4.6,7.3-6.9,11,.1,0,.2.1.3.2Z"/>
        <path class="st78" d="M1000.4,375.7c-.8,1.1-1.7,1.5-2.8,1-1.1-.5-1.6-1.4-1.3-2.6.5-1.9,1.1-3.8,1.5-5.8,4.7-26.2-2.6-48.4-22.8-65.7-16.2-13.9-35.3-18.4-56.3-14.7-.5,0-1,.2-1.4.2-1.2,0-1.9-.7-2.1-1.8-.2-1.1.3-1.9,1.3-2.3.4-.2.8-.2,1.3-.3,21.4-3.9,40.8.5,58,13.8,23.4,18.1,33.1,48,25.3,76.3-.2.7-.4,1.4-.6,1.9Z"/>
        <path class="st78" d="M825.6,390.2c-.2-.8-.7-1.7-.5-2.3.2-.7,1-1.3,1.7-1.7.4-.2,1,0,1.6,0,22.7.2,41.3-8.4,55.5-26.2,3-3.8,5.4-8,8.1-12.1,3.3-5.1,6.2-10.6,9.9-15.4,8.8-11.7,20.8-16.5,35.3-14.7,1.7.2,2.5,1.2,2.3,2.6-.2,1.3-1.3,2-2.9,1.8-14.4-1.7-25.5,3.7-33.3,15.8-4.6,7.1-8.8,14.6-13.7,21.5-15.1,21.2-35.9,31.4-61.9,31.1-.6,0-1.2-.2-2.2-.3Z"/>
        <path class="st78" d="M925.2,368.7c-4.3,6.9-8.6,13.7-13.9,19.9-14.3,16.4-31.8,27.5-52.8,33.1-5.8,1.5-11.8,2.2-17.7,3.3-.4,0-.9.1-1.3,0-1.1-.2-1.8-.8-1.9-1.9-.1-1.1.4-2,1.5-2.3.4-.1.9-.1,1.3-.2,27.2-2.9,50-14.6,67.9-35.3,3.6-4.2,6.7-8.9,9.8-13.5,3.8-5.7,7.3-11.5,10.9-17.2.2-.3.4-.7.6-1,.9-1.2,2-1.6,3.1-.9,1.1.7,1.4,1.9.6,3.2-1,1.7-2.1,3.3-3.1,4.9-1.7,2.7-3.4,5.3-5,8Z"/>
        <path class="st78" d="M983.3,407.6c-4.2,6.8-9.5,15-15.7,22.6-12.5,15.4-27.1,28.3-44,38.7-1.4.9-2.7.7-3.4-.5-.7-1.2-.3-2.4,1.2-3.3,13.8-8.5,26.1-18.8,37-30.8,7.2-7.9,13.5-16.5,19.1-25.6,4.8-7.7,9.5-15.4,14.2-23,.8-1.3,1.9-1.7,3-1.1,1.1.6,1.5,1.8.8,3.1-.9,1.7-1.8,3.3-2.8,4.9-2.8,4.5-5.6,9-9.3,14.9Z"/>
        <path class="st78" d="M907.8,290.7c-.8.5-1.3.9-1.9,1.1-13.9,5.8-24.6,15.2-32.5,28-4.3,6.9-8.4,14-13.1,20.6-7.7,10.6-18.4,15.4-31.4,15.1-1.7,0-2.6-.9-2.6-2.3,0-1.4,1-2.1,2.7-2.1,13,.2,22.9-5.2,29.8-16.2,4.6-7.2,9-14.6,13.7-21.6,7.9-11.7,18.6-20.1,31.7-25.6,1.1-.5,2.3-.7,3,.4.4.7.4,1.6.6,2.5Z"/>
        <path class="st78" d="M946.7,400c-19.1,26.8-44.6,45.1-76.4,54.6-1.7.5-2.9,0-3.3-1.4-.4-1.3.4-2.4,2.1-2.9,20.3-6,38.4-16.1,54.1-30.3,7.8-7.1,14.6-15,20.6-23.6,1.1-1.6,2.3-2,3.5-1.2,1.1.8,1.2,2,.2,3.6-.2.3-.4.7-.8,1.2Z"/>
        <path class="st78" d="M1007.6,412.6c-2.6,4.1-5.2,8.2-7.7,12.3-.3.4-.6.9-.9,1.3-.8.8-1.9,1-2.6.3-.6-.5-.8-1.5-.9-2.4,0-.5.5-1.1.8-1.6,4.6-7.4,9.3-14.6,13.8-22.1,9.4-15.8,13.4-32.9,12.4-51.2,0-.5,0-1,0-1.4.1-1.2.9-1.8,2-1.9,1.2,0,1.9.5,2.2,1.7.1.4.1.9.1,1.3,1,17.3-2.3,33.7-10.3,49-2.7,5.1-5.8,10-8.7,15,0,0,0,0-.1,0Z"/>
        <path class="st78" d="M959.6,379.6c-1.7,2.7-3.4,5.4-5.1,8.1-.9,1.5-2.1,1.9-3.2,1.2-1.2-.7-1.4-2-.4-3.5,2.9-4.7,5.9-9.3,8.7-14,9.6-16,4.3-36.1-11.8-45.4-1.6-.9-2.1-2.1-1.4-3.3.7-1.2,1.9-1.5,3.4-.6,13.3,8,19.5,19.8,18.8,35.2-.3,6.1-2.3,11.7-5.5,16.8-1.1,1.8-2.3,3.6-3.4,5.4Z"/>
        <path class="st78" d="M846,435.7c-.3-.9-.8-1.7-.7-2.4.2-.7.9-1.4,1.6-1.8.8-.4,1.9-.4,2.8-.5,21.9-3.9,41.1-13.2,57.6-28.1.2-.2.4-.4.7-.6,1.1-.9,2.4-.9,3.2,0,.8.9.8,2.3-.3,3.2-2.2,1.9-4.3,3.9-6.6,5.7-16.5,13.1-35.1,21.2-55.8,24.4-.7.1-1.5,0-2.6,0Z"/>
        <path class="st78" d="M877.2,356.8c-4,4.9-8.6,9-13.8,12.3-11,7.1-23.1,10.3-36.2,9.7-.6,0-1.2,0-1.7-.2-1.1-.3-1.7-1.1-1.6-2.3.1-1.1.8-1.8,2-1.9.2,0,.5,0,.7,0,18.9.9,34.5-5.8,46.9-20,1.1-1.2,2.3-1.4,3.3-.6.9.8,1.1,2,.4,3Z"/>
        <path class="st78" d="M847.5,309.1c3.2-5.3,7.5-12.1,12.9-18.1.8-.9,1.7-1.9,2.6-2.8,1-1,2.3-1,3.1-.2.9.8,1.1,2.1.1,3.1-9.7,10-16,22.5-23.6,34-.2.4-.5.7-.8,1.1-.8.8-1.7.9-2.7.3-.9-.6-1.3-1.5-.9-2.5.2-.4.4-.9.7-1.3,2.5-4,5.1-8.1,8.5-13.6Z"/>
        <path class="st78" d="M882.1,462.4c-.4-.9-1-1.7-.8-2.3.2-.8.8-1.7,1.5-2,3.1-1.4,6.4-2.6,9.5-4,9-4.1,17.5-9,25.5-14.7.7-.5,1.9-.8,2.6-.6,1.7.5,1.8,2.8.1,3.9-3.5,2.4-7,4.8-10.7,7.1-7.9,4.9-16.3,8.9-25.1,12.2-.8.3-1.7.3-2.8.5Z"/>
        <path class="st78" d="M828.3,402c-.2-.8-.8-1.6-.6-2.3.1-.7.9-1.3,1.5-1.7.3-.2.8-.1,1.3-.1,11.5,0,22.4-2.4,32.9-7.1.8-.3,2-.4,2.7,0,1.6.9,1.2,3.1-.7,3.8-4.9,1.8-9.7,3.7-14.7,5.1-6.5,1.9-13.2,2.5-20,2.5-.7,0-1.3-.1-2.3-.2Z"/>
        <path class="st78" d="M970.1,445.1c-2.2,2.3-4.4,4.8-6.8,7.1-4.2,3.9-8.4,7.7-12.7,11.5-.1.1-.3.2-.5.4-1.3.9-2.5.9-3.3-.2-.8-1-.6-2.2.6-3.2,3.8-3.4,7.6-6.6,11.2-10.1,2.6-2.5,5-5.1,7.5-7.7.3-.3.6-.7.9-.9,1-.7,2-.7,2.9.1.8.8.8,1.8.2,3Z"/>
      </g>
      <g>
        <text class="st75" transform="translate(693.3 265.3) rotate(-10.4)"><tspan x="0" y="0">42</tspan></text>
        <text class="st54" transform="translate(696.2 266.9) rotate(-10.4)"><tspan x="0" y="0">42</tspan></text>
      </g>
      <g>
        <rect class="st37" x="319.8" y="314" width="43.8" height="11.8"/>
        <g>
          <rect class="st36" x="328.8" y="276" width="45.7" height="18.9"/>
          <g>
            <rect class="st31" x="344.2" y="349.2" width="45.7" height="18.9"/>
            <rect class="st36" x="344.2" y="349.2" width="45.7" height="18.9"/>
          </g>
          <g>
            <rect class="st40" x="391.4" y="332.2" width="45.7" height="9.4"/>
            <rect class="st31" x="391.4" y="332.2" width="45.7" height="9.4"/>
          </g>
          <rect class="st31" x="396.6" y="315.2" width="45.7" height="9.4"/>
          <g>
            <rect class="st39" x="359.2" y="263.8" width="26.3" height="7.1"/>
            <rect class="st31" x="359.2" y="263.8" width="26.3" height="7.1"/>
          </g>
          <g>
            <polygon class="st70" points="372.9 350.4 374.2 354.6 378.7 354.6 375.1 357.3 376.5 361.5 372.9 358.9 369.2 361.5 370.6 357.3 367 354.6 371.5 354.6 372.9 350.4"/>
            <polygon class="st70" points="372.9 266 374.2 270.3 378.7 270.3 375.1 272.9 376.5 277.2 372.9 274.6 369.2 277.2 370.6 272.9 367 270.3 371.5 270.3 372.9 266"/>
            <polygon class="st70" points="351.6 271.6 353 275.9 357.5 275.9 353.9 278.5 355.3 282.8 351.6 280.1 348 282.8 349.4 278.5 345.8 275.9 350.3 275.9 351.6 271.6"/>
            <polygon class="st70" points="351.6 343.8 353 348 357.5 348 353.9 350.7 355.3 354.9 351.6 352.3 348 354.9 349.4 350.7 345.8 348 350.3 348 351.6 343.8"/>
            <polygon class="st70" points="393.6 271.6 394.9 275.9 399.4 275.9 395.8 278.5 397.2 282.8 393.6 280.1 389.9 282.8 391.3 278.5 387.7 275.9 392.2 275.9 393.6 271.6"/>
            <polygon class="st70" points="393.6 343.8 394.9 348 399.4 348 395.8 350.7 397.2 354.9 393.6 352.3 389.9 354.9 391.3 350.7 387.7 348 392.2 348 393.6 343.8"/>
            <polygon class="st70" points="337.2 328.7 338.6 333 343.1 333 339.5 335.7 340.9 339.9 337.2 337.3 333.6 339.9 335 335.7 331.4 333 335.8 333 337.2 328.7"/>
            <polygon class="st70" points="337.2 287.6 338.6 291.9 343.1 291.9 339.5 294.5 340.9 298.8 337.2 296.2 333.6 298.8 335 294.5 331.4 291.9 335.8 291.9 337.2 287.6"/>
            <polygon class="st70" points="408.4 328.7 409.8 333 414.3 333 410.6 335.7 412 339.9 408.4 337.3 404.7 339.9 406.1 335.7 402.5 333 407 333 408.4 328.7"/>
            <polygon class="st70" points="408.4 287.6 409.8 291.9 414.3 291.9 410.6 294.5 412 298.8 408.4 296.2 404.7 298.8 406.1 294.5 402.5 291.9 407 291.9 408.4 287.6"/>
            <polygon class="st70" points="331.4 308.5 332.7 312.8 337.2 312.8 333.6 315.4 335 319.7 331.4 317 327.7 319.7 329.1 315.4 325.5 312.8 330 312.8 331.4 308.5"/>
            <polygon class="st70" points="414.3 308.5 415.6 312.8 420.1 312.8 416.5 315.4 417.9 319.7 414.3 317 410.6 319.7 412 315.4 408.4 312.8 412.9 312.8 414.3 308.5"/>
          </g>
        </g>
      </g>
      <g>
        <g>
          <rect class="st60" x="878" y="350.6" width="90.8" height="60.1"/>
          <path class="st76" d="M967.6,351.9v57.7h-88.3v-57.7h88.3M970.1,349.4h-93.3v62.6h93.3v-62.6h0Z"/>
        </g>
        <g>
          <rect class="st60" x="878" y="350.6" width="90.8" height="60.1"/>
          <path class="st76" d="M967.6,351.9v57.7h-88.3v-57.7h88.3M970.1,349.4h-93.3v62.6h93.3v-62.6h0Z"/>
        </g>
        <g>
          <path class="st71" d="M906.7,380.8v2.7l2.6-.8.4,1.4-2.6.8,1.7,2.2-1.1.9-1.6-2.2-1.6,2.2-1.2-.7,1.6-2.3-2.7-.8.4-1.4,2.6.8v-2.7h1.4Z"/>
          <path class="st71" d="M915.4,380.8v2.7l2.6-.8.4,1.4-2.6.8,1.7,2.2-1.1.9-1.6-2.2-1.6,2.2-1.2-.7,1.6-2.3-2.7-.8.4-1.4,2.6.8v-2.7h1.4Z"/>
          <path class="st71" d="M924.1,380.8v2.7l2.6-.8.4,1.4-2.6.8,1.7,2.2-1.1.9-1.6-2.2-1.6,2.2-1.2-.7,1.6-2.3-2.7-.8.4-1.4,2.6.8v-2.7h1.4Z"/>
          <path class="st71" d="M932.8,380.8v2.7l2.6-.8.4,1.4-2.6.8,1.7,2.2-1.1.9-1.6-2.2-1.6,2.2-1.2-.7,1.6-2.3-2.7-.8.4-1.4,2.6.8v-2.7h1.4Z"/>
          <path class="st71" d="M941.5,380.8v2.7l2.6-.8.4,1.4-2.6.8,1.7,2.2-1.1.9-1.6-2.2-1.6,2.2-1.2-.7,1.6-2.3-2.7-.8.4-1.4,2.6.8v-2.7h1.4Z"/>
        </g>
        <rect class="st7" x="889.7" y="378.2" width="67.5" height="12.2"/>
        <line class="st17" x1="904.1" y1="367.6" x2="942.7" y2="367.6"/>
      </g>
      <path class="st66" d="M680.5,150l8.9,8.9c-4.9,4.9-12.9,4.9-17.8,0-4.9-4.9-4.9-12.9,0-17.8,4.9-4.9,12.9-4.9,17.8,0l-8.9,8.9Z"/>
      <g>
        <line class="st9" x1="689.9" y1="150" x2="689.9" y2="150"/>
        <line class="st18" x1="698.9" y1="150" x2="906.8" y2="150"/>
        <line class="st9" x1="906.8" y1="150" x2="906.8" y2="150"/>
      </g>
      <path class="st51" d="M1218.9,311.1h-151.1V82.1h55.6v176.3h95.5v52.7Z"/>
      <g>
        <g>
          <polygon class="st38" points="879.7 319.4 859.9 339.2 859.9 385.9 911.2 385.9 911.2 319.4 879.7 319.4"/>
          <polyline class="st26" points="859.9 339.2 880.8 339.2 880.8 319.4"/>
        </g>
        <g>
          <rect class="st41" x="868" y="355.4" width="35.1" height="8.3" transform="translate(5.1 731.5) rotate(-45)"/>
          <rect class="st41" x="868" y="355.4" width="35.1" height="8.3" transform="translate(513.6 -520.9) rotate(45)"/>
        </g>
      </g>
      <g>
        <path class="st3" d="M692.7,286.4c22.4-22.4,49.3-33.5,81-33.5s58.7,11.2,81.1,33.5c22.5,22.4,33.7,49.3,33.7,81s-11.2,58.6-33.5,81c-22.4,22.4-49.5,33.5-81.3,33.5s-58.9-11.2-81.1-33.5c-22.2-22.4-33.4-49.3-33.4-81s11.2-58.6,33.5-81Z"/>
        <path class="st15" d="M773.7,305.6c-16.8,0-30.7,5.7-41.9,17-11.1,11.3-16.7,26.3-16.7,44.8s5.6,33.5,16.7,44.8c11.1,11.3,25.1,17,41.9,17s31.1-5.7,42.2-17c11.1-11.3,16.7-26.3,16.7-44.8s-5.6-33.5-16.7-44.8c-11.1-11.3-25.2-17-42.2-17Z"/>
      </g>
      <g>
        <g>
          <g>
            <g>
              <rect class="st60" x="450.7" y="141.1" width="115.3" height="76.4"/>
              <rect class="st60" x="450.7" y="158.2" width="115.3" height="59.3"/>
              <path class="st66" d="M564.5,142.7v73.2h-112.2v-73.2h112.2M567.6,139.5h-118.5v79.5h118.5v-79.5h0Z"/>
            </g>
            <line class="st27" x1="451.2" y1="158.2" x2="566.3" y2="158.2"/>
          </g>
          <circle class="st66" cx="459.9" cy="150" r="3.3"/>
          <rect class="st66" x="554.3" y="151.1" width="7.9" height="2.2"/>
        </g>
        <g>
          <rect class="st77" x="493.8" y="192.8" width="10" height="10"/>
          <rect class="st77" x="513.8" y="172.9" width="10" height="10"/>
          <rect class="st62" x="493.8" y="172.9" width="10" height="10"/>
          <rect class="st62" x="513.8" y="192.8" width="10" height="10"/>
          <rect class="st62" x="523.8" y="202.8" width="10" height="10"/>
          <rect class="st77" x="523.8" y="162.9" width="10" height="10"/>
          <rect class="st62" x="483.8" y="162.9" width="10" height="10"/>
          <rect class="st77" x="483.8" y="202.5" width="10" height="10"/>
        </g>
      </g>
      <g>
        <path class="st51" d="M605.1,507.9h-175.3v-33.7l90.9-74.6c17.7-13.7,26.5-26.2,26.5-37.3s-2.7-15.9-8-20.8c-5.3-4.9-12.5-7.6-21.4-8h-1.6c-10.7,0-26.1,7.5-46.1,22.6l-36-33.4c30.3-27.7,59.3-41.5,87-41.5h2c17.7.2,32.6,3.8,44.8,10.8,12.2,7,20.9,15.5,26.2,25.7,5.2,10.1,7.9,21.1,7.9,32.9s-5.2,32.1-15.7,46.4c-10.5,14.4-26.2,29.7-47.1,45.8l-15.4,12.8h81.5v52.3Z"/>
        <path class="st51" d="M1076.8,507.9h-175.3v-33.7l90.9-74.6c17.7-13.7,26.5-26.2,26.5-37.3s-2.7-15.9-8-20.8c-5.3-4.9-12.5-7.6-21.4-8h-1.6c-10.7,0-26.1,7.5-46.1,22.6l-36-33.4c30.3-27.7,59.3-41.5,87-41.5h2c17.7.2,32.6,3.8,44.8,10.8,12.2,7,20.9,15.5,26.2,25.7,5.2,10.1,7.9,21.1,7.9,32.9s-5.2,32.1-15.7,46.4c-10.5,14.4-26.2,29.7-47.1,45.8l-15.4,12.8h81.5v52.3Z"/>
        <path class="st51" d="M672,314.7c22.4-22.4,49.3-33.5,81-33.5s58.7,11.2,81.1,33.5c22.5,22.4,33.7,49.3,33.7,81s-11.2,58.6-33.5,81c-22.4,22.4-49.5,33.5-81.3,33.5s-58.9-11.2-81.1-33.5c-22.2-22.4-33.4-49.3-33.4-81s11.2-58.6,33.5-81ZM753,333.9c-16.8,0-30.7,5.7-41.9,17-11.1,11.3-16.7,26.3-16.7,44.8s5.6,33.5,16.7,44.8c11.1,11.3,25.1,17,41.9,17s31.1-5.7,42.2-17c11.1-11.3,16.7-26.3,16.7-44.8s-5.6-33.5-16.7-44.8c-11.1-11.3-25.2-17-42.2-17Z"/>
      </g>
      <g>
        <g class="st81">
          <rect class="st60" x="1072.5" y="14.5" width="175.4" height="267.9"/>
          <g>
            <g>
              <path class="st74" d="M1165.8,214.8s13.9,11.4,20.6.9c0,0,2.3-3.7,2.9-7.7,0,0,0-3.7,3.7-5.6,0,0,.4,5.2,5.3,7.4.4.2.8.3,1.2.3,0,0,0-.3-.7-.7-.9-.5-1.1-.3-1.3-.5-1.1-.9-2.4-2.3-2.5-3.3l3.3,1.5s2.3.7,2.5,3.9c0,0,.3,2.3,1.5,4.4,0,0-7.8-.8-12.5,7.9l-.6-1s0,2.9-1.9,3.9c0,0-.3-1.9-1.5-2.1,0,0-.2,2.9-2.3,4.2,0,0,.3-1.9-1.1-2.7,0,0-1.9,4.1-5.6,3.9,0,0,.7-1.4.2-3.4,0,0-3.9,3.7-7.3,2.2,0,0,1.6-1.3,1.5-4,0,0-4.5,2.5-8.7-3.7,0,0,1.1,1.1,4.7-.8,0,0-2.2-2.6-1.7-5"/>
              <path class="st74" d="M1171.6,153.6s4.7.9.9,9.2c0,0-1.7,6.5,2,9.5,0,0,.5.5,1,1.4,0,0-4.7,1.7-1.5,10.2,0,0-3.1-1-4.3-3,0,0,.8-.3,1.1-1.9,0,0-2.5,1.1-4.4-1.5l2.3-1.5s-2,0-4.3-3.2l2.7-1.1s-2.9-.5-3.9-3.5h2.6s-2.3-4.1-1.7-6.3c0,0,1.8,1.6,3.3,1.7,0,0,1.4-2.1-.5-4.3,0,0-.9-1.8.2-4.3,0,0,0,.4,1.7.7,0,0,1.7,0,2.7,3.6l.3-.3s-1.5-2.7-.3-5.3"/>
              <path class="st74" d="M1210.3,203.2l2.9-.3s14.1-1.8,13.9-20.4c0,0-.4-10.7-8.3-15.8-.6-.4-1.8-1.3-3.1-1.7-1.3-.4-4.1-1-6.3.5-.8.5-1.7,1.7-2,2.5-.2.8-.5,3.2,2.8,5.9l1.2-1.5s-2.3-1.7-1.6-3.4c.7-1.7,2.3-1.5,2.4-1.6,1.9-.1,8.4.4,11.9,12.6,0,0,2.1,9.5-5,16.9,0,0,1.1-4.5-4.1-12.3,0,0-4.6-6.4,1.7-14.5l-2-1.3s-8.1,9.5-1.5,17.5c0,0,5.2,6.3,3.1,10.5-.5.9-1.5,2.1-2.7,2.4-1.1.3-4.4,1-4.4,1"/>
              <path class="st74" d="M1217.9,165.2s3.5-4.4,14.3-5.5c0,0,.7,3-5.3,4.9,0,0,.3,1.1,5.4-.1,0,0-2.1,4.7-8.2,2.5,0,0-2.7-.9-4.5-.2"/>
              <path class="st74" d="M1193.5,145.3s2.1,1.1,2.1,4.9l9.6,3.5s1-2.6,4.8-3.8c0,0-.3-.7-2.9-.3,0,0-.5-.8-1.9-1.1,0,0-.5.7.1,2.2,0,0-1.4.7-1.7,1.1,0,0-.5-1-.9-1.8,0,0,1.8-.5,1.8-1.9,0,0-.8.4-1.2.3,0,0,1.4-1.8-.5-3.3,0,0-1.3.9-1.5,2.7,0,0-1-.7-1.7-.9,0,0-.3.9.2,2.5,0,0-.5.8-1.5.9,0,0-1.1-.4-1.5-1.7h.8c0,0,.8-.5,1-.9,0,0-.6-.4-1.6-.4v-.3c0,0,.2,0,.2,0,0,0,0-2.4-3.5-1.7"/>
              <path class="st74" d="M1193.1,192.1l-.3-.5c2.9-1.1,3.8-4.4,3.8-4.4,1.1-5.5,4.1-5.6,4.1-5.6l-.4.5c-2.1.8-2.5,4.5-2.5,4.5-.1,4.7-4.7,5.5-4.7,5.5M1190.2,192.5l-2.1.7-.7-.2h.1c0-.1.9-.3.9-.3,2.5-1.4,3.7-5.8,3.7-5.8,1.8-4.2,4.9-4.6,4.9-4.6l.3.4-.5.2c-3.1,1.2-3.5,4.6-3.5,4.6-.1,4.3-3.2,5-3.2,5M1196.3,156.1s.3-.4.5,0v.2c0,0-.1,0-.1,0,0,0-.2,0-.6.2,0,0-.4.3-.6-.2l.8-.3M1226.4,230.8c-.4-.9-.8-2.1-.8-2.1h3.1c-2.8,0-3-4.9-3-4.9-.7-4.1,1.7-6.7,1.7-6.7-8,.2-9.9-4.7-9.9-4.7-3.7-3.7-5-12.3-5-12.3,0,0-.1-.8-.5-1.3-.3-.6-.5-.9-1.3-1.7-1.1-1.2-5.3-3.7-5.8-4.1-2.3-1.6-3.5-3.5-3.5-3.5-1.4,1.7-3.2,2.2-3.2,2.2l-.2-.6c7.6-4.8,4.6-12.2,4.6-12.2.3-1.6,1.5-3.7,1.5-3.7,5.3-7.1,1.6-17.3,1.6-17.3,1.5-2.4-.5-2.7-.5-2.7-1.9-.4-2,.5-2,.5h-.3c0,0-.1-.3-.1-.3l-5.5-2c-1.8-1-2.7-.7-2.7-.7-.1,1.1.2,1.5.2,1.5.4.3.9.2.9.2,2-.5,2.9.9,2.9.9l-.3.3c-.5-.6-1.1-.6-1.1-.6-1.4-.1-1.3.7-1.3.7-.5.7-.7,0-.7,0l-.2-.7c-1.5-.3-1.2-2.3-1.2-2.3-2.5.1-4.9.9-4.9.9-.9.3-.6.9-.6.9l.7,1.1-.4,1.5c-.9,2.3,1.6,2.3,1.6,2.3h3.3c2.5.5.8,2.3.8,2.3,0,2.9-1.6,2.3-1.6,2.3-2.2-1.7-3.4-.2-3.4-.2-.7,1.5.9,1.5.9,1.5,3.3,0,1.3,2.5,1.3,2.5-.8,1.9-3,1.5-3,1.5-5.3-.5-6.2,2.1-6.2,2.1-1.9,2-1.7,7.7-1.7,7.7-1.4-3.4.1-7.3.1-7.3-4.8,1.7-3.1,10.6-3.1,10.6-2.3-4.8-.7-7.7-.7-7.7-4.3.6-3.1,7-3.1,7l1.7,4.1-4.5,2.3c-3.6,2-5.9.2-5.9.2-6.5-6.1-13.7-.3-13.7-.3,3.5,2.4,7.5,1.3,7.5,1.3-.9,1.5-5,3.3-5,3.3,6.9,2.7,8.9-.5,8.9-.5.9,2.9-.7,4.5-.7,4.5,2.7.7,5.9-2.6,5.9-2.6-.3,1.5-1.5,2.9-1.5,2.9,2.5,0,5.2-3.2,5.2-3.2.2,1.5-.9,2.7-.9,2.7,3.4-.5,5.3-3.6,5.3-3.6.1,1.7-.9,3.1-.9,3.1,1.9-.3,3.3-1.9,3.3-1.9-3.7-2.8-2.8-4.9-2.8-4.9,1.1,4.5,5,5.2,5,5.2,3.1-.5,5.1-5.7,5.1-5.7,2.4-5.1,5.4-4.5,5.4-4.5-3.6,1.3-3.9,3.6-3.9,3.6-1.3,5.3-3.3,6.1-3.3,6.1.7,2.1,5.1,3.2,5.1,3.2,1.1.5,2.8,1.4,3.7,1.9,7.2,3.7,7.9,10.2,7.9,10.2,1.1,6.9,6.5,8.5,6.5,8.5,10.6,3.5,9.8,10.9,9.8,10.9-.6,11.2-7.4,15.4-7.4,15.4h.2c1.9.7,3.1,0,3.1,0,.5,1.6,0,2.9,0,2.9,5.6-.8,8.5-6.9,8.5-6.9,1.5,1.9,3.6,1.9,3.6,1.9-1.5-2.3-1.1-7.2-1.1-7.2l2.2,1.4-1.1-2.6-.4-1.7c.8.8,2.5,1.5,2.5,1.5,0-.5-.6-1.3-1.1-2.2"/>
              <path class="st74" d="M1193.3,202.2s2.9-1.5,4.5,1.7l1.5,2.6s.9,1.3.9,1.7c0,0-.5-1.3-2.9-2,0,0-3.7-1.3-4-4"/>
              <polyline class="st74" points="1195.7 151 1195.6 151.5 1203.3 154.5 1204.3 154"/>
              <path class="st74" d="M1184.1,154.9s.2,6,5.7,5.9c0,0,.6-.7,4.1,1.1l-.2.8s-1.3-1.4-3.7-.9c0,0-3.5,1.3-5.7-.5,0,0-3.6-2.9,0-6.4"/>
            </g>
            <g>
              <path class="st5" d="M1164.6,215.3s13.9,11.4,20.6.9c0,0,2.3-3.7,2.9-7.7,0,0,0-3.7,3.7-5.6,0,0,.4,5.2,5.3,7.4.4.2.8.3,1.2.3,0,0,0-.3-.7-.7-.9-.5-1.1-.3-1.3-.5-1.1-.9-2.4-2.3-2.5-3.3l3.3,1.5s2.3.7,2.5,3.9c0,0,.3,2.3,1.5,4.4,0,0-7.8-.8-12.5,7.9l-.6-1s0,2.9-1.9,3.9c0,0-.3-1.9-1.5-2.1,0,0-.2,2.9-2.3,4.2,0,0,.3-1.9-1.1-2.7,0,0-1.9,4.1-5.6,3.9,0,0,.7-1.4.2-3.4,0,0-3.9,3.7-7.3,2.2,0,0,1.6-1.3,1.5-4,0,0-4.5,2.5-8.7-3.7,0,0,1.1,1.1,4.7-.8,0,0-2.2-2.6-1.7-5"/>
              <path class="st5" d="M1170.5,154.1s4.7.9.9,9.2c0,0-1.7,6.5,2,9.5,0,0,.5.5,1,1.4,0,0-4.7,1.7-1.5,10.2,0,0-3.1-1-4.3-3,0,0,.8-.3,1.1-1.9,0,0-2.5,1.1-4.4-1.5l2.3-1.5s-2,0-4.3-3.2l2.7-1.1s-2.9-.5-3.9-3.5h2.6s-2.3-4.1-1.7-6.3c0,0,1.8,1.6,3.3,1.7,0,0,1.4-2.1-.5-4.3,0,0-.9-1.8.2-4.3,0,0,0,.4,1.7.7,0,0,1.7,0,2.7,3.6l.3-.3s-1.5-2.7-.3-5.3"/>
              <path class="st5" d="M1209.1,203.7l2.9-.3s14.1-1.8,13.9-20.4c0,0-.4-10.7-8.3-15.8-.6-.4-1.8-1.3-3.1-1.7-1.3-.4-4.1-1-6.3.5-.8.5-1.7,1.7-2,2.5-.2.8-.5,3.2,2.8,5.9l1.2-1.5s-2.3-1.7-1.6-3.4c.7-1.7,2.3-1.5,2.4-1.6,1.9-.1,8.4.4,11.9,12.6,0,0,2.1,9.5-5,16.9,0,0,1.1-4.5-4.1-12.3,0,0-4.6-6.4,1.7-14.5l-2-1.3s-8.1,9.5-1.5,17.5c0,0,5.2,6.3,3.1,10.5-.5.9-1.5,2.1-2.7,2.4-1.1.3-4.4,1-4.4,1"/>
              <path class="st5" d="M1216.7,165.7s3.5-4.4,14.3-5.5c0,0,.7,3-5.3,4.9,0,0,.3,1.1,5.4-.1,0,0-2.1,4.7-8.2,2.5,0,0-2.7-.9-4.5-.2"/>
              <path class="st5" d="M1192.4,145.8s2.1,1.1,2.1,4.9l9.6,3.5s1-2.6,4.8-3.8c0,0-.3-.7-2.9-.3,0,0-.5-.8-1.9-1.1,0,0-.5.7.1,2.2,0,0-1.4.7-1.7,1.1,0,0-.5-1-.9-1.8,0,0,1.8-.5,1.8-1.9,0,0-.8.4-1.2.3,0,0,1.4-1.8-.5-3.3,0,0-1.3.9-1.5,2.7,0,0-1-.7-1.7-.9,0,0-.3.9.2,2.5,0,0-.5.8-1.5.9,0,0-1.1-.4-1.5-1.7h.8c0,0,.8-.5,1-.9,0,0-.6-.4-1.6-.4v-.3c0,0,.2,0,.2,0,0,0,0-2.4-3.5-1.7"/>
              <path class="st5" d="M1192,192.6l-.3-.5c2.9-1.1,3.8-4.4,3.8-4.4,1.1-5.5,4.1-5.6,4.1-5.6l-.4.5c-2.1.8-2.5,4.5-2.5,4.5-.1,4.7-4.7,5.5-4.7,5.5M1189,193l-2.1.7-.7-.2h.1c0-.1.9-.3.9-.3,2.5-1.4,3.7-5.8,3.7-5.8,1.8-4.2,4.9-4.6,4.9-4.6l.3.4-.5.2c-3.1,1.2-3.5,4.6-3.5,4.6-.1,4.3-3.2,5-3.2,5M1195.2,156.6s.3-.4.5,0v.2c0,0-.1,0-.1,0,0,0-.2,0-.6.2,0,0-.4.3-.6-.2l.8-.3M1225.2,231.3c-.4-.9-.8-2.1-.8-2.1h3.1c-2.8,0-3-4.9-3-4.9-.7-4.1,1.7-6.7,1.7-6.7-8,.2-9.9-4.7-9.9-4.7-3.7-3.7-5-12.3-5-12.3,0,0-.1-.8-.5-1.3-.3-.6-.5-.9-1.3-1.7-1.1-1.2-5.3-3.7-5.8-4.1-2.3-1.6-3.5-3.5-3.5-3.5-1.4,1.7-3.2,2.2-3.2,2.2l-.2-.6c7.6-4.8,4.6-12.2,4.6-12.2.3-1.6,1.5-3.7,1.5-3.7,5.3-7.1,1.6-17.3,1.6-17.3,1.5-2.4-.5-2.7-.5-2.7-1.9-.4-2,.5-2,.5h-.3c0,0-.1-.3-.1-.3l-5.5-2c-1.8-1-2.7-.7-2.7-.7-.1,1.1.2,1.5.2,1.5.4.3.9.2.9.2,2-.5,2.9.9,2.9.9l-.3.3c-.5-.6-1.1-.6-1.1-.6-1.4-.1-1.3.7-1.3.7-.5.7-.7,0-.7,0l-.2-.7c-1.5-.3-1.2-2.3-1.2-2.3-2.5.1-4.9.9-4.9.9-.9.3-.6.9-.6.9l.7,1.1-.4,1.5c-.9,2.3,1.6,2.3,1.6,2.3h3.3c2.5.5.8,2.3.8,2.3,0,2.9-1.6,2.3-1.6,2.3-2.2-1.7-3.4-.2-3.4-.2-.7,1.5.9,1.5.9,1.5,3.3,0,1.3,2.5,1.3,2.5-.8,1.9-3,1.5-3,1.5-5.3-.5-6.2,2.1-6.2,2.1-1.9,2-1.7,7.7-1.7,7.7-1.4-3.4.1-7.3.1-7.3-4.8,1.7-3.1,10.6-3.1,10.6-2.3-4.8-.7-7.7-.7-7.7-4.3.6-3.1,7-3.1,7l1.7,4.1-4.5,2.3c-3.6,2-5.9.2-5.9.2-6.5-6.1-13.7-.3-13.7-.3,3.5,2.4,7.5,1.3,7.5,1.3-.9,1.5-5,3.3-5,3.3,6.9,2.7,8.9-.5,8.9-.5.9,2.9-.7,4.5-.7,4.5,2.7.7,5.9-2.6,5.9-2.6-.3,1.5-1.5,2.9-1.5,2.9,2.5,0,5.2-3.2,5.2-3.2.2,1.5-.9,2.7-.9,2.7,3.4-.5,5.3-3.6,5.3-3.6.1,1.7-.9,3.1-.9,3.1,1.9-.3,3.3-1.9,3.3-1.9-3.7-2.8-2.8-4.9-2.8-4.9,1.1,4.5,5,5.2,5,5.2,3.1-.5,5.1-5.7,5.1-5.7,2.4-5.1,5.4-4.5,5.4-4.5-3.6,1.3-3.9,3.6-3.9,3.6-1.3,5.3-3.3,6.1-3.3,6.1.7,2.1,5.1,3.2,5.1,3.2,1.1.5,2.8,1.4,3.7,1.9,7.2,3.7,7.9,10.2,7.9,10.2,1.1,6.9,6.5,8.5,6.5,8.5,10.6,3.5,9.8,10.9,9.8,10.9-.6,11.2-7.4,15.4-7.4,15.4h.2c1.9.7,3.1,0,3.1,0,.5,1.6,0,2.9,0,2.9,5.6-.8,8.5-6.9,8.5-6.9,1.5,1.9,3.6,1.9,3.6,1.9-1.5-2.3-1.1-7.2-1.1-7.2l2.2,1.4-1.1-2.6-.4-1.7c.8.8,2.5,1.5,2.5,1.5,0-.5-.6-1.3-1.1-2.2"/>
              <path class="st5" d="M1192.2,202.7s2.9-1.5,4.5,1.7l1.5,2.6s.9,1.3.9,1.7c0,0-.5-1.3-2.9-2,0,0-3.7-1.3-4-4"/>
              <polyline class="st5" points="1194.5 151.5 1194.4 152 1202.2 155 1203.1 154.5"/>
              <path class="st5" d="M1182.9,155.4s.2,6,5.7,5.9c0,0,.6-.7,4.1,1.1l-.2.8s-1.3-1.4-3.7-.9c0,0-3.5,1.3-5.7-.5,0,0-3.6-2.9,0-6.4"/>
            </g>
          </g>
        </g>
        <path class="st11" d="M1191.3,234.1c.8,0,.5,1.2,1.2,1.3.4.1.3.7.8.9.3-.2.8-.5,1.2-.5.4,0,.2.5.3.8.1,0,.5.3.6.4-.2.6.6.7,1,.6.5-.3,1.2.2,1.6.2.6,0,.2,1,.2,1.4,0,.5.4,1.4,1,.9.2-.3.8,0,.6.3,0,0,0,.3,0,.3-.1,0-.6-.3-.6,0-.1.5.4.8.5,1.2,0,.2.3.6.5.5,0-.3.1-.8.5-.7,1.6-.6.4.6.2,1.4.1.6,1.1.8,1.6,1.1.4-.1,1.3-1,1.5-.2,1.4,0,2.1,1.5,2.9,2.3,0,.4.6.2.9,0,.1,0,.4.2.5,0,.3-.2.6.4.9.5,1.1-.9,1.5.8,2.4,1.2,2,1.4.7-2.7,1-3.7.3-2.5-.1-5,0-7.5-1.8-6.6-3.1-5.1,1.5-10.4,3.9-3.9-6.2-4.4-1.8-7.4,1.1-1,1.7.6,2.6.2.8-.9-.6-1.5-.9-2.3-.4-1.4.7-2.5,1.7-3.3.7-.3,1.7-.2,2.4-.8.8-1,1.2-2.5,2.4-3.2,2.3-2.2,2.1-6,3.9-9,1.2-2.9-4.9-1.9-.3-5.3,2.4-1.4,2.4-3.9,4.4-5,2.8-.9,8.8-5.5,4.9-7.6,0-2.6,2.1.6,3,.5,1.6-1.3-2.7-2-1.9-3.5-.6-3.9,0-4.4,2.6-6.9-2.4-5,1.3-4.2-1.6-6.1-1-1.6,3-2.6,3.5-4.4-2.1-6.2-1.5,4.4-4-.9-3.4-.8-5-5.1-6.9-2.3-.8.9-1.6,2-2.8,1.5-1-1.2-1.3.2-2.4.2-.9-1.2-1.4-1.5-3.1-1.8-4-.8-8.3-13.9-11.9-5.9-.3,1.9-3.1,1.3-2.7-.4.9-2-1-3.4-1-4.9.2-2.1-1.5-1.7-2.6-.9-.4,0-1.6-2.4-2.6-3-1.9.7-1.1.4-2.9-.5-1.2-.8-1.9-2.7-2.7-3.9-1.9.2-3.9-3.5-2.2-4.1.6-2.7-4.6-2.1-1.2-4.1.4-4.3-2.2-2.6-.6-5.2-.2,0-2.2-.1-2.3-1.2-.9-1.1-1.4,2.5-1.6,1.3-.6-1-.5-2.6-1-3.7,0-2.8-2.4.5-1.1,1.6.9.3.6.9,0,1.2-2.3,1.1-.7-2.4-2.6-2.5-1.3-2-.4-3.6,0-5.7-2.2-.7-2,.3-3.1-2.2-1.5.4-2.7-2-.7-1,1.9-2.9.9-3.2,0-3.3-3-.7,3.4-2.6-2.1-4.7,1.8-3.7-2.1-4.4-1.3-7.7-.2-.2-.6-.2-.8.1-.5,2.9-1.9-.6-1-1.4.2-.2.5-.2,1.4.3-.1-1.5,2.9-2.6.2-3.3-.5.5.3,2.5-1.3,1.3-.2-.6.5-2.1,1.2-1.8.3-1.2-1.4-3.8,1-3,2.4.3-.9-1.5-.2-2.5,2.1,0,1.4-.5.7-1.7,1.7-2-.1-1.1-1-1.8-.1-1,.4-2,1.4-2.3,0-.3.3-1.1.4-1.4-1.3.5-1.6-1.2-2.7-1.5-.3,0-1.1.2-1.3-.1,0-.8.2-1.8.9-2.4.2-.2.8-.7,1.2-.8-.1-.3-.4-.5-.7-.6-3.1-2.1,2.1-1.7-2.1-4.3-.1,0-.8-.7-1-.6-.3.2-.6.4-.9.4-.6.1-1.4-.3-1.9-.6-1.6-.3-.3,1.9-.9,3.6.2.6-.9.2-1.2.2-1.3,1.8-2.4.5-3.9-.2-4.7-2-1.9-2.6-3.8-6.5-1.1.2-2.8,1.5-4,1.8-3.2.4-5.7-1.2-5.8,3.3-.3.3.5,1.5.6,2.1-.3.4-.9.5-1.2.9,0,.6.2,1.5.3,2.1-.4.5-.5,1.3-.3,1.9.6,1.5-1,.9-1.8,1.6-6.1.7-10.2,5.5-9.8,11.5.5,2.8-2.9,1.4-3.7,3.2-4.9,3.9,3,4.1-.4,7.9-1.4.4-.7,1.7-.5,2.6-2.4.7-.4,2.2-4.4,2.9-.2.3-.6.3-.8.7-.5,0-1.6,0-1.3.8-.2.3.1.9.2,1.2-.1.7,0,1.6.3,2.3.4.4,1,.7,1.1,1.2.1.6.6.3,1.1.3,1.2,1.3-.4,4.1-2,4-.5.8-1.2,1-2,.9-.3.3,0,.7-.4,1,.1.4.1.8-.3,1-.2.2-.4,0-.6,0-.5.2-.9-.2-1.2-.6-.5.3-.9.4-1,1-1.4,1-1-.7-2.3.4,0,.5,0,.8-.4,1,.3.5.2,1-.2,1.4-.3.6-.2,1,.1,1.5-.5.4.3.9.3,1.4.1.4-.7.6-.7,1.1-.1.8,0,.8-.9,1-.1.6-.1,1.6-.3,2-.2,0,0,.4,0,.6,0,.4-.2.8,0,1.1-.6.7-1.7,1.3-2.5,1.8-.3.6-.6,1.2-1.2,1.4.2.2-.2.5-.3.7-1.1,1.3.7,1.1,1.3,1.8,1.1,1.1,2.8,1,4,1.7.2.7,1.2.4,1.4,1.1,0,.4.7.5.8,1-.2.9,0,.9-.8.7-.6,0,2.2,1.1-.3,1.1-.6,2-.6,1-1.2,0-.4,0-.5.7-1,.8-.6,0-.8-.9-1.3-.9-.6.4-.4,1.1.1,1.6,0,.6-.5,1.2.2,1.6,1.1,1.1-.2.9-.9,1.2-.2.3-1,0-.8.5.5.4,1.5,0,1.8.8.1,2.2-1.5.3-1.5,1.2-.2.4.1.8.3,1.2,0,1.2-1.3,0-1.6,1-.1.5.3.9.7,1.3.4,1.3,1.1,1.8,0,2.8,0,.7.5,1.1.9,1.6-.2,1.4.1,2.9.5,4.3-.4,2.2,1.7.6,3,.7.6-.6.8,0,1.4.1,1.2-1.4,1.5-.7,2.1.7-.3,1.2.8,1.4,1,2.4.3,1.2,1.6,1.3,1.6,3.2,0,.7.6,1.3,1,1.8.2.7.3,1.7.8,2.2.3.9,1.9.3,1.6,1.6.3,1.9-1,1.2-.5,3-.6.5,0,1.2-.2,1.9-.2,1.1.5.6,1.2.5,3.8,1.5,2.5-2.4,6.8.5.3.4,0,.8,0,1.1.5.5,1.3,1.5,1.7,1.8-3.1,4.3-6.5,7.1-.2,10.2.3.3.6.5,1-.1.4.6,1.4.6,1.9.5.3.2-.4,1.3.7.7,1.5-.6-1.4,1.9-.7,4.4,2.7,5.3-4.3.7-2.7,4.9-1.8,1-1.8,3-1.8,4.8-.9.5-1.9,1-2.6,1.8-.6.3-1.4.7-1.7,1.3,0,1.8.9,3,2.8,2.2.2-.5.3-.5.8-.2.4,1-.1,1.1-.5,1.9.5,0,.5.2.4.6,0,.2.2.8,0,1-.6-.2-.9.8-1.5.9,0,.3,0,.7-.3.9-.6,0-1.1.3-1.5.8-.9,0-1,.9-.7,1.6-.3.8-1.2,1-1.9,1.2-.2,0-.5.4-.7.5-.1-.1-.3-.2-.5-.2-.7.2-1.2,1.2-1.7,1.3-1.6,0,0,1.3.4,2,1.1-.3,2.1-1.1,3.2-1.4.1.7.3,1.5.8,2.2,1.2,1.8-2,.7-1.1,3.1.7,1.4,2.7,1.2,2.4,3.1,1.8.3,2.3,2.7,3.2,2.4.3-.3.6,0,.8.2,2.3-.7,2.9,1.6,5.6-.7,1.3-.6,2.5,1.4,3.8.5,1.3-.9,2.3.8,3.3,1.5.8.3,2-.5,2.4.5,0,.6,0,1.3.3,1.9.3.2.8.5.8.9.2.6,0,1.2-.4,1.7.2,1.1.4,2.4,1.1,3.2.3,0,.5-.3.6-.6.8-.4.9.7.6,1.2,0,1.4-1.2-.5-1.3,1.2.7,1.9,3.3-2.3,4.3-.3.2.2.5.8.8.3.7.1,1.5-.4,2.3-.5.6.2.7.9.4,1.4,0,.2.2.2.4,0,.4,0,1,0,1.4.2,1.7,1.3,1.5-5.9,3.9-4.2.3,0,.7,0,1.1,0,.2,0,.7-.6.8-.3-.5.6.8-.1,1,.4.3.3-.1,1.2,0,1.5.8.8,2,1.4,3.2,1.3,0-1.4-.8-3,.4-4.2.5-.7,1.3-.7,1.7,0,.7-.4,1.7-.5,1.5-1.6.8-1.2.4-2.7.7-4,.5,0,.5.7.8.8.9,0,2.1-1.2,1.4.6.6.1,1-.8,1.5-.9.3,0,.3-.6.7-.7,0,.1.3.4.3.5.1,0,.5-.1.6-.2,0-.7-.9-1.3-1-2-.1-1.3,2.2-.9,3-2,.7-.7.5,0,.8.4.4,0,1-.2,1.4,0,.3.2.8,0,1.2,0,.4.5,1,.3,1.6,0,.9.2,2.6.6,2.2-.8.1,0,.5.3.6.3.3,0,.9-.5,1.2-.2,0,0,.2.1.3,0,.2-.4.9.4,1.2.1.3-.1.2-1,.3-1.2.6,0,0-1-.4-.8"/>
      </g>
      <path class="st64" d="M1218.9,294.9h-151.1V65.9h55.6v176.3h95.5v52.7Z"/>
      <g>
        <g>
          <path class="st61" d="M1164.1,271.1c-.5,9.9-2.8,19.7-7,28.9l-21.9-21.9c9.2-4.2,19-6.5,28.9-7Z"/>
          <path class="st60" d="M1135.2,278.2l21.9,21.9c-3.8,8.4-9.2,16.2-16,23.1s-5.7,5.3-8.8,7.6h0v-3.1l-1.9,1.2-25.1-25.1,1.2-1.9h-1c2-2.6,4.3-5.2,6.7-7.6,6.9-6.9,14.7-12.2,23.1-16ZM1138,309c3.2-3.2,3.2-8.5,0-11.7s-8.5-3.2-11.7,0c-3.2,3.2-3.2,8.5,0,11.7,3.2,3.2,8.5,3.2,11.7,0Z"/>
          <path class="st79" d="M1138,297.3c3.2,3.2,3.2,8.5,0,11.7s-8.5,3.2-11.7,0c-3.2-3.2-3.2-8.5,0-11.7,3.2-3.2,8.5-3.2,11.7,0Z"/>
          <path class="st60" d="M1132.3,330.7s0,0,0,0h0s0,0,0,0Z"/>
          <path class="st60" d="M1132.2,330.8v2.5c0,6.5-2.6,12.7-7.2,17.3l-9.2,9.2-1-19.2c6.1-2.5,11.9-5.7,17.3-9.7Z"/>
          <path class="st69" d="M1132.2,330.7h0c-5.4,4.1-11.3,7.3-17.3,9.8v-2.5c-.1,0,15.4-9.3,15.4-9.3l1.9,1.9Z"/>
          <polygon class="st60" points="1132.2 327.6 1132.2 330.7 1130.3 328.8 1132.2 327.6"/>
          <path class="st69" d="M1130.3,328.8l-15.5,9.3v2.5c0,0,0,0,0,0l-4.6-4.6-10.2-10.2-5.2-5.2c.2-.4.4-.9.6-1.3h.7s9.3-15.5,9.3-15.5l25.1,25.1Z"/>
          <path class="st60" d="M1110,336c-.8,5.2-3.1,10.2-7.1,14.3-6.5,6.5-20.3,13.3-28.6,11.3-2-8.3,4.8-22.1,11.3-28.6,4-4,9-6.4,14.3-7.1-1.4.7-2.7,1.7-3.8,2.8-4.2,4.2-10.2,14.7-8.9,20.1,5.4,1.3,15.9-4.7,20.1-8.9,1.2-1.2,2.1-2.5,2.8-3.8Z"/>
          <path class="st60" d="M1106.4,301.8l-1.2,1.9-.7-.7c.3-.4.6-.8.9-1.2h1Z"/>
          <path class="st60" d="M1100.8,301.8h4.6c-.3.4-.6.8-.9,1.2-3.8,5.1-6.9,10.6-9.3,16.2l-20.9-1.1,9.2-9.2c4.6-4.6,10.8-7.2,17.3-7.2Z"/>
          <path class="st60" d="M1105.2,303.7l-9.3,15.5h-.7c2.4-5.7,5.5-11.2,9.3-16.3l.7.7Z"/>
        </g>
        <g>
          <line class="st12" x1="1053.3" y1="383.9" x2="1030.2" y2="407"/>
          <line class="st12" x1="1062.8" y1="357.2" x2="1036.3" y2="383.8"/>
          <line class="st12" x1="1080.2" y1="374.6" x2="1064.8" y2="389.9"/>
          <line class="st12" x1="1027.9" y1="392.2" x2="1020.5" y2="399.6"/>
          <line class="st12" x1="1053.7" y1="401" x2="1027" y2="427.7"/>
          <path class="st29" d="M1105.4,301.8h-4.6c-6.5,0-12.7,2.6-17.3,7.2l-9.2,9.2,20.9,1.1"/>
          <path class="st29" d="M1132.2,330.8v2.5c0,6.5-2.6,12.7-7.2,17.3l-9.2,9.2-1-19.2"/>
          <path class="st29" d="M1157.1,300.1c-3.8,8.4-9.2,16.2-16,23.1s-5.7,5.3-8.8,7.6c0,0,0,0,0,0-5.4,4-11.3,7.3-17.3,9.7,0,0-.1,0-.2,0l-4.6-4.6-10.2-10.2-5.2-5.2c.2-.4.4-.9.6-1.3,2.4-5.7,5.5-11.1,9.3-16.2.3-.4.6-.8.9-1.2,2-2.6,4.3-5.2,6.7-7.6,6.9-6.9,14.7-12.2,23.1-16,9.2-4.2,19-6.5,28.9-7-.5,9.9-2.8,19.7-7,28.9Z"/>
          <polyline class="st26" points="1134.2 277.2 1135.2 278.2 1157.1 300.1 1157.8 300.8"/>
          <polyline class="st26" points="1104.5 303 1105.2 303.7 1130.3 328.8 1132.2 330.7 1132.3 330.7 1132.9 331.3"/>
          <path class="st29" d="M1138,309c-3.2,3.2-8.5,3.2-11.7,0-3.2-3.2-3.2-8.5,0-11.7,3.2-3.2,8.5-3.2,11.7,0s3.2,8.5,0,11.7Z"/>
          <path class="st12" d="M1110,336c-.7,1.4-1.7,2.7-2.8,3.8-4.2,4.2-14.7,10.2-20.1,8.9-1.3-5.4,4.7-15.9,8.9-20.1,1.2-1.2,2.5-2.1,3.8-2.8-5.2.8-10.2,3.1-14.3,7.1-6.5,6.5-13.3,20.3-11.3,28.6,8.3,2,22.1-4.8,28.6-11.3,4-4,6.4-9,7.1-14.3Z"/>
        </g>
      </g>
      <g>
        <g>
          <g>
            <rect class="st60" x="993.9" y="142.8" width="95.2" height="63"/>
            <rect class="st63" x="994.3" y="149.9" width="95.2" height="56"/>
            <path class="st66" d="M1087.8,144.1v60.4h-92.6v-60.4h92.6M1090.4,141.5h-97.8v65.6h97.8v-65.6h0Z"/>
          </g>
          <line class="st24" x1="994.3" y1="150.2" x2="1089.3" y2="150.2"/>
        </g>
        <rect class="st60" x="1025.1" y="169" width="32.9" height="4"/>
        <g>
          <line class="st2" x1="1010.5" y1="178.3" x2="1016.1" y2="178.3"/>
          <line class="st28" x1="1019.4" y1="178.3" x2="1066.1" y2="178.3"/>
          <line class="st2" x1="1067.7" y1="178.3" x2="1073.3" y2="178.3"/>
        </g>
        <g>
          <line class="st2" x1="1010.5" y1="181.4" x2="1019.4" y2="181.4"/>
          <line class="st6" x1="1024.2" y1="181.4" x2="1062" y2="181.4"/>
          <line class="st2" x1="1064.4" y1="181.4" x2="1073.3" y2="181.4"/>
        </g>
        <line class="st25" x1="1031.9" y1="186.4" x2="1062" y2="186.4"/>
        <line class="st25" x1="1031.9" y1="189" x2="1062" y2="189"/>
      </g>
      <path class="st61" d="M605.1,492.6h-175.3v-33.7l90.9-74.6c17.7-13.7,26.5-26.2,26.5-37.3s-2.7-15.9-8-20.8c-5.3-4.9-12.5-7.6-21.4-8h-1.6c-10.7,0-26.1,7.5-46.1,22.6l-36-33.4c30.3-27.7,59.3-41.5,87-41.5h2c17.7.2,32.6,3.8,44.8,10.8,12.2,7,20.9,15.5,26.2,25.7,5.2,10.1,7.9,21.1,7.9,32.9s-5.2,32.1-15.7,46.4c-10.5,14.4-26.2,29.7-47.1,45.8l-15.4,12.8h81.5v52.3Z"/>
      <g>
        <g>
          <path class="st73" d="M395.4,425.7l-42.6,7.9,7.7,41.2c4.2,22.4,21.6,40,44,44.4l8.6,1.7,7.4-4.7c19.3-12.2,29.2-34.8,25-57.3l-7.7-41.2-42.6,7.9Z"/>
          <path class="st43" d="M433.7,424l6.7,35.9c1.9,9.9.7,20.1-3.3,29.3-4,9.3-10.7,17-19.2,22.4l-5.6,3.6-6.5-1.3c-9.9-1.9-18.9-6.8-26-13.9-7.1-7.2-11.9-16.2-13.7-26.1l-6.7-35.9,37.3-7,37.3-7M438,417.7l-42.6,7.9-42.6,7.9,7.7,41.2c4.2,22.4,21.6,40,44,44.4l8.6,1.7,7.4-4.7c19.3-12.2,29.2-34.8,25-57.3l-7.7-41.2h0Z"/>
        </g>
        <polyline class="st16" points="384.7 479.8 405.4 494 424.1 443.8"/>
      </g>
      <path class="st61" d="M1076.8,492.6h-175.3v-33.7l90.9-74.6c17.7-13.7,26.5-26.2,26.5-37.3s-2.7-15.9-8-20.8c-5.3-4.9-12.5-7.6-21.4-8h-1.6c-10.7,0-26.1,7.5-46.1,22.6l-36-33.4c30.3-27.7,59.3-41.5,87-41.5h2c17.7.2,32.6,3.8,44.8,10.8,12.2,7,20.9,15.5,26.2,25.7,5.2,10.1,7.9,21.1,7.9,32.9s-5.2,32.1-15.7,46.4c-10.5,14.4-26.2,29.7-47.1,45.8l-15.4,12.8h81.5v52.3Z"/>
      <g class="st53">
        <path class="st42" d="M502.6,506.2c3.7-.2,6.4,2.5,6.6,5.8.2,3.9-2.7,6.4-5.9,6.6-3.7.2-6.2-2.5-6.4-5.5,0-.8,0-1.7.3-2.7.7-2.4,2.9-4.1,5.4-4.2ZM506.3,523.6c3.9-.2,6.5,2.5,6.7,5.5.2,4.2-3.3,6.9-6.2,7.1-3.9.2-6.4-2.7-6.6-5.6,0-1.1,0-1.7.5-2.5,1-2.6,3.1-4.2,5.6-4.4ZM508.3,586c3.7-.2,6.5,2.5,6.7,5.8.2,3.6-2.6,6.6-5.8,6.7-3.9.2-6.7-2.8-6.9-5.9,0-.8,0-1.6.3-2.4,1-2.4,3.1-4.1,5.6-4.2ZM514.2,491.7c3.6-.2,6.4,2.7,6.6,5.6.2,4.2-2.8,6.9-5.8,7-4.2.2-6.6-3-6.7-5.9,0-.8,0-1.6.3-2.4,1-2.6,3.1-4.2,5.6-4.4ZM521.8,534.2c3.6-.2,6.2,2.5,6.4,5.6.2,3.7-2.2,6.4-5.8,6.6-3.7.2-6.4-2.7-6.6-5.8,0-.6,0-1.4.4-2.2.7-2.5,3.1-4.1,5.6-4.2ZM526.5,592.7c3.6-.2,6.4,2.8,6.6,5.9.2,3.7-2.8,6.6-5.8,6.7-3.6.2-6.4-2.3-6.5-5.5,0-1.1,0-2,.5-2.8.7-2.4,2.8-4.2,5.3-4.3ZM532.9,486.2c3.3-.2,6.1,2.5,6.2,5.6.2,3.6-2.5,6.5-6.1,6.7-3.6.2-6.2-2.7-6.4-5.8,0-.8,0-1.6.3-2.4,1-2.6,3.2-4.1,5.9-4.2ZM540.7,538.4c3.6-.2,6.5,2.5,6.7,5.6.2,3.3-2.7,6.4-5.9,6.6-3.6.2-6.2-2.3-6.4-5.5,0-.8,0-1.6.3-2.4.6-3,2.8-4.2,5.3-4.3ZM547.1,593.9c3.6-.2,6.1,2.7,6.3,5.9.2,3.7-2.8,6.3-6.1,6.4-3.6.2-6.2-2.5-6.4-5.6,0-.8,0-1.6.4-2.4,1-2.6,3.2-4.2,5.9-4.4ZM551.2,487c3.6-.2,6.1,2.7,6.2,5.8.2,3.6-2.5,6.5-5.6,6.7-3.6.2-6.4-2.5-6.5-5.6,0-.8,0-1.6.3-2.4,1-2.7,3.1-4.4,5.6-4.5ZM559.4,543.7c3.9-.2,6.3,2.8,6.4,5.5.2,3.9-2.5,6.7-6.1,6.9-3.6.2-6.1-2.7-6.3-5.9,0-.8,0-1.6.3-2.4,1-2.4,3.1-3.9,5.6-4ZM565.6,587.4c3.6-.2,6.1,2.7,6.3,5.9.2,3.6-2.5,6.5-6.1,6.7-3.6.2-6.1-2.7-6.3-5.9,0-.8,0-1.6.3-2.4.7-2.5,3.1-4.2,5.7-4.4ZM569,495.5c4.2-.2,6.7,2.8,6.9,5.8.2,3.7-2.8,6.4-6.1,6.6-3.7.2-6.2-2.7-6.4-5.8,0-.9,0-1.7.2-2.2,1-2.7,2.8-4.2,5.4-4.3ZM574.2,554.6c3.7-.2,6.4,2.7,6.6,5.8.2,3.7-2.3,6.5-5.9,6.7-3.7.2-6.4-2.3-6.5-5.6,0-.8,0-1.7.3-2.7.7-2.4,2.9-4.1,5.6-4.2ZM577.3,572.1c3.6-.2,6.4,2.5,6.5,5.6.2,3.6-2.2,6.7-5.8,6.9-4.2.2-6.7-2.6-6.9-5.8,0-.8,0-1.6.3-2.4,1-2.6,3.2-4.2,5.7-4.4Z"/>
        <path class="st45" d="M624.1,484.2c3.6-.2,6.2,2.7,6.4,5.6.2,3.7-2.7,6.2-5.8,6.4-3.7.2-6.2-2.5-6.4-5.8,0-.6-.2-1.4.2-2,1-2.6,3.2-4.1,5.6-4.2ZM625.1,501.3c3.6-.2,6.1,2.7,6.2,5.6.2,3.6-2.5,6.4-5.8,6.6-3.6.2-6.3-2.8-6.4-5.8,0-.6,0-1.4.4-2.2,1-2.6,3.1-4.1,5.6-4.2ZM625.9,519.6c3.6-.2,6.2,2.7,6.4,5.6.2,3.6-2.7,6.4-5.8,6.6-3.6.2-6.3-2.8-6.4-5.8,0-.6,0-1.4.4-2.2,1-2.6,3.1-4.1,5.4-4.2ZM626.6,536.6c3.6-.2,6.4,2.5,6.5,5.6.2,3.6-2.5,6.4-5.8,6.6-3.6.2-6.2-2.5-6.4-5.8,0-.6,0-1.4.4-2.2,1-2.7,2.6-4,5.3-4.2ZM627.8,554.1c3.6-.2,6.1,2.7,6.2,5.6.2,3.6-2.5,6.4-5.8,6.6-3.6.2-6.2-2.7-6.4-5.8,0-.6,0-1.4.4-2.2,1-2.6,3.2-4.1,5.6-4.2ZM628.7,571.6c3.6-.2,6.1,2.5,6.2,5.5.2,3.7-2.7,6.4-5.9,6.6-3.6.2-6.1-2.5-6.2-5.6,0-.6,0-1.4.4-2.2,1-2.6,3.1-4.1,5.6-4.2ZM629.3,588.1c3.6-.2,6.2,2.5,6.4,5.6.2,3.6-2.3,6.4-5.9,6.6-3.6.2-6.1-2.8-6.2-5.8,0-.6,0-1.4.4-2.2,1-2.4,3.1-4.1,5.4-4.2ZM636.1,489c-.2-3.3,2.2-6.4,5.8-6.6,3.1-.2,6.1,2.2,6.2,5.8.2,3-1.9,6.2-5.6,6.4-2.5.1-4.8-1.2-6-3.6-.5-.6-.4-1.4-.4-2ZM651.7,558.8c.2,3.6-2.3,6.2-5.5,6.4-3.6.2-6.5-2-6.7-5.8-.2-3.6,2.3-6.2,5.9-6.4,3.1,0,6.1,2.5,6.2,5.8ZM653.4,487.3c-.2-3.6,2.2-6.1,5.5-6.2,3.3-.2,6.5,1.7,6.7,5.5.2,3.1-2.2,6.2-5.9,6.4-2.7.1-4.4-1-5.7-3.5-.3-.6-.5-1.4-.6-2.2ZM664.2,552.2c3.7-.2,6.1,2.8,6.2,5.8.2,3.6-2.5,6.2-5.6,6.4-3.7.2-6.3-2.8-6.4-5.9,0-.6-.2-1.4.2-2,1-2.6,3.1-4.1,5.6-4.2ZM671.3,488.1c-.2-3.3,2-6.4,5.6-6.5,3.3-.2,6.4,2.2,6.6,5.9.2,3.3-2.1,5.9-5.6,6.1-2.5.1-4.9-1-6.1-3.4-.5-.6-.4-1.4-.4-2ZM681.7,548.2c3.6-.2,6.4,2.7,6.6,5.9.2,3.6-2.7,6.1-5.6,6.2-3.9.2-6.3-2.8-6.4-5.9,0-.6-.2-1.4.2-2,.7-2.4,2.9-4.1,5.3-4.2ZM686.5,495.6c-.2-3,2-6.2,5.8-6.4,3-.2,6.2,2.2,6.4,5.8.2,3.1-2.3,6.2-5.9,6.4-2.3.1-4.6-1.3-5.8-3.6-.2-.5-.4-1.1-.4-2.2ZM695.7,537.8c3.7-.2,6.1,2.8,6.2,5.8.2,3.7-2.7,6.1-5.8,6.2-3.6.2-6.2-2.5-6.4-5.6,0-.6,0-1.4.4-2.2,1-2.6,3.1-4.1,5.6-4.2ZM695.7,528.2c-.2-3,1.9-6.2,5.6-6.4,3-.2,6.4,2.2,6.6,5.8.2,3.1-2.2,6.1-5.8,6.2-2.5.1-4.8-1-6-3.5-.2-.5-.4-1.2-.4-2.2ZM695.7,510.7c-.2-3,2-6.1,5.6-6.2,3.1-.2,6.4,2,6.6,5.8.2,3.1-2.2,6.2-5.8,6.4-2.5.1-4.9-1.3-5.8-3.8-.3-.6-.5-1.4-.6-2.2Z"/>
        <path class="st50" d="M750.3,478.5c3.6-.2,6.1,2.8,6.3,5.9.2,3.6-2.7,5.9-5.6,6.1-3.7.2-6.1-2.7-6.2-5.6,0-.9,0-1.7.2-2.2.7-2.4,2.9-4.1,5.4-4.2ZM751.2,496.3c3.6-.2,6.1,2.7,6.2,5.6.2,3.6-2.3,6.2-5.5,6.4-3.6.2-6.2-2.7-6.4-5.9,0-.6-.2-1.4.2-2,1-2.4,2.9-3.9,5.4-4ZM752.1,513.5c3.7-.2,6.1,2.5,6.2,5.6.2,3.6-2.7,6.1-5.6,6.2-3.6.2-6.1-2.7-6.2-5.6,0-.9,0-1.6.2-2,1-2.6,3.1-4.1,5.4-4.2ZM752.9,530.2c3.6-.2,6.1,2.7,6.2,5.6.2,3.6-2.3,6.2-5.5,6.4-3.6.2-6.2-2.7-6.4-5.8s-.2-1.4.2-2c1-2.7,2.8-4.1,5.4-4.2ZM754,547.5c3.6-.2,5.9,2.4,6.1,5.6.2,3.6-2.7,6.1-5.6,6.2-3.6.2-6.1-2.7-6.2-5.6,0-.9,0-1.6.2-2,1-2.6,3.1-4.1,5.6-4.2ZM754.9,565.2c3.6-.2,5.9,2.4,6.1,5.6.2,3.6-2.7,6.1-5.6,6.2-3.6.2-6.1-2.7-6.2-5.6,0-.9,0-1.6.2-2,1-2.6,3.1-4.1,5.6-4.2ZM755.7,581.9c3.6-.2,5.9,2.4,6.1,5.6.2,3.6-2.7,6.1-5.6,6.2-3.6.2-6.1-2.7-6.2-5.6,0-.9,0-1.6.2-2,1-2.6,3.1-4.1,5.6-4.2ZM762.1,483c-.2-3,1.9-6,5.5-6.2,3.1-.2,6.4,2,6.5,5.6.2,3.1-2.2,6.2-5.8,6.4-2.3.1-4.6-1.3-5.8-3.6-.2-.5-.4-1.1-.4-2.2ZM777.4,551.8c.2,3.7-2,6.4-5.3,6.5-3.6.2-6.4-1.9-6.5-5.6-.2-3.6,2.5-6.1,5.6-6.2,3.6,0,6.1,2.2,6.2,5.3ZM779.3,482.3c-.2-3,2-6.2,5.6-6.4,3-.2,6.2,1.9,6.4,5.5.2,3.3-2.2,6.4-5.8,6.6-2.3.1-4.6-1.3-5.8-3.6-.5-.6-.4-1.4-.4-2ZM789.9,545.7c3.6-.2,6.1,2.7,6.2,5.6.2,3.6-2.8,6.1-5.8,6.2-3.6.2-5.9-2.7-6.1-5.6,0-.6-.2-1.4.2-2,.7-2.5,2.9-4.1,5.4-4.2ZM796.9,482.2c-.1-3,2-6.2,5.6-6.4,3-.2,6.2,2.2,6.4,5.8.2,3-1.9,6-5.8,6.2-2.3.1-4.7-1-5.7-3.5-.4-.8-.5-1.4-.6-2.2ZM803,557.2c3.1-.2,6.2,2.2,6.4,5.8.2,3-2,6.1-5.6,6.2-3,.2-6.1-2.2-6.2-5.8-.1-2.3,1-4.4,3.3-5.6.8-.4,1.4-.5,2.2-.6ZM807.2,541.5c3.6-.2,6.3,2.8,6.4,5.8.2,3.3-2.5,6.1-5.6,6.2-3.6.2-6.2-2.5-6.4-5.6,0-.6,0-1.4.4-2.2.7-2.4,2.9-4.1,5.3-4.2ZM816.1,568.2c3.1-.2,6.2,2.2,6.4,5.8.2,3.1-2,6.1-5.6,6.2-3.1.2-6.2-2.2-6.4-5.8-.1-2.5,1-4.4,3.5-5.7.8-.4,1.4-.5,2.2-.6ZM811.8,489.9c-.2-3.1,2.2-6.2,5.8-6.4,3.1-.2,6.1,2.2,6.2,5.8.2,3.1-2.2,6.1-5.8,6.2-2.3.1-4.8-1.2-5.7-3.5-.4-.8-.5-1.4-.6-2.2ZM821,531.4c3.3-.2,6.1,2.7,6.2,5.6.2,3.7-2.8,6.1-5.8,6.2-3.7.2-6.1-2.5-6.2-5.6,0-.9,0-1.7.2-2.2,1-2.4,3.1-3.9,5.6-4ZM821,521.7c-.1-3,2.2-5.9,5.5-6.1,3-.2,6.4,2.2,6.6,5.8.2,3.1-2.2,5.9-5.8,6.1-2.3.1-4.7-1-5.7-3.5-.4-.8-.5-1.5-.6-2.3ZM821,504.8c-.2-3.1,2-6.1,5.6-6.2,3.3-.2,6,1.9,6.2,5.5.2,3.1-1.9,6.2-5.5,6.4-2.5.1-4.8-1.2-6-3.6-.2-.5-.4-1.1-.4-2ZM828.7,579.3c3-.2,6,1.9,6.2,5.5.2,3.1-2.2,6.2-5.8,6.4-3,.2-6-1.9-6.2-5.6-.1-2.7,1-4.4,3.5-5.7.8-.4,1.5-.5,2.3-.6Z"/>
        <path class="st49" d="M877.8,471.2c3.6-.2,6.1,2.8,6.2,5.8.2,3.6-2.8,6.1-5.9,6.3-3.6.2-6.1-2.7-6.2-5.6,0-.6,0-1.4.4-2.2,1-2.6,3.1-4.1,5.6-4.2ZM878.5,489c3.6-.2,6.3,2.8,6.4,5.9.2,3.6-2.7,6.1-5.6,6.2-3.6.2-6.2-2.7-6.4-5.9,0-.6-.2-1.4.2-2,1-2.7,2.8-4.1,5.4-4.2ZM879.4,506.4c3.6-.2,6.3,2.8,6.4,5.9.2,3.6-2.8,6.1-5.8,6.2-3.6.2-6.1-2.8-6.3-5.9,0-.6-.2-1.4.2-2,1-2.7,2.8-4.1,5.4-4.2ZM880.2,523.4c3.6-.2,6.3,2.8,6.4,5.9.2,3.6-2.7,6.1-5.6,6.2-3.6.2-6.2-2.7-6.4-5.9,0-.6-.2-1.4.2-2,1-2.7,2.8-4.1,5.4-4.2ZM881.1,540.9c3.6-.2,6.4,2.5,6.6,5.8.2,3.6-2.7,6.2-5.8,6.4-3.6.2-6.2-2.7-6.4-5.9,0-.6-.2-1.4.2-2,1-2.7,2.8-4.1,5.4-4.2ZM882.2,558.4c3.6-.2,6.2,2.7,6.4,5.6.2,3.6-2.8,6.4-5.9,6.6-3.6.2-6.1-3-6.3-5.9,0-.6-.2-1.4.2-2,1-2.6,3.1-4.1,5.6-4.2ZM883,575c3.6-.2,6.2,2.7,6.4,5.8.2,3.6-2.7,6.2-5.8,6.4-3.6.2-6.3-2.8-6.4-5.9s-.2-1.4.2-2c1-2.6,3.1-4.1,5.6-4.2Z"/>
        <path class="st46" d="M930.7,468.5c3.6-.2,6.1,2.7,6.2,5.6.2,3.6-2.7,6.2-5.9,6.4-3.6.2-6.1-2.7-6.2-5.6,0-.6,0-1.4.4-2.2.7-2.5,3.1-4.1,5.6-4.2ZM931.5,486.4c3.6-.2,6.2,2.7,6.4,5.8.2,3.6-2.7,6.2-5.8,6.4-3.6.2-6.2-2.5-6.4-5.8,0-.6,0-1.4.4-2.2,1-2.7,2.8-4.1,5.4-4.2ZM932.3,503.7c3.6-.2,6.2,2.7,6.4,5.8.2,3.6-2.7,6.2-5.9,6.4-3.6.2-6.1-2.7-6.2-5.8,0-.6,0-1.4.4-2.2,1-2.7,2.8-4.1,5.4-4.2ZM933.2,520.7c3.6-.2,6.2,2.7,6.4,5.8.2,3.6-2.7,6.2-5.8,6.4-3.6.2-6.2-2.5-6.4-5.8,0-.6,0-1.4.4-2.2,1-2.7,2.8-4.1,5.4-4.2ZM934.1,538.2c3.6-.2,6.2,2.7,6.4,5.9.2,3.6-2.7,6.1-5.6,6.2-3.6.2-6.4-2.5-6.6-5.8,0-.6,0-1.4.4-2.2,1-2.7,2.8-4.1,5.4-4.2ZM935.1,555.7c3.6-.2,6.1,2.8,6.2,5.8.2,3.6-2.7,6.2-5.8,6.4-3.6.2-6.2-2.7-6.4-5.8,0-.6,0-1.4.4-2.2,1-2.6,3.1-4.1,5.6-4.2ZM936,572.3c3.6-.2,6.1,2.8,6.3,5.9.2,3.6-2.7,6.1-5.6,6.2-3.7.2-6.4-2.7-6.6-5.8,0-.6,0-1.4.4-2.2,1-2.6,3.1-4.1,5.6-4.2ZM938.3,486.2c-.2-3.1,2.3-6.2,5.9-6.4,3-.2,6.1,2.4,6.3,5.9.2,3-2.4,6.1-5.9,6.3-2.7.1-4.6-1.2-5.8-4.1-.2-.6-.4-1.1-.4-1.7ZM950,499.8c-.2-3.1,2.3-6.2,5.9-6.4,3-.2,6.1,2.4,6.3,5.9.2,3-2.4,6.1-5.9,6.3-2.7.1-4.6-1.2-5.8-4.1-.2-.8-.4-1.4-.4-1.7ZM961.3,512.9c-.1-3,2.4-6.1,5.9-6.3,3-.2,6.1,2.2,6.2,5.8.2,3.1-2.3,6.2-5.9,6.4-2.7.1-4.6-1.2-5.8-4.1-.2-.8-.4-1.4-.4-1.9ZM972.3,525.8c-.2-3,2.2-6.1,5.8-6.2,3.1-.2,6.2,2.3,6.4,5.9.2,3-2.2,6.2-5.8,6.4-2.7.1-4.8-1.6-6-4.2-.2-.8-.4-1.4-.4-1.9ZM983.6,539.3c-.2-3.1,2.3-6.2,5.9-6.4,3-.2,6.2,2.2,6.4,5.8.2,3.1-2.3,6.2-5.9,6.4-2.8.1-4.8-1.2-6-4.1-.2-.6-.4-1.1-.4-1.7ZM995,552.5c-.2-3.1,2.3-6.2,5.9-6.4,3-.2,6.2,2.3,6.4,5.9.2,3-2.3,6.2-5.9,6.4-2.7.1-4.8-1.6-6-4.1-.2-.8-.4-1.4-.4-1.9ZM1005.8,565.1c-.2-3,2.2-6.2,5.8-6.4,3-.2,6.2,2.5,6.4,6.1.1,3-2.4,6.1-5.9,6.3-2.5.1-4.6-1.6-5.8-4.1-.2-.8-.4-1.4-.4-1.9ZM1020.2,463.8c3.6-.2,6.1,2.8,6.3,5.9.2,3.6-2.7,6.1-5.8,6.2-3.6.2-6.2-2.7-6.4-5.8,0-.6,0-1.4.4-2.2,1-2.6,3.1-4.1,5.6-4.2ZM1021.1,481.8c3.6-.2,6.1,2.8,6.2,5.8.2,3.6-2.8,6.1-5.8,6.2-3.6.2-6.1-2.8-6.2-5.8,0-.6-.2-1.4.2-2,1-2.6,3.1-4.1,5.6-4.2ZM1022,499.2c3.6-.2,6.1,2.8,6.2,5.8.2,3.6-2.8,6.3-5.8,6.4-3.6.2-6.1-3-6.3-5.9,0-.6-.2-1.4.2-2,1-2.6,3.1-4.1,5.6-4.2ZM1022.9,516.2c3.6-.2,6.1,2.8,6.2,5.8.2,3.6-2.8,6.1-5.8,6.2-3.6.2-6.1-2.8-6.2-5.8,0-.6-.2-1.4.2-2,1-2.6,3.1-4.1,5.6-4.2ZM1023.8,533.5c3.6-.2,6.2,2.7,6.4,5.8.2,3.6-2.8,6.3-5.9,6.4-3.6.2-6.1-2.8-6.2-5.8,0-.6-.2-1.4.2-2,1-2.6,3.1-4.2,5.6-4.4ZM1024.6,551c3.6-.2,6.2,2.7,6.4,5.8.2,3.6-2.7,6.2-5.8,6.4-3.6.2-6.2-2.7-6.4-5.9,0-.6-.2-1.4.2-2,1-2.4,3.1-4.1,5.6-4.2ZM1025.5,567.6c3.6-.2,6.2,2.7,6.4,5.8.2,3.6-2.7,6.2-5.8,6.4-3.6.2-6.2-2.7-6.4-5.9,0-.6-.2-1.4.2-2,1-2.4,3.1-4.1,5.6-4.2Z"/>
        <path class="st48" d="M1078.5,509.6c.2,3.3-2.2,6.1-5.8,6.2-3.3.2-6.1-2-6.2-5.6-.1-3,1.9-6.2,5.6-6.4,2.5-.1,4.6,1.2,5.8,3.6.4.8.5,1.5.6,2.2ZM1073.6,534.3c-3.7.2-6.1-2.7-6.2-5.8-.2-3.6,2.4-6.1,5.6-6.2,3.6-.2,6.2,2.3,6.4,5.6,0,.8,0,1.6-.3,2.4-1,2.6-2.8,3.9-5.4,4ZM1083.5,491.8c.2,3.1-1.9,6-5.8,6.2-3,.2-6.1-2-6.2-5.8-.2-3,2.2-6.1,5.8-6.2,2.3-.1,4.9,1.3,5.8,3.6.2.8.4,1.4.4,2.2ZM1080.6,551.5c-3.6.2-6.2-2.5-6.4-5.6-.2-3.7,2.7-6.2,5.6-6.4,3.9-.2,6.2,2.7,6.4,5.6,0,.6,0,1.4-.2,2.2-.7,2.4-3.1,4.1-5.4,4.2ZM1093,477.5c.2,3.1-2.4,6.1-5.9,6.3-3,.2-6.1-2.2-6.2-5.8-.2-3.1,2.2-6.2,5.8-6.4,2.3-.1,4.6,1.3,5.8,3.8.4.8.5,1.5.6,2.2ZM1091.1,564.9c-3.6.2-6.1-2.7-6.2-5.8-.2-3.6,2.7-6.2,5.6-6.4,3.6-.2,6.4,2.5,6.6,5.6,0,.8,0,1.6-.4,2.2-1,2.7-3.1,4.2-5.6,4.4ZM1107.9,466.9c.2,3.3-2.2,6.4-5.9,6.6-2.7.1-6-1.7-6.3-5.9-.2-3.1,2.7-6.2,5.9-6.4,2.5-.1,4.8,1.3,5.7,3.6.4.8.5,1.5.6,2.2ZM1107.2,573.9c-3.6.2-6.3-3-6.4-5.9-.2-3.6,2.7-6.2,5.6-6.4,3.6-.2,6.4,2.5,6.6,5.8,0,.8,0,1.4-.4,2.2-.7,2.5-2.9,4.2-5.4,4.3ZM1120.1,468.7c-3.6.2-6.4-2.5-6.5-5.5-.2-4.2,2.8-6.4,5.8-6.6,3.6-.2,6.4,2.5,6.6,5.8,0,.8,0,1.4-.4,2.2-1,2.4-3.1,3.9-5.4,4ZM1131.3,570c.2,3.3-2.2,6.2-5.9,6.4-3,.2-6.2-2-6.4-5.6-.2-3.1,2.3-6.2,5.9-6.4,2.3-.1,4.6,1.2,5.8,3.5.4.8.5,1.5.6,2.2ZM1135,509.6c3.6-.2,6.2,2.5,6.4,5.6.2,3.6-2.7,6.2-5.9,6.4-3.6.2-5.9-2.5-6.1-5.6,0-1.1,0-1.9.2-2.4.7-2.4,2.9-3.9,5.4-4ZM1138.9,470.2c-3.6.2-6.6-2.8-6.7-5.8-.2-4.2,3.1-6.3,5.8-6.4,3.9-.2,6.3,2.8,6.4,5.8,0,.6,0,1.4-.2,2.2-.7,2.4-2.9,4.1-5.3,4.2ZM1149.6,566.8c.2,3.1-2,6.4-5.8,6.6-2.7.1-6.2-1.7-6.4-5.9-.1-3,2.3-6.2,5.9-6.4,2.3-.1,4.6,1.3,5.8,3.6.2.8.4,1.4.4,2.2ZM1152.6,508.7c3.6-.2,6.1,2.7,6.2,5.6.2,3.6-2.7,6.2-5.8,6.4-3.7.2-6.1-2.7-6.2-5.6,0-1.1,0-1.9.2-2.4.7-2.4,3.1-3.9,5.6-4ZM1155,477.7c-3.6.2-5.9-2.8-6.1-5.8-.2-3.6,2.7-6.2,5.8-6.4,3.6-.2,6.3,2.8,6.4,5.9,0,.8,0,1.4-.4,2.1-1,2.4-3.2,4.1-5.7,4.2ZM1165.5,557.7c.1,3-2.2,6.2-5.8,6.4-3.1.2-6.2-2.2-6.4-5.8-.2-3,2.2-6.2,5.8-6.4,2.3-.1,4.6,1.3,5.8,3.6.4.8.5,1.5.6,2.2ZM1168.8,490.1c-3.6.2-6.1-2.5-6.2-5.6-.2-3.6,2.7-6.4,5.6-6.5,3.7-.2,6.3,2.8,6.4,5.8,0,.6,0,1.4-.2,2.2-.7,2.4-3.1,4.1-5.6,4.2ZM1170.3,507.8c3.7-.2,6.1,2.8,6.2,5.8.2,3.6-2.4,6.1-5.9,6.3-3.6.2-5.9-2.4-6.1-5.5,0-.8,0-1.6.3-2.5.7-2.4,2.9-3.9,5.4-4ZM1177.4,530c.2,3-1.9,6.2-5.6,6.4-3.3.2-6.2-2.2-6.4-5.8-.2-3.1,2-6.2,5.6-6.4,2.5-.1,4.8,1.3,6,3.6.2.8.4,1.4.4,2.2ZM1178.2,547c.2,3.1-1.9,6-5.8,6.2-3,.2-6.1-2-6.2-5.8-.2-3.3,2.2-6.1,5.8-6.2,2.3-.1,4.9,1.3,5.8,3.6.2.8.4,1.4.4,2.2Z"/>
      </g>
      <g class="st52">
        <g>
          <path class="st56" d="M421.1,79.8c34,0,62.8,12.7,86.4,37.9l-36,33.4c-14-12.6-30.7-19-50.4-19s-31.9,5.9-43.5,17.8c-11.6,11.9-17.3,27.4-17.3,46.6s5.8,34.7,17.3,46.4c11.6,11.8,26.1,17.7,43.5,17.7s36.6-6.2,50.4-18.6l36,33.4c-23.6,25.3-52.3,37.9-86.4,37.9s-59.8-11.4-82.4-34.2c-22.7-22.8-34-50.3-34-82.6s11.3-59.8,34-82.6c22.7-22.8,50.2-34.2,82.4-34.2Z"/>
          <path class="st56" d="M609.2,79.8h2.3c31,0,61.4,12.7,91.3,37.9l-36.3,33.4c-8.7-5.2-18.5-9.7-29.3-13.4-10.8-3.7-19.4-5.6-25.7-5.6h-2.3c-21.6,0-32.4,6.1-32.4,18.3s.9,5.3,2.8,7.4c1.8,2.1,4.7,3.7,8.7,4.7,3.9,1.1,7.2,1.9,9.8,2.3,2.6.4,6.4,1,11.4,1.6l14.7,1.3c12.4,1.3,23.5,3.5,33.2,6.7,9.7,3.2,18.6,7.5,26.7,12.9,8.1,5.5,14.3,12.7,18.6,21.8,4.4,9.1,6.5,19.6,6.5,31.6,0,22-8.5,39.5-25.4,52.5-16.9,13-39,19.7-66.2,20.1h-1.6c-21.4,0-40.6-4.2-57.6-12.6-17-8.4-31.1-18.9-42.2-31.6l36.3-33.4c17.4,16.8,38.6,25.2,63.5,25.2h1.6c24-.4,36-7.2,36-20.3s-.9-7.2-2.8-9.8c-1.9-2.6-4.9-4.7-9.2-6.2-4.3-1.5-8-2.6-11.3-3.3s-7.9-1.3-13.7-2l-15-1.6c-23.8-2.6-43.1-9.2-58.1-19.6-14.9-10.5-22.4-25.8-22.4-46.1s8.2-39.2,24.7-52.2c16.5-13,37.6-19.7,63.3-20.1Z"/>
          <path class="st56" d="M953,311.1h-33.4l-47.1-116.5-46.8,116.5h-33.4l-93.2-229h61.8l47.4,127.2,47.8-127.2h33l47.8,127.2,47.4-127.2h61.8l-93.2,229Z"/>
        </g>
      </g>
      <g>
        <path class="st47" d="M421.1,63.6c34,0,62.8,12.7,86.4,37.9l-36,33.4c-14-12.6-30.7-19-50.4-19s-31.9,5.9-43.5,17.8c-11.6,11.9-17.3,27.4-17.3,46.6s5.8,34.7,17.3,46.4c11.6,11.8,26.1,17.7,43.5,17.7s36.6-6.2,50.4-18.6l36,33.4c-23.6,25.3-52.3,37.9-86.4,37.9s-59.8-11.4-82.4-34.2c-22.7-22.8-34-50.3-34-82.6s11.3-59.8,34-82.6c22.7-22.8,50.2-34.2,82.4-34.2Z"/>
        <path class="st44" d="M609.2,63.6h2.3c31,0,61.4,12.7,91.3,37.9l-36.3,33.4c-8.7-5.2-18.5-9.7-29.3-13.4-10.8-3.7-19.4-5.6-25.7-5.6h-2.3c-21.6,0-32.4,6.1-32.4,18.3s.9,5.3,2.8,7.4c1.8,2.1,4.7,3.7,8.7,4.7,3.9,1.1,7.2,1.9,9.8,2.3,2.6.4,6.4,1,11.4,1.6l14.7,1.3c12.4,1.3,23.5,3.5,33.2,6.7,9.7,3.2,18.6,7.5,26.7,12.9,8.1,5.5,14.3,12.7,18.6,21.8,4.4,9.1,6.5,19.6,6.5,31.6,0,22-8.5,39.5-25.4,52.5-16.9,13-39,19.7-66.2,20.1h-1.6c-21.4,0-40.6-4.2-57.6-12.6-17-8.4-31.1-18.9-42.2-31.6l36.3-33.4c17.4,16.8,38.6,25.2,63.5,25.2h1.6c24-.4,36-7.2,36-20.3s-.9-7.2-2.8-9.8c-1.9-2.6-4.9-4.7-9.2-6.2-4.3-1.5-8-2.6-11.3-3.3s-7.9-1.3-13.7-2l-15-1.6c-23.8-2.6-43.1-9.2-58.1-19.6-14.9-10.5-22.4-25.8-22.4-46.1s8.2-39.2,24.7-52.2c16.5-13,37.6-19.7,63.3-20.1Z"/>
        <path class="st59" d="M953,294.9h-33.4l-47.1-116.5-46.8,116.5h-33.4l-93.2-229h61.8l47.4,127.2,47.8-127.2h33l47.8,127.2,47.4-127.2h61.8l-93.2,229Z"/>
      </g>
      <g>
        <g>
          <circle class="st10" cx="754.1" cy="381.3" r="32.5"/>
          <line class="st22" x1="787.6" y1="414.6" x2="777.2" y2="404.2"/>
          <line class="st20" x1="799.7" y1="426.9" x2="820.7" y2="447.9"/>
        </g>
        <path class="st21" d="M754.1,361.3c11.1,0,20.1,9,20.1,20.1"/>
      </g>
      <path class="st61" d="M671.4,300c22.2-22.5,49.1-33.9,80.7-34.1,31.6-.2,58.7,10.8,81.4,32.9,22.6,22.2,34,49.1,34.3,80.7.2,31.6-10.8,58.7-32.9,81.2-22.2,22.5-49.2,33.9-81,34.1-31.8.2-59-10.7-81.4-32.9-22.4-22.2-33.7-49.1-33.9-80.7-.2-31.6,10.7-58.7,32.9-81.2ZM752.5,318.6c-16.8.1-30.7,5.9-41.7,17.3-11,11.4-16.5,26.4-16.4,44.9.1,18.5,5.8,33.4,17,44.7,11.2,11.3,25.2,16.8,42,16.7,17-.1,31-5.9,42.1-17.3,11-11.4,16.5-26.4,16.4-44.9-.1-18.5-5.8-33.4-17-44.7-11.2-11.3-25.3-16.8-42.3-16.7Z"/>
      <g>
        <polyline class="st14" points="971.7 297.4 968.3 305.7 959.3 305.7"/>
        <polyline class="st14" points="943.9 305.7 934.9 305.7 931.6 297.4"/>
        <line class="st4" x1="925.8" y1="283.2" x2="891.2" y2="197.6"/>
        <polyline class="st14" points="891.2 197.6 887.8 189.3 884.5 197.6"/>
        <line class="st13" x1="878.7" y1="211.9" x2="844.4" y2="297.4"/>
        <polyline class="st14" points="844.4 297.4 841 305.7 832.1 305.7"/>
        <polyline class="st14" points="816.7 305.7 807.7 305.7 804.3 297.4"/>
        <line class="st1" x1="797.6" y1="281.1" x2="717.8" y2="85.1"/>
        <polyline class="st14" points="717.8 85.1 714.4 76.8 723.4 76.8"/>
        <line class="st23" x1="738" y1="76.8" x2="767.3" y2="76.8"/>
        <polyline class="st14" points="767.3 76.8 776.3 76.8 779.4 85.2"/>
        <line class="st30" x1="785.3" y1="101" x2="820.6" y2="195.6"/>
        <polyline class="st14" points="820.6 195.6 823.7 204 826.9 195.6"/>
        <line class="st0" x1="832.8" y1="179.8" x2="868.3" y2="85.2"/>
        <polyline class="st14" points="868.3 85.2 871.5 76.8 880.4 76.8"/>
        <polyline class="st14" points="895.5 76.8 904.5 76.8 907.7 85.2"/>
        <line class="st0" x1="913.6" y1="101" x2="949.1" y2="195.6"/>
        <polyline class="st14" points="949.1 195.6 952.3 204 955.4 195.6"/>
        <line class="st30" x1="961.3" y1="179.8" x2="996.6" y2="85.2"/>
        <polyline class="st14" points="996.6 85.2 999.7 76.8 1008.7 76.8"/>
        <line class="st19" x1="1023.3" y1="76.8" x2="1052.5" y2="76.8"/>
        <polyline class="st14" points="1052.5 76.8 1061.5 76.8 1058.1 85.1"/>
        <line class="st1" x1="1051.5" y1="101.4" x2="971.7" y2="297.4"/>
      </g>
      <text class="st34" transform="translate(304.4 673.1)"><tspan class="st57" x="0" y="0">CYBERSECURITY WEEK LUXEMBOURG </tspan><tspan class="st35" x="823.2" y="0">SPRING</tspan></text>
      <text class="st65" transform="translate(680 717.5)"><tspan class="st33" x="0" y="0">JUNE</tspan><tspan class="st58" x="111.6" y="0" xml:space="preserve"> 2025</tspan></text>
      <line class="st8" x1="304.6" y1="628.9" x2="1291.1" y2="628.9"/>
      <line class="st8" x1="304.6" y1="736.4" x2="1291.1" y2="736.4"/>
      <g class="st53">
        <path class="st69" d="M497.6,506.5c3.7-.2,6.4,2.5,6.6,5.8.2,3.9-2.7,6.4-5.9,6.6-3.7.2-6.2-2.5-6.4-5.5,0-.8,0-1.7.3-2.7.7-2.4,2.9-4.1,5.4-4.2ZM501.3,523.9c3.9-.2,6.5,2.5,6.7,5.5.2,4.2-3.3,6.9-6.2,7.1-3.9.2-6.4-2.7-6.6-5.6,0-1.1,0-1.7.5-2.5,1-2.6,3.1-4.2,5.6-4.4ZM503.3,586.3c3.7-.2,6.5,2.5,6.7,5.8.2,3.6-2.6,6.6-5.8,6.7-3.9.2-6.7-2.8-6.9-5.9,0-.8,0-1.6.3-2.4,1-2.4,3.1-4.1,5.6-4.2ZM509.2,492c3.6-.2,6.4,2.7,6.6,5.6.2,4.2-2.8,6.9-5.8,7-4.2.2-6.6-3-6.7-5.9,0-.8,0-1.6.3-2.4,1-2.6,3.1-4.2,5.6-4.4ZM516.9,534.5c3.6-.2,6.2,2.5,6.4,5.6.2,3.7-2.2,6.4-5.8,6.6-3.7.2-6.4-2.7-6.6-5.8,0-.6,0-1.4.4-2.2.7-2.5,3.1-4.1,5.6-4.2ZM521.5,593c3.6-.2,6.4,2.8,6.6,5.9.2,3.7-2.8,6.6-5.8,6.7-3.6.2-6.4-2.3-6.5-5.5,0-1.1,0-2,.5-2.8.7-2.4,2.8-4.2,5.3-4.3ZM527.9,486.5c3.3-.2,6.1,2.5,6.2,5.6.2,3.6-2.5,6.5-6.1,6.7-3.6.2-6.2-2.7-6.4-5.8,0-.8,0-1.6.3-2.4,1-2.6,3.2-4.1,5.9-4.2ZM535.7,538.7c3.6-.2,6.5,2.5,6.7,5.6.2,3.3-2.7,6.4-5.9,6.6-3.6.2-6.2-2.3-6.4-5.5,0-.8,0-1.6.3-2.4.6-3,2.8-4.2,5.3-4.3ZM542.1,594.2c3.6-.2,6.1,2.7,6.3,5.9.2,3.7-2.8,6.3-6.1,6.4-3.6.2-6.2-2.5-6.4-5.6,0-.8,0-1.6.4-2.4,1-2.6,3.2-4.2,5.9-4.4ZM546.2,487.3c3.6-.2,6.1,2.7,6.2,5.8.2,3.6-2.5,6.5-5.6,6.7-3.6.2-6.4-2.5-6.5-5.6,0-.8,0-1.6.3-2.4,1-2.7,3.1-4.4,5.6-4.5ZM554.5,544.1c3.9-.2,6.3,2.8,6.4,5.5.2,3.9-2.5,6.7-6.1,6.9-3.6.2-6.1-2.7-6.3-5.9,0-.8,0-1.6.3-2.4,1-2.4,3.1-3.9,5.6-4ZM560.6,587.8c3.6-.2,6.1,2.7,6.3,5.9.2,3.6-2.5,6.5-6.1,6.7-3.6.2-6.1-2.7-6.3-5.9,0-.8,0-1.6.3-2.4.7-2.5,3.1-4.2,5.7-4.4ZM564.1,495.8c4.2-.2,6.7,2.8,6.9,5.8.2,3.7-2.8,6.4-6.1,6.6-3.7.2-6.2-2.7-6.4-5.8,0-.9,0-1.7.2-2.2,1-2.7,2.8-4.2,5.4-4.3ZM569.3,554.9c3.7-.2,6.4,2.7,6.6,5.8.2,3.7-2.3,6.5-5.9,6.7-3.7.2-6.4-2.3-6.5-5.6,0-.8,0-1.7.3-2.7.7-2.4,2.9-4.1,5.6-4.2ZM572.3,572.4c3.6-.2,6.4,2.5,6.5,5.6.2,3.6-2.2,6.7-5.8,6.9-4.2.2-6.7-2.6-6.9-5.8,0-.8,0-1.6.3-2.4,1-2.6,3.2-4.2,5.7-4.4Z"/>
        <path class="st69" d="M619.1,484.6c3.6-.2,6.2,2.7,6.4,5.6.2,3.7-2.7,6.2-5.8,6.4-3.7.2-6.2-2.5-6.4-5.8,0-.6-.2-1.4.2-2,1-2.6,3.2-4.1,5.6-4.2ZM620.1,501.6c3.6-.2,6.1,2.7,6.2,5.6.2,3.6-2.5,6.4-5.8,6.6-3.6.2-6.3-2.8-6.4-5.8,0-.6,0-1.4.4-2.2,1-2.6,3.1-4.1,5.6-4.2ZM620.9,519.9c3.6-.2,6.2,2.7,6.4,5.6.2,3.6-2.7,6.4-5.8,6.6-3.6.2-6.3-2.8-6.4-5.8,0-.6,0-1.4.4-2.2,1-2.6,3.1-4.1,5.4-4.2ZM621.6,536.9c3.6-.2,6.4,2.5,6.5,5.6.2,3.6-2.5,6.4-5.8,6.6-3.6.2-6.2-2.5-6.4-5.8,0-.6,0-1.4.4-2.2,1-2.7,2.6-4,5.3-4.2ZM622.8,554.4c3.6-.2,6.1,2.7,6.2,5.6.2,3.6-2.5,6.4-5.8,6.6-3.6.2-6.2-2.7-6.4-5.8,0-.6,0-1.4.4-2.2,1-2.6,3.2-4.1,5.6-4.2ZM623.7,571.9c3.6-.2,6.1,2.5,6.2,5.5.2,3.7-2.7,6.4-5.9,6.6-3.6.2-6.1-2.5-6.2-5.6,0-.6,0-1.4.4-2.2,1-2.6,3.1-4.1,5.6-4.2ZM624.4,588.4c3.6-.2,6.2,2.5,6.4,5.6.2,3.6-2.3,6.4-5.9,6.6-3.6.2-6.1-2.8-6.2-5.8,0-.6,0-1.4.4-2.2,1-2.4,3.1-4.1,5.4-4.2ZM631.1,489.3c-.2-3.3,2.2-6.4,5.8-6.6,3.1-.2,6.1,2.2,6.2,5.8.2,3-1.9,6.2-5.6,6.4-2.5.1-4.8-1.2-6-3.6-.5-.6-.4-1.4-.4-2ZM646.7,559.1c.2,3.6-2.3,6.2-5.5,6.4-3.6.2-6.5-2-6.7-5.8-.2-3.6,2.3-6.2,5.9-6.4,3.1,0,6.1,2.5,6.2,5.8ZM648.4,487.6c-.2-3.6,2.2-6.1,5.5-6.2,3.3-.2,6.5,1.7,6.7,5.5.2,3.1-2.2,6.2-5.9,6.4-2.7.1-4.4-1-5.7-3.5-.3-.6-.5-1.4-.6-2.2ZM659.2,552.5c3.7-.2,6.1,2.8,6.2,5.8.2,3.6-2.5,6.2-5.6,6.4-3.7.2-6.3-2.8-6.4-5.9,0-.6-.2-1.4.2-2,1-2.6,3.1-4.1,5.6-4.2ZM666.3,488.4c-.2-3.3,2-6.4,5.6-6.5,3.3-.2,6.4,2.2,6.6,5.9.2,3.3-2.1,5.9-5.6,6.1-2.5.1-4.9-1-6.1-3.4-.5-.6-.4-1.4-.4-2ZM676.7,548.5c3.6-.2,6.4,2.7,6.6,5.9.2,3.6-2.7,6.1-5.6,6.2-3.9.2-6.3-2.8-6.4-5.9,0-.6-.2-1.4.2-2,.7-2.4,2.9-4.1,5.3-4.2ZM681.5,496c-.2-3,2-6.2,5.8-6.4,3-.2,6.2,2.2,6.4,5.8.2,3.1-2.3,6.2-5.9,6.4-2.3.1-4.6-1.3-5.8-3.6-.2-.5-.4-1.1-.4-2.2ZM690.7,538.1c3.7-.2,6.1,2.8,6.2,5.8.2,3.7-2.7,6.1-5.8,6.2-3.6.2-6.2-2.5-6.4-5.6,0-.6,0-1.4.4-2.2,1-2.6,3.1-4.1,5.6-4.2ZM690.7,528.5c-.2-3,1.9-6.2,5.6-6.4,3-.2,6.4,2.2,6.6,5.8.2,3.1-2.2,6.1-5.8,6.2-2.5.1-4.8-1-6-3.5-.2-.5-.4-1.2-.4-2.2ZM690.8,511c-.2-3,2-6.1,5.6-6.2,3.1-.2,6.4,2,6.6,5.8.2,3.1-2.2,6.2-5.8,6.4-2.5.1-4.9-1.3-5.8-3.8-.3-.6-.5-1.4-.6-2.2Z"/>
        <path class="st69" d="M745.3,478.8c3.6-.2,6.1,2.8,6.3,5.9.2,3.6-2.7,5.9-5.6,6.1-3.7.2-6.1-2.7-6.2-5.6,0-.9,0-1.7.2-2.2.7-2.4,2.9-4.1,5.4-4.2ZM746.3,496.6c3.6-.2,6.1,2.7,6.2,5.6.2,3.6-2.3,6.2-5.5,6.4-3.6.2-6.2-2.7-6.4-5.9,0-.6-.2-1.4.2-2,1-2.4,2.9-3.9,5.4-4ZM747.1,513.8c3.7-.2,6.1,2.5,6.2,5.6.2,3.6-2.7,6.1-5.6,6.2-3.6.2-6.1-2.7-6.2-5.6,0-.9,0-1.6.2-2,1-2.6,3.1-4.1,5.4-4.2ZM748,530.5c3.6-.2,6.1,2.7,6.2,5.6.2,3.6-2.3,6.2-5.5,6.4-3.6.2-6.2-2.7-6.4-5.8s-.2-1.4.2-2c1-2.7,2.8-4.1,5.4-4.2ZM749,547.8c3.6-.2,5.9,2.4,6.1,5.6.2,3.6-2.7,6.1-5.6,6.2-3.6.2-6.1-2.7-6.2-5.6,0-.9,0-1.6.2-2,1-2.6,3.1-4.1,5.6-4.2ZM749.9,565.5c3.6-.2,5.9,2.4,6.1,5.6.2,3.6-2.7,6.1-5.6,6.2-3.6.2-6.1-2.7-6.2-5.6,0-.9,0-1.6.2-2,1-2.6,3.1-4.1,5.6-4.2ZM750.7,582.2c3.6-.2,5.9,2.4,6.1,5.6.2,3.6-2.7,6.1-5.6,6.2-3.6.2-6.1-2.7-6.2-5.6,0-.9,0-1.6.2-2,1-2.6,3.1-4.1,5.6-4.2ZM757.2,483.4c-.2-3,1.9-6,5.5-6.2,3.1-.2,6.4,2,6.5,5.6.2,3.1-2.2,6.2-5.8,6.4-2.3.1-4.6-1.3-5.8-3.6-.2-.5-.4-1.1-.4-2.2ZM772.4,552.1c.2,3.7-2,6.4-5.3,6.5-3.6.2-6.4-1.9-6.5-5.6-.2-3.6,2.5-6.1,5.6-6.2,3.6,0,6.1,2.2,6.2,5.3ZM774.4,482.6c-.2-3,2-6.2,5.6-6.4,3-.2,6.2,1.9,6.4,5.5.2,3.3-2.2,6.4-5.8,6.6-2.3.1-4.6-1.3-5.8-3.6-.5-.6-.4-1.4-.4-2ZM784.9,546c3.6-.2,6.1,2.7,6.2,5.6.2,3.6-2.8,6.1-5.8,6.2-3.6.2-5.9-2.7-6.1-5.6,0-.6-.2-1.4.2-2,.7-2.5,2.9-4.1,5.4-4.2ZM791.9,482.5c-.1-3,2-6.2,5.6-6.4,3-.2,6.2,2.2,6.4,5.8.2,3-1.9,6-5.8,6.2-2.3.1-4.7-1-5.7-3.5-.4-.8-.5-1.4-.6-2.2ZM798.1,557.6c3.1-.2,6.2,2.2,6.4,5.8.2,3-2,6.1-5.6,6.2-3,.2-6.1-2.2-6.2-5.8-.1-2.3,1-4.4,3.3-5.6.8-.4,1.4-.5,2.2-.6ZM802.3,541.8c3.6-.2,6.3,2.8,6.4,5.8.2,3.3-2.5,6.1-5.6,6.2-3.6.2-6.2-2.5-6.4-5.6,0-.6,0-1.4.4-2.2.7-2.4,2.9-4.1,5.3-4.2ZM811.1,568.5c3.1-.2,6.2,2.2,6.4,5.8.2,3.1-2,6.1-5.6,6.2-3.1.2-6.2-2.2-6.4-5.8-.1-2.5,1-4.4,3.5-5.7.8-.4,1.4-.5,2.2-.6ZM806.9,490.2c-.2-3.1,2.2-6.2,5.8-6.4,3.1-.2,6.1,2.2,6.2,5.8.2,3.1-2.2,6.1-5.8,6.2-2.3.1-4.8-1.2-5.7-3.5-.4-.8-.5-1.4-.6-2.2ZM816,531.7c3.3-.2,6.1,2.7,6.2,5.6.2,3.7-2.8,6.1-5.8,6.2-3.7.2-6.1-2.5-6.2-5.6,0-.9,0-1.7.2-2.2,1-2.4,3.1-3.9,5.6-4ZM816,522c-.1-3,2.2-5.9,5.5-6.1,3-.2,6.4,2.2,6.6,5.8.2,3.1-2.2,5.9-5.8,6.1-2.3.1-4.7-1-5.7-3.5-.4-.8-.5-1.5-.6-2.3ZM816.1,505.1c-.2-3.1,2-6.1,5.6-6.2,3.3-.2,6,1.9,6.2,5.5.2,3.1-1.9,6.2-5.5,6.4-2.5.1-4.8-1.2-6-3.6-.2-.5-.4-1.1-.4-2ZM823.8,579.6c3-.2,6,1.9,6.2,5.5.2,3.1-2.2,6.2-5.8,6.4-3,.2-6-1.9-6.2-5.6-.1-2.7,1-4.4,3.5-5.7.8-.4,1.5-.5,2.3-.6Z"/>
        <path class="st69" d="M872.8,471.5c3.6-.2,6.1,2.8,6.2,5.8.2,3.6-2.8,6.1-5.9,6.3-3.6.2-6.1-2.7-6.2-5.6,0-.6,0-1.4.4-2.2,1-2.6,3.1-4.1,5.6-4.2ZM873.5,489.4c3.6-.2,6.3,2.8,6.4,5.9.2,3.6-2.7,6.1-5.6,6.2-3.6.2-6.2-2.7-6.4-5.9,0-.6-.2-1.4.2-2,1-2.7,2.8-4.1,5.4-4.2ZM874.4,506.7c3.6-.2,6.3,2.8,6.4,5.9.2,3.6-2.8,6.1-5.8,6.2-3.6.2-6.1-2.8-6.3-5.9,0-.6-.2-1.4.2-2,1-2.7,2.8-4.1,5.4-4.2ZM875.3,523.7c3.6-.2,6.3,2.8,6.4,5.9.2,3.6-2.7,6.1-5.6,6.2-3.6.2-6.2-2.7-6.4-5.9,0-.6-.2-1.4.2-2,1-2.7,2.8-4.1,5.4-4.2ZM876.2,541.2c3.6-.2,6.4,2.5,6.6,5.8.2,3.6-2.7,6.2-5.8,6.4-3.6.2-6.2-2.7-6.4-5.9,0-.6-.2-1.4.2-2,1-2.7,2.8-4.1,5.4-4.2ZM877.2,558.7c3.6-.2,6.2,2.7,6.4,5.6.2,3.6-2.8,6.4-5.9,6.6-3.6.2-6.1-3-6.3-5.9,0-.6-.2-1.4.2-2,1-2.6,3.1-4.1,5.6-4.2ZM878,575.3c3.6-.2,6.2,2.7,6.4,5.8.2,3.6-2.7,6.2-5.8,6.4-3.6.2-6.3-2.8-6.4-5.9s-.2-1.4.2-2c1-2.6,3.1-4.1,5.6-4.2Z"/>
        <path class="st69" d="M925.7,468.9c3.6-.2,6.1,2.7,6.2,5.6.2,3.6-2.7,6.2-5.9,6.4-3.6.2-6.1-2.7-6.2-5.6,0-.6,0-1.4.4-2.2.7-2.5,3.1-4.1,5.6-4.2ZM926.5,486.7c3.6-.2,6.2,2.7,6.4,5.8.2,3.6-2.7,6.2-5.8,6.4-3.6.2-6.2-2.5-6.4-5.8,0-.6,0-1.4.4-2.2,1-2.7,2.8-4.1,5.4-4.2ZM927.4,504c3.6-.2,6.2,2.7,6.4,5.8.2,3.6-2.7,6.2-5.9,6.4-3.6.2-6.1-2.7-6.2-5.8,0-.6,0-1.4.4-2.2,1-2.7,2.8-4.1,5.4-4.2ZM928.2,521c3.6-.2,6.2,2.7,6.4,5.8.2,3.6-2.7,6.2-5.8,6.4-3.6.2-6.2-2.5-6.4-5.8,0-.6,0-1.4.4-2.2,1-2.7,2.8-4.1,5.4-4.2ZM929.1,538.5c3.6-.2,6.2,2.7,6.4,5.9.2,3.6-2.7,6.1-5.6,6.2-3.6.2-6.4-2.5-6.6-5.8,0-.6,0-1.4.4-2.2,1-2.7,2.8-4.1,5.4-4.2ZM930.2,556c3.6-.2,6.1,2.8,6.2,5.8.2,3.6-2.7,6.2-5.8,6.4-3.6.2-6.2-2.7-6.4-5.8,0-.6,0-1.4.4-2.2,1-2.6,3.1-4.1,5.6-4.2ZM931,572.6c3.6-.2,6.1,2.8,6.3,5.9.2,3.6-2.7,6.1-5.6,6.2-3.7.2-6.4-2.7-6.6-5.8,0-.6,0-1.4.4-2.2,1-2.6,3.1-4.1,5.6-4.2ZM933.4,486.5c-.2-3.1,2.3-6.2,5.9-6.4,3-.2,6.1,2.4,6.3,5.9.2,3-2.4,6.1-5.9,6.3-2.7.1-4.6-1.2-5.8-4.1-.2-.6-.4-1.1-.4-1.7ZM945,500.1c-.2-3.1,2.3-6.2,5.9-6.4,3-.2,6.1,2.4,6.3,5.9.2,3-2.4,6.1-5.9,6.3-2.7.1-4.6-1.2-5.8-4.1-.2-.8-.4-1.4-.4-1.7ZM956.3,513.2c-.1-3,2.4-6.1,5.9-6.3,3-.2,6.1,2.2,6.2,5.8.2,3.1-2.3,6.2-5.9,6.4-2.7.1-4.6-1.2-5.8-4.1-.2-.8-.4-1.4-.4-1.9ZM967.3,526.1c-.2-3,2.2-6.1,5.8-6.2,3.1-.2,6.2,2.3,6.4,5.9.2,3-2.2,6.2-5.8,6.4-2.7.1-4.8-1.6-6-4.2-.2-.8-.4-1.4-.4-1.9ZM978.7,539.6c-.2-3.1,2.3-6.2,5.9-6.4,3-.2,6.2,2.2,6.4,5.8.2,3.1-2.3,6.2-5.9,6.4-2.8.1-4.8-1.2-6-4.1-.2-.6-.4-1.1-.4-1.7ZM990,552.8c-.2-3.1,2.3-6.2,5.9-6.4,3-.2,6.2,2.3,6.4,5.9.2,3-2.3,6.2-5.9,6.4-2.7.1-4.8-1.6-6-4.1-.2-.8-.4-1.4-.4-1.9ZM1000.8,565.4c-.2-3,2.2-6.2,5.8-6.4,3-.2,6.2,2.5,6.4,6.1.1,3-2.4,6.1-5.9,6.3-2.5.1-4.6-1.6-5.8-4.1-.2-.8-.4-1.4-.4-1.9ZM1015.2,464.2c3.6-.2,6.1,2.8,6.3,5.9.2,3.6-2.7,6.1-5.8,6.2-3.6.2-6.2-2.7-6.4-5.8,0-.6,0-1.4.4-2.2,1-2.6,3.1-4.1,5.6-4.2ZM1016.2,482.1c3.6-.2,6.1,2.8,6.2,5.8.2,3.6-2.8,6.1-5.8,6.2-3.6.2-6.1-2.8-6.2-5.8,0-.6-.2-1.4.2-2,1-2.6,3.1-4.1,5.6-4.2ZM1017,499.5c3.6-.2,6.1,2.8,6.2,5.8.2,3.6-2.8,6.3-5.8,6.4-3.6.2-6.1-3-6.3-5.9,0-.6-.2-1.4.2-2,1-2.6,3.1-4.1,5.6-4.2ZM1017.9,516.5c3.6-.2,6.1,2.8,6.2,5.8.2,3.6-2.8,6.1-5.8,6.2-3.6.2-6.1-2.8-6.2-5.8,0-.6-.2-1.4.2-2,1-2.6,3.1-4.1,5.6-4.2ZM1018.8,533.8c3.6-.2,6.2,2.7,6.4,5.8.2,3.6-2.8,6.3-5.9,6.4-3.6.2-6.1-2.8-6.2-5.8,0-.6-.2-1.4.2-2,1-2.6,3.1-4.2,5.6-4.4ZM1019.7,551.3c3.6-.2,6.2,2.7,6.4,5.8.2,3.6-2.7,6.2-5.8,6.4-3.6.2-6.2-2.7-6.4-5.9,0-.6-.2-1.4.2-2,1-2.4,3.1-4.1,5.6-4.2ZM1020.5,567.9c3.6-.2,6.2,2.7,6.4,5.8.2,3.6-2.7,6.2-5.8,6.4-3.6.2-6.2-2.7-6.4-5.9,0-.6-.2-1.4.2-2,1-2.4,3.1-4.1,5.6-4.2Z"/>
        <path class="st69" d="M1073.5,509.9c.2,3.3-2.2,6.1-5.8,6.2-3.3.2-6.1-2-6.2-5.6-.1-3,1.9-6.2,5.6-6.4,2.5-.1,4.6,1.2,5.8,3.6.4.8.5,1.5.6,2.2ZM1068.6,534.6c-3.7.2-6.1-2.7-6.2-5.8-.2-3.6,2.4-6.1,5.6-6.2,3.6-.2,6.2,2.3,6.4,5.6,0,.8,0,1.6-.3,2.4-1,2.6-2.8,3.9-5.4,4ZM1078.5,492.1c.2,3.1-1.9,6-5.8,6.2-3,.2-6.1-2-6.2-5.8-.2-3,2.2-6.1,5.8-6.2,2.3-.1,4.9,1.3,5.8,3.6.2.8.4,1.4.4,2.2ZM1075.6,551.8c-3.6.2-6.2-2.5-6.4-5.6-.2-3.7,2.7-6.2,5.6-6.4,3.9-.2,6.2,2.7,6.4,5.6,0,.6,0,1.4-.2,2.2-.7,2.4-3.1,4.1-5.4,4.2ZM1088,477.9c.2,3.1-2.4,6.1-5.9,6.3-3,.2-6.1-2.2-6.2-5.8-.2-3.1,2.2-6.2,5.8-6.4,2.3-.1,4.6,1.3,5.8,3.8.4.8.5,1.5.6,2.2ZM1086.1,565.2c-3.6.2-6.1-2.7-6.2-5.8-.2-3.6,2.7-6.2,5.6-6.4,3.6-.2,6.4,2.5,6.6,5.6,0,.8,0,1.6-.4,2.2-1,2.7-3.1,4.2-5.6,4.4ZM1102.9,467.2c.2,3.3-2.2,6.4-5.9,6.6-2.7.1-6-1.7-6.3-5.9-.2-3.1,2.7-6.2,5.9-6.4,2.5-.1,4.8,1.3,5.7,3.6.4.8.5,1.5.6,2.2ZM1102.3,574.2c-3.6.2-6.3-3-6.4-5.9-.2-3.6,2.7-6.2,5.6-6.4,3.6-.2,6.4,2.5,6.6,5.8,0,.8,0,1.4-.4,2.2-.7,2.5-2.9,4.2-5.4,4.3ZM1115.1,469c-3.6.2-6.4-2.5-6.5-5.5-.2-4.2,2.8-6.4,5.8-6.6,3.6-.2,6.4,2.5,6.6,5.8,0,.8,0,1.4-.4,2.2-1,2.4-3.1,3.9-5.4,4ZM1126.3,570.4c.2,3.3-2.2,6.2-5.9,6.4-3,.2-6.2-2-6.4-5.6-.2-3.1,2.3-6.2,5.9-6.4,2.3-.1,4.6,1.2,5.8,3.5.4.8.5,1.5.6,2.2ZM1130,509.9c3.6-.2,6.2,2.5,6.4,5.6.2,3.6-2.7,6.2-5.9,6.4-3.6.2-5.9-2.5-6.1-5.6,0-1.1,0-1.9.2-2.4.7-2.4,2.9-3.9,5.4-4ZM1134,470.5c-3.6.2-6.6-2.8-6.7-5.8-.2-4.2,3.1-6.3,5.8-6.4,3.9-.2,6.3,2.8,6.4,5.8,0,.6,0,1.4-.2,2.2-.7,2.4-2.9,4.1-5.3,4.2ZM1144.7,567.1c.2,3.1-2,6.4-5.8,6.6-2.7.1-6.2-1.7-6.4-5.9-.1-3,2.3-6.2,5.9-6.4,2.3-.1,4.6,1.3,5.8,3.6.2.8.4,1.4.4,2.2ZM1147.7,509c3.6-.2,6.1,2.7,6.2,5.6.2,3.6-2.7,6.2-5.8,6.4-3.7.2-6.1-2.7-6.2-5.6,0-1.1,0-1.9.2-2.4.7-2.4,3.1-3.9,5.6-4ZM1150,478c-3.6.2-5.9-2.8-6.1-5.8-.2-3.6,2.7-6.2,5.8-6.4,3.6-.2,6.3,2.8,6.4,5.9,0,.8,0,1.4-.4,2.1-1,2.4-3.2,4.1-5.7,4.2ZM1160.5,558c.1,3-2.2,6.2-5.8,6.4-3.1.2-6.2-2.2-6.4-5.8-.2-3,2.2-6.2,5.8-6.4,2.3-.1,4.6,1.3,5.8,3.6.4.8.5,1.5.6,2.2ZM1163.8,490.5c-3.6.2-6.1-2.5-6.2-5.6-.2-3.6,2.7-6.4,5.6-6.5,3.7-.2,6.3,2.8,6.4,5.8,0,.6,0,1.4-.2,2.2-.7,2.4-3.1,4.1-5.6,4.2ZM1165.3,508.1c3.7-.2,6.1,2.8,6.2,5.8.2,3.6-2.4,6.1-5.9,6.3-3.6.2-5.9-2.4-6.1-5.5,0-.8,0-1.6.3-2.5.7-2.4,2.9-3.9,5.4-4ZM1172.4,530.3c.2,3-1.9,6.2-5.6,6.4-3.3.2-6.2-2.2-6.4-5.8-.2-3.1,2-6.2,5.6-6.4,2.5-.1,4.8,1.3,6,3.6.2.8.4,1.4.4,2.2ZM1173.3,547.3c.2,3.1-1.9,6-5.8,6.2-3,.2-6.1-2-6.2-5.8-.2-3.3,2.2-6.1,5.8-6.2,2.3-.1,4.9,1.3,5.8,3.6.2.8.4,1.4.4,2.2Z"/>
      </g>
    </g>
  </g>
</svg>