<?xml version="1.0" encoding="UTF-8"?>
<svg xmlns="http://www.w3.org/2000/svg" xmlns:xlink="http://www.w3.org/1999/xlink" version="1.1" viewBox="0 0 1200 627">
  <!-- Generator: Adobe Illustrator 29.1.0, SVG Export Plug-In . SVG Version: 2.1.0 Build 142)  -->
  <defs>
    <style>
      .st0 {
        stroke-dasharray: 13.9 13.9 0 0 0 0;
      }

      .st0, .st1, .st2, .st3, .st4, .st5, .st6, .st7, .st8, .st9, .st10, .st11, .st12, .st13, .st14, .st15, .st16, .st17, .st18, .st19, .st20, .st21, .st22, .st23, .st24, .st25, .st26, .st27, .st28, .st29, .st30, .st31, .st32 {
        fill: none;
      }

      .st0, .st1, .st2, .st3, .st5, .st6, .st7, .st8, .st9, .st12, .st13, .st14, .st15, .st17, .st18, .st19, .st20, .st21, .st22, .st23, .st24, .st25, .st26, .st27, .st31, .st32 {
        stroke-linecap: round;
      }

      .st0, .st1, .st2, .st3, .st5, .st7, .st8, .st12, .st14, .st17, .st18, .st22, .st23, .st30, .st31 {
        stroke-linejoin: round;
      }

      .st0, .st1, .st3, .st5, .st8, .st12, .st14, .st17, .st22, .st23, .st31 {
        stroke-width: 1.7px;
      }

      .st0, .st3, .st7, .st8 {
        stroke: #00b0eb;
      }

      .st33 {
        stroke-width: .9px;
      }

      .st33, .st34 {
        fill: #0000f8;
      }

      .st33, .st4, .st6, .st35, .st36, .st37, .st9, .st11, .st13, .st15, .st16, .st19, .st20, .st21, .st24, .st25, .st26, .st27, .st28, .st29, .st32 {
        stroke-miterlimit: 10;
      }

      .st33, .st36, .st37, .st32 {
        stroke: blue;
      }

      .st38 {
        fill: url(#linear-gradient2);
      }

      .st39 {
        fill: url(#linear-gradient1);
      }

      .st40 {
        fill: url(#linear-gradient3);
      }

      .st41 {
        fill: url(#linear-gradient4);
      }

      .st42, .st43, .st44 {
        mix-blend-mode: multiply;
      }

      .st42, .st43, .st45 {
        opacity: .2;
      }

      .st42, .st46, .st47 {
        fill: #1a1818;
      }

      .st1 {
        stroke-dasharray: 13.6 13.6 0 0 0 0;
      }

      .st1, .st5, .st12, .st14, .st17, .st22, .st23, .st31 {
        stroke: #e8292a;
      }

      .st2 {
        stroke: #faa133;
        stroke-width: 8.5px;
      }

      .st48, .st49 {
        font-size: 24.2px;
        letter-spacing: .2em;
      }

      .st48, .st50 {
        font-family: Acrom-ExtraBold, Acrom;
        font-weight: 700;
      }

      .st3 {
        stroke-dasharray: 13.8 13.8 0 0 0 0;
      }

      .st4 {
        stroke-width: 2px;
      }

      .st4, .st35, .st10, .st18, .st28, .st29, .st30 {
        stroke: #c7c9ca;
      }

      .st5 {
        stroke-dasharray: 11.8 11.8 0 0 0 0;
      }

      .st6, .st15, .st19, .st21, .st24 {
        stroke: #fff;
      }

      .st6, .st15, .st21, .st24 {
        stroke-width: .7px;
      }

      .st35, .st9, .st13, .st18, .st28, .st30 {
        stroke-width: 3.5px;
      }

      .st35, .st51 {
        fill: #fff;
      }

      .st52 {
        fill: #e6001c;
      }

      .st53, .st44 {
        fill: #e6001c;
      }

      .st36 {
        stroke-width: 1.6px;
      }

      .st36, .st37, .st54 {
        fill: blue;
      }

      .st37 {
        stroke-width: 1px;
      }

      .st7 {
        stroke-width: .5px;
      }

      .st55 {
        fill: url(#linear-gradient);
      }

      .st8 {
        stroke-dasharray: 13.4 13.4 0 0 0 0;
      }

      .st9 {
        stroke-dasharray: 0 7 0 0 0 0;
      }

      .st9, .st13 {
        stroke: #0b8535;
      }

      .st56 {
        fill: #c7c9ca;
      }

      .st10 {
        stroke-width: 2.1px;
      }

      .st11, .st19 {
        stroke-width: .9px;
      }

      .st11, .st20 {
        stroke: #97999c;
      }

      .st12 {
        stroke-dasharray: 11.3 11.3 0 0 0 0;
      }

      .st57 {
        isolation: isolate;
      }

      .st58 {
        fill: #ff004d;
      }

      .st59 {
        fill: #00b0eb;
      }

      .st15 {
        stroke-dasharray: 9.9 2.5;
      }

      .st60 {
        fill: #ff0;
      }

      .st16, .st25 {
        stroke-width: 7.7px;
      }

      .st16, .st25, .st26, .st27 {
        stroke: #aeb0b3;
      }

      .st44, .st61 {
        font-family: Perfograma-Regular, Perfograma;
        font-size: 52.4px;
      }

      .st17 {
        stroke-dasharray: 13 13 0 0 0 0;
      }

      .st47 {
        font-family: Acrom-Regular, Acrom;
      }

      .st62 {
        fill: #818386;
      }

      .st63, .st50 {
        fill: #ec431f;
      }

      .st64 {
        fill: #009cea;
      }

      .st19 {
        stroke-dasharray: 10.5 2.6;
      }

      .st65 {
        fill: #eeeeef;
      }

      .st66 {
        fill: url(#New_Gradient_Swatch_3);
      }

      .st67 {
        fill: url(#New_Gradient_Swatch_2);
      }

      .st20 {
        stroke-width: 3.5px;
      }

      .st68 {
        fill: red;
      }

      .st21 {
        stroke-dasharray: 8.7 2.2;
      }

      .st61 {
        fill: #00a3ff;
      }

      .st69 {
        fill: #aeb0b3;
      }

      .st70 {
        fill: #3db8ff;
      }

      .st22 {
        stroke-dasharray: 11.3 11.3 0 0 0 0;
      }

      .st23 {
        stroke-dasharray: 11.9 11.9 0 0 0 0;
      }

      .st71 {
        fill: #4fc7ff;
      }

      .st24 {
        stroke-dasharray: 11.8 3.7;
      }

      .st26 {
        stroke-width: 7.6px;
      }

      .st27 {
        stroke-width: 17.9px;
      }

      .st29 {
        stroke-width: 2.4px;
      }

      .st72 {
        fill: #e5001c;
      }

      .st73 {
        fill: #faa133;
      }

      .st74 {
        clip-path: url(#clippath);
      }

      .st31 {
        stroke-dasharray: 13 13 0 0 0 0;
      }

      .st32 {
        stroke-width: 14.3px;
      }
    </style>
    <clipPath id="clippath">
      <path class="st10" d="M897,185.6c.6,0,.4.9.9,1,.3.1.3.6.6.7.2-.1.7-.4.9-.4.3,0,.2.4.3.6.1,0,.4.2.5.3-.2.5.4.5.7.4.4-.2.9.2,1.3.2.4,0,.1.8.2,1.1,0,.4.3,1,.8.7.2-.2.6,0,.4.2,0,0,0,.2,0,.2-.1,0-.5-.2-.5,0,0,.4.3.6.4.9,0,.1.2.5.4.4,0-.3,0-.6.4-.5,1.2-.4.3.5.2,1.1.1.5.9.6,1.2.9.3-.1,1-.8,1.1-.1,1.1,0,1.6,1.2,2.3,1.7,0,.3.5.2.7,0,0,0,.3.2.4,0,.2-.1.5.3.7.4.8-.7,1.2.6,1.8.9,1.6,1,.5-2.1.8-2.8.2-1.9,0-3.9,0-5.8-1.3-5.1-2.4-3.9,1.2-8,3-3-4.8-3.4-1.4-5.7.8-.8,1.3.5,2,.1.6-.7-.5-1.2-.7-1.8-.3-1.1.6-1.9,1.3-2.6.6-.2,1.3-.2,1.8-.7.7-.8,1-1.9,1.9-2.5,1.7-1.7,1.6-4.7,3-6.9,1-2.3-3.7-1.5-.2-4.1,1.9-1.1,1.8-3,3.4-3.8,2.2-.7,6.8-4.2,3.8-5.9,0-2,1.6.5,2.3.3,1.2-1-2-1.5-1.5-2.7-.4-3,0-3.4,2-5.3-1.8-3.9,1-3.3-1.2-4.7-.7-1.3,2.3-2,2.7-3.4-1.6-4.8-1.2,3.4-3.1-.7-2.6-.6-3.8-4-5.3-1.8-.6.7-1.2,1.5-2.2,1.2-.7-.9-1,.1-1.9.1-.7-.9-1-1.2-2.4-1.4-3.1-.6-6.4-10.7-9.2-4.5-.2,1.4-2.4,1-2.1-.3.7-1.5-.8-2.6-.8-3.8.1-1.7-1.2-1.3-2-.7-.3,0-1.2-1.9-2-2.3-1.5.5-.8.3-2.2-.3-.9-.6-1.5-2.1-2.1-3-1.5.1-3-2.7-1.7-3.1.5-2.1-3.6-1.6-.9-3.2.3-3.3-1.7-2-.4-4-.1,0-1.7,0-1.8-.9-.7-.8-1.1,1.9-1.3,1-.5-.8-.4-2-.7-2.9,0-2.2-1.9.4-.9,1.2.7.3.4.7,0,.9-1.8.8-.5-1.8-2-2-1-1.5-.3-2.8,0-4.4-1.7-.5-1.5.2-2.4-1.7-1.1.3-2.1-1.6-.5-.8,1.4-2.3.7-2.4,0-2.5-2.3-.5,2.6-2-1.6-3.7,1.4-2.8-1.6-3.4-1-5.9-.2-.1-.4-.2-.6,0-.4,2.2-1.5-.5-.7-1.1.1-.2.4-.1,1.1.2-.1-1.1,2.3-2,.2-2.5-.3.4.2,1.9-1,1-.2-.4.4-1.6.9-1.4.2-.9-1.1-2.9.8-2.3,1.8.2-.7-1.2-.1-1.9,1.6,0,1.1-.4.5-1.3,1.3-1.5-.1-.9-.8-1.4,0-.8.3-1.5,1.1-1.7,0-.2.2-.8.3-1.1-1,.4-1.3-.9-2.1-1.2-.2,0-.9.1-1-.1,0-.6.2-1.4.7-1.8.2-.2.6-.6.9-.6-.1-.2-.3-.4-.5-.5-2.4-1.6,1.7-1.3-1.6-3.3-.1,0-.6-.5-.8-.5-.2.1-.4.3-.7.3-.5.1-1.1-.2-1.4-.5-1.3-.2-.2,1.5-.7,2.8.1.4-.7.1-1,.1-1,1.4-1.9.4-3-.1-3.6-1.6-1.5-2-3-5-.9.2-2.1,1.2-3.1,1.4-2.5.3-4.4-.9-4.5,2.5-.2.2.4,1.2.5,1.6-.2.3-.7.4-.9.7,0,.4.2,1.2.2,1.6-.3.4-.4,1-.2,1.4.4,1.2-.7.7-1.4,1.2-4.7.5-7.8,4.3-7.6,8.9.4,2.1-2.2,1-2.9,2.5-3.8,3,2.3,3.1-.3,6.1-1.1.3-.5,1.3-.4,2-1.8.6-.3,1.7-3.4,2.3-.2.2-.5.3-.6.6-.4,0-1.2,0-1,.6-.2.2.1.7.1.9-.1.6,0,1.2.2,1.8.3.3.7.5.9.9.1.5.5.2.8.2.9,1-.3,3.2-1.6,3.1-.4.6-.9.8-1.6.7-.2.2,0,.6-.3.8.1.3.1.6-.2.8-.1.1-.3,0-.5,0-.4.1-.7-.2-.9-.4-.4.2-.7.3-.7.8-1.1.7-.8-.5-1.8.3,0,.4,0,.6-.3.8.2.4.2.8-.2,1.1-.2.4-.1.8.1,1.2-.3.3.2.7.2,1.1,0,.3-.6.5-.5.9-.1.6,0,.7-.7.8-.1.5-.1,1.2-.2,1.5-.2,0,0,.3,0,.5,0,.3-.1.6,0,.9-.4.5-1.3,1-1.9,1.4-.2.4-.5.9-1,1.1.1.2-.2.4-.3.5-.9,1,.5.9,1,1.4.8.9,2.1.8,3.1,1.3.2.6,1,.3,1.1.8,0,.3.5.4.6.8-.2.7,0,.7-.6.5-.5,0,1.7.9-.2.8-.4,1.5-.5.8-.9,0-.3,0-.4.5-.7.6-.5,0-.6-.7-1-.7-.5.3-.3.9,0,1.2,0,.5-.4,1,.1,1.3.9.8-.2.7-.7.9-.1.2-.8,0-.6.4.4.3,1.1,0,1.4.6.1,1.7-1.2.2-1.2.9-.1.3,0,.7.2.9,0,.9-1,0-1.2.8,0,.4.3.7.5,1,.3,1,.8,1.4,0,2.2,0,.5.4.9.7,1.2-.2,1.1.1,2.2.4,3.3-.3,1.7,1.3.5,2.3.5.5-.5.6,0,1.1.1.9-1.1,1.1-.6,1.6.5-.2.9.6,1.1.8,1.8.3.9,1.2,1,1.3,2.4,0,.5.5,1,.8,1.4.2.5.2,1.3.6,1.7.2.7,1.5.2,1.2,1.2.2,1.5-.7.9-.4,2.3-.4.4,0,.9-.2,1.4-.2.9.4.5.9.4,2.9,1.1,1.9-1.9,5.3.4.2.3,0,.6,0,.8.4.4,1,1.2,1.3,1.4-2.4,3.4-5,5.4-.2,7.9.2.2.4.4.8,0,.3.5,1.1.5,1.5.4.2.2-.3,1,.5.5,1.2-.5-1,1.5-.5,3.4,2.1,4.1-3.3.5-2.1,3.8-1.4.8-1.4,2.3-1.4,3.7-.7.4-1.4.7-2,1.4-.5.2-1.1.5-1.3,1,0,1.3.7,2.3,2.1,1.7.2-.4.3-.4.6-.2.3.8,0,.8-.4,1.5.4,0,.4.2.3.5,0,.2.1.6,0,.8-.5-.1-.7.6-1.1.7,0,.2,0,.6-.3.7-.5,0-.9.3-1.1.6-.7,0-.8.7-.5,1.3-.2.6-.9.8-1.5.9-.1,0-.4.3-.5.4-.1,0-.3-.2-.4-.1-.6.1-.9,1-1.3,1-1.3,0,0,1,.3,1.5.8-.3,1.6-.9,2.5-1.1.1.5.2,1.2.6,1.7.9,1.4-1.5.5-.9,2.4.6,1.1,2.1.9,1.8,2.4,1.4.3,1.7,2.1,2.5,1.9.3-.2.5,0,.6.2,1.8-.5,2.3,1.2,4.3-.6,1-.5,2,1.1,2.9.4,1-.7,1.8.6,2.5,1.1.6.2,1.5-.4,1.9.4,0,.5,0,1,.2,1.5.3.2.6.3.6.7.2.4,0,1-.3,1.3.1.8.3,1.8.9,2.5.3,0,.4-.3.5-.5.7-.3.7.5.5.9,0,1.1-.9-.4-1,1,.6,1.5,2.5-1.8,3.3-.3.1.1.4.6.6.2.5,0,1.2-.3,1.8-.4.5.1.5.7.3,1.1,0,.1.2.2.3,0,.3,0,.8,0,1.1.2,1.3,1,1.2-4.6,3-3.2.3,0,.6,0,.8,0,.2,0,.6-.4.6-.2-.4.5.6-.1.8.3.2.3,0,.9,0,1.2.6.6,1.6,1.1,2.5,1,0-1.1-.6-2.3.3-3.2.4-.5,1-.6,1.3,0,.6-.3,1.3-.4,1.1-1.2.7-.9.3-2.1.6-3.1.3,0,.3.6.6.7.7,0,1.6-.9,1,.5.4,0,.8-.6,1.2-.7.3,0,.3-.5.5-.6,0,0,.2.3.3.4.1,0,.4-.1.5-.2,0-.5-.7-1-.8-1.6-.1-1,1.7-.7,2.3-1.6.5-.6.4,0,.6.3.3,0,.8-.2,1,0,.2.2.7,0,.9,0,.3.4.8.2,1.2,0,.7.2,2,.4,1.7-.7.1,0,.4.2.5.2.2,0,.7-.4.9-.2,0,0,.2,0,.2,0,.2-.3.7.3.9.1.2-.1.1-.7.2-.9.4,0,0-.8-.3-.7"/>
    </clipPath>
    <linearGradient id="linear-gradient" x1="860" y1="233" x2="860" y2="141.4" gradientUnits="userSpaceOnUse">
      <stop offset="0" stop-color="#00b0eb"/>
      <stop offset="1" stop-color="#4072b9"/>
    </linearGradient>
    <linearGradient id="New_Gradient_Swatch_3" data-name="New Gradient Swatch 3" x1="711" y1="261.5" x2="1262.1" y2="261.5" gradientTransform="translate(-369.1 191.3) rotate(-2.2) scale(1 1)" gradientUnits="userSpaceOnUse">
      <stop offset="0" stop-color="#f6e724"/>
      <stop offset="1" stop-color="#ec7507"/>
    </linearGradient>
    <linearGradient id="New_Gradient_Swatch_2" data-name="New Gradient Swatch 2" x1="714.1" y1="261" x2="1265.2" y2="261" gradientTransform="translate(-369.1 191.3) rotate(-2.2) scale(1 1)" gradientUnits="userSpaceOnUse">
      <stop offset="0" stop-color="#ec7507"/>
      <stop offset="1" stop-color="#a80608"/>
    </linearGradient>
    <linearGradient id="linear-gradient1" x1="297.1" y1="406.7" x2="283.4" y2="333.3" gradientUnits="userSpaceOnUse">
      <stop offset="0" stop-color="#4072b9"/>
      <stop offset="1" stop-color="#00b0eb"/>
    </linearGradient>
    <linearGradient id="linear-gradient2" x1="499.2" y1="226.4" x2="499.2" y2="149.7" xlink:href="#linear-gradient"/>
    <linearGradient id="linear-gradient3" x1="499.2" y1="226.4" x2="499.2" y2="149.7" xlink:href="#linear-gradient"/>
    <linearGradient id="linear-gradient4" x1="499.2" y1="226.4" x2="499.2" y2="149.7" xlink:href="#linear-gradient"/>
  </defs>
  <g class="st57">
    <g id="LHC_LOGO">
      <g>
        <g>
          <polygon class="st64" points="1049.5 546.1 1049.5 538.3 1041.8 538.3 1034.2 545.8 1034.2 553.6 1042 553.6 1049.5 546.1"/>
          <polygon class="st64" points="1026.7 568.8 1026.7 561.1 1019 561.1 1011.4 568.6 1011.4 576.3 1019.2 576.3 1026.7 568.8"/>
          <polygon class="st72" points="1041.7 576.4 1049.5 576.4 1049.5 568.7 1041.9 561.1 1034.2 561.1 1034.2 568.9 1041.7 576.4"/>
          <polygon class="st72" points="1018.9 553.5 1026.7 553.5 1026.7 545.8 1019.1 538.3 1011.4 538.3 1011.4 546 1018.9 553.5"/>
        </g>
        <g>
          <polygon class="st51" points="1021.8 561.7 1021.8 548 1030.1 547.1 1030.7 547.1 1039.1 548 1039.1 561.7 1031 568.5 1029.9 568.5 1021.8 561.7"/>
          <path class="st51" d="M1030.8,547.8l7.6.9v12.6l-7.6,6.4h-.5s-7.6-6.4-7.6-6.4v-12.6l7.6-.9h.5M1030.8,546.3h0s-.5,0-.5,0h0s0,0,0,0l-7.6.9-1.3.2v14.7l.5.5,7.6,6.4.4.4h.6s.5,0,.5,0h.5s.4-.4.4-.4l7.6-6.4.5-.5v-14.7l-1.3-.2-7.6-.9h0Z"/>
        </g>
        <g>
          <polygon class="st64" points="1030.2 547.8 1022.6 548.7 1022.6 561.3 1030.2 567.7 1030.2 547.8"/>
          <polygon class="st72" points="1030.8 547.8 1038.4 548.7 1038.4 561.3 1030.8 567.7 1030.8 547.8"/>
        </g>
        <g>
          <path class="st46" d="M1060.3,574.3v-10.5h2.4v8.3h4.2v2.2h-6.6Z"/>
          <path class="st46" d="M1073.7,574.5c-2.8,0-4.4-1.5-4.4-4.4v-6.2h2.4v6.1c0,1.5.6,2.4,2,2.4s2-.9,2-2.4v-6.1h2.4v6.2c0,2.9-1.7,4.4-4.5,4.4Z"/>
          <path class="st46" d="M1088,574.3l-2.1-3.5-2.1,3.5h-2.9l3.5-5.1-3.5-5.4h2.9l2.1,3.5,2.1-3.5h2.9l-3.5,5.1,3.5,5.4h-2.9Z"/>
          <path class="st46" d="M1093.8,574.3v-10.5h6.6v2.2h-4.2v1.9h3.8v2.1h-3.8v2h4.2v2.2h-6.6Z"/>
          <path class="st46" d="M1112.5,574.3v-5.2c-.1,0-3,3.7-3,3.7h-.3l-2.9-3.7v5.2h-2.5l.5-10.6h.3s4.8,6,4.8,6l4.6-6h.3s.5,10.6.5,10.6h-2.4Z"/>
          <path class="st46" d="M1121.6,574.4c-.9,0-2.1,0-3.1-.2v-10.3c.8-.1,2.1-.2,2.9-.2,3.1,0,4.6,1.4,4.6,2.8s-.6,1.8-1.8,2.3c1.4.4,2.1,1.3,2.1,2.5s-1.5,3.1-4.7,3.1ZM1121.9,565.8c-.4,0-.8,0-1.1,0v2.2c.3,0,.5,0,.9,0,1.2,0,1.8-.4,1.8-1.2s-.5-1.1-1.6-1.1ZM1121.8,569.8c-.4,0-.7,0-.9,0v2.4c.3,0,.5,0,1,0,1.2,0,1.8-.5,1.8-1.3s-.6-1.3-1.9-1.3Z"/>
          <path class="st46" d="M1134.5,574.5c-3.3,0-5.3-2.3-5.3-5.4s2.2-5.4,5.4-5.4,5.3,2.3,5.3,5.4-2.2,5.4-5.4,5.4ZM1134.6,565.8c-1.7,0-2.8,1.4-2.8,3.3s1.1,3.3,2.8,3.3,2.8-1.4,2.8-3.3-1.1-3.3-2.8-3.3Z"/>
          <path class="st46" d="M1147.6,574.5c-2.8,0-4.4-1.5-4.4-4.4v-6.2h2.4v6.1c0,1.5.6,2.4,2,2.4s2-.9,2-2.4v-6.1h2.4v6.2c0,2.9-1.7,4.4-4.5,4.4Z"/>
          <path class="st46" d="M1161.3,574.3l-1.8-3.4c-.1,0-.3,0-.4,0-.4,0-.6,0-.9,0v3.4h-2.4v-10.4c.9-.1,1.9-.2,3.1-.2,3.3,0,4.6,1.6,4.6,3.5s-.7,2.4-1.8,3l2.5,4.1h-2.8ZM1159.1,565.9c-.4,0-.6,0-.9,0v2.9c.3,0,.5,0,.8,0,1.2,0,1.9-.6,1.9-1.6s-.7-1.4-1.7-1.4Z"/>
          <path class="st46" d="M1175.8,568.4v5c-1.2.7-2.4,1.1-4,1.1-3.1,0-5.5-2.2-5.5-5.4s2.5-5.4,5.6-5.4,2.5.4,3.5.9l-1,2c-.7-.4-1.5-.6-2.4-.6-2.1,0-3.2,1.3-3.2,3.2s1.3,3.3,3.1,3.3,1.2,0,1.5-.3v-1.5h-2.1v-2.1h4.4Z"/>
        </g>
        <g>
          <path class="st64" d="M1063.8,555.6c-.2,0-.5,0-.8,0-.3,0-.6-.1-.9-.3-.3-.1-.6-.3-.8-.6-.3-.2-.5-.6-.7-.9s-.4-.9-.5-1.5c-.1-.6-.2-1.3-.2-2.1v-5.6c0-.8,0-1.5.2-2.1.1-.6.3-1,.5-1.4s.4-.7.7-.9c.3-.2.5-.4.8-.5s.6-.2.9-.2c.3,0,.5,0,.8,0,.6,0,1.2,0,1.6.3s.8.4,1,.7.4.7.6,1.1c.1.4.2.8.2,1.3s0,.7,0,.9c0,.3,0,.6-.2,1h-2v-.8c0-.9,0-1.5-.3-2s-.5-.7-.8-.7-.4,0-.6.1c-.2,0-.3.2-.4.4-.1.2-.2.5-.3.8,0,.3,0,.8,0,1.3v7.3c0,.5,0,.9,0,1.2,0,.3.1.6.2.8s.2.3.4.4c.2,0,.4.1.6.1s.3,0,.4-.1.3-.2.4-.3.2-.3.3-.6c0-.2,0-.5,0-.8v-1.6h2.2v1.5c0,1.3-.3,2.2-.9,2.8-.6.6-1.4.9-2.5.9Z"/>
          <path class="st64" d="M1071.4,550.1l-3.2-10.6h2.4l2,7.6h.1l1.9-7.6h2.4l-3.2,10.6v5.3h-2.4v-5.3Z"/>
          <path class="st64" d="M1078.9,539.5h2.4c.4,0,.7,0,1.1,0,.4,0,.8,0,1.1.2s.7.2,1,.4c.3.2.6.4.9.6.2.3.4.6.6,1,.1.4.2.9.2,1.4v.8c0,.4,0,.8-.2,1.2-.1.4-.3.7-.5.9-.2.3-.4.5-.7.7s-.5.3-.8.4h0c.8.2,1.4.6,1.8,1.2.4.6.6,1.4.6,2.3v.8c0,.6,0,1.1-.2,1.5-.1.4-.3.8-.5,1.1-.2.3-.5.5-.8.7-.3.2-.7.3-1,.5-.4.1-.8.2-1.2.2s-.9,0-1.3,0h-2.5v-15.9ZM1081.7,546.3c.3,0,.6,0,.9-.1s.5-.2.7-.4.3-.4.4-.6c.1-.3.2-.6.2-1v-.7c0-.4,0-.7-.1-1,0-.3-.2-.5-.4-.7-.2-.2-.4-.4-.7-.5-.3-.1-.6-.2-1-.2h-.5v5.1h.5ZM1081.9,553.7c.3,0,.6,0,.9-.1.3,0,.5-.2.7-.4s.3-.4.4-.7c.1-.3.2-.6.2-1v-1.2c0-.4,0-.7-.1-1,0-.3-.2-.5-.4-.7-.2-.2-.4-.3-.7-.4-.3-.1-.6-.2-1-.2h-.7v5.7h.7Z"/>
          <path class="st64" d="M1089,539.5h5.9v1.9h-3.5v4.8h2.7v1.9h-2.7v5.5h3.6v1.9h-6v-15.9Z"/>
          <path class="st64" d="M1097.1,539.5h2.6c.3,0,.6,0,1,0,.4,0,.7,0,1.1.2.4,0,.7.2,1,.4s.6.5.9.8.5.8.6,1.3c.2.5.2,1.1.2,1.8v.4c0,1.2-.2,2.2-.5,3-.3.8-.9,1.3-1.5,1.6l2.6,6.4h-2.6l-2.1-6h-.9v6h-2.4v-15.9ZM1099.9,547.7c.4,0,.8,0,1.1-.1.3,0,.5-.3.7-.5s.3-.5.4-.9.1-.8.1-1.3v-1.3c0-.4,0-.8-.1-1.1,0-.3-.2-.5-.4-.7-.2-.2-.4-.3-.7-.4-.3,0-.7-.1-1.1-.1h-.4v6.5h.4Z"/>
          <path class="st64" d="M1106.7,552.2c0-.3,0-.7,0-.9,0-.3.1-.6.2-.9h1.9v.8c0,.4,0,.8,0,1.1,0,.3.1.6.3.8.1.2.3.4.5.5.2.1.4.2.7.2.5,0,.8-.1,1.1-.4.2-.3.4-.6.4-1.1s0-.5,0-.7c0-.2,0-.4-.2-.6,0-.2-.2-.4-.3-.6-.1-.2-.3-.5-.6-.8l-2.5-3c-.4-.6-.8-1.1-1-1.7-.2-.6-.4-1.2-.4-1.9s0-1,.2-1.5c.2-.4.4-.8.7-1.1.3-.3.7-.6,1.2-.7s1-.3,1.6-.3,1.3.1,1.8.3c.5.2.8.5,1.1.8s.5.7.6,1.1.2.8.2,1.2,0,.7,0,.9c0,.3-.1.6-.2,1h-1.9v-.8c0-.8-.1-1.5-.4-1.9-.2-.5-.6-.7-1.2-.7s-.8.1-1,.4c-.2.3-.3.6-.3,1s0,.4,0,.6c0,.2,0,.3.1.5,0,.2.1.3.2.4,0,.1.2.3.3.4l2.8,3.4c.5.7.9,1.3,1.2,1.9.3.6.4,1.3.4,1.9s0,1.1-.3,1.5-.4.8-.8,1.2c-.3.3-.7.6-1.2.7-.5.2-1,.3-1.6.3s-1.3,0-1.8-.3c-.5-.2-.9-.4-1.1-.8-.3-.3-.5-.7-.6-1.1-.1-.4-.2-.8-.2-1.2Z"/>
          <path class="st64" d="M1116.6,539.5h5.9v1.9h-3.5v4.8h2.7v1.9h-2.7v5.5h3.6v1.9h-6v-15.9Z"/>
          <path class="st64" d="M1128.2,555.6c-.2,0-.5,0-.8,0-.3,0-.6-.1-.9-.3-.3-.1-.6-.3-.8-.6-.3-.2-.5-.6-.7-.9s-.4-.9-.5-1.5c-.1-.6-.2-1.3-.2-2.1v-5.6c0-.8,0-1.5.2-2.1.1-.6.3-1,.5-1.4s.4-.7.7-.9c.3-.2.5-.4.8-.5s.6-.2.9-.2c.3,0,.5,0,.8,0,.6,0,1.2,0,1.6.3s.8.4,1,.7.4.7.6,1.1c.1.4.2.8.2,1.3s0,.7,0,.9c0,.3,0,.6-.2,1h-2v-.8c0-.9,0-1.5-.3-2s-.5-.7-.8-.7-.4,0-.6.1c-.2,0-.3.2-.4.4-.1.2-.2.5-.3.8,0,.3,0,.8,0,1.3v7.3c0,.5,0,.9,0,1.2,0,.3.1.6.2.8s.2.3.4.4c.2,0,.4.1.6.1s.3,0,.4-.1.3-.2.4-.3.2-.3.3-.6c0-.2,0-.5,0-.8v-1.6h2.2v1.5c0,1.3-.3,2.2-.9,2.8-.6.6-1.4.9-2.5.9Z"/>
          <path class="st64" d="M1133.8,539.5h2.4v11.7c0,.5,0,.9,0,1.2,0,.3.1.6.2.8.1.2.2.3.4.4s.4.1.6.1.4,0,.6-.1.3-.2.4-.4c.1-.2.2-.5.3-.8,0-.3,0-.7,0-1.2v-11.7h2.4v11c0,.8,0,1.4-.2,2-.1.6-.3,1-.5,1.4s-.4.7-.7.9c-.3.2-.5.4-.8.5-.3.1-.6.2-.8.2-.3,0-.5,0-.8,0s-.5,0-.8,0c-.3,0-.6-.1-.8-.2-.3-.1-.6-.3-.8-.5-.3-.2-.5-.5-.7-.9s-.4-.8-.5-1.4-.2-1.2-.2-2v-11Z"/>
          <path class="st64" d="M1144.4,539.5h2.6c.3,0,.6,0,1,0,.4,0,.7,0,1.1.2.4,0,.7.2,1,.4s.6.5.9.8.5.8.6,1.3c.2.5.2,1.1.2,1.8v.4c0,1.2-.2,2.2-.5,3-.3.8-.9,1.3-1.5,1.6l2.6,6.4h-2.6l-2.1-6h-.9v6h-2.4v-15.9ZM1147.2,547.7c.4,0,.8,0,1.1-.1.3,0,.5-.3.7-.5s.3-.5.4-.9.1-.8.1-1.3v-1.3c0-.4,0-.8-.1-1.1,0-.3-.2-.5-.4-.7-.2-.2-.4-.3-.7-.4-.3,0-.7-.1-1.1-.1h-.4v6.5h.4Z"/>
          <path class="st64" d="M1154.6,539.5h2.4v15.9h-2.4v-15.9Z"/>
          <path class="st64" d="M1161.6,541.4h-2.6v-1.9h7.5v1.9h-2.6v14h-2.4v-14Z"/>
          <path class="st64" d="M1170.5,550.1l-3.2-10.6h2.4l2,7.6h.1l1.9-7.6h2.4l-3.2,10.6v5.3h-2.4v-5.3Z"/>
        </g>
        <g>
          <path class="st51" d="M1024,551.8c-.6,0-1.1-.5-1.1-1.1s.5-1.1,1.1-1.1,1.1.5,1.1,1.1-.5,1.1-1.1,1.1ZM1024,549.9c-.4,0-.7.3-.7.8s.3.8.7.8.7-.3.7-.8-.3-.8-.7-.8Z"/>
          <path class="st51" d="M1026.7,551.8c-.6,0-1.1-.5-1.1-1.1s.5-1.1,1.1-1.1,1.1.5,1.1,1.1-.5,1.1-1.1,1.1ZM1026.7,549.9c-.4,0-.7.3-.7.8s.3.8.7.8.7-.3.7-.8-.3-.8-.7-.8Z"/>
          <path class="st51" d="M1028.3,551.8v-2.2h.4v2.2h-.4Z"/>
          <path class="st51" d="M1029.2,551.8v-2.2h.4v2.2h-.4Z"/>
          <path class="st51" d="M1024,554.8c-.6,0-1.1-.5-1.1-1.1s.5-1.1,1.1-1.1,1.1.5,1.1,1.1-.5,1.1-1.1,1.1ZM1024,552.9c-.4,0-.7.3-.7.8s.3.8.7.8.7-.3.7-.8-.3-.8-.7-.8Z"/>
          <path class="st51" d="M1026.1,554.8v-2.2h.4v2.2h-.4Z"/>
          <path class="st51" d="M1028.6,554.8c-.6,0-1.1-.5-1.1-1.1s.5-1.1,1.1-1.1,1.1.5,1.1,1.1-.5,1.1-1.1,1.1ZM1028.6,552.9c-.4,0-.7.3-.7.8s.3.8.7.8.7-.3.7-.8-.3-.8-.7-.8Z"/>
          <path class="st51" d="M1023.9,557.9c-.6,0-1.1-.5-1.1-1.1s.5-1.1,1.1-1.1,1.1.5,1.1,1.1-.5,1.1-1.1,1.1ZM1023.9,555.9c-.4,0-.7.3-.7.8s.3.8.7.8.7-.3.7-.8-.3-.8-.7-.8Z"/>
          <path class="st51" d="M1026.2,557.9c-.6,0-1.1-.5-1.1-1.1s.5-1.1,1.1-1.1,1.1.5,1.1,1.1-.5,1.1-1.1,1.1ZM1026.2,555.9c-.4,0-.7.3-.7.8s.3.8.7.8.7-.3.7-.8-.3-.8-.7-.8Z"/>
          <path class="st51" d="M1028.6,557.9c-.6,0-1.1-.5-1.1-1.1s.5-1.1,1.1-1.1,1.1.5,1.1,1.1-.5,1.1-1.1,1.1ZM1028.6,555.9c-.4,0-.7.3-.7.8s.3.8.7.8.7-.3.7-.8-.3-.8-.7-.8Z"/>
          <path class="st51" d="M1023,560.8v-2.2h.4v2.2h-.4Z"/>
          <path class="st51" d="M1024,560.8v-2.2h.4v2.2h-.4Z"/>
          <path class="st51" d="M1025.9,560.9c-.6,0-1.1-.5-1.1-1.1s.5-1.1,1.1-1.1,1.1.5,1.1,1.1-.5,1.1-1.1,1.1ZM1025.9,558.9c-.4,0-.7.3-.7.8s.3.8.7.8.7-.3.7-.8-.3-.8-.7-.8Z"/>
          <path class="st51" d="M1028.6,560.9c-.6,0-1.1-.5-1.1-1.1s.5-1.1,1.1-1.1,1.1.5,1.1,1.1-.5,1.1-1.1,1.1ZM1028.6,558.9c-.4,0-.7.3-.7.8s.3.8.7.8.7-.3.7-.8-.3-.8-.7-.8Z"/>
          <path class="st51" d="M1026.5,563.8v-2.2h.4v2.2h-.4Z"/>
          <path class="st51" d="M1028.6,563.9c-.6,0-1.1-.5-1.1-1.1s.5-1.1,1.1-1.1,1.1.5,1.1,1.1-.5,1.1-1.1,1.1ZM1028.6,561.9c-.4,0-.7.3-.7.8s.3.8.7.8.7-.3.7-.8-.3-.8-.7-.8Z"/>
        </g>
      </g>
    </g>
    <g id="CSWL_SPRING">
      <g class="st45">
        <path class="st46" d="M965.6,264.4h-69.2v23.7c6.6-5.3,16.4-7.9,29.4-7.9,18.5,0,32.5,5.3,42,15.8,9.6,10.6,14.3,24.2,14.3,41.1s-1.2,14.2-3.7,20.8c-2.5,6.6-6.2,12.8-11.1,18.7-4.9,5.9-11.8,10.5-20.7,14-8.8,3.5-18.9,5.3-30.3,5.4h-1.5c-13.4,0-25.4-2.6-36.2-7.7-10.8-5.1-21.6-12.4-32.5-21.8l27.5-25.2c9.4,5.9,17,9.9,22.9,11.9,5.9,2,11.8,3,17.9,3h2c7.3,0,13.4-2,18.4-5.9,5-4,7.5-9.4,7.5-16.3s-2.5-13.1-7.5-17.2c-5-4-12-6.1-20.9-6.1s-8.3.6-12.6,1.9c-4.3,1.2-7.6,2.5-10,3.7-2.4,1.2-5.1,2.8-8,4.6-3,1.8-4.5,2.7-4.7,2.7l-19.3-14.8v-83.8h106.3v39.6Z"/>
      </g>
      <path class="st52" d="M965.6,251.7h-69.2v23.7c6.6-5.3,16.4-7.9,29.4-7.9,18.5,0,32.5,5.3,42,15.8,9.6,10.6,14.3,24.2,14.3,41.1s-1.2,14.2-3.7,20.8c-2.5,6.6-6.2,12.8-11.1,18.7-4.9,5.9-11.8,10.5-20.7,14-8.8,3.5-18.9,5.3-30.3,5.4h-1.5c-13.4,0-25.4-2.6-36.2-7.7-10.8-5.1-21.6-12.4-32.5-21.8l27.5-25.2c9.4,5.9,17,9.9,22.9,11.9,5.9,2,11.8,3,17.9,3h2c7.3,0,13.4-2,18.4-5.9,5-4,7.5-9.4,7.5-16.3s-2.5-13.1-7.5-17.2c-5-4-12-6.1-20.9-6.1s-8.3.6-12.6,1.9c-4.3,1.2-7.6,2.5-10,3.7-2.4,1.2-5.1,2.8-8,4.6-3,1.8-4.5,2.7-4.7,2.7l-19.3-14.8v-83.8h106.3v39.6Z"/>
      <g>
        <line class="st19" x1="569.1" y1="381.1" x2="569.1" y2="381.1"/>
        <line class="st19" x1="569.1" y1="383.6" x2="569.1" y2="383.6"/>
      </g>
      <g>
        <path class="st58" d="M287.3,152.5c-4.1-2.9-8.4-5.6-12.3-8.8-10.2-8.3-17.7-18.8-22.4-31.1-1.4-3.7-2.3-7.5-3.4-11.3-.1-.4,0-1.1.3-1.5.2-.3.9-.5,1.2-.3.4.2.8.6,1,1,.4,1.4.7,2.9,1.1,4.4,4.2,14.7,12.1,27,23.9,36.8,2.5,2.1,5.2,3.9,7.9,5.7,3.9,2.5,7.8,5,11.8,7.4,5.2,3.1,11.5,2.1,15.6-2.4,4.7-5.2,3.9-14-1.9-18-3.6-2.5-7.3-4.7-11-7-6.3-3.8-11.6-8.6-15.7-14.7-.2-.2-.3-.5-.5-.7-.4-.7-.2-1.4.4-1.8.6-.4,1.3-.2,1.7.4.8,1.1,1.5,2.2,2.3,3.2,3.5,4.4,7.7,8,12.4,11,4,2.5,8,4.9,11.8,7.5,6.4,4.5,7.9,13.8,3.4,20.3-4.7,6.7-13.4,8.5-20.3,4.2-2.4-1.5-4.7-3-7.1-4.4,0,0,0,.1-.1.2Z"/>
        <path class="st58" d="M280.2,164.1c-4.3-3-8.7-5.9-12.9-9.1-4.4-3.3-8.3-7.2-11.9-11.4-.6-.8-.6-1.5,0-2,.6-.5,1.3-.4,1.9.3,6.2,7.3,13.5,13.2,21.7,18.2,3.4,2.1,6.7,4.2,10,6.3,10.9,6.5,24.6,4.3,33-5.2,9.5-10.9,8.1-28-3.2-37-3-2.4-6.5-4.3-9.7-6.4-.3-.2-.6-.4-.9-.6-.6-.5-.7-1-.3-1.7.3-.6,1-.8,1.7-.5.4.2.8.5,1.2.8,2.7,1.7,5.5,3.4,8.2,5.2,10.4,7.1,14.7,21.3,10.2,33-5.7,15-22,22.4-37,16.7-2-.8-3.9-1.9-5.8-3-2.1-1.2-4-2.5-6.1-3.8,0,0,0,.1-.1.2Z"/>
        <path class="st58" d="M314.2,112.8c-2.4-1.5-5-2.9-7.3-4.6-8.5-6.2-12.4-14.7-11.9-25.2,0-1.1.8-1.7,1.6-1.5.8.2,1,.9,1,1.7-.3,4.2.4,8.2,2,12.1,2.2,5.2,5.9,9.2,10.7,12.2,4.2,2.6,8.4,5.1,12.4,7.9,13,8.8,18.5,26.3,12.9,41-3,7.9-8.1,14.1-15.4,18.4-.3.2-.8.5-1.1.4-.5-.1-1-.4-1.2-.8-.3-.6,0-1.1.6-1.5,1.3-.8,2.6-1.6,3.8-2.5,16.5-12.6,17.3-37.3,1.5-50.8-3-2.5-6.4-4.5-9.6-6.7,0,0,0,0,0,0Z"/>
        <path class="st58" d="M290.7,146.6c-3.8-2.7-7.6-5.4-11.4-8.1-.5-.4-1-.8-1.4-1.2-.6-.6-.7-1.3-.1-1.9.5-.5,1.2-.6,1.8,0,6.1,5.4,13.3,9.2,20.1,13.5,2.4,1.6,5.5,1,7.1-1.1,1.8-2.3,1.7-5.2-.2-7.3-.5-.5-1.1-.9-1.7-1.3-4.4-2.8-9-5.4-13.2-8.4-14.9-10.6-22.7-25.1-23.8-43.3,0-1,.4-1.6,1.2-1.6.8,0,1.3.6,1.3,1.6.4,9,2.9,17.5,7.6,25.2,4.5,7.4,10.5,13.4,17.9,17.9,3.6,2.2,7.2,4.5,10.8,6.8,5.1,3.3,5.1,10.5,0,13.7-2.9,1.8-5.9,1.7-8.8,0-2.4-1.5-4.8-3-7.2-4.5,0,0,0,.1-.1.2Z"/>
        <path class="st58" d="M312.4,198.8c-.2-.6-.5-1-.4-1.4,0-.4.5-.8.9-1,.4-.2.9-.2,1.4-.3,12.6-2.9,22.8-9.5,30.6-19.8,14.5-19.2,14.3-45.8-.5-64.9,0-.1-.2-.2-.3-.3-.6-.8-.6-1.4,0-2,.6-.5,1.4-.4,2,.4,4.6,5.8,8,12.2,9.9,19.3,3.9,14.1,2.7,27.8-4,40.8-8.1,15.6-20.8,25.2-38,29.1-.5.1-1,0-1.7.1Z"/>
        <path class="st58" d="M345.1,168.4c-.3.4-.5.9-.8,1.3-.5.7-1.1.9-1.8.5-.6-.3-.8-1.1-.4-1.9.6-1.1,1.3-2.2,1.9-3.3,9.5-18.5,5.1-41.7-10.6-55.5-2.2-1.9-4.6-3.5-7-5.1-3.9-2.6-7.9-4.9-11.7-7.5-3.6-2.5-5.5-6.2-5.9-10.7,0-.9.3-1.5,1.1-1.6.8,0,1.4.4,1.5,1.4.4,4.3,2.5,7.5,6.2,9.8,4.3,2.7,8.7,5.4,12.9,8.2,17.9,12.1,25.7,35.7,18.5,56.1-1,2.9-2.4,5.6-3.6,8.4,0,0-.1,0-.2,0Z"/>
        <path class="st58" d="M275,168.7c-4.2-2.6-9.2-5.9-13.8-9.8-10.5-8.9-18.8-19.5-24.7-31.9-.4-.9-.2-1.6.5-2,.7-.4,1.4,0,1.9.9,4.9,10.2,11.5,19.2,19.7,27.1,4.7,4.5,9.9,8.5,15.5,11.9,4.1,2.6,8.1,5.2,12.3,7.6,8,4.6,16.6,5.5,25.5,3,.3,0,.6-.2.9-.2.7,0,1.2.2,1.4.9.2.7,0,1.2-.7,1.5-.2.1-.4.2-.6.2-10.2,2.9-19.8,1.7-28.9-3.8-2.7-1.6-5.3-3.3-8.9-5.6Z"/>
        <path class="st58" d="M268.6,181c-4.4-3.1-8.8-6.1-13.2-9.2-.3-.2-.5-.4-.7-.6-.4-.5-.4-1.1,0-1.6.5-.5,1-.6,1.6-.2.8.6,1.6,1.2,2.5,1.8,7,5.1,14.2,10,21.9,13.9,15.3,8,30.7,7.4,45.7-1.2,4.1-2.3,7.6-5.4,10.7-8.9.7-.8,1.5-.9,2.1-.4.6.6.6,1.3-.1,2.1-13.7,15.4-35.5,20.6-54.7,13.1-3.3-1.3-6.4-3-9.3-4.9-2.1-1.4-4.3-2.7-6.4-4,0,0,0,.1-.1.2Z"/>
        <path class="st58" d="M290,184.4c-.7-.5-.9-1-.6-1.6.3-.7.8-.9,1.5-.7,1.1.3,2.2.6,3.4.8,15.3,2.8,28.3-1.5,38.4-13.3,8.1-9.5,10.8-20.6,8.6-32.9,0-.3-.1-.6-.1-.8,0-.7.4-1.1,1.1-1.2.6-.1,1.1.2,1.4.8,0,.2.1.5.2.7,2.3,12.5-.3,23.9-8.1,33.9-10.6,13.7-28.1,19.4-44.6,14.8-.4-.1-.8-.2-1.1-.3Z"/>
        <path class="st58" d="M281.6,82.2c.5-.1,1-.4,1.4-.3.4.1.8.6,1,1,.1.2,0,.6,0,.9-.1,13.3,4.9,24.2,15.3,32.5,2.2,1.8,4.7,3.2,7.1,4.7,3,1.9,6.2,3.7,9,5.8,6.9,5.2,9.6,12.2,8.6,20.7-.1,1-.7,1.5-1.5,1.3-.8-.1-1.1-.7-1-1.7,1-8.4-2.1-14.9-9.3-19.5-4.2-2.7-8.5-5.1-12.6-8-12.4-8.8-18.4-21-18.2-36.2,0-.4,0-.7.2-1.3Z"/>
        <path class="st58" d="M294.1,140.5c-4-2.5-8-5-11.6-8.1-9.6-8.3-16.1-18.6-19.3-30.9-.9-3.4-1.3-6.9-1.9-10.4,0-.2,0-.5,0-.8,0-.6.5-1,1.1-1.1.7,0,1.2.2,1.4.9,0,.2,0,.5.1.8,1.7,15.9,8.5,29.2,20.7,39.7,2.5,2.1,5.2,3.9,7.9,5.7,3.3,2.2,6.7,4.2,10.1,6.4.2.1.4.2.6.4.7.5.9,1.2.5,1.8-.4.6-1.1.8-1.9.4-1-.6-1.9-1.2-2.9-1.8-1.6-1-3.1-2-4.7-2.9Z"/>
        <path class="st58" d="M271.4,174.4c-4-2.4-8.8-5.6-13.2-9.2-9-7.3-16.5-15.9-22.6-25.7-.5-.8-.4-1.6.3-2,.7-.4,1.4-.2,1.9.7,5,8.1,11,15.3,18,21.6,4.6,4.2,9.7,7.9,15,11.2,4.5,2.8,9,5.5,13.5,8.3.8.5,1,1.1.6,1.8-.4.7-1.1.9-1.8.5-1-.5-1.9-1.1-2.9-1.7-2.6-1.6-5.2-3.3-8.7-5.5Z"/>
        <path class="st58" d="M339.8,130.3c-.3-.5-.5-.8-.7-1.1-3.4-8.1-8.9-14.4-16.4-19-4.1-2.5-8.2-4.9-12.1-7.7-6.2-4.5-9-10.8-8.9-18.4,0-1,.5-1.5,1.3-1.5.8,0,1.3.6,1.2,1.6-.1,7.6,3.1,13.4,9.5,17.4,4.2,2.7,8.5,5.2,12.6,8,6.9,4.6,11.8,10.9,15,18.5.3.6.4,1.3-.2,1.8-.4.3-.9.3-1.4.4Z"/>
        <path class="st58" d="M275.8,153c-15.7-11.2-26.4-26.1-31.9-44.7-.3-1,0-1.7.8-1.9.8-.2,1.4.2,1.7,1.2,3.5,11.9,9.4,22.4,17.7,31.6,4.1,4.6,8.8,8.6,13.8,12,.9.6,1.2,1.4.7,2-.5.7-1.2.7-2.1.1-.2-.1-.4-.2-.7-.4Z"/>
        <path class="st58" d="M268.5,188.7c-2.4-1.5-4.8-3-7.2-4.5-.3-.2-.5-.3-.8-.5-.5-.5-.6-1.1-.1-1.5.3-.3.9-.5,1.4-.5.3,0,.7.3,1,.5,4.3,2.7,8.6,5.5,12.9,8,9.2,5.5,19.2,7.8,30,7.2.3,0,.6,0,.8,0,.7,0,1.1.5,1.1,1.2,0,.7-.3,1.1-1,1.3-.2,0-.5,0-.8,0-10.1.6-19.7-1.3-28.7-6-3-1.6-5.8-3.4-8.7-5.1,0,0,0,0,0,0Z"/>
        <path class="st58" d="M287.8,160.6c-1.6-1-3.2-2-4.8-3-.9-.6-1.1-1.2-.7-1.9.4-.7,1.1-.8,2.1-.3,2.7,1.7,5.4,3.4,8.2,5.1,9.4,5.6,21.1,2.5,26.6-6.9.5-.9,1.2-1.2,1.9-.8.7.4.9,1.1.3,2-4.7,7.8-11.6,11.4-20.6,11-3.5-.2-6.8-1.3-9.8-3.2-1.1-.7-2.1-1.3-3.2-2Z"/>
        <path class="st58" d="M255,94.2c.5-.2,1-.5,1.4-.4.4,0,.8.5,1,.9.2.5.2,1.1.3,1.7,2.3,12.8,7.7,24.1,16.5,33.7.1.1.2.3.3.4.5.6.5,1.4,0,1.9-.5.5-1.3.5-1.9-.2-1.1-1.3-2.3-2.5-3.3-3.9-7.6-9.6-12.4-20.5-14.3-32.7,0-.4,0-.9,0-1.5Z"/>
        <path class="st58" d="M301.1,112.4c-2.9-2.3-5.3-5-7.2-8.1-4.1-6.4-6-13.5-5.7-21.2,0-.3,0-.7.1-1,.2-.6.7-1,1.3-.9.7,0,1.1.5,1.1,1.2,0,.1,0,.3,0,.4-.5,11,3.4,20.2,11.7,27.4.7.6.8,1.3.3,1.9-.4.6-1.2.6-1.8.2Z"/>
        <path class="st58" d="M329,95c3.1,1.9,7.1,4.4,10.6,7.5.5.5,1.1,1,1.6,1.5.6.6.6,1.3.1,1.8-.5.5-1.2.6-1.8,0-5.9-5.7-13.1-9.4-19.9-13.8-.2-.1-.4-.3-.6-.4-.5-.5-.5-1-.2-1.6.3-.5.9-.7,1.5-.5.3,0,.5.3.7.4,2.4,1.5,4.7,3,8,5Z"/>
        <path class="st58" d="M239.3,115.3c.5-.2,1-.6,1.3-.5.5.1,1,.5,1.2.9.8,1.8,1.5,3.7,2.4,5.6,2.4,5.3,5.3,10.2,8.6,14.9.3.4.5,1.1.3,1.5-.3,1-1.6,1.1-2.3,0-1.4-2.1-2.8-4.1-4.1-6.2-2.9-4.6-5.2-9.6-7.1-14.7-.2-.5-.2-1-.3-1.6Z"/>
        <path class="st58" d="M274.7,83.8c.5-.1,1-.5,1.4-.4.4,0,.7.5,1,.9.1.2,0,.5,0,.7,0,6.7,1.4,13.1,4.1,19.2.2.4.2,1.2,0,1.6-.5.9-1.8.7-2.2-.4-1-2.8-2.1-5.7-3-8.6-1.1-3.8-1.5-7.7-1.5-11.7,0-.4,0-.8.1-1.3Z"/>
        <path class="st58" d="M249.4,166.7c-1.3-1.3-2.8-2.6-4.1-4-2.3-2.4-4.5-4.9-6.7-7.4,0,0-.1-.2-.2-.3-.6-.7-.5-1.5.1-2,.6-.4,1.3-.3,1.9.3,2,2.2,3.9,4.4,5.9,6.6,1.4,1.5,3,2.9,4.5,4.4.2.2.4.3.5.5.4.6.4,1.2,0,1.7-.5.5-1.1.5-1.8.1Z"/>
      </g>
      <g>
        <path class="st71" d="M707.7,298.4c-3.9,5.4-7.4,11.1-11.6,16.2-11,13.5-24.7,23.3-41,29.5-4.8,1.8-9.9,3.1-14.9,4.5-.6.2-1.4,0-2-.3-.4-.2-.6-1.1-.5-1.6.2-.5.8-1.1,1.4-1.3,1.9-.6,3.9-.9,5.8-1.5,19.4-5.5,35.6-16,48.5-31.5,2.7-3.3,5.1-6.8,7.5-10.4,3.4-5.1,6.6-10.3,9.7-15.5,4.1-6.9,2.8-15.2-3.2-20.6-6.9-6.2-18.4-5.1-23.7,2.5-3.3,4.7-6.2,9.6-9.2,14.5-5,8.3-11.3,15.3-19.3,20.8-.3.2-.6.4-.9.6-.9.5-1.9.3-2.4-.5-.5-.7-.3-1.7.5-2.3,1.4-1,2.9-2,4.3-3.1,5.8-4.6,10.6-10.1,14.5-16.4,3.3-5.2,6.4-10.6,9.9-15.6,5.9-8.5,18.2-10.4,26.7-4.5,8.8,6.1,11.2,17.7,5.5,26.8-1.9,3.1-3.9,6.2-5.8,9.3,0,0,.2.1.3.2Z"/>
        <path class="st71" d="M723,307.7c-4,5.7-7.8,11.4-12,16.9-4.4,5.8-9.5,10.9-15,15.6-1,.9-2,.8-2.7,0-.6-.8-.5-1.8.4-2.5,9.6-8.2,17.4-17.8,24-28.6,2.7-4.4,5.6-8.8,8.2-13.2,8.6-14.4,5.7-32.5-6.9-43.5-14.3-12.6-37-10.7-48.8,4.2-3.2,4-5.7,8.5-8.5,12.8-.3.4-.5.8-.8,1.2-.6.7-1.4.9-2.2.4-.8-.5-1.1-1.4-.6-2.2.3-.6.7-1.1,1-1.6,2.3-3.6,4.5-7.3,6.9-10.8,9.4-13.7,28-19.4,43.6-13.4,19.8,7.6,29.5,29,22,48.8-1,2.7-2.5,5.2-4,7.6-1.6,2.7-3.3,5.3-5,8,0,0,.2.1.2.2Z"/>
        <path class="st71" d="M655.3,262.9c-2,3.2-3.8,6.5-6.1,9.6-8.2,11.2-19.4,16.3-33.3,15.7-1.4,0-2.3-1-1.9-2.1.3-1.1,1.1-1.3,2.2-1.3,5.5.4,10.8-.5,15.9-2.6,6.9-2.9,12.2-7.7,16.1-14.1,3.4-5.5,6.8-11,10.4-16.4,11.7-17.2,34.6-24.3,54.1-17,10.5,3.9,18.6,10.7,24.3,20.3.3.4.6,1,.5,1.4-.2.6-.6,1.3-1.1,1.6-.8.4-1.5,0-2-.7-1.1-1.7-2.1-3.4-3.3-5-16.6-21.8-49.2-22.8-67-2-3.3,3.9-5.9,8.4-8.9,12.6,0,0,0,0,.1,0Z"/>
        <path class="st71" d="M699.9,294c-3.6,5-7.1,10-10.7,15.1-.5.7-1,1.3-1.6,1.9-.8.8-1.7.9-2.5.2-.7-.6-.7-1.6,0-2.4,7.1-8.1,12.1-17.5,17.8-26.5,2-3.2,1.3-7.2-1.5-9.4-3-2.4-6.9-2.3-9.6.3-.7.6-1.2,1.4-1.7,2.2-3.7,5.8-7.1,11.8-11.1,17.4-14,19.6-33.1,30-57.1,31.4-1.3,0-2.1-.6-2.1-1.6,0-1.1.7-1.7,2.1-1.8,11.9-.6,23-3.9,33.2-10.1,9.8-5.9,17.6-13.9,23.6-23.6,2.9-4.8,5.9-9.5,8.9-14.3,4.3-6.7,13.9-6.8,18-.1,2.4,3.8,2.3,7.8,0,11.6-2,3.2-4,6.3-6,9.5,0,0,.2.1.2.2Z"/>
        <path class="st71" d="M768.7,265.3c-.7.2-1.4.6-1.9.5-.5-.1-1.1-.7-1.3-1.1-.3-.5-.3-1.2-.5-1.8-3.9-16.6-12.5-30.1-26.1-40.4-25.3-19.2-60.4-18.9-85.5.7-.1.1-.3.2-.4.3-1,.8-1.9.7-2.6,0-.7-.8-.5-1.8.5-2.6,7.6-6.1,16.1-10.5,25.5-13.1,18.6-5.2,36.6-3.6,53.8,5.3,20.5,10.6,33.3,27.5,38.4,50,.1.7,0,1.4.1,2.2Z"/>
        <path class="st71" d="M728.7,222.3c.6.4,1.1.7,1.7,1.1.9.6,1.2,1.5.7,2.3-.5.8-1.5,1.1-2.4.6-1.5-.8-2.9-1.7-4.4-2.4-24.4-12.5-54.9-6.8-73.2,14-2.5,2.8-4.7,6-6.8,9.2-3.4,5.1-6.4,10.5-9.9,15.5-3.3,4.8-8.2,7.2-14.1,7.8-1.2.1-2-.4-2.1-1.5-.1-1.1.5-1.8,1.8-1.9,5.6-.6,9.9-3.3,12.9-8.1,3.6-5.7,7.1-11.5,10.8-17.1,15.9-23.6,47.1-33.9,73.9-24.3,3.8,1.3,7.4,3.1,11.1,4.7,0,0,0,.2,0,.2Z"/>
        <path class="st71" d="M729,314.6c-3.4,5.6-7.7,12.1-12.9,18.2-11.7,13.8-25.7,24.7-42,32.6-1.2.6-2.1.3-2.6-.6-.5-1,0-1.8,1.2-2.5,13.5-6.5,25.3-15.2,35.7-26,6-6.2,11.2-13.1,15.7-20.4,3.4-5.4,6.9-10.7,10-16.2,6.1-10.6,7.2-21.8,3.9-33.6-.1-.4-.3-.8-.3-1.2-.1-.9.3-1.6,1.2-1.9.9-.2,1.5.1,2,.9.1.3.2.6.3.8,3.9,13.4,2.3,26.1-5,38.1-2.1,3.6-4.4,7-7.3,11.7Z"/>
        <path class="st71" d="M745.2,323c-4.1,5.8-8.1,11.6-12.2,17.3-.2.3-.5.7-.8.9-.7.6-1.5.5-2.1-.1-.7-.6-.8-1.4-.2-2.1.8-1.1,1.6-2.2,2.4-3.2,6.8-9.2,13.1-18.7,18.4-28.8,10.5-20.2,9.7-40.5-1.6-60.3-3.1-5.4-7.1-10-11.8-14.2-1-.9-1.2-1.9-.5-2.7.7-.8,1.7-.7,2.8.2,20.3,18.1,27.2,46.8,17.2,72.1-1.7,4.3-3.9,8.4-6.4,12.3-1.8,2.8-3.5,5.6-5.3,8.5,0,0,.2.1.2.2Z"/>
        <path class="st71" d="M749.8,294.8c-.6.9-1.3,1.1-2.2.8-.9-.4-1.2-1.1-1-2,.4-1.5.8-2.9,1.1-4.5,3.6-20.2-2-37.3-17.6-50.7-12.5-10.7-27.2-14.2-43.4-11.3-.4,0-.7.2-1.1.2-.9,0-1.5-.5-1.6-1.4-.1-.8.2-1.5,1-1.8.3-.1.6-.2,1-.2,16.5-3,31.5.4,44.7,10.7,18,14,25.6,37,19.5,58.8-.1.5-.3,1.1-.4,1.4Z"/>
        <path class="st71" d="M615,306c-.2-.6-.6-1.3-.4-1.8.1-.5.8-1,1.3-1.3.3-.2.8,0,1.2,0,17.5.2,31.8-6.5,42.8-20.2,2.3-2.9,4.2-6.2,6.2-9.3,2.6-4,4.8-8.1,7.6-11.9,6.8-9,16-12.7,27.2-11.4,1.3.2,1.9.9,1.8,2-.2,1-1,1.5-2.2,1.4-11.1-1.3-19.6,2.8-25.6,12.2-3.5,5.5-6.7,11.2-10.5,16.6-11.7,16.3-27.7,24.2-47.7,24-.5,0-1-.1-1.7-.2Z"/>
        <path class="st71" d="M691.8,289.4c-3.3,5.3-6.6,10.6-10.7,15.3-11,12.6-24.5,21.2-40.7,25.5-4.5,1.2-9.1,1.7-13.7,2.5-.3,0-.7,0-1,0-.8-.1-1.4-.6-1.5-1.5-.1-.9.3-1.5,1.2-1.8.3,0,.7-.1,1-.1,21-2.3,38.6-11.2,52.4-27.2,2.8-3.2,5.2-6.9,7.6-10.4,2.9-4.4,5.6-8.9,8.4-13.3.2-.3.3-.5.5-.8.7-1,1.5-1.2,2.4-.7.9.5,1.1,1.5.5,2.4-.8,1.3-1.6,2.5-2.4,3.8-1.3,2.1-2.6,4.1-3.9,6.2Z"/>
        <path class="st71" d="M736.6,319.4c-3.2,5.3-7.3,11.5-12.1,17.4-9.6,11.9-20.9,21.8-33.9,29.8-1.1.7-2.1.5-2.6-.4-.5-.9-.2-1.8.9-2.5,10.6-6.6,20.1-14.5,28.5-23.7,5.5-6.1,10.4-12.7,14.8-19.7,3.7-5.9,7.3-11.8,11-17.8.6-1,1.5-1.3,2.3-.8.9.5,1.2,1.4.6,2.4-.7,1.3-1.4,2.5-2.2,3.8-2.1,3.5-4.3,6.9-7.2,11.5Z"/>
        <path class="st71" d="M678.4,229.2c-.7.4-1,.7-1.5.9-10.7,4.4-19,11.7-25.1,21.6-3.3,5.4-6.5,10.8-10.1,15.9-5.9,8.1-14.2,11.9-24.2,11.7-1.3,0-2-.7-2-1.7,0-1.1.8-1.7,2.1-1.6,10,.2,17.6-4,23-12.5,3.5-5.6,6.9-11.2,10.6-16.7,6.1-9,14.4-15.5,24.4-19.7.9-.4,1.7-.6,2.3.3.3.5.3,1.2.5,1.9Z"/>
        <path class="st71" d="M708.3,313.5c-14.7,20.7-34.4,34.8-58.9,42.1-1.3.4-2.3,0-2.5-1.1-.3-1,.3-1.8,1.6-2.2,15.7-4.6,29.6-12.4,41.7-23.4,6-5.5,11.3-11.5,15.9-18.2.8-1.2,1.8-1.5,2.7-.9.9.6.9,1.6.1,2.8-.2.3-.3.5-.6.9Z"/>
        <path class="st71" d="M755.3,323.2c-2,3.2-4,6.3-6,9.5-.2.3-.4.7-.7,1-.6.6-1.4.7-2,.2-.4-.4-.6-1.2-.7-1.8,0-.4.4-.9.6-1.3,3.5-5.7,7.2-11.3,10.6-17,7.2-12.2,10.3-25.4,9.5-39.5,0-.4,0-.7,0-1.1,0-.9.7-1.4,1.6-1.5.9,0,1.5.4,1.7,1.3,0,.3,0,.7.1,1,.8,13.3-1.8,26-7.9,37.8-2.1,3.9-4.5,7.7-6.7,11.5,0,0,0,0-.1,0Z"/>
        <path class="st71" d="M718.3,297.7c-1.3,2.1-2.6,4.2-3.9,6.3-.7,1.2-1.6,1.5-2.5.9-1-.6-1.1-1.5-.3-2.7,2.2-3.6,4.5-7.1,6.7-10.8,7.4-12.4,3.3-27.8-9.1-35-1.2-.7-1.6-1.6-1.1-2.6.5-.9,1.5-1.1,2.6-.4,10.2,6.2,15,15.3,14.5,27.2-.2,4.7-1.8,9-4.3,13-.9,1.4-1.7,2.8-2.6,4.2Z"/>
        <path class="st71" d="M630.8,341c-.2-.7-.6-1.3-.5-1.9.1-.5.7-1.1,1.2-1.4.7-.3,1.5-.3,2.2-.4,16.9-3,31.7-10.2,44.4-21.7.2-.2.3-.3.5-.4.9-.7,1.9-.7,2.5,0,.7.7.6,1.8-.2,2.5-1.7,1.5-3.3,3-5.1,4.4-12.7,10.1-27.1,16.3-43.1,18.8-.6,0-1.2,0-2,0Z"/>
        <path class="st71" d="M654.8,280.2c-3.1,3.8-6.6,6.9-10.6,9.5-8.5,5.5-17.8,7.9-27.9,7.5-.4,0-.9,0-1.3-.2-.9-.3-1.3-.9-1.2-1.8.1-.9.7-1.4,1.6-1.5.2,0,.4,0,.6,0,14.5.7,26.6-4.5,36.1-15.5.8-.9,1.7-1.1,2.5-.5.7.6.8,1.6.3,2.3Z"/>
        <path class="st71" d="M631.9,243.4c2.5-4.1,5.7-9.3,9.9-13.9.7-.7,1.3-1.5,2-2.1.7-.7,1.8-.8,2.4-.2.7.6.8,1.6,0,2.4-7.5,7.7-12.4,17.3-18.2,26.2-.2.3-.4.6-.6.8-.6.6-1.3.7-2,.2-.7-.4-1-1.1-.7-1.9.1-.3.3-.7.5-1,1.9-3.1,3.9-6.2,6.6-10.5Z"/>
        <path class="st71" d="M658.6,361.6c-.3-.7-.7-1.3-.6-1.8.2-.6.6-1.3,1.2-1.6,2.4-1.1,4.9-2,7.3-3.1,6.9-3.1,13.5-6.9,19.7-11.4.5-.4,1.4-.6,2-.5,1.3.3,1.4,2.1.1,3-2.7,1.9-5.4,3.7-8.2,5.4-6.1,3.8-12.6,6.9-19.3,9.4-.6.2-1.3.2-2.2.4Z"/>
        <path class="st71" d="M617.1,315c-.2-.6-.6-1.3-.5-1.8,0-.5.7-1,1.1-1.3.2-.2.6,0,1,0,8.8,0,17.3-1.9,25.4-5.5.6-.3,1.5-.3,2.1,0,1.2.7.9,2.4-.6,3-3.7,1.4-7.5,2.8-11.3,3.9-5,1.4-10.2,1.9-15.4,2-.5,0-1,0-1.8-.1Z"/>
        <path class="st71" d="M726.5,348.3c-1.7,1.7-3.4,3.7-5.3,5.4-3.2,3-6.5,5.9-9.8,8.9-.1.1-.2.2-.4.3-1,.7-2,.7-2.6-.1-.6-.8-.4-1.7.4-2.5,2.9-2.6,5.8-5.1,8.7-7.8,2-1.9,3.9-3.9,5.8-5.9.2-.2.4-.5.7-.7.8-.6,1.6-.5,2.2.1.7.6.6,1.4.1,2.3Z"/>
      </g>
      <g>
        <text class="st61" transform="translate(513 209.6) rotate(-10.4)"><tspan x="0" y="0">42</tspan></text>
        <text class="st44" transform="translate(515.2 210.9) rotate(-10.4)"><tspan x="0" y="0">42</tspan></text>
      </g>
      <g>
        <rect class="st34" x="225.1" y="247.2" width="33.8" height="9.1"/>
        <g>
          <rect class="st33" x="232" y="217.9" width="35.2" height="14.6"/>
          <g>
            <rect class="st32" x="243.9" y="274.3" width="35.2" height="14.6"/>
            <rect class="st33" x="243.9" y="274.3" width="35.2" height="14.6"/>
          </g>
          <g>
            <rect class="st36" x="280.3" y="261.2" width="35.2" height="7.3"/>
            <rect class="st32" x="280.3" y="261.2" width="35.2" height="7.3"/>
          </g>
          <rect class="st32" x="284.3" y="248.1" width="35.2" height="7.3"/>
          <g>
            <rect class="st37" x="255.4" y="208.5" width="20.3" height="5.5"/>
            <rect class="st32" x="255.4" y="208.5" width="20.3" height="5.5"/>
          </g>
          <g>
            <polygon class="st60" points="266 275.2 267.1 278.5 270.5 278.5 267.7 280.6 268.8 283.8 266 281.8 263.2 283.8 264.3 280.6 261.5 278.5 264.9 278.5 266 275.2"/>
            <polygon class="st60" points="266 210.2 267.1 213.5 270.5 213.5 267.7 215.5 268.8 218.8 266 216.8 263.2 218.8 264.3 215.5 261.5 213.5 264.9 213.5 266 210.2"/>
            <polygon class="st60" points="249.6 214.5 250.7 217.8 254.2 217.8 251.4 219.8 252.4 223.1 249.6 221.1 246.8 223.1 247.9 219.8 245.1 217.8 248.6 217.8 249.6 214.5"/>
            <polygon class="st60" points="249.6 270.1 250.7 273.4 254.2 273.4 251.4 275.5 252.4 278.8 249.6 276.7 246.8 278.8 247.9 275.5 245.1 273.4 248.6 273.4 249.6 270.1"/>
            <polygon class="st60" points="281.9 214.5 283 217.8 286.5 217.8 283.7 219.8 284.7 223.1 281.9 221.1 279.1 223.1 280.2 219.8 277.4 217.8 280.9 217.8 281.9 214.5"/>
            <polygon class="st60" points="281.9 270.1 283 273.4 286.5 273.4 283.7 275.5 284.7 278.8 281.9 276.7 279.1 278.8 280.2 275.5 277.4 273.4 280.9 273.4 281.9 270.1"/>
            <polygon class="st60" points="238.5 258.6 239.6 261.9 243.1 261.9 240.3 263.9 241.3 267.2 238.5 265.2 235.7 267.2 236.8 263.9 234 261.9 237.5 261.9 238.5 258.6"/>
            <polygon class="st60" points="238.5 226.9 239.6 230.2 243.1 230.2 240.3 232.2 241.3 235.5 238.5 233.5 235.7 235.5 236.8 232.2 234 230.2 237.5 230.2 238.5 226.9"/>
            <polygon class="st60" points="293.4 258.6 294.4 261.9 297.9 261.9 295.1 263.9 296.2 267.2 293.4 265.2 290.6 267.2 291.6 263.9 288.8 261.9 292.3 261.9 293.4 258.6"/>
            <polygon class="st60" points="293.4 226.9 294.4 230.2 297.9 230.2 295.1 232.2 296.2 235.5 293.4 233.5 290.6 235.5 291.6 232.2 288.8 230.2 292.3 230.2 293.4 226.9"/>
            <polygon class="st60" points="234 243 235.1 246.3 238.5 246.3 235.7 248.3 236.8 251.6 234 249.5 231.2 251.6 232.3 248.3 229.5 246.3 232.9 246.3 234 243"/>
            <polygon class="st60" points="297.9 243 299 246.3 302.4 246.3 299.6 248.3 300.7 251.6 297.9 249.5 295.1 251.6 296.2 248.3 293.4 246.3 296.8 246.3 297.9 243"/>
          </g>
        </g>
      </g>
      <g>
        <g>
          <rect class="st51" x="655.4" y="275.5" width="70" height="46.4"/>
          <path class="st69" d="M724.5,276.4v44.4h-68.1v-44.4h68.1M726.4,274.5h-71.9v48.3h71.9v-48.3h0Z"/>
        </g>
        <g>
          <rect class="st51" x="655.4" y="275.5" width="70" height="46.4"/>
          <path class="st69" d="M724.5,276.4v44.4h-68.1v-44.4h68.1M726.4,274.5h-71.9v48.3h71.9v-48.3h0Z"/>
        </g>
        <g>
          <path class="st62" d="M677.5,298.7v2.1l2-.6.3,1.1-2,.6,1.3,1.7-.9.7-1.3-1.7-1.2,1.7-.9-.6,1.3-1.8-2.1-.6.3-1.1,2,.6v-2.1h1.1Z"/>
          <path class="st62" d="M684.3,298.7v2.1l2-.6.3,1.1-2,.6,1.3,1.7-.9.7-1.3-1.7-1.2,1.7-.9-.6,1.3-1.8-2.1-.6.3-1.1,2,.6v-2.1h1.1Z"/>
          <path class="st62" d="M691,298.7v2.1l2-.6.3,1.1-2,.6,1.3,1.7-.9.7-1.3-1.7-1.2,1.7-.9-.6,1.3-1.8-2.1-.6.3-1.1,2,.6v-2.1h1.1Z"/>
          <path class="st62" d="M697.7,298.7v2.1l2-.6.3,1.1-2,.6,1.3,1.7-.9.7-1.3-1.7-1.2,1.7-.9-.6,1.3-1.8-2.1-.6.3-1.1,2,.6v-2.1h1.1Z"/>
          <path class="st62" d="M704.4,298.7v2.1l2-.6.3,1.1-2,.6,1.3,1.7-.9.7-1.3-1.7-1.2,1.7-.9-.6,1.3-1.8-2.1-.6.3-1.1,2,.6v-2.1h1.1Z"/>
        </g>
        <rect class="st11" x="664.4" y="296.7" width="52" height="9.4"/>
        <line class="st20" x1="675.5" y1="288.5" x2="705.3" y2="288.5"/>
      </g>
      <path class="st56" d="M503.1,120.8l6.8,6.9c-3.8,3.7-9.9,3.7-13.7,0-3.8-3.8-3.8-9.9,0-13.7s9.9-3.8,13.7,0l-6.8,6.8Z"/>
      <g>
        <line class="st13" x1="510.4" y1="120.8" x2="510.4" y2="120.8"/>
        <line class="st9" x1="517.3" y1="120.8" x2="677.6" y2="120.8"/>
        <line class="st13" x1="677.6" y1="120.8" x2="677.6" y2="120.8"/>
      </g>
      <path class="st42" d="M918.2,245h-116.5V68.4h42.9v135.9h73.6v40.6Z"/>
      <g>
        <polygon class="st35" points="656.7 251.4 641.5 266.6 641.5 302.6 681 302.6 681 251.4 656.7 251.4"/>
        <polyline class="st28" points="641.5 266.6 657.6 266.6 657.6 251.4"/>
      </g>
      <g>
        <rect class="st73" x="647.7" y="279.2" width="27.1" height="6.4" transform="translate(-6 550.3) rotate(-45)"/>
        <rect class="st73" x="647.7" y="279.2" width="27.1" height="6.4" transform="translate(393.3 -384.9) rotate(45)"/>
      </g>
      <g>
        <path class="st0" d="M512.6,225.9c17.2-17.2,38-25.8,62.4-25.8s45.2,8.6,62.5,25.8c17.3,17.2,26,38,26,62.4s-8.6,45.2-25.8,62.4c-17.2,17.2-38.1,25.8-62.7,25.8s-45.4-8.6-62.5-25.8c-17.1-17.2-25.7-38-25.7-62.4s8.6-45.2,25.8-62.4Z"/>
        <path class="st8" d="M575,240.7c-12.9,0-23.7,4.4-32.3,13.1-8.6,8.7-12.9,20.3-12.9,34.5s4.3,25.8,12.9,34.5c8.6,8.7,19.3,13.1,32.3,13.1s24-4.4,32.5-13.1c8.6-8.7,12.9-20.3,12.9-34.5s-4.3-25.8-12.9-34.5c-8.6-8.7-19.4-13.1-32.5-13.1Z"/>
      </g>
      <g>
        <g>
          <g>
            <g>
              <rect class="st51" x="326" y="113.9" width="88.9" height="58.9"/>
              <rect class="st51" x="326" y="127.1" width="88.9" height="45.7"/>
              <path class="st56" d="M413.7,115.1v56.4h-86.5v-56.4h86.5M416.1,112.7h-91.3v61.3h91.3v-61.3h0Z"/>
            </g>
            <line class="st29" x1="326.4" y1="127.1" x2="415.1" y2="127.1"/>
          </g>
          <circle class="st56" cx="333.1" cy="120.8" r="2.5"/>
          <rect class="st56" x="405.9" y="121.6" width="6.1" height="1.7"/>
        </g>
        <g>
          <rect class="st70" x="359.2" y="153.8" width="7.7" height="7.7"/>
          <rect class="st70" x="374.6" y="138.4" width="7.7" height="7.7"/>
          <rect class="st53" x="359.2" y="138.4" width="7.7" height="7.7"/>
          <rect class="st53" x="374.6" y="153.8" width="7.7" height="7.7"/>
          <rect class="st53" x="382.3" y="161.5" width="7.7" height="7.7"/>
          <rect class="st70" x="382.3" y="130.7" width="7.7" height="7.7"/>
          <rect class="st53" x="351.5" y="130.7" width="7.7" height="7.7"/>
          <rect class="st70" x="351.5" y="161.2" width="7.7" height="7.7"/>
        </g>
      </g>
      <g>
        <path class="st42" d="M445.1,396.7h-135.2v-26l70.1-57.5c13.6-10.6,20.4-20.2,20.4-28.7s-2.1-12.2-6.2-16c-4.1-3.8-9.6-5.8-16.5-6.2h-1.3c-8.2,0-20.1,5.8-35.6,17.4l-27.7-25.7c23.4-21.3,45.7-32,67.1-32h1.5c13.6.2,25.1,2.9,34.5,8.3,9.4,5.4,16.1,12,20.2,19.8,4,7.8,6.1,16.3,6.1,25.3s-4,24.7-12.1,35.8c-8.1,11.1-20.2,22.9-36.3,35.3l-11.9,9.8h62.8v40.3Z"/>
        <path class="st42" d="M808.7,396.7h-135.2v-26l70.1-57.5c13.6-10.6,20.4-20.2,20.4-28.7s-2.1-12.2-6.2-16c-4.1-3.8-9.6-5.8-16.5-6.2h-1.3c-8.2,0-20.1,5.8-35.6,17.4l-27.7-25.7c23.4-21.3,45.7-32,67.1-32h1.5c13.6.2,25.1,2.9,34.5,8.3,9.4,5.4,16.1,12,20.2,19.8,4,7.8,6.1,16.3,6.1,25.3s-4,24.7-12.1,35.8c-8.1,11.1-20.2,22.9-36.3,35.3l-11.9,9.8h62.8v40.3Z"/>
        <path class="st42" d="M496.6,247.8c17.2-17.2,38-25.8,62.4-25.8s45.2,8.6,62.5,25.8c17.3,17.2,26,38,26,62.4s-8.6,45.2-25.8,62.4c-17.2,17.2-38.1,25.8-62.7,25.8s-45.4-8.6-62.5-25.8c-17.1-17.2-25.7-38-25.7-62.4s8.6-45.2,25.8-62.4ZM559,262.5c-12.9,0-23.7,4.4-32.3,13.1-8.6,8.7-12.9,20.3-12.9,34.5s4.3,25.8,12.9,34.5c8.6,8.7,19.3,13.1,32.3,13.1s24-4.4,32.5-13.1c8.6-8.7,12.9-20.3,12.9-34.5s-4.3-25.8-12.9-34.5c-8.6-8.7-19.4-13.1-32.5-13.1Z"/>
      </g>
      <g>
        <g class="st74">
          <rect class="st51" x="805.4" y="16.3" width="135.2" height="206.6"/>
          <g>
            <g>
              <path class="st68" d="M877.3,170.7s10.7,8.8,15.8.7c0,0,1.8-2.9,2.3-5.9,0,0,0-2.8,2.8-4.3,0,0,.3,4,4.1,5.7.3.2.6.3.9.2,0,0,0-.3-.5-.6-.7-.4-.8-.3-1-.4-.9-.7-1.9-1.7-1.9-2.6l2.6,1.1s1.7.5,2,3c0,0,.2,1.8,1.2,3.4,0,0-6-.6-9.7,6.1l-.5-.8s0,2.2-1.4,3c0,0-.2-1.4-1.2-1.6,0,0-.2,2.3-1.7,3.2,0,0,.3-1.4-.8-2.1,0,0-1.5,3.1-4.3,3,0,0,.5-1.1.2-2.6,0,0-3,2.8-5.6,1.7,0,0,1.2-1,1.2-3.1,0,0-3.5,2-6.7-2.8,0,0,.9.9,3.7-.6,0,0-1.7-2-1.3-3.9"/>
              <path class="st68" d="M881.8,123.5s3.7.7.7,7.1c0,0-1.3,5,1.5,7.3,0,0,.4.4.8,1.1,0,0-3.6,1.3-1.1,7.9,0,0-2.4-.8-3.3-2.3,0,0,.6-.3.9-1.4,0,0-1.9.8-3.4-1.2l1.7-1.2s-1.5,0-3.3-2.5l2.1-.9s-2.3-.4-3-2.7h2s-1.7-3.1-1.3-4.9c0,0,1.4,1.2,2.5,1.3,0,0,1.1-1.6-.4-3.3,0,0-.7-1.4.2-3.3,0,0,0,.3,1.3.6,0,0,1.3,0,2.1,2.8l.3-.3s-1.2-2.1-.3-4.1"/>
              <path class="st68" d="M911.6,161.8l2.3-.2s10.9-1.4,10.7-15.7c0,0-.3-8.3-6.4-12.2-.5-.3-1.4-1-2.4-1.3-1-.3-3.1-.8-4.8.4-.6.4-1.3,1.3-1.5,2-.2.6-.4,2.5,2.2,4.6l.9-1.2s-1.7-1.3-1.2-2.6c.5-1.3,1.7-1.2,1.9-1.2,1.5-.1,6.5.3,9.2,9.7,0,0,1.6,7.4-3.9,13.1,0,0,.9-3.5-3.1-9.5,0,0-3.6-4.9,1.3-11.2l-1.5-1s-6.2,7.3-1.1,13.5c0,0,4,4.9,2.4,8.1-.4.7-1.2,1.6-2.1,1.9-.9.2-3.4.8-3.4.8"/>
              <path class="st68" d="M917.4,132.5s2.7-3.4,11.1-4.3c0,0,.5,2.3-4.1,3.8,0,0,.2.9,4.2-.1,0,0-1.6,3.7-6.3,1.9,0,0-2.1-.7-3.4-.2"/>
              <path class="st68" d="M898.7,117.1s1.6.8,1.6,3.8l7.4,2.7s.8-2,3.7-2.9c0,0-.3-.5-2.3-.2,0,0-.4-.6-1.5-.8,0,0-.4.6.1,1.7,0,0-1.1.6-1.3.8,0,0-.4-.8-.7-1.4,0,0,1.4-.4,1.4-1.5,0,0-.6.3-.9.2,0,0,1.1-1.4-.4-2.6,0,0-1,.7-1.2,2.1,0,0-.8-.6-1.3-.7,0,0-.3.7.2,1.9,0,0-.4.6-1.1.7,0,0-.8-.3-1.1-1.3h.6c0,0,.6-.4.8-.7,0,0-.5-.3-1.2-.3v-.2c0,0,.2,0,.2,0,0,0,0-1.9-2.7-1.3"/>
              <path class="st68" d="M898.4,153.2l-.3-.4c2.3-.8,2.9-3.4,2.9-3.4.8-4.3,3.2-4.3,3.2-4.3l-.3.4c-1.6.6-1.9,3.5-1.9,3.5-.1,3.7-3.7,4.2-3.7,4.2M896.1,153.5l-1.6.6-.5-.2h.1c0-.1.7-.3.7-.3,1.9-1.1,2.8-4.5,2.8-4.5,1.4-3.2,3.8-3.6,3.8-3.6l.2.3-.4.2c-2.4.9-2.7,3.5-2.7,3.5-.1,3.3-2.5,3.9-2.5,3.9M900.8,125.5s.3-.3.4,0v.2c0,0-.1,0-.1,0,0,0-.2,0-.5.2,0,0-.3.2-.5-.2l.6-.2M924,183.1c-.3-.7-.6-1.6-.6-1.6h2.4c-2.2,0-2.3-3.8-2.3-3.8-.6-3.2,1.3-5.2,1.3-5.2-6.2.2-7.7-3.6-7.7-3.6-2.9-2.8-3.9-9.5-3.9-9.5,0,0-.1-.6-.4-1-.3-.5-.4-.7-1-1.3-.9-.9-4.1-2.9-4.5-3.2-1.8-1.2-2.7-2.7-2.7-2.7-1.1,1.3-2.5,1.7-2.5,1.7l-.2-.5c5.9-3.7,3.6-9.4,3.6-9.4.3-1.2,1.2-2.8,1.2-2.8,4.1-5.5,1.2-13.4,1.2-13.4,1.1-1.9-.4-2.1-.4-2.1-1.5-.3-1.5.4-1.5.4h-.2c0,0-.1-.2-.1-.2l-4.2-1.5c-1.4-.8-2.1-.6-2.1-.6-.1.8.2,1.2.2,1.2.3.3.7.2.7.2,1.5-.4,2.2.7,2.2.7l-.2.3c-.4-.5-.9-.5-.9-.5-1.1-.1-1,.5-1,.5-.4.5-.5,0-.5,0l-.2-.5c-1.1-.3-.9-1.8-.9-1.8-2,.1-3.8.7-3.8.7-.7.3-.5.7-.5.7l.6.8-.3,1.1c-.7,1.8,1.2,1.8,1.2,1.8h2.6c2,.4.6,1.8.6,1.8,0,2.2-1.2,1.7-1.2,1.7-1.7-1.3-2.6-.2-2.6-.2-.6,1.1.7,1.1.7,1.1,2.6,0,1,2,1,2-.6,1.4-2.3,1.1-2.3,1.1-4.1-.4-4.8,1.6-4.8,1.6-1.5,1.5-1.3,5.9-1.3,5.9-1.1-2.6.1-5.7.1-5.7-3.7,1.3-2.4,8.2-2.4,8.2-1.7-3.7-.6-6-.6-6-3.3.5-2.4,5.4-2.4,5.4l1.3,3.1-3.4,1.7c-2.8,1.5-4.5.2-4.5.2-5-4.7-10.5-.2-10.5-.2,2.7,1.9,5.8,1,5.8,1-.7,1.2-3.9,2.6-3.9,2.6,5.4,2.1,6.9-.4,6.9-.4.7,2.2-.5,3.4-.5,3.4,2.1.6,4.6-2,4.6-2-.2,1.2-1.1,2.2-1.1,2.2,1.9,0,4-2.5,4-2.5.2,1.2-.7,2.1-.7,2.1,2.6-.4,4.1-2.8,4.1-2.8.1,1.3-.7,2.4-.7,2.4,1.5-.2,2.6-1.4,2.6-1.4-2.8-2.2-2.2-3.8-2.2-3.8.9,3.4,3.9,4,3.9,4,2.4-.4,3.9-4.4,3.9-4.4,1.9-3.9,4.2-3.5,4.2-3.5-2.8,1-3,2.8-3,2.8-1,4.1-2.6,4.7-2.6,4.7.5,1.6,4,2.5,4,2.5.9.4,2.2,1.1,2.8,1.4,5.6,2.8,6.1,7.9,6.1,7.9.8,5.4,5,6.6,5,6.6,8.2,2.7,7.6,8.4,7.6,8.4-.5,8.6-5.7,11.9-5.7,11.9h.2c1.5.5,2.4,0,2.4,0,.4,1.2,0,2.3,0,2.3,4.3-.6,6.5-5.3,6.5-5.3,1.1,1.4,2.8,1.5,2.8,1.5-1.1-1.8-.8-5.6-.8-5.6l1.7,1.1-.8-2-.3-1.3c.6.6,2,1.1,2,1.1,0-.4-.5-1-.8-1.7"/>
              <path class="st68" d="M898.5,161s2.3-1.1,3.5,1.3l1.1,2s.7,1,.7,1.3c0,0-.4-1-2.3-1.5,0,0-2.9-1-3.1-3.1"/>
              <polyline class="st68" points="900.3 121.6 900.3 121.9 906.2 124.2 907 123.8"/>
              <path class="st68" d="M891.4,124.5s.2,4.6,4.4,4.6c0,0,.5-.5,3.1.9l-.2.6s-1-1.1-2.9-.7c0,0-2.7,1-4.4-.4,0,0-2.8-2.3,0-4.9"/>
            </g>
            <g>
              <path class="st7" d="M876.4,171.1s10.7,8.8,15.8.7c0,0,1.8-2.9,2.3-5.9,0,0,0-2.8,2.8-4.3,0,0,.3,4,4.1,5.7.3.2.6.3.9.2,0,0,0-.3-.5-.6-.7-.4-.8-.3-1-.4-.9-.7-1.9-1.7-1.9-2.6l2.6,1.1s1.7.5,2,3c0,0,.2,1.8,1.2,3.4,0,0-6-.6-9.7,6.1l-.5-.8s0,2.2-1.4,3c0,0-.2-1.4-1.2-1.6,0,0-.2,2.3-1.7,3.2,0,0,.3-1.4-.8-2.1,0,0-1.5,3.1-4.3,3,0,0,.5-1.1.2-2.6,0,0-3,2.8-5.6,1.7,0,0,1.2-1,1.2-3.1,0,0-3.5,2-6.7-2.8,0,0,.9.9,3.7-.6,0,0-1.7-2-1.3-3.9"/>
              <path class="st7" d="M880.9,123.9s3.7.7.7,7.1c0,0-1.3,5,1.5,7.3,0,0,.4.4.8,1.1,0,0-3.6,1.3-1.1,7.9,0,0-2.4-.8-3.3-2.3,0,0,.6-.3.9-1.4,0,0-1.9.8-3.4-1.2l1.7-1.2s-1.5,0-3.3-2.5l2.1-.9s-2.3-.4-3-2.7h2s-1.7-3.1-1.3-4.9c0,0,1.4,1.2,2.5,1.3,0,0,1.1-1.6-.4-3.3,0,0-.7-1.4.2-3.3,0,0,0,.3,1.3.6,0,0,1.3,0,2.1,2.8l.3-.3s-1.2-2.1-.3-4.1"/>
              <path class="st7" d="M910.7,162.2l2.3-.2s10.9-1.4,10.7-15.7c0,0-.3-8.3-6.4-12.2-.5-.3-1.4-1-2.4-1.3-1-.3-3.1-.8-4.8.4-.6.4-1.3,1.3-1.5,2-.2.6-.4,2.5,2.2,4.6l.9-1.2s-1.7-1.3-1.2-2.6c.5-1.3,1.7-1.2,1.9-1.2,1.5-.1,6.5.3,9.2,9.7,0,0,1.6,7.4-3.9,13.1,0,0,.9-3.5-3.1-9.5,0,0-3.6-4.9,1.3-11.2l-1.5-1s-6.2,7.3-1.1,13.5c0,0,4,4.9,2.4,8.1-.4.7-1.2,1.6-2.1,1.9-.9.2-3.4.8-3.4.8"/>
              <path class="st7" d="M916.5,132.9s2.7-3.4,11.1-4.3c0,0,.5,2.3-4.1,3.8,0,0,.2.9,4.2-.1,0,0-1.6,3.7-6.3,1.9,0,0-2.1-.7-3.4-.2"/>
              <path class="st7" d="M897.8,117.5s1.6.8,1.6,3.8l7.4,2.7s.8-2,3.7-2.9c0,0-.3-.5-2.3-.2,0,0-.4-.6-1.5-.8,0,0-.4.6.1,1.7,0,0-1.1.6-1.3.8,0,0-.4-.8-.7-1.4,0,0,1.4-.4,1.4-1.5,0,0-.6.3-.9.2,0,0,1.1-1.4-.4-2.6,0,0-1,.7-1.2,2.1,0,0-.8-.6-1.3-.7,0,0-.3.7.2,1.9,0,0-.4.6-1.1.7,0,0-.8-.3-1.1-1.3h.6c0,0,.6-.4.8-.7,0,0-.5-.3-1.2-.3v-.2c0,0,.2,0,.2,0,0,0,0-1.9-2.7-1.3"/>
              <path class="st7" d="M897.5,153.6l-.3-.4c2.3-.8,2.9-3.4,2.9-3.4.8-4.3,3.2-4.3,3.2-4.3l-.3.4c-1.6.6-1.9,3.5-1.9,3.5-.1,3.7-3.7,4.2-3.7,4.2M895.2,153.9l-1.6.6-.5-.2h.1c0-.1.7-.3.7-.3,1.9-1.1,2.8-4.5,2.8-4.5,1.4-3.2,3.8-3.6,3.8-3.6l.2.3-.4.2c-2.4.9-2.7,3.5-2.7,3.5-.1,3.3-2.5,3.9-2.5,3.9M899.9,125.9s.3-.3.4,0v.2c0,0-.1,0-.1,0,0,0-.2,0-.5.2,0,0-.3.2-.5-.2l.6-.2M923.1,183.5c-.3-.7-.6-1.6-.6-1.6h2.4c-2.2,0-2.3-3.8-2.3-3.8-.6-3.2,1.3-5.2,1.3-5.2-6.2.2-7.7-3.6-7.7-3.6-2.9-2.8-3.9-9.5-3.9-9.5,0,0-.1-.6-.4-1-.3-.5-.4-.7-1-1.3-.9-.9-4.1-2.9-4.5-3.2-1.8-1.2-2.7-2.7-2.7-2.7-1.1,1.3-2.5,1.7-2.5,1.7l-.2-.5c5.9-3.7,3.6-9.4,3.6-9.4.3-1.2,1.2-2.8,1.2-2.8,4.1-5.5,1.2-13.4,1.2-13.4,1.1-1.9-.4-2.1-.4-2.1-1.5-.3-1.5.4-1.5.4h-.2c0,0-.1-.2-.1-.2l-4.2-1.5c-1.4-.8-2.1-.6-2.1-.6-.1.8.2,1.2.2,1.2.3.3.7.2.7.2,1.5-.4,2.2.7,2.2.7l-.2.3c-.4-.5-.9-.5-.9-.5-1.1-.1-1,.5-1,.5-.4.5-.5,0-.5,0l-.2-.5c-1.1-.3-.9-1.8-.9-1.8-2,.1-3.8.7-3.8.7-.7.3-.5.7-.5.7l.6.8-.3,1.1c-.7,1.8,1.2,1.8,1.2,1.8h2.6c2,.4.6,1.8.6,1.8,0,2.2-1.2,1.7-1.2,1.7-1.7-1.3-2.6-.2-2.6-.2-.6,1.1.7,1.1.7,1.1,2.6,0,1,2,1,2-.6,1.4-2.3,1.1-2.3,1.1-4.1-.4-4.8,1.6-4.8,1.6-1.5,1.5-1.3,5.9-1.3,5.9-1.1-2.6.1-5.7.1-5.7-3.7,1.3-2.4,8.2-2.4,8.2-1.7-3.7-.6-6-.6-6-3.3.5-2.4,5.4-2.4,5.4l1.3,3.1-3.4,1.7c-2.8,1.5-4.5.2-4.5.2-5-4.7-10.5-.2-10.5-.2,2.7,1.9,5.8,1,5.8,1-.7,1.2-3.9,2.6-3.9,2.6,5.4,2.1,6.9-.4,6.9-.4.7,2.2-.5,3.4-.5,3.4,2.1.6,4.6-2,4.6-2-.2,1.2-1.1,2.2-1.1,2.2,1.9,0,4-2.5,4-2.5.2,1.2-.7,2.1-.7,2.1,2.6-.4,4.1-2.8,4.1-2.8.1,1.3-.7,2.4-.7,2.4,1.5-.2,2.6-1.4,2.6-1.4-2.8-2.2-2.2-3.8-2.2-3.8.9,3.4,3.9,4,3.9,4,2.4-.4,3.9-4.4,3.9-4.4,1.9-3.9,4.2-3.5,4.2-3.5-2.8,1-3,2.8-3,2.8-1,4.1-2.6,4.7-2.6,4.7.5,1.6,4,2.5,4,2.5.9.4,2.2,1.1,2.8,1.4,5.6,2.8,6.1,7.9,6.1,7.9.8,5.4,5,6.6,5,6.6,8.2,2.7,7.6,8.4,7.6,8.4-.5,8.6-5.7,11.9-5.7,11.9h.2c1.5.5,2.4,0,2.4,0,.4,1.2,0,2.3,0,2.3,4.3-.6,6.5-5.3,6.5-5.3,1.1,1.4,2.8,1.5,2.8,1.5-1.1-1.8-.8-5.6-.8-5.6l1.7,1.1-.8-2-.3-1.3c.6.6,2,1.1,2,1.1,0-.4-.5-1-.8-1.7"/>
              <path class="st7" d="M897.6,161.4s2.3-1.1,3.5,1.3l1.1,2s.7,1,.7,1.3c0,0-.4-1-2.3-1.5,0,0-2.9-1-3.1-3.1"/>
              <polyline class="st7" points="899.4 122 899.4 122.3 905.3 124.6 906 124.2"/>
              <path class="st7" d="M890.5,124.9s.2,4.6,4.4,4.6c0,0,.5-.5,3.1.9l-.2.6s-1-1.1-2.9-.7c0,0-2.7,1-4.4-.4,0,0-2.8-2.3,0-4.9"/>
            </g>
          </g>
        </g>
        <path class="st10" d="M897,185.6c.6,0,.4.9.9,1,.3.1.3.6.6.7.2-.1.7-.4.9-.4.3,0,.2.4.3.6.1,0,.4.2.5.3-.2.5.4.5.7.4.4-.2.9.2,1.3.2.4,0,.1.8.2,1.1,0,.4.3,1,.8.7.2-.2.6,0,.4.2,0,0,0,.2,0,.2-.1,0-.5-.2-.5,0,0,.4.3.6.4.9,0,.1.2.5.4.4,0-.3,0-.6.4-.5,1.2-.4.3.5.2,1.1.1.5.9.6,1.2.9.3-.1,1-.8,1.1-.1,1.1,0,1.6,1.2,2.3,1.7,0,.3.5.2.7,0,0,0,.3.2.4,0,.2-.1.5.3.7.4.8-.7,1.2.6,1.8.9,1.6,1,.5-2.1.8-2.8.2-1.9,0-3.9,0-5.8-1.3-5.1-2.4-3.9,1.2-8,3-3-4.8-3.4-1.4-5.7.8-.8,1.3.5,2,.1.6-.7-.5-1.2-.7-1.8-.3-1.1.6-1.9,1.3-2.6.6-.2,1.3-.2,1.8-.7.7-.8,1-1.9,1.9-2.5,1.7-1.7,1.6-4.7,3-6.9,1-2.3-3.7-1.5-.2-4.1,1.9-1.1,1.8-3,3.4-3.8,2.2-.7,6.8-4.2,3.8-5.9,0-2,1.6.5,2.3.3,1.2-1-2-1.5-1.5-2.7-.4-3,0-3.4,2-5.3-1.8-3.9,1-3.3-1.2-4.7-.7-1.3,2.3-2,2.7-3.4-1.6-4.8-1.2,3.4-3.1-.7-2.6-.6-3.8-4-5.3-1.8-.6.7-1.2,1.5-2.2,1.2-.7-.9-1,.1-1.9.1-.7-.9-1-1.2-2.4-1.4-3.1-.6-6.4-10.7-9.2-4.5-.2,1.4-2.4,1-2.1-.3.7-1.5-.8-2.6-.8-3.8.1-1.7-1.2-1.3-2-.7-.3,0-1.2-1.9-2-2.3-1.5.5-.8.3-2.2-.3-.9-.6-1.5-2.1-2.1-3-1.5.1-3-2.7-1.7-3.1.5-2.1-3.6-1.6-.9-3.2.3-3.3-1.7-2-.4-4-.1,0-1.7,0-1.8-.9-.7-.8-1.1,1.9-1.3,1-.5-.8-.4-2-.7-2.9,0-2.2-1.9.4-.9,1.2.7.3.4.7,0,.9-1.8.8-.5-1.8-2-2-1-1.5-.3-2.8,0-4.4-1.7-.5-1.5.2-2.4-1.7-1.1.3-2.1-1.6-.5-.8,1.4-2.3.7-2.4,0-2.5-2.3-.5,2.6-2-1.6-3.7,1.4-2.8-1.6-3.4-1-5.9-.2-.1-.4-.2-.6,0-.4,2.2-1.5-.5-.7-1.1.1-.2.4-.1,1.1.2-.1-1.1,2.3-2,.2-2.5-.3.4.2,1.9-1,1-.2-.4.4-1.6.9-1.4.2-.9-1.1-2.9.8-2.3,1.8.2-.7-1.2-.1-1.9,1.6,0,1.1-.4.5-1.3,1.3-1.5-.1-.9-.8-1.4,0-.8.3-1.5,1.1-1.7,0-.2.2-.8.3-1.1-1,.4-1.3-.9-2.1-1.2-.2,0-.9.1-1-.1,0-.6.2-1.4.7-1.8.2-.2.6-.6.9-.6-.1-.2-.3-.4-.5-.5-2.4-1.6,1.7-1.3-1.6-3.3-.1,0-.6-.5-.8-.5-.2.1-.4.3-.7.3-.5.1-1.1-.2-1.4-.5-1.3-.2-.2,1.5-.7,2.8.1.4-.7.1-1,.1-1,1.4-1.9.4-3-.1-3.6-1.6-1.5-2-3-5-.9.2-2.1,1.2-3.1,1.4-2.5.3-4.4-.9-4.5,2.5-.2.2.4,1.2.5,1.6-.2.3-.7.4-.9.7,0,.4.2,1.2.2,1.6-.3.4-.4,1-.2,1.4.4,1.2-.7.7-1.4,1.2-4.7.5-7.8,4.3-7.6,8.9.4,2.1-2.2,1-2.9,2.5-3.8,3,2.3,3.1-.3,6.1-1.1.3-.5,1.3-.4,2-1.8.6-.3,1.7-3.4,2.3-.2.2-.5.3-.6.6-.4,0-1.2,0-1,.6-.2.2.1.7.1.9-.1.6,0,1.2.2,1.8.3.3.7.5.9.9.1.5.5.2.8.2.9,1-.3,3.2-1.6,3.1-.4.6-.9.8-1.6.7-.2.2,0,.6-.3.8.1.3.1.6-.2.8-.1.1-.3,0-.5,0-.4.1-.7-.2-.9-.4-.4.2-.7.3-.7.8-1.1.7-.8-.5-1.8.3,0,.4,0,.6-.3.8.2.4.2.8-.2,1.1-.2.4-.1.8.1,1.2-.3.3.2.7.2,1.1,0,.3-.6.5-.5.9-.1.6,0,.7-.7.8-.1.5-.1,1.2-.2,1.5-.2,0,0,.3,0,.5,0,.3-.1.6,0,.9-.4.5-1.3,1-1.9,1.4-.2.4-.5.9-1,1.1.1.2-.2.4-.3.5-.9,1,.5.9,1,1.4.8.9,2.1.8,3.1,1.3.2.6,1,.3,1.1.8,0,.3.5.4.6.8-.2.7,0,.7-.6.5-.5,0,1.7.9-.2.8-.4,1.5-.5.8-.9,0-.3,0-.4.5-.7.6-.5,0-.6-.7-1-.7-.5.3-.3.9,0,1.2,0,.5-.4,1,.1,1.3.9.8-.2.7-.7.9-.1.2-.8,0-.6.4.4.3,1.1,0,1.4.6.1,1.7-1.2.2-1.2.9-.1.3,0,.7.2.9,0,.9-1,0-1.2.8,0,.4.3.7.5,1,.3,1,.8,1.4,0,2.2,0,.5.4.9.7,1.2-.2,1.1.1,2.2.4,3.3-.3,1.7,1.3.5,2.3.5.5-.5.6,0,1.1.1.9-1.1,1.1-.6,1.6.5-.2.9.6,1.1.8,1.8.3.9,1.2,1,1.3,2.4,0,.5.5,1,.8,1.4.2.5.2,1.3.6,1.7.2.7,1.5.2,1.2,1.2.2,1.5-.7.9-.4,2.3-.4.4,0,.9-.2,1.4-.2.9.4.5.9.4,2.9,1.1,1.9-1.9,5.3.4.2.3,0,.6,0,.8.4.4,1,1.2,1.3,1.4-2.4,3.4-5,5.4-.2,7.9.2.2.4.4.8,0,.3.5,1.1.5,1.5.4.2.2-.3,1,.5.5,1.2-.5-1,1.5-.5,3.4,2.1,4.1-3.3.5-2.1,3.8-1.4.8-1.4,2.3-1.4,3.7-.7.4-1.4.7-2,1.4-.5.2-1.1.5-1.3,1,0,1.3.7,2.3,2.1,1.7.2-.4.3-.4.6-.2.3.8,0,.8-.4,1.5.4,0,.4.2.3.5,0,.2.1.6,0,.8-.5-.1-.7.6-1.1.7,0,.2,0,.6-.3.7-.5,0-.9.3-1.1.6-.7,0-.8.7-.5,1.3-.2.6-.9.8-1.5.9-.1,0-.4.3-.5.4-.1,0-.3-.2-.4-.1-.6.1-.9,1-1.3,1-1.3,0,0,1,.3,1.5.8-.3,1.6-.9,2.5-1.1.1.5.2,1.2.6,1.7.9,1.4-1.5.5-.9,2.4.6,1.1,2.1.9,1.8,2.4,1.4.3,1.7,2.1,2.5,1.9.3-.2.5,0,.6.2,1.8-.5,2.3,1.2,4.3-.6,1-.5,2,1.1,2.9.4,1-.7,1.8.6,2.5,1.1.6.2,1.5-.4,1.9.4,0,.5,0,1,.2,1.5.3.2.6.3.6.7.2.4,0,1-.3,1.3.1.8.3,1.8.9,2.5.3,0,.4-.3.5-.5.7-.3.7.5.5.9,0,1.1-.9-.4-1,1,.6,1.5,2.5-1.8,3.3-.3.1.1.4.6.6.2.5,0,1.2-.3,1.8-.4.5.1.5.7.3,1.1,0,.1.2.2.3,0,.3,0,.8,0,1.1.2,1.3,1,1.2-4.6,3-3.2.3,0,.6,0,.8,0,.2,0,.6-.4.6-.2-.4.5.6-.1.8.3.2.3,0,.9,0,1.2.6.6,1.6,1.1,2.5,1,0-1.1-.6-2.3.3-3.2.4-.5,1-.6,1.3,0,.6-.3,1.3-.4,1.1-1.2.7-.9.3-2.1.6-3.1.3,0,.3.6.6.7.7,0,1.6-.9,1,.5.4,0,.8-.6,1.2-.7.3,0,.3-.5.5-.6,0,0,.2.3.3.4.1,0,.4-.1.5-.2,0-.5-.7-1-.8-1.6-.1-1,1.7-.7,2.3-1.6.5-.6.4,0,.6.3.3,0,.8-.2,1,0,.2.2.7,0,.9,0,.3.4.8.2,1.2,0,.7.2,2,.4,1.7-.7.1,0,.4.2.5.2.2,0,.7-.4.9-.2,0,0,.2,0,.2,0,.2-.3.7.3.9.1.2-.1.1-.7.2-.9.4,0,0-.8-.3-.7"/>
      </g>
      <path class="st55" d="M918.2,232.5h-116.5V56h42.9v135.9h73.6v40.6Z"/>
      <g>
        <g>
          <path class="st52" d="M876,214.2c-.4,7.6-2.2,15.2-5.4,22.3l-16.9-16.9c7.1-3.2,14.7-5,22.3-5.4Z"/>
          <path class="st51" d="M853.7,219.6l16.9,16.9c-2.9,6.5-7.1,12.5-12.4,17.8-2.1,2.1-4.4,4.1-6.8,5.9h0v-2.4l-1.5.9-19.3-19.3.9-1.5h-.8c1.6-2,3.3-4,5.2-5.9,5.3-5.3,11.3-9.4,17.8-12.4ZM855.8,243.3c2.5-2.5,2.5-6.5,0-9-2.5-2.5-6.5-2.5-9,0-2.5,2.5-2.5,6.5,0,9,2.5,2.5,6.5,2.5,9,0Z"/>
          <circle class="st73" cx="851.3" cy="238.8" r="6.4"/>
          <path class="st51" d="M851.4,260.1s0,0,0,0h0s0,0,0,0Z"/>
          <path class="st51" d="M851.4,260.1v1.9c0,5-2,9.8-5.5,13.3l-7.1,7.1-.7-14.8c4.7-1.9,9.2-4.4,13.4-7.5Z"/>
          <path class="st59" d="M851.4,260.1h0c-4.2,3.1-8.7,5.6-13.4,7.5v-1.9c0,0,11.9-7.2,11.9-7.2l1.5,1.5Z"/>
          <polygon class="st51" points="851.4 257.7 851.4 260.1 849.9 258.6 851.4 257.7"/>
          <path class="st59" d="M849.9,258.6l-12,7.2v1.9s0,0,0,0l-3.6-3.6-7.8-7.8-4-4c.1-.3.3-.7.4-1h.6s7.2-11.9,7.2-11.9l19.3,19.3Z"/>
          <path class="st51" d="M834.3,264.1c-.6,4-2.4,7.9-5.5,11-5,5-15.6,10.3-22,8.7-1.6-6.4,3.7-17,8.7-22,3.1-3.1,7-4.9,11-5.5-1.1.6-2.1,1.3-2.9,2.2-3.2,3.2-7.9,11.3-6.9,15.5,4.1,1,12.2-3.6,15.5-6.9.9-.9,1.6-1.9,2.2-3Z"/>
          <path class="st51" d="M831.5,237.8l-.9,1.5-.6-.6c.2-.3.5-.6.7-.9h.8Z"/>
          <path class="st51" d="M827.2,237.8h3.6c-.2.3-.5.6-.7.9-2.9,3.9-5.3,8.1-7.2,12.5l-16.1-.8,7.1-7.1c3.5-3.5,8.3-5.5,13.3-5.5Z"/>
          <path class="st51" d="M830.6,239.3l-7.2,12h-.6c1.8-4.4,4.2-8.6,7.2-12.5l.6.6Z"/>
        </g>
        <g>
          <line class="st18" x1="790.5" y1="301.1" x2="772.7" y2="318.9"/>
          <line class="st18" x1="797.9" y1="280.5" x2="777.5" y2="301"/>
          <line class="st18" x1="811.3" y1="293.9" x2="799.4" y2="305.7"/>
          <line class="st18" x1="771" y1="307.5" x2="765.3" y2="313.2"/>
          <line class="st18" x1="790.9" y1="314.3" x2="770.3" y2="334.9"/>
          <path class="st30" d="M830.7,237.8h-3.6c-5,0-9.8,2-13.3,5.5l-7.1,7.1,16.1.8"/>
          <path class="st30" d="M851.4,260.1v1.9c0,5-2,9.8-5.5,13.3l-7.1,7.1-.7-14.8"/>
          <path class="st30" d="M851.4,260.1s0,0,0,0c-4.2,3.1-8.7,5.6-13.4,7.5,0,0-.1,0-.2,0l-3.6-3.6-7.8-7.8-4-4c.1-.3.3-.7.4-1,1.8-4.4,4.2-8.6,7.2-12.5.2-.3.5-.6.7-.9,1.6-2,3.3-4,5.2-5.9,5.3-5.3,11.3-9.4,17.8-12.4,7.1-3.2,14.7-5,22.3-5.4-.4,7.6-2.2,15.2-5.4,22.3-2.9,6.5-7.1,12.5-12.4,17.8-2.1,2.1-4.4,4.1-6.8,5.9"/>
          <polyline class="st28" points="852.9 218.8 853.7 219.6 870.6 236.5 871.2 237"/>
          <line class="st28" x1="851.4" y1="260.1" x2="851.9" y2="260.6"/>
          <line class="st30" x1="851.4" y1="260.1" x2="851.4" y2="260.1"/>
          <polyline class="st28" points="830 238.7 830.6 239.3 849.9 258.6 851.4 260.1 851.4 260.1"/>
          <circle class="st30" cx="851.3" cy="238.8" r="6.4"/>
          <path class="st18" d="M834.3,264.1c-.6,1.1-1.3,2.1-2.2,3-3.2,3.2-11.3,7.9-15.5,6.9-1-4.1,3.6-12.2,6.9-15.5.9-.9,1.9-1.6,2.9-2.2-4,.6-7.9,2.4-11,5.5-5,5-10.3,15.6-8.7,22,6.4,1.6,17-3.7,22-8.7,3.1-3.1,4.9-7,5.5-11Z"/>
        </g>
      </g>
      <g>
        <g>
          <g>
            <rect class="st51" x="744.8" y="115.2" width="73.4" height="48.6"/>
            <rect class="st54" x="745.1" y="120.7" width="73.4" height="43.1"/>
            <path class="st56" d="M817.2,116.2v46.6h-71.4v-46.6h71.4M819.2,114.2h-75.4v50.6h75.4v-50.6h0Z"/>
          </g>
          <line class="st4" x1="745.1" y1="120.9" x2="818.3" y2="120.9"/>
        </g>
        <rect class="st51" x="768.8" y="135.4" width="25.3" height="3.1"/>
        <g>
          <line class="st6" x1="757.6" y1="142.6" x2="761.9" y2="142.6"/>
          <line class="st15" x1="764.4" y1="142.6" x2="800.4" y2="142.6"/>
          <line class="st6" x1="801.6" y1="142.6" x2="806" y2="142.6"/>
        </g>
        <g>
          <line class="st6" x1="757.6" y1="145" x2="764.4" y2="145"/>
          <line class="st24" x1="768.2" y1="145" x2="797.2" y2="145"/>
          <line class="st6" x1="799.1" y1="145" x2="806" y2="145"/>
        </g>
        <line class="st21" x1="774.1" y1="148.8" x2="797.2" y2="148.8"/>
        <line class="st21" x1="774.1" y1="150.9" x2="797.2" y2="150.9"/>
      </g>
      <path class="st52" d="M808.7,384.9h-135.2v-26l70.1-57.5c13.6-10.6,20.4-20.2,20.4-28.7s-2.1-12.2-6.2-16c-4.1-3.8-9.6-5.8-16.5-6.2h-1.3c-8.2,0-20.1,5.8-35.6,17.4l-27.7-25.7c23.4-21.3,45.7-32,67.1-32h1.5c13.6.2,25.1,2.9,34.5,8.3,9.4,5.4,16.1,12,20.2,19.8,4,7.8,6.1,16.3,6.1,25.3s-4,24.7-12.1,35.8c-8.1,11.1-20.2,22.9-36.3,35.3l-11.9,9.8h62.8v40.3Z"/>
      <g>
        <path class="st66" d="M370.1,470.6c-2.5,0-4.7-1.9-4.8-4.2-.1-2.9,1.8-5.1,4.3-5.2,3.4-.1,5.2,2.4,5.3,5-.3,2.5-2,4.4-4.8,4.5ZM375.7,458.5c-2.6.1-4.9-1.8-5-4.2-.1-2.8,1.8-5,4.7-5.1,2.4,0,4.6,1.9,4.7,4.2v.6c0,2.3-1.9,4.4-4.3,4.5ZM381,446.4c-2.9.1-5.1-1.6-5.2-4.5,0-2.5,1.9-4.6,4.3-4.7,2.6-.1,5.1,1.6,5.2,4.2v.6c-.3,2.3-1.9,4.2-4.3,4.3ZM386,434.6c-3,.1-4.8-2.1-4.9-4.7s1.9-4.6,4.4-4.7c3-.1,5.1,2,5.2,4.8-.3,2.8-2.2,4.5-4.7,4.6ZM391.7,422.4c-2.9.1-5.1-1.8-5.2-4.2-.1-3.1,2.1-5.1,4.7-5.2,2.5,0,4.6,1.9,4.7,4.4v.6c0,2.3-1.8,4.4-4.2,4.5ZM400,441.4c0,2.6-2.1,4.6-4.4,4.7-2.9.1-4.8-2.1-4.9-4.5-.1-2.8,2.1-4.7,4.6-4.8.4,0,1,0,1.6.2,1.9.8,3.1,2.5,3.2,4.4ZM396.9,410.3c-2.6.1-4.9-1.5-5-4.1,0-2.6,1.7-5,4.2-5.1s5.2,1.5,5.3,4.3v.5c0,2.3-2.1,4.3-4.4,4.3ZM401.9,398.4c-3,.1-4.8-2.3-4.9-4.6,0-2.5,1.9-4.6,4.4-4.7,2.6-.1,5.1,1.8,5.2,4.2v.6c-.3,2.5-2.2,4.4-4.7,4.5ZM407.5,386.4c-2.6.1-5.1-1.9-5.2-4.3-.1-2.8,2.1-5,4.7-5.1s4.7,2.4,4.8,4.8c-.3,2.6-2,4.5-4.3,4.6ZM414.1,440.9c0,2.6-2.1,4.6-4.4,4.7s-4.8-2-4.9-4.5c-.1-2.8,2.2-4.7,4.6-4.8.4,0,1,0,1.6.2,1.9.8,3.1,2.5,3.2,4.4ZM413.4,388.6c2.6-.1,4.6,2.2,4.7,4.7,0,2.3-1.6,4.1-4.2,4.6-2.6.1-4.8-1.3-5.3-4.1v-.6c-.1-2.3,1.9-4.5,4.8-4.6ZM419.6,400.3c2.4,0,4.6,1.9,4.7,4.7,0,2.5-2.2,4.4-4.8,4.5-2.4,0-4.4-1.7-4.6-4v-.6c-.1-2.6,1.9-4.5,4.8-4.6ZM428.1,440.2c.1,2.8-2.2,4.7-4.6,4.8-2.9.1-4.8-2.1-4.9-4.5-.1-2.8,2.1-4.9,4.4-5,.5,0,1.1,0,1.8.3,2,.8,3.2,2.3,3.3,4.3ZM425.1,411.7c2.6-.1,5.2,1.5,5.3,4.8,0,2.5-2.2,4.5-4.8,4.6-2.4,0-4.2-1.8-4.7-4.1-.1-3.1,1.3-4.8,4.2-5.3ZM431.9,423.4c2.5,0,4.3,1.8,4.8,4.1.1,2.8-1.3,4.8-4.3,5.3-2.6.1-4.8-1.3-5.3-4.2v-.6c-.1-2.5,2.2-4.5,4.8-4.6ZM438.1,435c2.6-.1,4.6,2.2,4.7,4.7,0,2.6-2.1,4.4-4.7,4.5-2.4,0-4.4-1.7-4.6-4v-.6c-.1-2.6,2.1-4.5,4.7-4.6ZM443.7,446.6c2.9-.1,5.3,1.8,5.4,4.7s-2.1,4.5-4.9,4.6c-2.4,0-4.3-1.8-4.5-4.1v-.6c-.1-2.3,1.7-4.1,4-4.6ZM450.6,458.1c2.4,0,4.2,1.7,4.7,4.2,0,2.6-1.3,4.7-4.2,5.2-3.1.1-4.9-1.3-5.4-4.1-.1-2.8,1.5-5.2,4.9-5.3ZM469.6,374.4c3-.1,5,2.1,5,4.6.1,2.9-2.3,4.8-4.7,4.8s-5-2.1-5-4.5,0-1.1.3-1.7c.6-1.9,2.4-3.2,4.4-3.2ZM470.2,387.8c2.9-.1,5.1,2.1,5.2,4.6s-2.2,4.9-4.7,5-5.1-2-5.2-4.5c0-.6,0-1.2.3-1.9.6-1.9,2.4-3.2,4.4-3.2ZM470.7,402.1c2.9-.1,5.1,2.1,5.2,4.6.1,2.8-2.3,5-4.8,5.1-2.9.1-5-2.5-5-4.6s0-1.1.3-1.7c.5-2,2.4-3.3,4.4-3.4ZM471.2,415.5c2.9-.1,5.1,2.1,5.2,4.6.1,2.9-2.3,5-4.7,5.1-3,.1-5.1-2.3-5.2-4.6,0-.5,0-1.1.3-1.7.5-2,2.4-3.3,4.4-3.4ZM471.7,429.2c2.9-.1,5.1,2.3,5.2,4.6.1,2.9-2.3,5-4.7,5.1-2.9.1-5.1-2.1-5.2-4.6,0-.5,0-1.1.3-1.7.8-2,2.5-3.3,4.4-3.4ZM477.1,441.9c2.9-.1,5,2.3,5.1,4.7.1,2.8-2.2,4.9-4.6,5s-4.9-1.9-5.1-4.7c0-.5-.2-1.1.2-1.6.8-2.1,2.2-3.3,4.4-3.4ZM486.3,451.8c2.9-.1,5,2.1,5.1,4.7s-2.2,4.7-4.6,4.8c-3,.1-5.1-2.1-5.2-4.6,0-.7,0-1.4.2-1.7.8-1.9,2.5-3.2,4.5-3.2ZM499.6,456.6c2.9-.1,5.1,2.1,5.2,4.6.1,2.8-2.1,4.9-4.7,5s-5.1-2-5.2-4.5c0-.6,0-1.2.3-1.9.6-1.9,2.4-3.2,4.4-3.2ZM519.3,460.6c0,2.6-1.8,4.9-4.7,5s-4.9-1.8-5-4.6c0-2.6,2.1-4.9,4.7-5,2,0,3.8,1.1,4.7,2.9.1.6.3,1.1.3,1.7ZM532.4,454.6c0,2.6-1.8,4.9-4.7,5s-4.9-1.8-5-4.6c0-2.6,1.8-4.9,4.7-5,2,0,3.8,1.1,4.7,2.9.1.6.3,1.1.3,1.7ZM541,444c0,2.3-1.7,4.7-4.6,4.8-2.6.1-5.1-1.8-5.2-4.6,0-2.5,1.7-4.9,4.6-5,2.4,0,3.9.8,4.7,2.9.3.6.4,1.2.4,1.8ZM537,371.8c2.9-.1,4.9,2,5,4.6.1,2.9-2.3,4.8-4.7,4.8-2.9.1-4.9-2-5-4.5,0-.5,0-1.1.3-1.7.8-2.1,2.3-3.2,4.4-3.2ZM537.5,385.2c3-.1,4.9,2,5,4.6.1,2.8-2.2,4.9-4.6,5s-4.9-2-5-4.5c0-.6,0-1.2.3-1.9.6-1.9,2.3-3.2,4.2-3.2ZM538,399.5c3-.1,5,2.1,5,4.6.1,2.8-2.2,5-4.7,5.1-2.9.1-4.8-2.3-4.9-4.6,0-.5,0-1.1.3-1.7.5-2,2.4-3.3,4.2-3.4ZM538.5,412.9c3-.1,5,2.1,5,4.6.1,2.9-2.2,5-4.6,5.1s-5-2.3-5-4.6c0-.5,0-1.1.3-1.7.5-2,2.4-3.3,4.2-3.4ZM539.1,426.6c2.9-.1,5.1,2.1,5.2,4.6.1,2.8-2.2,5-4.7,5.1-2.9.1-4.9-2-5-4.5,0-.6,0-1.2.3-1.9.5-2,2.4-3.3,4.2-3.4ZM559.9,371.7c2.9-.1,5,2.1,5.1,4.7.1,2.9-2.3,4.6-4.7,4.7s-5-2.3-5-4.6c0-.5-.2-1.1.2-1.6.8-1.9,2.5-3.2,4.5-3.2ZM573.8,371.1c2.9-.1,5,2.1,5,4.6.1,2.8-2.2,4.7-4.6,4.8s-5.1-2.1-5.2-4.5c0-.5,0-1.1.3-1.7.6-1.9,2.4-3.2,4.4-3.2ZM588.5,370.5c2.9-.1,5,2.1,5,4.6.1,2.8-2.2,4.7-4.7,4.8-2.9.1-4.9-2-5-4.5,0-.5,0-1.1.3-1.7.6-1.9,2.4-3.2,4.4-3.2ZM589.2,384.6c2.9-.1,4.8,2.1,4.9,4.5.1,2.8-2.1,4.9-4.7,5-2.9.1-4.9-2-5-4.5,0-.6,0-1.2.3-1.9.6-1.9,2.5-3,4.5-3.1ZM589.6,398.2c2.9-.1,4.9,2,5,4.5.1,2.8-2.2,5-4.7,5.1-2.9.1-5-2.1-5-4.6,0-.5,0-1.1.3-1.7.6-1.9,2.4-3.2,4.4-3.2ZM590.1,411.4c2.9-.1,5,2.3,5,4.6.1,2.8-2.2,5-4.7,5.1s-5-2.1-5-4.6c0-.5,0-1.1.3-1.7.5-2,2.5-3.3,4.4-3.4ZM590.6,425.1c2.9-.1,5,2.3,5.1,4.7.1,2.8-2.2,4.7-4.6,4.8s-4.9-2-5-4.5c0-.7,0-1.4.2-1.7.8-2,2.5-3.3,4.4-3.4ZM591.1,438.9c2.9-.1,5,2.1,5.1,4.7.1,2.8-2.2,4.6-4.7,4.7-3,.1-4.8-2.1-4.9-4.5,0-.7,0-1.4.2-1.7.8-1.9,2.5-3.2,4.4-3.2ZM591.6,451.8c2.9-.1,5,2.3,5,4.6.1,2.8-2.2,4.9-4.6,5s-5-2.1-5-4.6,0-1.4.2-1.7c.8-1.9,2.5-3.2,4.4-3.2ZM603.2,370c2.9-.1,5.1,2,5.2,4.6.1,2.9-2.3,4.8-4.7,4.8-2.9.1-4.9-2-5-4.5,0-.5,0-1.1.3-1.7.6-1.9,2.3-3.2,4.2-3.2ZM617.2,369.5c2.9-.1,5,2.1,5,4.6.1,2.8-2.2,4.7-4.7,4.8-2.9.1-4.9-2-5-4.5,0-.5,0-1.1.3-1.7.8-2.1,2.3-3.2,4.4-3.2ZM640.7,367.8c3-.1,5,2.1,5,4.6.1,2.9-2.3,4.8-4.7,4.8-2.9.1-5-2.1-5-4.5s0-1.1.3-1.7c.6-1.9,2.4-3.2,4.4-3.2ZM641.2,381.2c2.9-.1,5.1,2.1,5.2,4.6s-2.2,4.9-4.7,5-5.1-2-5.2-4.5c0-.6,0-1.2.3-1.9.6-1.9,2.4-3.2,4.4-3.2ZM641.8,395.5c2.9-.1,5.1,2.1,5.2,4.6.1,2.8-2.3,5-4.8,5.1-2.9.1-5-2.5-5-4.6s0-1.1.3-1.7c.5-2,2.4-3.3,4.4-3.4ZM642.3,408.9c2.9-.1,5.1,2.1,5.2,4.6.1,2.9-2.3,5-4.7,5.1-3,.1-5.1-2.3-5.2-4.6,0-.5,0-1.1.3-1.7.5-2,2.4-3.3,4.4-3.4ZM642.8,422.6c2.9-.1,5.1,2.3,5.2,4.6.1,2.9-2.3,5-4.7,5.1-2.9.1-5.1-2.1-5.2-4.6,0-.5,0-1.1.3-1.7.8-2,2.5-3.3,4.4-3.4ZM648.2,435.3c2.9-.1,5,2.3,5.1,4.7s-2.2,4.9-4.6,5c-2.9.1-4.9-1.9-5.1-4.7,0-.5-.2-1.1.2-1.6.8-2.1,2.2-3.3,4.4-3.4ZM657.4,445.3c2.9-.1,5,2.1,5.1,4.7.1,2.8-2.2,4.7-4.6,4.8s-5.1-2.1-5.2-4.6,0-1.4.2-1.7c.8-1.9,2.5-3.2,4.5-3.2ZM670.7,450c2.9-.1,5.1,2.1,5.2,4.6.1,2.8-2.1,4.9-4.7,5-2.9.1-5.1-2-5.2-4.5,0-.6,0-1.2.3-1.9.6-1.9,2.4-3.2,4.4-3.2ZM690.3,454.1c0,2.6-1.8,4.9-4.7,5s-4.9-1.8-5-4.6c0-2.6,2.1-4.9,4.7-5,2,0,3.8,1.1,4.7,2.9.1.6.3,1.1.3,1.7ZM703.5,448.1c0,2.6-1.8,4.9-4.7,5-2.5,0-4.9-1.8-5-4.6,0-2.6,1.8-4.9,4.7-5,2,0,3.8,1.1,4.7,2.9.1.6.3,1.1.3,1.7ZM712.1,437.4c0,2.3-1.7,4.7-4.6,4.8s-5.1-1.8-5.2-4.6c0-2.5,1.7-4.9,4.6-5,2.4,0,3.9.8,4.7,2.9.3.6.4,1.2.4,1.8ZM708,365.3c2.9-.1,4.9,2,5,4.6.1,2.9-2.3,4.8-4.7,4.8-2.9.1-4.9-2-5-4.5,0-.5,0-1.1.3-1.7.8-2.1,2.3-3.2,4.4-3.2ZM708.6,378.6c3-.1,4.9,2,5,4.6.1,2.8-2.2,4.9-4.6,5-2.9.1-4.9-2-5-4.5,0-.6,0-1.2.3-1.9.6-1.9,2.3-3.2,4.2-3.2ZM709.1,393c3-.1,5,2.1,5,4.6.1,2.8-2.2,5-4.7,5.1-2.9.1-4.8-2.3-4.9-4.6,0-.5,0-1.1.3-1.7.5-2,2.4-3.3,4.2-3.4ZM709.6,406.3c3-.1,5,2.1,5,4.6.1,2.9-2.2,5-4.6,5.1s-5-2.3-5-4.6c0-.5,0-1.1.3-1.7.5-2,2.4-3.3,4.2-3.4ZM710.1,420.1c2.9-.1,5.1,2.1,5.2,4.6.1,2.8-2.2,5-4.7,5.1-2.9.1-4.9-2-5-4.5,0-.6,0-1.2.3-1.9.5-2,2.4-3.3,4.2-3.4ZM738.1,365.1c2.9-.1,4.8,2.3,4.9,4.6s-2.3,4.8-4.7,4.8-4.8-2.3-4.9-4.6c0-.5-.2-1.1.2-1.6.8-2,2.5-3.2,4.5-3.2ZM738.7,379.1c2.9-.1,5,2.1,5,4.6.1,2.8-2.2,4.9-4.7,5s-5-2.1-5.1-4.7c0-.5-.2-1.1.2-1.6.8-1.9,2.5-3.2,4.5-3.2ZM739.2,392.7c2.9-.1,5,2.1,5,4.6.1,2.8-2.3,4.9-4.8,5-2.9.1-4.8-2.3-4.9-4.7,0-.5-.2-1.1.2-1.6.8-1.9,2.5-3.2,4.5-3.2ZM739.7,406c2.9-.1,5,2.1,5,4.6.1,2.8-2.2,4.9-4.7,5s-5-2.1-5.1-4.7-.2-1.1.2-1.6c.8-1.9,2.5-3.2,4.5-3.2ZM740.2,419.8c2.9-.1,5,2.1,5,4.6.1,2.8-2.2,4.9-4.7,5-2.9.1-4.9-2-5-4.6,0-.5,0-1.1.3-1.7.6-1.9,2.4-3.2,4.4-3.2ZM740.9,433.5c2.9-.1,4.8,2.1,4.9,4.5.1,2.8-2.2,5-4.7,5.1s-5-2.3-5-4.6c0-.5,0-1.1.3-1.7.5-2,2.5-3.2,4.5-3.2ZM741.4,446.5c2.9-.1,4.8,2.1,4.9,4.6.1,2.8-2.2,4.9-4.7,5s-5-2.1-5-4.6c0-.5,0-1.1.3-1.7.5-2,2.5-3.2,4.5-3.2ZM744.7,379.5c0-2.6,1.9-4.9,4.8-5,2.6-.1,4.9,1.8,5,4.6,0,2.6-2.1,4.9-4.7,5s-4.5-1.4-5-4c0-.4-.1-.2-.1-.6ZM752.4,391.2c0-2.3,1.9-4.7,4.6-4.8,2.6-.1,5.1,1.9,5.2,4.7,0,2.5-1.9,4.7-4.8,4.8-2.4,0-4.3-1.6-4.8-3.9-.1-.1-.1-.5-.2-.9ZM759.7,402.8c0-2.5,1.8-4.7,4.7-4.8s4.9,1.8,5,4.3c0,2.5-1.9,5.1-4.5,5.2-2.4,0-4.6-1.7-5-4,0-.4-.1-.4-.2-.7ZM766.9,414.2c0-2.3,1.7-4.9,4.6-5s5.1,1.9,5.2,4.5-1.8,5-4.7,5.1-4.4-1.5-4.9-3.9c0-.4-.1-.4-.2-.7ZM774.9,425.7c0-2.3,1.9-4.7,4.6-4.8,2.6-.1,5.1,1.9,5.2,4.7s-1.8,4.7-4.7,4.8-4.4-1.5-4.9-3.9c-.1-.1-.1-.5-.2-.9ZM786.2,408.4c2.9-.1,4.8,1.9,4.9,4.5.1,2.8-1.8,5-4.7,5.1-2.9.1-5-2.3-5.1-4.7,0-.4.1-.4,0-.7.3-2.3,2.1-4,4.7-4.1ZM792.5,396.3c2.9-.1,4.9,2,5,4.6s-1.9,4.9-4.4,5-5.2-2-5.3-4.6c0-.4.1-.4,0-.7.3-2.3,2.1-4.1,4.6-4.2ZM798.9,384.5c2.9-.1,4.8,2,4.9,4.5.1,2.9-2.1,5-4.6,5.1-2.9.1-5.1-2.1-5.2-4.7,0-.4.1-.4,0-.7.4-2.3,2.3-4,4.7-4.1ZM805.5,372.3c2.9-.1,4.8,1.9,4.9,4.5.1,2.9-2.1,5-4.6,5.1s-5.1-2.1-5.2-4.6.1-.5,0-.9c.3-2.3,2.1-4,4.7-4.1ZM815.9,362.1c2.9-.1,4.8,2.3,4.9,4.6.1,2.8-2.3,4.8-4.7,4.8-2.9.1-5-2.1-5-4.5,0-.5,0-1.1.3-1.7.8-2,2.5-3.2,4.5-3.2ZM816.3,376.1c2.9-.1,5.1,2.3,5.2,4.7.1,2.8-2.3,4.8-4.7,4.8-2.9.1-5-2.1-5.1-4.7,0-.5-.2-1.1.2-1.6.8-2.1,2.3-3.2,4.4-3.2ZM816.9,389.7c2.9-.1,5.1,2.3,5.2,4.7.1,2.8-2.4,4.8-4.8,4.8-2.9.1-4.8-2.3-4.9-4.7,0-.5-.2-1.1.2-1.6.8-2.1,2.3-3.2,4.4-3.2ZM817.4,403.1c2.9-.1,5.1,2.3,5.2,4.7.1,2.8-2.3,4.8-4.7,4.8-2.9.1-5-2.1-5.1-4.7,0-.5-.2-1.1.2-1.6.8-2.1,2.3-3.2,4.4-3.2ZM818,416.8c2.9-.1,5,2.1,5,4.6.1,2.8-2.2,4.9-4.7,5-2.9.1-4.9-2-5-4.6,0-.5,0-1.1.3-1.7.6-1.9,2.4-3.2,4.4-3.2ZM818.7,430.5c2.9-.1,4.8,2.1,4.9,4.5.1,2.8-2.3,5-4.8,5.1-2.9.1-4.8-2.3-4.9-4.6,0-.5,0-1.1.3-1.7.5-2,2.5-3.2,4.5-3.2ZM819.2,443.5c2.9-.1,4.8,2.1,4.9,4.6.1,2.8-2.2,4.9-4.7,5-2.9.1-5-2.1-5-4.6,0-.5,0-1.1.3-1.7.5-2,2.5-3.2,4.5-3.2ZM845.8,361c2.9-.1,4.8,2.1,4.9,4.5.1,2.8-2.2,4.9-4.8,5s-4.8-2.1-4.9-4.5,0-1.1.3-1.7c.5-2,2.5-3.2,4.5-3.2ZM846.3,374.9c2.9-.1,5,2.1,5,4.6.1,2.8-2.2,4.9-4.7,5-2.9.1-4.9-2-5-4.6,0-.5,0-1.1.3-1.7.8-2.1,2.3-3.2,4.4-3.2ZM846.8,388.6c2.9-.1,5,2.1,5,4.6s-2.2,4.9-4.8,5-4.8-2.1-4.9-4.6c0-.5,0-1.1.3-1.7.8-2.1,2.3-3.2,4.4-3.2ZM847.3,401.9c2.9-.1,5,2.1,5,4.6.1,2.8-2.2,4.9-4.7,5-2.9.1-4.9-2-5-4.6,0-.5,0-1.1.3-1.7.8-2.1,2.3-3.2,4.4-3.2ZM847.8,415.6c2.9-.1,5,2.1,5.1,4.7.1,2.8-2.2,4.7-4.6,4.8-2.9.1-5.1-2-5.2-4.6,0-.5,0-1.1.3-1.7.8-2.1,2.3-3.2,4.4-3.2ZM848.5,429.4c2.9-.1,4.8,2.3,4.9,4.6s-2.2,4.9-4.7,5c-2.9.1-5-2.1-5-4.6,0-.5,0-1.1.3-1.7.8-2,2.5-3.2,4.5-3.2ZM849,442.4c2.9-.1,4.8,2.3,4.9,4.7.1,2.8-2.2,4.7-4.6,4.8-3,.1-5.1-2.1-5.2-4.6,0-.5,0-1.1.3-1.7.8-2,2.5-3.2,4.5-3.2ZM851.8,374.9c0-2.5,1.9-4.9,4.8-5s4.8,1.9,4.9,4.7c0,2.3-1.9,4.7-4.8,4.8s-3.7-1-4.6-3.3c-.1-.5-.3-.8-.3-1.3ZM860.9,385.7c0-2.5,1.9-4.9,4.8-5s4.8,1.9,4.9,4.7c0,2.3-1.9,4.7-4.8,4.8-2.1,0-3.7-1-4.6-3.3-.1-.6-.3-1.1-.3-1.3ZM869.8,396c0-2.3,1.9-4.7,4.8-4.8,2.4,0,4.8,1.8,4.9,4.6,0,2.5-1.9,4.9-4.8,5-2.1,0-3.7-1-4.6-3.3-.1-.6-.3-1.1-.3-1.5ZM878.4,406.2c0-2.3,1.8-4.7,4.7-4.8,2.5,0,4.9,1.9,5.1,4.7,0,2.3-1.8,4.9-4.7,5-2.1,0-3.8-1.3-4.7-3.4-.1-.6-.3-1.1-.3-1.5ZM887.3,416.9c0-2.5,1.9-4.9,4.8-5,2.4,0,4.9,1.8,5,4.6,0,2.5-1.9,4.9-4.8,5-2.2,0-3.8-1-4.7-3.3-.1-.5-.3-.8-.3-1.3ZM896.2,427.4c0-2.5,1.9-4.9,4.8-5s4.9,1.9,5.1,4.7c0,2.3-1.9,4.9-4.8,5-2.1,0-3.8-1.3-4.7-3.3-.1-.6-.3-1.1-.3-1.5ZM904.7,437.4c0-2.3,1.8-4.9,4.7-5,2.4,0,4.9,2,5.1,4.8,0,2.3-1.9,4.7-4.8,4.8-2,0-3.7-1.3-4.6-3.3-.1-.6-.3-1.1-.3-1.5ZM917.3,358.1c2.9-.1,4.8,2.3,4.9,4.7.1,2.8-2.2,4.7-4.7,4.8s-5-2.1-5-4.6c0-.5,0-1.1.3-1.7.8-2,2.5-3.2,4.5-3.2ZM917.8,372.2c2.9-.1,4.8,2.3,4.9,4.6.1,2.8-2.3,4.8-4.7,4.8s-4.8-2.3-4.9-4.6-.2-1.1.2-1.6c.8-2,2.5-3.2,4.5-3.2ZM918.4,385.8c2.9-.1,4.8,2.3,4.9,4.6.1,2.8-2.3,4.9-4.7,5s-4.8-2.4-4.9-4.7-.2-1.1.2-1.6c.8-2,2.5-3.2,4.5-3.2ZM918.9,399.2c2.9-.1,4.8,2.3,4.9,4.6s-2.3,4.8-4.7,4.8-4.8-2.3-4.9-4.6c0-.5-.2-1.1.2-1.6.8-2,2.5-3.2,4.5-3.2ZM919.4,412.8c2.9-.1,5,2.1,5,4.6.1,2.8-2.3,4.9-4.8,5-2.9.1-4.8-2.3-4.9-4.6,0-.5-.2-1.1.2-1.6.8-2,2.5-3.3,4.5-3.4ZM919.9,426.5c2.9-.1,5,2.1,5,4.6.1,2.8-2.2,4.9-4.7,5s-5-2.1-5.1-4.7c0-.5-.2-1.1.2-1.6.8-1.9,2.5-3.2,4.5-3.2ZM920.4,439.5c2.9-.1,5,2.1,5,4.6s-2.2,4.9-4.7,5-5-2.1-5.1-4.7c0-.5-.2-1.1.2-1.6.8-1.9,2.5-3.2,4.5-3.2Z"/>
        <path class="st67" d="M373.2,470c-2.5,0-4.7-1.9-4.8-4.2-.1-2.9,1.8-5.1,4.3-5.2s5.2,2.4,5.3,5c-.3,2.5-2,4.4-4.8,4.5ZM378.8,457.9c-2.6.1-4.9-1.8-5-4.2-.1-2.8,1.8-5,4.7-5.1s4.6,1.9,4.7,4.2v.6c0,2.3-1.9,4.4-4.3,4.5ZM384.1,445.8c-2.9.1-5.1-1.6-5.2-4.5,0-2.5,1.9-4.6,4.3-4.7s5.1,1.6,5.2,4.2v.6c-.3,2.3-1.9,4.2-4.3,4.3ZM389.1,434c-3,.1-4.8-2.1-4.9-4.7s1.9-4.6,4.4-4.7c3-.1,5.1,2,5.2,4.8-.3,2.8-2.2,4.5-4.7,4.6ZM394.8,421.8c-2.9.1-5.1-1.8-5.2-4.2-.1-3.1,2.1-5.1,4.7-5.2,2.5,0,4.6,1.9,4.7,4.4v.6c0,2.3-1.8,4.4-4.2,4.5ZM403.1,440.8c0,2.6-2.1,4.6-4.4,4.7s-4.8-2.1-4.9-4.5c-.1-2.8,2.1-4.7,4.6-4.8.4,0,1,0,1.6.2,1.9.8,3.1,2.5,3.2,4.4ZM399.9,409.7c-2.6.1-4.9-1.5-5-4.1s1.7-5,4.2-5.1,5.2,1.5,5.3,4.3v.5c0,2.3-2.1,4.3-4.4,4.3ZM405,397.8c-3,.1-4.8-2.3-4.9-4.6,0-2.5,1.9-4.6,4.4-4.7,2.6-.1,5.1,1.8,5.2,4.2v.6c-.3,2.5-2.2,4.4-4.7,4.5ZM410.6,385.8c-2.6.1-5.1-1.9-5.2-4.3-.1-2.8,2.1-5,4.7-5.1,2.9-.1,4.7,2.4,4.8,4.8-.3,2.6-2,4.5-4.3,4.6ZM417.2,440.2c0,2.6-2.1,4.6-4.4,4.7-2.9.1-4.8-2-4.9-4.5-.1-2.8,2.2-4.7,4.6-4.8.4,0,1,0,1.6.2,1.9.8,3.1,2.5,3.2,4.4ZM416.5,388c2.6-.1,4.6,2.2,4.7,4.7,0,2.3-1.6,4.1-4.2,4.6-2.6.1-4.8-1.3-5.3-4.1v-.6c-.1-2.3,1.9-4.5,4.8-4.6ZM422.7,399.7c2.4,0,4.6,1.9,4.7,4.7,0,2.5-2.2,4.4-4.8,4.5-2.4,0-4.4-1.7-4.6-4v-.6c-.1-2.6,1.9-4.5,4.8-4.6ZM431.2,439.6c.1,2.8-2.2,4.7-4.6,4.8-2.9.1-4.8-2.1-4.9-4.5-.1-2.8,2.1-4.9,4.4-5,.5,0,1.1,0,1.8.3,2,.8,3.2,2.3,3.3,4.3ZM428.2,411.1c2.6-.1,5.2,1.5,5.3,4.8,0,2.5-2.2,4.5-4.8,4.6-2.4,0-4.2-1.8-4.7-4.1-.1-3.1,1.3-4.8,4.2-5.3ZM435,422.7c2.5,0,4.3,1.8,4.8,4.1.1,2.8-1.3,4.8-4.3,5.3-2.6.1-4.8-1.3-5.3-4.2v-.6c-.1-2.5,2.2-4.5,4.8-4.6ZM441.2,434.4c2.6-.1,4.6,2.2,4.7,4.7,0,2.6-2.1,4.4-4.7,4.5s-4.4-1.7-4.6-4v-.6c-.1-2.6,2.1-4.5,4.7-4.6ZM446.8,446c2.9-.1,5.3,1.8,5.4,4.7,0,2.3-2.1,4.5-4.9,4.6-2.4,0-4.3-1.8-4.5-4.1v-.6c-.1-2.3,1.7-4.1,4-4.6ZM453.7,457.5c2.4,0,4.2,1.7,4.7,4.2,0,2.6-1.3,4.7-4.2,5.2-3.1.1-4.9-1.3-5.4-4.1-.1-2.8,1.5-5.2,4.9-5.3ZM472.7,373.8c3-.1,5,2.1,5,4.6s-2.3,4.8-4.7,4.8-5-2.1-5-4.5c0-.5,0-1.1.3-1.7.6-1.9,2.4-3.2,4.4-3.2ZM473.2,387.2c2.9-.1,5.1,2.1,5.2,4.6.1,2.8-2.2,4.9-4.7,5-2.9.1-5.1-2-5.2-4.5,0-.6,0-1.2.3-1.9.6-1.9,2.4-3.2,4.4-3.2ZM473.8,401.5c2.9-.1,5.1,2.1,5.2,4.6.1,2.8-2.3,5-4.8,5.1s-5-2.5-5-4.6c0-.5,0-1.1.3-1.7.5-2,2.4-3.3,4.4-3.4ZM474.3,414.9c2.9-.1,5.1,2.1,5.2,4.6.1,2.9-2.3,5-4.7,5.1-3,.1-5.1-2.3-5.2-4.6,0-.5,0-1.1.3-1.7.5-2,2.4-3.3,4.4-3.4ZM474.8,428.6c2.9-.1,5.1,2.3,5.2,4.6.1,2.9-2.3,5-4.7,5.1-2.9.1-5.1-2.1-5.2-4.6,0-.5,0-1.1.3-1.7.8-2,2.5-3.3,4.4-3.4ZM480.2,441.3c2.9-.1,5,2.3,5.1,4.7.1,2.8-2.2,4.9-4.6,5s-4.9-1.9-5.1-4.7c0-.5-.2-1.1.2-1.6.8-2.1,2.2-3.3,4.4-3.4ZM489.4,451.2c2.9-.1,5,2.1,5.1,4.7.1,2.8-2.2,4.7-4.6,4.8-3,.1-5.1-2.1-5.2-4.6s0-1.4.2-1.7c.8-1.9,2.5-3.2,4.5-3.2ZM502.7,456c2.9-.1,5.1,2.1,5.2,4.6.1,2.8-2.1,4.9-4.7,5s-5.1-2-5.2-4.5c0-.6,0-1.2.3-1.9.6-1.9,2.4-3.2,4.4-3.2ZM522.4,460c0,2.6-1.8,4.9-4.7,5s-4.9-1.8-5-4.6c0-2.6,2.1-4.9,4.7-5,2,0,3.8,1.1,4.7,2.9.1.6.3,1.1.3,1.7ZM535.5,454c0,2.6-1.8,4.9-4.7,5-2.5,0-4.9-1.8-5-4.6,0-2.6,1.8-4.9,4.7-5,2,0,3.8,1.1,4.7,2.9.1.6.3,1.1.3,1.7ZM544.1,443.4c0,2.3-1.7,4.7-4.6,4.8s-5.1-1.8-5.2-4.6,1.7-4.9,4.6-5c2.4,0,3.9.8,4.7,2.9.3.6.4,1.2.4,1.8ZM540.1,371.2c2.9-.1,4.9,2,5,4.6.1,2.9-2.3,4.8-4.7,4.8-2.9.1-4.9-2-5-4.5,0-.5,0-1.1.3-1.7.8-2.1,2.3-3.2,4.4-3.2ZM540.6,384.6c3-.1,4.9,2,5,4.6s-2.2,4.9-4.6,5-4.9-2-5-4.5c0-.6,0-1.2.3-1.9.6-1.9,2.3-3.2,4.2-3.2ZM541.1,398.9c3-.1,5,2.1,5,4.6.1,2.8-2.2,5-4.7,5.1-2.9.1-4.8-2.3-4.9-4.6,0-.5,0-1.1.3-1.7.5-2,2.4-3.3,4.2-3.4ZM541.6,412.3c3-.1,5,2.1,5,4.6.1,2.9-2.2,5-4.6,5.1-2.9.1-5-2.3-5-4.6s0-1.1.3-1.7c.5-2,2.4-3.3,4.2-3.4ZM542.2,426c2.9-.1,5.1,2.1,5.2,4.6.1,2.8-2.2,5-4.7,5.1s-4.9-2-5-4.5c0-.6,0-1.2.3-1.9.5-2,2.4-3.3,4.2-3.4ZM563,371.1c2.9-.1,5,2.1,5.1,4.7.1,2.9-2.3,4.6-4.7,4.7s-5-2.3-5-4.6-.2-1.1.2-1.6c.8-1.9,2.5-3.2,4.5-3.2ZM576.9,370.5c2.9-.1,5,2.1,5,4.6.1,2.8-2.2,4.7-4.6,4.8s-5.1-2.1-5.2-4.5,0-1.1.3-1.7c.6-1.9,2.4-3.2,4.4-3.2ZM591.6,369.9c2.9-.1,5,2.1,5,4.6.1,2.8-2.2,4.7-4.7,4.8s-4.9-2-5-4.5,0-1.1.3-1.7c.6-1.9,2.4-3.2,4.4-3.2ZM592.2,383.9c2.9-.1,4.8,2.1,4.9,4.5s-2.1,4.9-4.7,5c-2.9.1-4.9-2-5-4.5,0-.6,0-1.2.3-1.9.6-1.9,2.5-3,4.5-3.1ZM592.6,397.6c2.9-.1,4.9,2,5,4.5.1,2.8-2.2,5-4.7,5.1-2.9.1-5-2.1-5-4.6,0-.5,0-1.1.3-1.7.6-1.9,2.4-3.2,4.4-3.2ZM593.2,410.8c2.9-.1,5,2.3,5,4.6.1,2.8-2.2,5-4.7,5.1s-5-2.1-5-4.6,0-1.1.3-1.7c.5-2,2.5-3.3,4.4-3.4ZM593.7,424.5c2.9-.1,5,2.3,5.1,4.7.1,2.8-2.2,4.7-4.6,4.8-3,.1-4.9-2-5-4.5,0-.7,0-1.4.2-1.7.8-2,2.5-3.3,4.4-3.4ZM594.2,438.3c2.9-.1,5,2.1,5.1,4.7.1,2.8-2.2,4.6-4.7,4.7-3,.1-4.8-2.1-4.9-4.5,0-.7,0-1.4.2-1.7.8-1.9,2.5-3.2,4.4-3.2ZM594.7,451.2c2.9-.1,5,2.3,5,4.6.1,2.8-2.2,4.9-4.6,5s-5-2.1-5-4.6c0-.7,0-1.4.2-1.7.8-1.9,2.5-3.2,4.4-3.2ZM606.3,369.4c2.9-.1,5.1,2,5.2,4.6.1,2.9-2.3,4.8-4.7,4.8-2.9.1-4.9-2-5-4.5s0-1.1.3-1.7c.6-1.9,2.3-3.2,4.2-3.2ZM620.3,368.9c2.9-.1,5,2.1,5,4.6.1,2.8-2.2,4.7-4.7,4.8-2.9.1-4.9-2-5-4.5,0-.5,0-1.1.3-1.7.8-2.1,2.3-3.2,4.4-3.2ZM643.8,367.2c3-.1,5,2.1,5,4.6.1,2.9-2.3,4.8-4.7,4.8s-5-2.1-5-4.5c0-.5,0-1.1.3-1.7.6-1.9,2.4-3.2,4.4-3.2ZM644.3,380.6c2.9-.1,5.1,2.1,5.2,4.6.1,2.8-2.2,4.9-4.7,5-2.9.1-5.1-2-5.2-4.5,0-.6,0-1.2.3-1.9.6-1.9,2.4-3.2,4.4-3.2ZM644.9,394.9c2.9-.1,5.1,2.1,5.2,4.6.1,2.8-2.3,5-4.8,5.1-2.9.1-5-2.5-5-4.6s0-1.1.3-1.7c.5-2,2.4-3.3,4.4-3.4ZM645.4,408.3c2.9-.1,5.1,2.1,5.2,4.6s-2.3,5-4.7,5.1c-3,.1-5.1-2.3-5.2-4.6,0-.5,0-1.1.3-1.7.5-2,2.4-3.3,4.4-3.4ZM645.9,422c2.9-.1,5.1,2.3,5.2,4.6.1,2.9-2.3,5-4.7,5.1s-5.1-2.1-5.2-4.6c0-.5,0-1.1.3-1.7.8-2,2.5-3.3,4.4-3.4ZM651.3,434.7c2.9-.1,5,2.3,5.1,4.7.1,2.8-2.2,4.9-4.6,5s-4.9-1.9-5.1-4.7c0-.5-.2-1.1.2-1.6.8-2.1,2.2-3.3,4.4-3.4ZM660.5,444.7c2.9-.1,5,2.1,5.1,4.7.1,2.8-2.2,4.7-4.6,4.8-3,.1-5.1-2.1-5.2-4.6s0-1.4.2-1.7c.8-1.9,2.5-3.2,4.5-3.2ZM673.8,449.4c2.9-.1,5.1,2.1,5.2,4.6.1,2.8-2.1,4.9-4.7,5-2.9.1-5.1-2-5.2-4.5,0-.6,0-1.2.3-1.9.6-1.9,2.4-3.2,4.4-3.2ZM693.4,453.5c0,2.6-1.8,4.9-4.7,5s-4.9-1.8-5-4.6c0-2.6,2.1-4.9,4.7-5,2,0,3.8,1.1,4.7,2.9.1.6.3,1.1.3,1.7ZM706.6,447.4c0,2.6-1.8,4.9-4.7,5-2.5,0-4.9-1.8-5-4.6,0-2.6,1.8-4.9,4.7-5,2,0,3.8,1.1,4.7,2.9.1.6.3,1.1.3,1.7ZM715.1,436.8c0,2.3-1.7,4.7-4.6,4.8-2.6.1-5.1-1.8-5.2-4.6,0-2.5,1.7-4.9,4.6-5,2.4,0,3.9.8,4.7,2.9.3.6.4,1.2.4,1.8ZM711.1,364.7c2.9-.1,4.9,2,5,4.6.1,2.9-2.3,4.8-4.7,4.8-2.9.1-4.9-2-5-4.5,0-.5,0-1.1.3-1.7.8-2.1,2.3-3.2,4.4-3.2ZM711.6,378c3-.1,4.9,2,5,4.6.1,2.8-2.2,4.9-4.6,5-2.9.1-4.9-2-5-4.5,0-.6,0-1.2.3-1.9.6-1.9,2.3-3.2,4.2-3.2ZM712.2,392.4c3-.1,5,2.1,5,4.6.1,2.8-2.2,5-4.7,5.1-2.9.1-4.8-2.3-4.9-4.6,0-.5,0-1.1.3-1.7.5-2,2.4-3.3,4.2-3.4ZM712.7,405.7c3-.1,5,2.1,5,4.6.1,2.9-2.2,5-4.6,5.1-2.9.1-5-2.3-5-4.6,0-.5,0-1.1.3-1.7.5-2,2.4-3.3,4.2-3.4ZM713.2,419.5c2.9-.1,5.1,2.1,5.2,4.6.1,2.8-2.2,5-4.7,5.1-2.9.1-4.9-2-5-4.5,0-.6,0-1.2.3-1.9.5-2,2.4-3.3,4.2-3.4ZM741.2,364.5c2.9-.1,4.8,2.3,4.9,4.6.1,2.8-2.3,4.8-4.7,4.8-2.9.1-4.8-2.3-4.9-4.6s-.2-1.1.2-1.6c.8-2,2.5-3.2,4.5-3.2ZM741.7,378.5c2.9-.1,5,2.1,5,4.6.1,2.8-2.2,4.9-4.7,5-2.9.1-5-2.1-5.1-4.7,0-.5-.2-1.1.2-1.6.8-1.9,2.5-3.2,4.5-3.2ZM742.3,392.1c2.9-.1,5,2.1,5,4.6.1,2.8-2.3,4.9-4.8,5-2.9.1-4.8-2.3-4.9-4.7,0-.5-.2-1.1.2-1.6.8-1.9,2.5-3.2,4.5-3.2ZM742.8,405.4c2.9-.1,5,2.1,5,4.6.1,2.8-2.2,4.9-4.7,5-2.9.1-5-2.1-5.1-4.7s-.2-1.1.2-1.6c.8-1.9,2.5-3.2,4.5-3.2ZM743.3,419.2c2.9-.1,5,2.1,5,4.6.1,2.8-2.2,4.9-4.7,5-2.9.1-4.9-2-5-4.6,0-.5,0-1.1.3-1.7.6-1.9,2.4-3.2,4.4-3.2ZM744,432.9c2.9-.1,4.8,2.1,4.9,4.5s-2.2,5-4.7,5.1-5-2.3-5-4.6c0-.5,0-1.1.3-1.7.5-2,2.5-3.2,4.5-3.2ZM744.5,445.9c2.9-.1,4.8,2.1,4.9,4.6.1,2.8-2.2,4.9-4.7,5-2.9.1-5-2.1-5-4.6,0-.5,0-1.1.3-1.7.5-2,2.5-3.2,4.5-3.2ZM747.8,378.8c0-2.6,1.9-4.9,4.8-5s4.9,1.8,5,4.6c0,2.6-2.1,4.9-4.7,5-2.4,0-4.5-1.4-5-4,0-.4-.1-.2-.1-.6ZM755.4,390.6c0-2.3,1.9-4.7,4.6-4.8,2.6-.1,5.1,1.9,5.2,4.7,0,2.5-1.9,4.7-4.8,4.8s-4.3-1.6-4.8-3.9c-.1-.1-.1-.5-.2-.9ZM762.8,402.2c0-2.5,1.8-4.7,4.7-4.8s4.9,1.8,5,4.3-1.9,5.1-4.5,5.2c-2.4,0-4.6-1.7-5-4,0-.4-.1-.4-.2-.7ZM769.9,413.6c0-2.3,1.7-4.9,4.6-5s5.1,1.9,5.2,4.5c0,2.6-1.8,5-4.7,5.1-2.4,0-4.4-1.5-4.9-3.9,0-.4-.1-.4-.2-.7ZM778,425.1c0-2.3,1.9-4.7,4.6-4.8,2.6-.1,5.1,1.9,5.2,4.7s-1.8,4.7-4.7,4.8c-2.4,0-4.4-1.5-4.9-3.9-.1-.1-.1-.5-.2-.9ZM789.3,407.8c2.9-.1,4.8,1.9,4.9,4.5.1,2.8-1.8,5-4.7,5.1s-5-2.3-5.1-4.7.1-.4,0-.7c.3-2.3,2.1-4,4.7-4.1ZM795.6,395.7c2.9-.1,4.9,2,5,4.6.1,2.8-1.9,4.9-4.4,5-3.1.1-5.2-2-5.3-4.6,0-.4.1-.4,0-.7.3-2.3,2.1-4.1,4.6-4.2ZM802,383.9c2.9-.1,4.8,2,4.9,4.5.1,2.9-2.1,5-4.6,5.1-2.9.1-5.1-2.1-5.2-4.7s.1-.4,0-.7c.4-2.3,2.3-4,4.7-4.1ZM808.5,371.7c2.9-.1,4.8,1.9,4.9,4.5.1,2.9-2.1,5-4.6,5.1-3,.1-5.1-2.1-5.2-4.6s.1-.5,0-.9c.3-2.3,2.1-4,4.7-4.1ZM819,361.5c2.9-.1,4.8,2.3,4.9,4.6.1,2.8-2.3,4.8-4.7,4.8-2.9.1-5-2.1-5-4.5s0-1.1.3-1.7c.8-2,2.5-3.2,4.5-3.2ZM819.4,375.5c2.9-.1,5.1,2.3,5.2,4.7.1,2.8-2.3,4.8-4.7,4.8s-5-2.1-5.1-4.7c0-.5-.2-1.1.2-1.6.8-2.1,2.3-3.2,4.4-3.2ZM820,389.1c2.9-.1,5.1,2.3,5.2,4.7.1,2.8-2.4,4.8-4.8,4.8s-4.8-2.3-4.9-4.7c0-.5-.2-1.1.2-1.6.8-2.1,2.3-3.2,4.4-3.2ZM820.5,402.5c2.9-.1,5.1,2.3,5.2,4.7s-2.3,4.8-4.7,4.8-5-2.1-5.1-4.7c0-.5-.2-1.1.2-1.6.8-2.1,2.3-3.2,4.4-3.2ZM821.1,416.2c2.9-.1,5,2.1,5,4.6.1,2.8-2.2,4.9-4.7,5-2.9.1-4.9-2-5-4.6,0-.5,0-1.1.3-1.7.6-1.9,2.4-3.2,4.4-3.2ZM821.8,429.9c2.9-.1,4.8,2.1,4.9,4.5.1,2.8-2.3,5-4.8,5.1-2.9.1-4.8-2.3-4.9-4.6s0-1.1.3-1.7c.5-2,2.5-3.2,4.5-3.2ZM822.3,442.9c2.9-.1,4.8,2.1,4.9,4.6.1,2.8-2.2,4.9-4.7,5-2.9.1-5-2.1-5-4.6s0-1.1.3-1.7c.5-2,2.5-3.2,4.5-3.2ZM848.9,360.4c2.9-.1,4.8,2.1,4.9,4.5s-2.2,4.9-4.8,5c-2.9.1-4.8-2.1-4.9-4.5,0-.5,0-1.1.3-1.7.5-2,2.5-3.2,4.5-3.2ZM849.3,374.3c2.9-.1,5,2.1,5,4.6.1,2.8-2.2,4.9-4.7,5-2.9.1-4.9-2-5-4.6,0-.5,0-1.1.3-1.7.8-2.1,2.3-3.2,4.4-3.2ZM849.9,387.9c2.9-.1,5,2.1,5,4.6.1,2.8-2.2,4.9-4.8,5-2.9.1-4.8-2.1-4.9-4.6,0-.5,0-1.1.3-1.7.8-2.1,2.3-3.2,4.4-3.2ZM850.4,401.3c2.9-.1,5,2.1,5,4.6.1,2.8-2.2,4.9-4.7,5-2.9.1-4.9-2-5-4.6,0-.5,0-1.1.3-1.7.8-2.1,2.3-3.2,4.4-3.2ZM850.9,415c2.9-.1,5,2.1,5.1,4.7.1,2.8-2.2,4.7-4.6,4.8-2.9.1-5.1-2-5.2-4.6,0-.5,0-1.1.3-1.7.8-2.1,2.3-3.2,4.4-3.2ZM851.6,428.8c2.9-.1,4.8,2.3,4.9,4.6.1,2.8-2.2,4.9-4.7,5s-5-2.1-5-4.6c0-.5,0-1.1.3-1.7.8-2,2.5-3.2,4.5-3.2ZM852.1,441.7c2.9-.1,4.8,2.3,4.9,4.7.1,2.8-2.2,4.7-4.6,4.8-3,.1-5.1-2.1-5.2-4.6s0-1.1.3-1.7c.8-2,2.5-3.2,4.5-3.2ZM854.8,374.3c0-2.5,1.9-4.9,4.8-5,2.4,0,4.8,1.9,4.9,4.7s-1.9,4.7-4.8,4.8c-2.1,0-3.7-1-4.6-3.3-.1-.5-.3-.8-.3-1.3ZM864,385.1c0-2.5,1.9-4.9,4.8-5s4.8,1.9,4.9,4.7c0,2.3-1.9,4.7-4.8,4.8-2.1,0-3.7-1-4.6-3.3-.1-.6-.3-1.1-.3-1.3ZM872.9,395.4c0-2.3,1.9-4.7,4.8-4.8,2.4,0,4.8,1.8,4.9,4.6,0,2.5-1.9,4.9-4.8,5s-3.7-1-4.6-3.3c-.1-.6-.3-1.1-.3-1.5ZM881.5,405.6c0-2.3,1.8-4.7,4.7-4.8,2.5,0,4.9,1.9,5.1,4.7,0,2.3-1.8,4.9-4.7,5s-3.8-1.3-4.7-3.4c-.1-.6-.3-1.1-.3-1.5ZM890.4,416.3c0-2.5,1.9-4.9,4.8-5,2.4,0,4.9,1.8,5,4.6,0,2.5-1.9,4.9-4.8,5s-3.8-1-4.7-3.3c-.1-.5-.3-.8-.3-1.3ZM899.3,426.8c0-2.5,1.9-4.9,4.8-5s4.9,1.9,5.1,4.7c0,2.3-1.9,4.9-4.8,5s-3.8-1.3-4.7-3.3c-.1-.6-.3-1.1-.3-1.5ZM907.8,436.8c0-2.3,1.8-4.9,4.7-5,2.4,0,4.9,2,5.1,4.8,0,2.3-1.9,4.7-4.8,4.8-2,0-3.7-1.3-4.6-3.3-.1-.6-.3-1.1-.3-1.5ZM920.4,357.5c2.9-.1,4.8,2.3,4.9,4.7.1,2.8-2.2,4.7-4.7,4.8s-5-2.1-5-4.6c0-.5,0-1.1.3-1.7.8-2,2.5-3.2,4.5-3.2ZM920.9,371.6c2.9-.1,4.8,2.3,4.9,4.6.1,2.8-2.3,4.8-4.7,4.8s-4.8-2.3-4.9-4.6-.2-1.1.2-1.6c.8-2,2.5-3.2,4.5-3.2ZM921.4,385.2c2.9-.1,4.8,2.3,4.9,4.6s-2.3,4.9-4.7,5c-2.9.1-4.8-2.4-4.9-4.7,0-.5-.2-1.1.2-1.6.8-2,2.5-3.2,4.5-3.2ZM922,398.6c2.9-.1,4.8,2.3,4.9,4.6.1,2.8-2.3,4.8-4.7,4.8s-4.8-2.3-4.9-4.6-.2-1.1.2-1.6c.8-2,2.5-3.2,4.5-3.2ZM922.5,412.2c2.9-.1,5,2.1,5,4.6.1,2.8-2.3,4.9-4.8,5s-4.8-2.3-4.9-4.6c0-.5-.2-1.1.2-1.6.8-2,2.5-3.3,4.5-3.4ZM923,425.9c2.9-.1,5,2.1,5,4.6.1,2.8-2.2,4.9-4.7,5s-5-2.1-5.1-4.7c0-.5-.2-1.1.2-1.6.8-1.9,2.5-3.2,4.5-3.2ZM923.5,438.9c2.9-.1,5,2.1,5,4.6.1,2.8-2.2,4.9-4.7,5s-5-2.1-5.1-4.7-.2-1.1.2-1.6c.8-1.9,2.5-3.2,4.5-3.2Z"/>
      </g>
      <path class="st52" d="M445.1,384.9h-135.2v-26l70.1-57.5c13.6-10.6,20.4-20.2,20.4-28.7s-2.1-12.2-6.2-16c-4.1-3.8-9.6-5.8-16.5-6.2h-1.3c-8.2,0-20.1,5.8-35.6,17.4l-27.7-25.7c23.4-21.3,45.7-32,67.1-32h1.5c13.6.2,25.1,2.9,34.5,8.3,9.4,5.4,16.1,12,20.2,19.8,4,7.8,6.1,16.3,6.1,25.3s-4,24.7-12.1,35.8c-8.1,11.1-20.2,22.9-36.3,35.3l-11.9,9.8h62.8v40.3Z"/>
      <g>
        <path class="st65" d="M283.4,333.3l-32.8,6.1,5.9,31.8c3.2,17.3,16.7,30.8,33.9,34.2l6.7,1.3,5.7-3.6c14.9-9.4,22.5-26.9,19.3-44.1l-5.9-31.8-32.8,6.1Z"/>
        <path class="st39" d="M312.9,332l5.2,27.7c2.9,15.7-3.9,31.3-17.4,39.9l-4.3,2.7-5-1c-15.7-3.1-27.7-15.2-30.6-30.9l-5.2-27.7,28.7-5.4,28.7-5.4M316.2,327.2l-32.8,6.1-32.8,6.1,5.9,31.8c3.2,17.3,16.7,30.8,33.9,34.2l6.7,1.3,5.7-3.6c14.9-9.4,22.5-26.9,19.3-44.1l-5.9-31.8h0Z"/>
      </g>
      <polyline class="st2" points="275.1 375 291.1 385.9 305.5 347.3"/>
      <g class="st43">
        <g>
          <path class="st46" d="M303.2,66.7c26.2,0,48.4,9.8,66.6,29.3l-27.7,25.7c-10.8-9.7-23.7-14.6-38.8-14.6s-24.6,4.6-33.5,13.7c-8.9,9.2-13.4,21.1-13.4,35.9s4.5,26.7,13.4,35.8c8.9,9.1,20.1,13.6,33.5,13.6s28.2-4.8,38.8-14.4l27.7,25.7c-18.2,19.5-40.3,29.3-66.6,29.3s-46.1-8.8-63.5-26.4c-17.5-17.6-26.2-38.8-26.2-63.7s8.7-46.1,26.2-63.7c17.5-17.6,38.7-26.4,63.5-26.4Z"/>
          <path class="st46" d="M448.2,66.7h1.8c23.9,0,47.3,9.8,70.4,29.3l-28,25.7c-6.7-4-14.2-7.5-22.6-10.3-8.3-2.9-14.9-4.3-19.8-4.3h-1.8c-16.6,0-25,4.7-25,14.1s.7,4.1,2.1,5.7c1.4,1.6,3.7,2.8,6.7,3.7,3,.8,5.5,1.4,7.6,1.8,2,.3,5,.8,8.8,1.3l11.3,1c9.6,1,18.1,2.7,25.6,5.2,7.5,2.4,14.3,5.8,20.6,10,6.2,4.2,11,9.8,14.4,16.8,3.4,7,5,15.1,5,24.3,0,17-6.5,30.5-19.5,40.5-13,10-30.1,15.2-51.1,15.5h-1.3c-16.5,0-31.3-3.2-44.4-9.7-13.1-6.5-24-14.6-32.5-24.3l28-25.7c13.4,12.9,29.8,19.4,48.9,19.4h1.3c18.5-.3,27.7-5.5,27.7-15.6s-.7-5.5-2.1-7.6c-1.4-2-3.8-3.6-7.1-4.8-3.3-1.2-6.2-2-8.7-2.5s-6.1-1-10.6-1.5l-11.6-1.3c-18.3-2-33.2-7.1-44.8-15.1-11.5-8.1-17.3-19.9-17.3-35.6s6.3-30.2,19-40.2c12.7-10,29-15.2,48.8-15.5Z"/>
          <path class="st46" d="M713.2,245h-25.7l-36.3-89.8-36.1,89.8h-25.7l-71.9-176.5h47.7l36.6,98.1,36.8-98.1h25.5l36.8,98.1,36.6-98.1h47.7l-71.9,176.5Z"/>
        </g>
      </g>
      <g>
        <path class="st38" d="M303.2,54.2c26.2,0,48.4,9.8,66.6,29.3l-27.7,25.7c-10.8-9.7-23.7-14.6-38.8-14.6s-24.6,4.6-33.5,13.7c-8.9,9.2-13.4,21.1-13.4,35.9s4.5,26.7,13.4,35.8c8.9,9.1,20.1,13.6,33.5,13.6s28.2-4.8,38.8-14.4l27.7,25.7c-18.2,19.5-40.3,29.3-66.6,29.3s-46.1-8.8-63.5-26.4c-17.5-17.6-26.2-38.8-26.2-63.7s8.7-46.1,26.2-63.7c17.5-17.6,38.7-26.4,63.5-26.4Z"/>
        <path class="st40" d="M448.2,54.2h1.8c23.9,0,47.3,9.8,70.4,29.3l-28,25.7c-6.7-4-14.2-7.5-22.6-10.3-8.3-2.9-14.9-4.3-19.8-4.3h-1.8c-16.6,0-25,4.7-25,14.1s.7,4.1,2.1,5.7c1.4,1.6,3.7,2.8,6.7,3.7,3,.8,5.5,1.4,7.6,1.8,2,.3,5,.8,8.8,1.3l11.3,1c9.6,1,18.1,2.7,25.6,5.2,7.5,2.4,14.3,5.8,20.6,10,6.2,4.2,11,9.8,14.4,16.8,3.4,7,5,15.1,5,24.3,0,17-6.5,30.5-19.5,40.5-13,10-30.1,15.2-51.1,15.5h-1.3c-16.5,0-31.3-3.2-44.4-9.7-13.1-6.5-24-14.6-32.5-24.3l28-25.7c13.4,12.9,29.8,19.4,48.9,19.4h1.3c18.5-.3,27.7-5.5,27.7-15.6s-.7-5.5-2.1-7.6c-1.4-2-3.8-3.6-7.1-4.8-3.3-1.2-6.2-2-8.7-2.5s-6.1-1-10.6-1.5l-11.6-1.3c-18.3-2-33.2-7.1-44.8-15.1-11.5-8.1-17.3-19.9-17.3-35.6s6.3-30.2,19-40.2c12.7-10,29-15.2,48.8-15.5Z"/>
        <path class="st41" d="M713.2,232.5h-25.7l-36.3-89.8-36.1,89.8h-25.7l-71.9-176.5h47.7l36.6,98.1,36.8-98.1h25.5l36.8,98.1,36.6-98.1h47.7l-71.9,176.5Z"/>
      </g>
      <g>
        <g>
          <circle class="st16" cx="559.9" cy="299.1" r="25.1"/>
          <line class="st25" x1="585.7" y1="324.8" x2="577.7" y2="316.7"/>
          <line class="st27" x1="595.1" y1="334.3" x2="611.3" y2="350.5"/>
        </g>
        <path class="st26" d="M559.9,283.7c8.5,0,15.5,6.9,15.5,15.5"/>
      </g>
      <g>
        <polyline class="st14" points="727.6 234.4 725 240.8 718.1 240.8"/>
        <polyline class="st14" points="706.2 240.8 699.3 240.8 696.7 234.4"/>
        <line class="st23" x1="692.3" y1="223.4" x2="665.6" y2="157.5"/>
        <polyline class="st14" points="665.6 157.5 663 151.1 660.4 157.5"/>
        <line class="st5" x1="656" y1="168.5" x2="629.5" y2="234.4"/>
        <polyline class="st14" points="629.5 234.4 626.9 240.8 620 240.8"/>
        <polyline class="st14" points="608.1 240.8 601.2 240.8 598.6 234.4"/>
        <line class="st1" x1="593.5" y1="221.8" x2="531.9" y2="70.7"/>
        <polyline class="st14" points="531.9 70.7 529.3 64.3 536.3 64.3"/>
        <line class="st12" x1="547.5" y1="64.3" x2="570.1" y2="64.3"/>
        <polyline class="st14" points="570.1 64.3 577 64.3 579.4 70.8"/>
        <line class="st17" x1="583.9" y1="83" x2="611.1" y2="155.9"/>
        <polyline class="st14" points="611.1 155.9 613.6 162.4 616 155.9"/>
        <line class="st31" x1="620.6" y1="143.8" x2="647.9" y2="70.8"/>
        <polyline class="st14" points="647.9 70.8 650.4 64.3 657.3 64.3"/>
        <polyline class="st14" points="668.9 64.3 675.8 64.3 678.3 70.8"/>
        <line class="st31" x1="682.8" y1="83" x2="710.2" y2="155.9"/>
        <polyline class="st14" points="710.2 155.9 712.7 162.4 715.1 155.9"/>
        <line class="st17" x1="719.6" y1="143.8" x2="746.8" y2="70.8"/>
        <polyline class="st14" points="746.8 70.8 749.2 64.3 756.2 64.3"/>
        <line class="st22" x1="767.4" y1="64.3" x2="790" y2="64.3"/>
        <polyline class="st14" points="790 64.3 796.9 64.3 794.3 70.7"/>
        <line class="st1" x1="789.2" y1="83.3" x2="727.6" y2="234.4"/>
      </g>
      <text class="st49" transform="translate(208.7 524.1)"><tspan class="st47" x="0" y="0">CYBERSECURITY WEEK LUXEMBOURG </tspan><tspan class="st50" x="634.6" y="0">AUTUMN</tspan></text>
      <text class="st48" transform="translate(468.3 558.3)"><tspan class="st63" x="0" y="0">OCTOBER</tspan><tspan class="st46" x="155.1" y="0" xml:space="preserve"> 2025</tspan></text>
      <line class="st3" x1="213.4" y1="489.9" x2="973.9" y2="489.9"/>
      <line class="st3" x1="213.4" y1="572.8" x2="973.9" y2="572.8"/>
      <path class="st52" d="M496.2,236.4c17.1-17.4,37.8-26.1,62.2-26.3,24.4-.2,45.3,8.3,62.7,25.4,17.4,17.1,26.2,37.9,26.4,62.2.2,24.4-8.3,45.2-25.4,62.6-17.1,17.4-37.9,26.1-62.5,26.3-24.5.2-45.5-8.3-62.7-25.4-17.3-17.1-26-37.8-26.2-62.2-.2-24.4,8.3-45.2,25.4-62.6ZM558.7,250.7c-12.9,0-23.7,4.5-32.2,13.3-8.5,8.8-12.7,20.4-12.6,34.6.1,14.3,4.5,25.8,13.1,34.5,8.6,8.7,19.4,13,32.4,12.9,13.1,0,23.9-4.5,32.4-13.3,8.5-8.8,12.7-20.3,12.6-34.6-.1-14.3-4.5-25.8-13.1-34.5-8.6-8.7-19.5-13-32.6-12.9Z"/>
    </g>
  </g>
</svg>