<?xml version="1.0" encoding="UTF-8"?>
<svg xmlns="http://www.w3.org/2000/svg" xmlns:xlink="http://www.w3.org/1999/xlink" version="1.1" viewBox="0 0 1920 1080">
  <!-- Generator: Adobe Illustrator 29.1.0, SVG Export Plug-In . SVG Version: 2.1.0 Build 142)  -->
  <defs>
    <style>
      .st0 {
        stroke-dasharray: 12.5 12.5 0 0 0 0;
      }

      .st0, .st1, .st2, .st3, .st4, .st5, .st6, .st7, .st8, .st9, .st10, .st11, .st12, .st13, .st14, .st15, .st16, .st17, .st18, .st19, .st20, .st21, .st22, .st23, .st24, .st25, .st26, .st27, .st28, .st29, .st30, .st31, .st32, .st33, .st34 {
        fill: none;
      }

      .st0, .st1, .st2, .st3, .st4, .st5, .st6, .st7, .st8, .st9, .st10, .st11, .st12, .st13, .st14, .st16, .st20, .st21, .st23, .st24, .st25, .st26, .st27, .st28, .st29, .st30, .st31, .st33 {
        stroke-linecap: round;
      }

      .st0, .st3, .st5, .st6, .st7, .st8, .st9, .st10, .st11, .st12, .st14, .st20, .st21, .st23, .st27, .st33, .st34 {
        stroke-linejoin: round;
      }

      .st0, .st3, .st5, .st7, .st8, .st9, .st10, .st11, .st12, .st14, .st21, .st23, .st27 {
        stroke-width: 2.5px;
      }

      .st0, .st5, .st7, .st8, .st9, .st11, .st12, .st14, .st21, .st23, .st27 {
        stroke: #e8292a;
      }

      .st35 {
        stroke-width: 1.2px;
      }

      .st35, .st1, .st2, .st4, .st36, .st37, .st13, .st15, .st16, .st18, .st19, .st22, .st38, .st24, .st25, .st26, .st28, .st29, .st30, .st31, .st32 {
        stroke-miterlimit: 10;
      }

      .st35, .st39 {
        fill: #0000f8;
      }

      .st35, .st37, .st16, .st38 {
        stroke: blue;
      }

      .st1 {
        stroke-dasharray: 15.2 3.8;
      }

      .st1, .st2, .st4, .st25, .st26 {
        stroke: #fff;
      }

      .st1, .st22 {
        stroke-width: 1.3px;
      }

      .st40 {
        fill: url(#linear-gradient2);
      }

      .st41 {
        fill: url(#linear-gradient1);
      }

      .st42 {
        fill: url(#linear-gradient3);
      }

      .st43 {
        fill: url(#linear-gradient4);
      }

      .st44, .st45, .st46 {
        mix-blend-mode: multiply;
      }

      .st44, .st45, .st47 {
        opacity: .2;
      }

      .st44, .st48 {
        fill: #1a1818;
      }

      .st2 {
        stroke-dasharray: 20.7 6.6;
      }

      .st2, .st4, .st25, .st26 {
        stroke-width: 1px;
      }

      .st3 {
        stroke-dasharray: 20.1 20.1 0 0 0 0;
      }

      .st3, .st6, .st10 {
        stroke: #00b0eb;
      }

      .st36, .st13, .st19, .st20, .st28, .st34 {
        stroke-width: 5px;
      }

      .st36, .st49 {
        fill: #fff;
      }

      .st36, .st17, .st18, .st19, .st20, .st32, .st34 {
        stroke: #c7c9ca;
      }

      .st5 {
        stroke-dasharray: 17.3 17.3 0 0 0 0;
      }

      .st50 {
        fill: #e6001c;
      }

      .st51, .st46 {
        fill: #e6001c;
      }

      .st37 {
        stroke-width: 1.4px;
      }

      .st37, .st52, .st38 {
        fill: blue;
      }

      .st6 {
        stroke-width: .8px;
      }

      .st53 {
        fill: url(#linear-gradient);
      }

      .st54 {
        fill: #c7c9ca;
      }

      .st7 {
        stroke-dasharray: 17.3 17.3 0 0 0 0;
      }

      .st8 {
        stroke-dasharray: 19.5 19.5 0 0 0 0;
      }

      .st9 {
        stroke-dasharray: 21.8 21.8 0 0 0 0;
      }

      .st10 {
        stroke-dasharray: 19.4 19.4 0 0 0 0;
      }

      .st55 {
        isolation: isolate;
      }

      .st12 {
        stroke-dasharray: 12.5 12.5 0 0 0 0;
      }

      .st13, .st28 {
        stroke: #0b8535;
      }

      .st14 {
        stroke-dasharray: 21.9 21.9 0 0 0 0;
      }

      .st56 {
        fill: #ff004d;
      }

      .st15, .st29, .st30, .st31 {
        stroke: #aeb0b3;
      }

      .st15, .st30 {
        stroke-width: 11.1px;
      }

      .st57 {
        fill: #00b0eb;
      }

      .st16 {
        stroke-width: 20.7px;
      }

      .st58 {
        fill: #ff0;
      }

      .st46, .st59 {
        font-family: Perfograma-Regular, Perfograma;
        font-size: 117.3px;
      }

      .st17 {
        stroke-width: 3.1px;
      }

      .st18 {
        stroke-width: 3.5px;
      }

      .st60 {
        fill: #818386;
      }

      .st61 {
        fill: #009cea;
      }

      .st21 {
        stroke-dasharray: 19.5 19.5 0 0 0 0;
      }

      .st22, .st24 {
        stroke: #97999c;
      }

      .st23 {
        stroke-dasharray: 19.4 19.4 0 0 0 0;
      }

      .st38 {
        stroke-width: 2.3px;
      }

      .st24 {
        stroke-width: 5.1px;
      }

      .st25 {
        stroke-dasharray: 12.5 3.1;
      }

      .st62 {
        fill: #eeeeef;
      }

      .st63 {
        fill: red;
      }

      .st59 {
        fill: #00a3ff;
      }

      .st64 {
        fill: #aeb0b3;
      }

      .st26 {
        stroke-dasharray: 12.4 3.1;
      }

      .st65 {
        fill: #3db8ff;
      }

      .st27 {
        stroke-dasharray: 12.3 12.3 0 0 0 0;
      }

      .st28 {
        stroke-dasharray: 0 10.1 0 0 0 0;
      }

      .st66 {
        fill: #4fc7ff;
      }

      .st29 {
        stroke-width: 25.9px;
      }

      .st31 {
        stroke-width: 11px;
      }

      .st32 {
        stroke-width: 2.9px;
      }

      .st33 {
        stroke: #009cea;
        stroke-width: 12.2px;
      }

      .st67 {
        clip-path: url(#clippath);
      }
    </style>
    <clipPath id="clippath">
      <path class="st17" d="M1627.6,454.5c1.4,0,.8,2,2,2.3.7.3.6,1.3,1.4,1.5.5-.3,1.5-.9,2.1-.9.7-.1.4.9.6,1.3.2.1.8.5,1.1.6-.4,1,1,1.2,1.7,1,.8-.4,2.1.4,2.8.4,1,0,.3,1.7.3,2.4,0,.9.7,2.3,1.8,1.5.4-.5,1.4,0,1,.5,0,0-.1.6-.1.6-.3,0-1.1-.5-1.1,0-.2.8.6,1.4.8,2.1,0,.3.4,1.1.9.8.2-.6.2-1.3.9-1.2,2.7-1,.6,1.1.4,2.4.3,1,1.9,1.3,2.7,2,.7-.2,2.3-1.7,2.5-.3,2.5,0,3.5,2.6,5.1,3.9.2.7,1.1.4,1.6.1.2,0,.6.4.8,0,.5-.3,1,.6,1.5.9,1.9-1.5,2.7,1.4,4.1,2.1,3.5,2.3,1.2-4.7,1.8-6.4.5-4.3-.2-8.7-.1-13-3-11.4-5.3-8.8,2.6-17.9,6.7-6.7-10.7-7.6-3.1-12.8,1.9-1.8,2.9,1.1,4.4.3,1.3-1.5-1.1-2.6-1.5-3.9-.6-2.4,1.3-4.3,3-5.8,1.3-.5,3-.4,4.1-1.5,1.5-1.8,2.1-4.2,4.2-5.5,3.9-3.8,3.7-10.4,6.7-15.5,2.2-5-8.4-3.3-.4-9.1,4.2-2.4,4.1-6.8,7.7-8.6,4.8-1.5,15.1-9.4,8.4-13.1.2-4.5,3.6,1,5.2.8,2.7-2.3-4.6-3.4-3.4-6-1-6.7.1-7.5,4.5-11.8-4.1-8.6,2.3-7.3-2.8-10.6-1.6-2.8,5.2-4.4,6-7.6-3.6-10.8-2.6,7.6-6.8-1.5-5.9-1.4-8.6-8.9-11.9-4.1-1.3,1.6-2.7,3.4-4.9,2.7-1.6-2-2.2.3-4.2.3-1.6-2.1-2.3-2.7-5.4-3.1-6.9-1.3-14.3-24-20.6-10.1-.5,3.2-5.4,2.3-4.7-.8,1.5-3.4-1.7-5.8-1.8-8.5.3-3.7-2.6-2.9-4.5-1.6-.7,0-2.7-4.2-4.5-5.2-3.3,1.2-1.8.8-5-.8-2.1-1.4-3.3-4.6-4.7-6.8-3.3.3-6.8-6-3.7-7,1.1-4.7-8-3.6-2.1-7.1.7-7.4-3.8-4.5-1-9-.3,0-3.8-.2-4-2-1.5-1.8-2.5,4.3-2.8,2.2-1-1.8-.9-4.5-1.7-6.4-.1-4.8-4.2.8-2,2.7,1.5.6,1,1.5,0,2-4,1.9-1.2-4.1-4.5-4.4-2.3-3.4-.7-6.2,0-9.8-3.9-1.2-3.4.5-5.4-3.8-2.6.6-4.7-3.5-1.2-1.7,3.2-5,1.6-5.5,0-5.6-5.3-1.2,5.8-4.5-3.7-8.2,3.1-6.4-3.6-7.6-2.2-13.2-.4-.3-1-.4-1.4.2-.9,4.9-3.2-1.1-1.7-2.4.3-.4.9-.3,2.5.5-.3-2.5,5.1-4.5.4-5.7-.8.9.5,4.3-2.2,2.2-.4-1,.8-3.6,2.1-3.1.4-2.1-2.4-6.6,1.8-5.2,4.1.5-1.6-2.6-.3-4.3,3.6.1,2.4-.9,1.2-2.9,2.9-3.5-.2-2-1.7-3-.2-1.7.7-3.5,2.4-3.9.2-.5.5-1.9.7-2.4-2.3.9-2.8-2.1-4.7-2.6-.5,0-2,.3-2.2-.2,0-1.4.4-3.2,1.5-4.1.4-.4,1.4-1.3,2.1-1.4-.2-.5-.6-.9-1.1-1.1-5.3-3.7,3.7-3-3.6-7.4-.3,0-1.4-1.2-1.7-1-.4.3-1,.6-1.5.7-1,.2-2.4-.5-3.2-1-2.8-.4-.4,3.4-1.6,6.2.3,1-1.6.3-2.1.3-2.3,3.1-4.2.8-6.7-.3-8.1-3.5-3.3-4.6-6.6-11.2-2,.4-4.8,2.6-7,3.2-5.6.8-9.8-2.1-10.1,5.6-.5.5.9,2.7,1,3.6-.6.8-1.5.8-2,1.5.1,1,.4,2.6.5,3.6-.6.9-.8,2.2-.5,3.2,1,2.6-1.6,1.6-3.1,2.8-10.5,1.1-17.6,9.6-17,19.9.9,4.7-5,2.3-6.5,5.6-8.4,6.7,5.2,7-.7,13.6-2.4.7-1.2,2.9-.8,4.5-4.1,1.2-.7,3.8-7.6,5.1-.4.5-1.1.6-1.3,1.3-.9,0-2.8,0-2.3,1.4-.4.5.2,1.5.3,2-.2,1.3,0,2.7.5,3.9.6.7,1.7,1.2,2,2.1.3,1.1,1.1.4,1.9.5,2.1,2.2-.6,7.1-3.5,6.9-.8,1.4-2,1.8-3.5,1.6-.4.5,0,1.3-.6,1.8.2.7.2,1.4-.5,1.7-.3.3-.8,0-1.1,0-.9.3-1.6-.4-2.1-1-.8.5-1.5.7-1.7,1.7-2.4,1.7-1.8-1.2-4.1.6,0,.8,0,1.3-.7,1.7.5.9.4,1.7-.4,2.4-.5,1-.3,1.7.3,2.6-.8.7.5,1.6.5,2.4.2.8-1.2,1.1-1.2,1.9-.2,1.4,0,1.5-1.5,1.7-.3,1.1-.2,2.7-.4,3.5-.4.2,0,.7,0,1,0,.6-.3,1.3,0,1.9-1,1.2-3,2.2-4.3,3.1-.5,1-1,2.1-2.2,2.4.3.4-.4.9-.6,1.2-2,2.2,1.2,2,2.2,3,1.8,2,4.8,1.8,6.9,3,.4,1.3,2.2.6,2.4,1.9.1.7,1.2.9,1.4,1.7-.4,1.5,0,1.6-1.3,1.1-1.1.1,3.8,1.9-.5,1.9-1,3.4-1.1,1.8-2.1,0-.7.2-.9,1.2-1.7,1.4-1,0-1.4-1.6-2.3-1.6-1,.7-.7,1.9.2,2.7-.1,1-.8,2.1.3,2.8,1.9,1.8-.4,1.6-1.6,2.1-.3.4-1.8.1-1.4.8.9.6,2.5,0,3,1.4.3,3.9-2.7.5-2.6,2.1-.3.7.2,1.5.4,2.1,0,2-2.3,0-2.8,1.7-.2.9.6,1.6,1.1,2.2.7,2.2,1.8,3.2-.2,4.9,0,1.2.9,1.9,1.6,2.7-.4,2.5.3,5,.9,7.4-.6,3.7,3,1,5.1,1.2,1.1-1.1,1.4,0,2.4.2,2-2.4,2.5-1.3,3.5,1.2-.5,2,1.4,2.4,1.8,4.1.6,2,2.7,2.2,2.8,5.5,0,1.2,1.1,2.2,1.7,3.1.4,1.2.5,2.9,1.3,3.8.5,1.6,3.4.4,2.8,2.8.4,3.3-1.7,2-.8,5.2-1,.9-.2,2.1-.4,3.2-.4,2,.9,1,2.1.9,6.5,2.5,4.3-4.2,11.8.9.5.6,0,1.4-.2,1.9.9.8,2.2,2.7,3,3.2-5.3,7.5-11.2,12.2-.4,17.6.5.6,1,.8,1.7-.2.7,1.1,2.4,1,3.3.8.4.4-.6,2.2,1.2,1.2,2.7-1-2.3,3.3-1.2,7.5,4.7,9.2-7.4,1.2-4.7,8.5-3,1.8-3.2,5.1-3.1,8.2-1.5.9-3.2,1.7-4.4,3.1-1.1.5-2.4,1.1-2.9,2.3.1,3,1.5,5.3,4.8,3.9.4-.9.6-.8,1.4-.4.7,1.7-.2,1.9-.8,3.4.8,0,.9.4.7,1,0,.4.3,1.4,0,1.7-1-.3-1.5,1.4-2.5,1.5,0,.5-.1,1.3-.6,1.6-1.1-.1-1.9.6-2.5,1.4-1.5.2-1.8,1.6-1.2,2.8-.5,1.4-2,1.8-3.3,2-.3.2-.9.6-1.2.8-.2-.2-.6-.4-.9-.3-1.3.3-2,2.1-2.9,2.2-2.8,0-.2,2.3.6,3.4,1.9-.6,3.6-1.9,5.5-2.4.2,1.2.5,2.6,1.4,3.8,2.1,3.2-3.5,1.1-1.9,5.4,1.2,2.4,4.7,2,4.1,5.4,3,.6,3.9,4.6,5.6,4.2.6-.5,1,0,1.4.4,4-1.2,5.1,2.7,9.6-1.3,2.2-1.1,4.4,2.5,6.5.8,2.3-1.6,4,1.4,5.7,2.5,1.4.5,3.5-.9,4.2.8-.1,1.1,0,2.3.4,3.3.6.3,1.4.8,1.3,1.5.3,1-.1,2.1-.8,2.9.3,1.9.8,4.1,2,5.6.6-.2.8-.6,1.1-1.1,1.5-.6,1.5,1.2,1.1,2.1-.1,2.5-2-.8-2.3,2.1,1.2,3.3,5.6-3.9,7.4-.6.3.3.9,1.3,1.4.5,1.2.2,2.6-.7,3.9-.9,1,.3,1.2,1.6.6,2.4.2.3.4.4.7.1.8,0,1.8,0,2.4.4,2.9,2.2,2.7-10.2,6.7-7.2.6,0,1.3,0,1.9,0,.3,0,1.2-1,1.4-.5-.8,1.1,1.4-.2,1.7.6.5.6-.2,2,.2,2.7,1.4,1.3,3.5,2.4,5.5,2.3,0-2.4-1.4-5.2.7-7.2.8-1.2,2.2-1.3,3-.1,1.3-.7,2.9-.9,2.5-2.7,1.5-2.1.7-4.7,1.3-7,.8,0,.8,1.3,1.4,1.5,1.6,0,3.6-2,2.3,1.1,1,.2,1.7-1.4,2.6-1.6.6-.1.6-1.1,1.2-1.3.1.2.5.7.6.9.2-.1.8-.3,1-.4-.2-1.1-1.5-2.2-1.7-3.5-.2-2.3,3.9-1.6,5.2-3.5,1.2-1.3.9,0,1.4.7.7,0,1.7-.4,2.3,0,.6.4,1.5.1,2.1,0,.7.9,1.7.5,2.7.1,1.5.4,4.5,1,3.9-1.5.2,0,.8.4,1.1.6.5-.1,1.6-.8,2-.4.1.2.4.2.5,0,.4-.6,1.5.6,2,.3.5-.2.3-1.7.6-2.1,1,.1,0-1.7-.8-1.5"/>
    </clipPath>
    <linearGradient id="linear-gradient" x1="1544.9" y1="560.7" x2="1544.9" y2="355.6" gradientUnits="userSpaceOnUse">
      <stop offset="0" stop-color="#00b0eb"/>
      <stop offset="1" stop-color="#4072b9"/>
    </linearGradient>
    <linearGradient id="linear-gradient1" x1="285.1" y1="949.4" x2="254.4" y2="785.1" gradientUnits="userSpaceOnUse">
      <stop offset="0" stop-color="#4072b9"/>
      <stop offset="1" stop-color="#00b0eb"/>
    </linearGradient>
    <linearGradient id="linear-gradient2" x1="737.5" y1="545.8" x2="737.5" y2="374.2" xlink:href="#linear-gradient"/>
    <linearGradient id="linear-gradient3" x1="737.5" y1="545.8" x2="737.5" y2="374.2" xlink:href="#linear-gradient"/>
    <linearGradient id="linear-gradient4" x1="737.5" y1="545.8" x2="737.5" y2="374.2" xlink:href="#linear-gradient"/>
  </defs>
  <g class="st55">
    <g id="CSWL_SPRING">
      <g class="st47">
        <path class="st48" d="M1786,635.9h-155.2v53.2c14.8-11.8,36.8-17.7,66-17.7,41.4,0,72.8,11.8,94.2,35.5,21.4,23.7,32.2,54.3,32.2,92s-2.8,31.8-8.3,46.6c-5.5,14.8-13.9,28.7-24.9,41.9-11.1,13.1-26.5,23.6-46.3,31.3-19.8,7.8-42.4,11.8-67.9,12.2h-3.3c-29.9,0-57-5.7-81.2-17.2-24.2-11.5-48.5-27.7-72.9-48.8l61.5-56.5c21.1,13.3,38.2,22.2,51.3,26.6,13.1,4.4,26.5,6.7,40.2,6.7h4.4c16.3,0,30-4.4,41.3-13.3,11.3-8.9,16.9-21.1,16.9-36.6s-5.6-29.5-16.9-38.5c-11.3-9.1-26.9-13.6-46.8-13.6s-18.7,1.4-28.3,4.2c-9.6,2.8-17.1,5.5-22.5,8.3-5.4,2.8-11.4,6.2-18,10.3-6.7,4.1-10.2,6.1-10.5,6.1l-43.2-33.3v-187.9h238.4v88.7Z"/>
      </g>
      <path class="st50" d="M1786,607.6h-155.2v53.2c14.8-11.8,36.8-17.7,66-17.7,41.4,0,72.8,11.8,94.2,35.5,21.4,23.7,32.2,54.3,32.2,92s-2.8,31.8-8.3,46.6c-5.5,14.8-13.9,28.7-24.9,41.9-11.1,13.1-26.5,23.6-46.3,31.3-19.8,7.8-42.4,11.8-67.9,12.2h-3.3c-29.9,0-57-5.7-81.2-17.2-24.2-11.5-48.5-27.7-72.9-48.8l61.5-56.5c21.1,13.3,38.2,22.2,51.3,26.6,13.1,4.4,26.5,6.7,40.2,6.7h4.4c16.3,0,30-4.4,41.3-13.3,11.3-8.9,16.9-21.1,16.9-36.6s-5.6-29.5-16.9-38.5c-11.3-9.1-26.9-13.6-46.8-13.6s-18.7,1.4-28.3,4.2c-9.6,2.8-17.1,5.5-22.5,8.3-5.4,2.8-11.4,6.2-18,10.3-6.7,4.1-10.2,6.1-10.5,6.1l-43.2-33.3v-187.9h238.4v88.7Z"/>
      <g>
        <line class="st1" x1="894" y1="892.1" x2="894" y2="892.1"/>
        <line class="st1" x1="894" y1="897.6" x2="894" y2="897.6"/>
      </g>
      <g>
        <path class="st56" d="M263.1,380.5c-9.2-6.5-18.8-12.6-27.5-19.7-22.9-18.7-39.6-42-50.2-69.6-3.1-8.2-5.2-16.8-7.6-25.3-.3-1,0-2.4.6-3.3.4-.6,1.9-1.1,2.6-.8.9.3,1.9,1.4,2.1,2.3,1,3.2,1.6,6.5,2.5,9.8,9.4,32.9,27.1,60.5,53.4,82.4,5.5,4.6,11.6,8.7,17.6,12.7,8.6,5.7,17.4,11.2,26.3,16.5,11.7,7,25.8,4.7,35-5.4,10.6-11.7,8.7-31.2-4.3-40.2-8-5.5-16.3-10.6-24.6-15.6-14-8.5-26-19.2-35.2-32.8-.4-.5-.7-1-1-1.6-.9-1.5-.5-3.2.9-4,1.3-.8,2.9-.5,3.9.8,1.8,2.4,3.4,4.9,5.3,7.2,7.8,9.9,17.2,17.9,27.8,24.6,8.9,5.5,17.9,10.9,26.5,16.9,14.4,10.1,17.7,30.9,7.6,45.3-10.4,15-30,19-45.5,9.4-5.3-3.3-10.5-6.6-15.8-9.9-.1.1-.2.3-.3.4Z"/>
        <path class="st56" d="M247.3,406.5c-9.6-6.7-19.4-13.3-28.8-20.3-9.9-7.4-18.5-16.2-26.6-25.5-1.4-1.7-1.4-3.3,0-4.5,1.3-1.1,3-.8,4.3.7,13.9,16.2,30.3,29.6,48.5,40.7,7.5,4.6,14.9,9.5,22.5,14,24.4,14.6,55.2,9.7,73.9-11.7,21.3-24.3,18.2-62.8-7.2-82.8-6.8-5.4-14.5-9.6-21.7-14.4-.7-.5-1.4-.8-2.1-1.4-1.3-1-1.5-2.3-.7-3.7.8-1.4,2.3-1.8,3.8-1,1,.5,1.8,1.1,2.8,1.7,6.1,3.9,12.3,7.6,18.3,11.7,23.2,16,32.9,47.6,22.8,74-12.9,33.7-49.2,50.1-82.9,37.4-4.5-1.7-8.8-4.3-13-6.8-4.6-2.7-9.1-5.6-13.6-8.5,0,.1-.2.3-.3.4Z"/>
        <path class="st56" d="M323.4,291.5c-5.4-3.4-11.1-6.5-16.3-10.3-19-14-27.7-33-26.6-56.5.1-2.4,1.7-3.8,3.6-3.3,1.8.6,2.3,1.9,2.1,3.7-.7,9.3.8,18.4,4.5,27,5,11.7,13.2,20.6,23.9,27.3,9.3,5.8,18.7,11.5,27.8,17.6,29.1,19.8,41.3,58.8,28.9,91.8-6.7,17.8-18.2,31.5-34.5,41.2-.7.4-1.7,1.1-2.4.9-1-.3-2.2-1-2.7-1.9-.7-1.3,0-2.6,1.2-3.4,2.9-1.9,5.8-3.6,8.6-5.7,37-28.2,38.8-83.5,3.4-113.7-6.6-5.7-14.3-10.1-21.5-15.1,0,0,0,.1-.1.2Z"/>
        <path class="st56" d="M270.7,367.2c-8.5-6.1-17-12.1-25.6-18.2-1.1-.8-2.2-1.8-3.2-2.7-1.4-1.3-1.5-2.9-.3-4.2,1.1-1.2,2.7-1.3,4.1,0,13.7,12,29.7,20.6,45,30.3,5.5,3.5,12.2,2.2,16-2.5,4-5,3.9-11.7-.5-16.3-1.1-1.1-2.4-2-3.8-2.9-9.8-6.3-20-12.1-29.5-18.9-33.3-23.7-50.9-56.3-53.3-97-.1-2.2,1-3.5,2.8-3.6,1.8,0,2.9,1.2,3,3.6,1,20.2,6.6,39.1,17.1,56.4,10.1,16.7,23.6,29.9,40.1,40.1,8.1,5,16.2,10,24.2,15.2,11.4,7.3,11.5,23.6.2,30.6-6.5,4.1-13.2,3.9-19.8-.2-5.4-3.3-10.8-6.7-16.1-10.1,0,.1-.2.3-.3.4Z"/>
        <path class="st56" d="M319.4,484.1c-.4-1.2-1-2.3-.8-3.2.2-.9,1.1-1.8,1.9-2.3.9-.5,2.1-.5,3.1-.8,28.1-6.6,51-21.3,68.5-44.3,32.5-42.9,32-102.6-1.2-145.1-.2-.2-.4-.5-.6-.7-1.3-1.7-1.3-3.2,0-4.4,1.4-1.1,3.1-.9,4.4.9,10.3,12.9,17.8,27.3,22.2,43.2,8.7,31.6,6.1,62.2-9,91.3-18.1,34.8-46.6,56.5-84.9,65.2-1.1.3-2.3.2-3.8.2Z"/>
        <path class="st56" d="M392.4,416.1c-.6,1-1.2,2-1.8,2.9-1,1.5-2.6,2-3.9,1.2-1.4-.8-1.9-2.5-1-4.2,1.4-2.5,2.9-5,4.2-7.5,21.3-41.5,11.5-93.3-23.7-124.2-4.8-4.3-10.2-7.9-15.6-11.5-8.7-5.8-17.8-10.9-26.3-16.8-8.1-5.7-12.3-14-13.2-23.9-.2-2.1.8-3.4,2.5-3.6,1.8-.2,3,.9,3.2,3.1,1,9.6,5.7,16.8,13.8,21.8,9.7,6.1,19.5,12,29,18.4,40.1,27,57.5,80,41.3,125.5-2.3,6.4-5.3,12.6-8,18.9-.1,0-.3-.1-.4-.2Z"/>
        <path class="st56" d="M235.7,416.6c-9.5-5.7-20.6-13.2-30.9-21.8-23.5-19.9-42-43.6-55.4-71.3-1-2-.5-3.6,1.1-4.4,1.7-.8,3.1,0,4.2,2.1,11.1,22.9,25.8,43,44.2,60.5,10.6,10.1,22.2,19,34.6,26.7,9.2,5.7,18.2,11.7,27.5,17.1,18,10.3,37.1,12.3,57,6.7.7-.2,1.3-.5,2-.6,1.6-.2,2.8.5,3.2,2.1.4,1.5-.2,2.6-1.5,3.3-.4.2-.9.4-1.4.5-22.8,6.6-44.3,3.8-64.6-8.4-6-3.6-11.9-7.5-19.9-12.5Z"/>
        <path class="st56" d="M221.3,444.2c-9.8-6.9-19.6-13.8-29.5-20.6-.6-.4-1.1-.8-1.6-1.4-1-1.2-.8-2.5.2-3.6,1-1.1,2.3-1.3,3.6-.4,1.9,1.3,3.7,2.7,5.5,4.1,15.6,11.5,31.8,22.3,49,31.2,34.3,17.9,68.7,16.5,102.3-2.7,9.1-5.2,17-12.1,24-20,1.6-1.8,3.3-2.1,4.6-.9,1.4,1.2,1.2,3-.3,4.7-30.7,34.5-79.5,46.2-122.4,29.2-7.3-2.9-14.2-6.7-20.9-11-4.8-3.1-9.6-6-14.4-9,0,.1-.2.3-.3.4Z"/>
        <path class="st56" d="M269.3,451.9c-1.5-1.1-1.9-2.3-1.3-3.7.6-1.5,1.9-2,3.4-1.7,2.5.6,5,1.4,7.6,1.9,34.3,6.2,63.3-3.4,86-29.9,18.2-21.2,24.1-46.1,19.2-73.6-.1-.6-.3-1.3-.3-1.9,0-1.5.9-2.5,2.4-2.8,1.4-.2,2.5.4,3.1,1.7.2.5.3,1.1.4,1.7,5.1,28-.7,53.4-18.1,75.9-23.7,30.6-62.8,43.4-99.9,33.1-.9-.3-1.8-.6-2.5-.7Z"/>
        <path class="st56" d="M250.3,223.1c1-.3,2.2-1,3.1-.7.9.2,1.7,1.3,2.2,2.2.3.5,0,1.4,0,2.1-.3,29.7,11,54.1,34.3,72.6,4.9,3.9,10.5,7.1,15.8,10.6,6.7,4.3,13.8,8.2,20.2,13,15.4,11.6,21.6,27.2,19.3,46.2-.3,2.2-1.6,3.3-3.4,3-1.7-.3-2.6-1.7-2.3-3.7,2.2-18.8-4.8-33.3-20.7-43.5-9.4-6-19.1-11.5-28.1-17.9-27.7-19.8-41.1-47-40.7-81,0-.8.2-1.6.4-2.8Z"/>
        <path class="st56" d="M278.5,353.5c-9-5.6-18-11.2-26-18.2-21.4-18.7-36-41.7-43.3-69.1-2-7.6-2.9-15.4-4.3-23.2-.1-.6-.2-1.1,0-1.7.2-1.4,1-2.3,2.5-2.5,1.5-.2,2.6.5,3.1,2,.2.5.2,1.1.3,1.7,3.9,35.7,19.1,65.5,46.3,88.9,5.5,4.7,11.6,8.8,17.7,12.8,7.4,4.9,15,9.5,22.6,14.2.4.3.9.5,1.3.8,1.6,1.1,2,2.6,1.2,4.1-.9,1.4-2.5,1.8-4.1.8-2.2-1.3-4.3-2.7-6.5-4-3.5-2.2-7-4.4-10.5-6.6Z"/>
        <path class="st56" d="M227.5,429.5c-9-5.5-19.6-12.5-29.5-20.5-20.1-16.3-37-35.5-50.6-57.6-1.2-1.9-.9-3.6.6-4.5,1.5-.9,3.1-.4,4.3,1.5,11.1,18,24.6,34.2,40.3,48.4,10.4,9.4,21.6,17.7,33.5,25,10,6.2,20.1,12.4,30.1,18.6,1.7,1,2.2,2.5,1.4,4-.8,1.5-2.4,2-4.1,1-2.2-1.2-4.3-2.4-6.4-3.7-5.9-3.6-11.7-7.3-19.5-12.2Z"/>
        <path class="st56" d="M380.6,330.7c-.7-1.1-1.2-1.7-1.5-2.5-7.5-18.2-19.9-32.2-36.6-42.5-9.1-5.6-18.4-11-27-17.2-13.8-10-20.2-24.1-19.8-41.1,0-2.2,1.2-3.5,3-3.4,1.8,0,2.8,1.3,2.8,3.6-.3,17,6.9,30,21.2,39,9.4,6,19,11.7,28.3,18,15.4,10.4,26.3,24.4,33.5,41.5.6,1.5.9,3-.5,3.9-.9.6-2.1.6-3.2.8Z"/>
        <path class="st56" d="M237.5,381.6c-35.1-25-59-58.4-71.5-100-.7-2.2,0-3.8,1.8-4.3,1.7-.5,3.1.5,3.8,2.8,7.9,26.6,21,50.2,39.7,70.8,9.3,10.2,19.6,19.1,30.9,26.9,2,1.4,2.6,3,1.6,4.6-1,1.5-2.7,1.6-4.7.2-.4-.3-.9-.5-1.6-1Z"/>
        <path class="st56" d="M221,461.4c-5.4-3.4-10.8-6.7-16.1-10.1-.6-.4-1.2-.7-1.7-1.2-1-1-1.3-2.4-.3-3.4.7-.7,2-1.1,3.1-1.2.7,0,1.5.7,2.2,1.1,9.6,6,19.2,12.2,28.9,18,20.7,12.3,43.1,17.5,67,16.2.6,0,1.3-.1,1.9,0,1.6.2,2.4,1.1,2.5,2.6.1,1.5-.7,2.5-2.2,2.9-.5.1-1.1.2-1.7.2-22.6,1.3-44.1-3-64.2-13.5-6.7-3.5-13.1-7.6-19.6-11.4,0,0,0-.1.1-.2Z"/>
        <path class="st56" d="M264.3,398.5c-3.5-2.2-7.1-4.4-10.6-6.7-2-1.2-2.5-2.7-1.6-4.2,1-1.6,2.6-1.8,4.6-.6,6.1,3.8,12.1,7.7,18.3,11.4,21,12.5,47.2,5.7,59.4-15.4,1.2-2,2.7-2.7,4.3-1.8,1.5.9,1.9,2.5.8,4.5-10.5,17.4-25.9,25.5-46.1,24.6-7.9-.4-15.3-3-22-7.2-2.4-1.5-4.7-3-7.1-4.5Z"/>
        <path class="st56" d="M190.8,249.9c1.2-.4,2.3-1.1,3.2-.9.9.2,1.9,1.2,2.3,2.1.5,1.1.5,2.5.7,3.7,5,28.7,17.3,53.8,36.8,75.4.3.3.5.6.8.9,1.2,1.4,1.2,3.1,0,4.3-1.2,1.1-3,1-4.2-.4-2.5-2.8-5.1-5.7-7.4-8.6-17.1-21.5-27.7-45.9-32-73.1-.2-1,0-2,0-3.3Z"/>
        <path class="st56" d="M294.1,290.6c-6.4-5.3-11.8-11.2-16.2-18-9.3-14.4-13.5-30.2-12.7-47.4,0-.8,0-1.5.3-2.3.4-1.4,1.5-2.2,3-2.1,1.5.2,2.4,1.1,2.5,2.6,0,.3,0,.6,0,.9-1.2,24.7,7.6,45.1,26.2,61.3,1.6,1.4,1.9,3,.8,4.3-1,1.2-2.7,1.4-4,.5Z"/>
        <path class="st56" d="M356.5,251.7c6.9,4.2,15.8,9.8,23.6,16.9,1.2,1.1,2.5,2.2,3.6,3.4,1.3,1.3,1.3,3,.3,4.1-1.1,1.2-2.8,1.4-4.1.1-13.1-12.7-29.4-21-44.5-30.9-.5-.3-1-.6-1.4-1-1.1-1-1.1-2.3-.4-3.5.8-1.2,1.9-1.7,3.3-1.2.6.2,1.1.6,1.7.9,5.3,3.3,10.5,6.6,17.8,11.2Z"/>
        <path class="st56" d="M155.8,297.1c1.2-.5,2.2-1.3,3-1.1,1,.3,2.2,1.1,2.6,2,1.9,4.1,3.4,8.3,5.3,12.4,5.3,11.8,11.8,22.9,19.3,33.4.6.9,1,2.4.8,3.5-.6,2.3-3.6,2.4-5.1.2-3.2-4.6-6.3-9.2-9.2-14-6.4-10.4-11.7-21.4-16-32.8-.4-1-.4-2.2-.6-3.7Z"/>
        <path class="st56" d="M234.9,226.6c1.1-.3,2.1-1,3.1-.8.9.2,1.6,1.2,2.3,1.9.3.4.2,1.1.2,1.7,0,15,3.2,29.3,9.3,43.1.4,1,.5,2.6,0,3.5-1.1,2.1-4.1,1.5-5-1-2.3-6.4-4.8-12.7-6.7-19.2-2.4-8.5-3.3-17.3-3.3-26.2,0-.9.1-1.7.2-3Z"/>
        <path class="st56" d="M178.4,412.3c-3-2.9-6.2-5.8-9.2-9-5.1-5.4-10.1-11.1-15.1-16.6-.2-.2-.3-.4-.5-.6-1.2-1.6-1.1-3.3.2-4.4,1.3-1,2.9-.7,4.2.7,4.4,4.9,8.7,9.9,13.2,14.7,3.2,3.4,6.7,6.6,10.1,9.8.4.4.9.8,1.2,1.2,1,1.3.9,2.6-.2,3.8-1.1,1.1-2.4,1-3.9.2Z"/>
      </g>
      <g>
        <path class="st66" d="M1204,707c-8.6,12.1-16.6,24.8-26,36.3-24.6,30.2-55.4,52.3-91.8,66.1-10.8,4.1-22.2,6.9-33.4,10.1-1.3.4-3.2,0-4.4-.8-.8-.5-1.4-2.5-1-3.5.5-1.2,1.8-2.5,3.1-2.8,4.2-1.3,8.6-2.1,12.9-3.3,43.4-12.3,79.7-35.7,108.6-70.4,6.1-7.3,11.5-15.2,16.7-23.2,7.5-11.4,14.8-23,21.8-34.7,9.2-15.4,6.2-34.1-7.1-46.1-15.4-14-41.2-11.4-53,5.6-7.3,10.5-14,21.5-20.6,32.4-11.2,18.5-25.3,34.2-43.3,46.5-.7.5-1.4,1-2.1,1.4-2,1.1-4.2.6-5.3-1.2-1-1.7-.6-3.8,1.1-5.1,3.2-2.3,6.4-4.5,9.5-6.9,13.1-10.2,23.6-22.6,32.4-36.7,7.3-11.7,14.3-23.7,22.2-34.9,13.3-18.9,40.7-23.3,59.8-10,19.8,13.7,25.1,39.6,12.4,60-4.3,7-8.7,13.9-13.1,20.9.2.1.4.3.6.4Z"/>
        <path class="st66" d="M1238.4,727.9c-8.9,12.7-17.5,25.6-26.8,37.9-9.8,13-21.3,24.4-33.7,35-2.2,1.9-4.4,1.9-6,0-1.4-1.7-1.1-3.9,1-5.7,21.4-18.4,39-39.9,53.7-63.9,6-9.9,12.5-19.6,18.5-29.6,19.2-32.1,12.7-72.7-15.4-97.4-32.1-28.1-82.7-23.9-109.1,9.4-7.1,8.9-12.7,19.1-19,28.7-.6.9-1.1,1.9-1.8,2.7-1.3,1.7-3,2-4.9,1-1.8-1-2.4-3-1.3-5,.7-1.3,1.5-2.4,2.2-3.6,5.1-8.1,10-16.3,15.4-24.1,21.1-30.6,62.7-43.3,97.5-30,44.4,16.9,66.1,64.9,49.3,109.3-2.3,6-5.7,11.5-8.9,17.1-3.5,6.1-7.4,11.9-11.2,17.9.2.1.4.3.6.4Z"/>
        <path class="st66" d="M1086.8,627.5c-4.5,7.2-8.6,14.6-13.6,21.4-18.4,25-43.4,36.5-74.4,35-3.2-.2-5.1-2.3-4.3-4.7.7-2.4,2.6-3,4.9-2.8,12.3.9,24.2-1,35.6-5.9,15.4-6.6,27.2-17.3,36-31.6,7.6-12.3,15.1-24.7,23.3-36.7,26.1-38.4,77.5-54.5,121.1-38.1,23.4,8.8,41.5,23.9,54.3,45.5.6,1,1.4,2.3,1.2,3.2-.4,1.4-1.3,2.9-2.5,3.6-1.7.9-3.4,0-4.5-1.6-2.5-3.8-4.8-7.7-7.5-11.3-37.2-48.8-110.1-51.1-149.9-4.5-7.5,8.7-13.3,18.8-19.9,28.3,0,0,.2.1.3.2Z"/>
        <path class="st66" d="M1186.5,697c-8,11.2-16,22.5-24,33.7-1.1,1.5-2.3,2.9-3.6,4.2-1.8,1.8-3.9,1.9-5.6.4-1.5-1.4-1.7-3.6,0-5.4,15.8-18.1,27.2-39.2,39.9-59.3,4.6-7.2,2.9-16.1-3.3-21.1-6.6-5.3-15.5-5.1-21.5.6-1.5,1.4-2.7,3.2-3.8,4.9-8.3,13-15.9,26.4-24.9,38.9-31.3,43.8-74.2,67.1-127.9,70.3-2.9.2-4.7-1.3-4.7-3.6,0-2.4,1.6-3.8,4.8-3.9,26.7-1.3,51.5-8.7,74.4-22.5,22-13.3,39.4-31.1,52.9-52.9,6.6-10.7,13.2-21.3,20-31.9,9.6-15,31-15.1,40.3-.3,5.4,8.6,5.1,17.4-.2,26.1-4.4,7.1-8.9,14.2-13.3,21.3.2.1.4.3.6.4Z"/>
        <path class="st66" d="M1340.7,632.8c-1.6.5-3,1.4-4.2,1.1-1.2-.3-2.4-1.5-3-2.6-.7-1.2-.7-2.7-1-4.1-8.7-37.1-28.1-67.3-58.4-90.3-56.5-42.9-135.2-42.2-191.3,1.6-.3.3-.7.5-1,.8-2.3,1.7-4.3,1.7-5.8-.1-1.5-1.8-1.1-4,1.1-5.8,17-13.5,36-23.5,57-29.3,41.6-11.5,82-8.1,120.4,11.8,45.9,23.8,74.5,61.5,85.9,112,.3,1.5.2,3,.3,5Z"/>
        <path class="st66" d="M1250.9,536.6c1.3.8,2.6,1.6,3.8,2.4,2,1.3,2.6,3.4,1.6,5.2-1,1.8-3.3,2.4-5.5,1.3-3.3-1.8-6.5-3.8-9.9-5.5-54.7-28-123-15.1-163.8,31.2-5.6,6.4-10.4,13.5-15.1,20.6-7.6,11.4-14.4,23.4-22.2,34.7-7.5,10.7-18.4,16.2-31.4,17.5-2.8.3-4.5-1-4.8-3.3-.3-2.4,1.2-4,4.1-4.3,12.6-1.3,22.1-7.5,28.8-18.2,8-12.8,15.8-25.7,24.2-38.2,35.6-52.9,105.4-75.9,165.5-54.5,8.5,3,16.6,7,24.9,10.5,0,.2-.1.3-.2.5Z"/>
        <path class="st66" d="M1251.7,743.2c-7.5,12.5-17.3,27.2-28.8,40.7-26.2,31-57.4,55.4-94,73-2.6,1.3-4.8.7-5.8-1.4-1.1-2.2-.1-4.1,2.8-5.5,30.1-14.6,56.7-34,79.8-58.2,13.3-14,25-29.2,35.2-45.6,7.5-12.1,15.4-23.9,22.5-36.3,13.6-23.7,16.2-48.9,8.8-75.1-.2-.9-.6-1.8-.7-2.7-.3-2.1.6-3.6,2.7-4.2,2-.6,3.4.3,4.4,2,.3.6.5,1.2.7,1.9,8.7,30,5,58.4-11.1,85.2-4.8,8-9.9,15.8-16.4,26.2Z"/>
        <path class="st66" d="M1288,762.1c-9.1,12.9-18.1,25.9-27.2,38.8-.5.7-1.1,1.5-1.8,2-1.6,1.3-3.3,1.1-4.8-.2-1.5-1.4-1.7-3.1-.6-4.7,1.7-2.5,3.6-4.8,5.4-7.2,15.1-20.6,29.4-41.9,41.1-64.5,23.5-45.2,21.8-90.6-3.6-134.9-6.9-12.1-16-22.4-26.3-31.7-2.3-2.1-2.7-4.3-1.1-6.1,1.6-1.8,3.9-1.6,6.2.4,45.5,40.5,60.8,104.8,38.5,161.3-3.8,9.7-8.8,18.8-14.4,27.5-4,6.3-7.9,12.6-11.9,18.9.2.1.4.2.5.4Z"/>
        <path class="st66" d="M1298.2,698.9c-1.4,2-3,2.5-4.8,1.8-2-.8-2.7-2.5-2.2-4.5.8-3.3,1.9-6.6,2.5-10,8.2-45.2-4.5-83.5-39.4-113.4-27.9-24-60.8-31.8-97.1-25.3-.8.1-1.7.4-2.5.4-2,0-3.3-1.2-3.6-3.2-.3-1.9.5-3.3,2.2-4,.7-.3,1.4-.4,2.2-.6,36.8-6.7,70.4.9,100,23.9,40.4,31.3,57.2,82.8,43.6,131.7-.3,1.2-.7,2.4-1,3.2Z"/>
        <path class="st66" d="M996.6,723.9c-.4-1.3-1.3-2.9-.9-4,.3-1.2,1.7-2.2,2.9-2.9.7-.4,1.8,0,2.7,0,39.2.3,71.3-14.5,95.7-45.2,5.2-6.5,9.4-13.8,13.9-20.9,5.7-8.9,10.8-18.2,17.1-26.6,15.2-20.2,35.9-28.4,61-25.4,2.9.4,4.3,2.1,4,4.5-.3,2.2-2.2,3.4-4.9,3.1-24.8-2.9-43.9,6.3-57.4,27.3-7.9,12.3-15.1,25.2-23.6,37.1-26.1,36.5-61.9,54.2-106.8,53.7-1.1,0-2.1-.3-3.7-.5Z"/>
        <path class="st66" d="M1168.5,686.8c-7.3,11.9-14.8,23.7-24,34.3-24.6,28.2-54.9,47.4-91.1,57-10,2.6-20.4,3.8-30.6,5.7-.7.1-1.5.2-2.2,0-1.9-.3-3.1-1.4-3.3-3.3-.2-2,.7-3.4,2.6-4,.7-.2,1.5-.3,2.2-.3,47-5.1,86.3-25.1,117.2-61,6.3-7.3,11.6-15.3,16.9-23.3,6.5-9.7,12.5-19.8,18.7-29.7.4-.6.7-1.1,1.1-1.7,1.5-2.1,3.5-2.7,5.4-1.5,1.9,1.2,2.4,3.3,1,5.5-1.7,2.9-3.5,5.7-5.3,8.5-2.9,4.6-5.8,9.2-8.7,13.8Z"/>
        <path class="st66" d="M1268.6,754c-7.2,11.8-16.4,25.8-27.1,38.9-21.5,26.5-46.8,48.8-75.9,66.8-2.5,1.5-4.7,1.2-5.9-.8-1.2-2-.5-4.1,2-5.7,23.8-14.7,45-32.4,63.8-53.1,12.4-13.7,23.3-28.5,33-44.2,8.2-13.2,16.4-26.5,24.5-39.7,1.4-2.2,3.3-2.9,5.2-1.8,2,1.1,2.6,3.1,1.4,5.4-1.5,2.9-3.2,5.7-4.9,8.5-4.8,7.8-9.7,15.5-16.1,25.7Z"/>
        <path class="st66" d="M1138.4,552.1c-1.5.9-2.3,1.6-3.3,2-24,9.9-42.5,26.2-56.1,48.3-7.4,12-14.4,24.2-22.7,35.6-13.2,18.2-31.7,26.6-54.2,26.1-2.9,0-4.6-1.6-4.5-3.9,0-2.4,1.8-3.7,4.7-3.7,22.4.4,39.5-9,51.4-27.9,7.9-12.5,15.4-25.1,23.7-37.3,13.7-20.2,32.1-34.7,54.7-44.1,1.9-.8,3.9-1.2,5.2.7.8,1.1.8,2.8,1.1,4.3Z"/>
        <path class="st66" d="M1205.5,740.8c-33,46.2-77,77.8-131.8,94.2-2.9.9-5,0-5.7-2.4-.7-2.3.6-4.1,3.7-5,35.1-10.4,66.2-27.7,93.3-52.3,13.4-12.2,25.2-25.8,35.5-40.8,1.9-2.7,4-3.5,6-2.1,2,1.3,2.1,3.5.3,6.2-.4.6-.7,1.1-1.3,2.1Z"/>
        <path class="st66" d="M1310.7,762.6c-4.4,7.1-8.9,14.2-13.3,21.3-.5.8-1,1.6-1.6,2.2-1.4,1.4-3.2,1.7-4.5.4-1-.9-1.4-2.7-1.6-4.1,0-.9.9-1.9,1.4-2.8,7.9-12.7,16.1-25.3,23.7-38.1,16.2-27.2,23.1-56.8,21.3-88.4,0-.8-.1-1.7,0-2.5.2-2,1.5-3.2,3.5-3.3,2-.1,3.4.9,3.9,2.9.2.7.2,1.5.2,2.2,1.7,29.8-4,58.1-17.8,84.6-4.6,8.8-10,17.2-15,25.8,0,0-.2,0-.2-.1Z"/>
        <path class="st66" d="M1227.9,705.5c-2.9,4.7-5.9,9.4-8.8,14-1.6,2.6-3.6,3.3-5.6,2-2.1-1.3-2.4-3.4-.8-6.1,5-8,10.2-16,15-24.1,16.5-27.7,7.5-62.2-20.3-78.4-2.7-1.6-3.5-3.6-2.4-5.7,1.1-2,3.4-2.5,5.9-1,22.9,13.8,33.7,34.2,32.4,60.8-.5,10.5-4,20.1-9.5,29-2,3.1-3.9,6.2-5.9,9.4Z"/>
        <path class="st66" d="M1031.9,802.4c-.5-1.5-1.4-3-1.2-4.2.3-1.2,1.6-2.5,2.8-3,1.5-.7,3.3-.6,4.9-.9,37.8-6.7,71-22.8,99.4-48.5.4-.3.7-.7,1.1-1,1.9-1.6,4.1-1.6,5.6,0,1.5,1.6,1.3,3.9-.5,5.6-3.7,3.3-7.5,6.7-11.4,9.8-28.4,22.5-60.5,36.5-96.3,42.2-1.3.2-2.6,0-4.4.1Z"/>
        <path class="st66" d="M1085.6,666.2c-6.9,8.4-14.8,15.5-23.8,21.3-19,12.2-39.8,17.8-62.4,16.7-1,0-2,0-3-.3-1.9-.6-2.9-2-2.7-4,.2-2,1.5-3.1,3.5-3.3.4,0,.8,0,1.2,0,32.5,1.5,59.5-10,80.9-34.6,1.8-2.1,3.9-2.4,5.7-1,1.6,1.3,1.8,3.5.6,5.2Z"/>
        <path class="st66" d="M1034.3,583.9c5.6-9.1,12.9-20.9,22.2-31.2,1.5-1.6,2.9-3.3,4.4-4.8,1.7-1.7,3.9-1.8,5.4-.4,1.6,1.4,1.8,3.7.2,5.4-16.8,17.3-27.6,38.8-40.7,58.7-.4.6-.8,1.3-1.3,1.8-1.4,1.4-3,1.5-4.6.5-1.6-1-2.2-2.5-1.5-4.3.3-.8.7-1.5,1.2-2.2,4.4-7,8.7-13.9,14.7-23.5Z"/>
        <path class="st66" d="M1094.1,848.5c-.6-1.6-1.7-2.9-1.4-3.9.3-1.3,1.4-2.9,2.6-3.5,5.4-2.5,11-4.5,16.4-6.9,15.5-7,30.2-15.6,44-25.4,1.2-.9,3.2-1.4,4.6-1,3,.8,3.1,4.8.2,6.7-6.1,4.2-12.1,8.3-18.4,12.2-13.7,8.4-28.2,15.4-43.3,21.1-1.4.5-3,.5-4.8.8Z"/>
        <path class="st66" d="M1001.2,744.2c-.4-1.4-1.3-2.8-1.1-4,.2-1.1,1.5-2.2,2.6-3,.5-.4,1.5-.2,2.2-.2,19.8,0,38.7-4.2,56.8-12.2,1.3-.6,3.4-.7,4.6,0,2.7,1.5,2,5.4-1.3,6.6-8.4,3.1-16.8,6.3-25.3,8.8-11.2,3.2-22.8,4.4-34.5,4.4-1.1,0-2.3-.2-4-.3Z"/>
        <path class="st66" d="M1246,818.6c-3.8,3.9-7.6,8.2-11.8,12.2-7.2,6.8-14.6,13.3-21.9,19.9-.2.2-.5.4-.8.6-2.2,1.6-4.4,1.5-5.8-.3-1.3-1.7-1-3.8,1-5.5,6.5-5.8,13.1-11.5,19.4-17.4,4.5-4.2,8.7-8.8,13-13.3.5-.5,1-1.2,1.6-1.6,1.7-1.3,3.5-1.2,5,.2,1.5,1.4,1.4,3.1.3,5.2Z"/>
      </g>
      <g>
        <text class="st59" transform="translate(768.4 508.3) rotate(-10.4)"><tspan x="0" y="0">42</tspan></text>
        <text class="st46" transform="translate(773.3 511) rotate(-10.4)"><tspan x="0" y="0">42</tspan></text>
      </g>
      <g>
        <rect class="st39" x="123.9" y="592.3" width="75.7" height="20.4"/>
        <g>
          <rect class="st35" x="139.5" y="526.8" width="78.8" height="32.6"/>
          <g>
            <rect class="st16" x="165.9" y="653.1" width="78.8" height="32.6"/>
            <rect class="st35" x="165.9" y="653.1" width="78.8" height="32.6"/>
          </g>
          <g>
            <rect class="st38" x="247.5" y="623.7" width="78.8" height="16.3"/>
            <rect class="st16" x="247.5" y="623.7" width="78.8" height="16.3"/>
          </g>
          <rect class="st16" x="256.4" y="594.4" width="78.8" height="16.3"/>
          <g>
            <rect class="st37" x="191.9" y="505.7" width="45.4" height="12.3"/>
            <rect class="st16" x="191.9" y="505.7" width="45.4" height="12.3"/>
          </g>
          <g>
            <polygon class="st58" points="215.5 655.1 217.9 662.5 225.6 662.5 219.4 667 221.7 674.4 215.5 669.8 209.2 674.4 211.6 667 205.3 662.5 213.1 662.5 215.5 655.1"/>
            <polygon class="st58" points="215.5 509.6 217.9 517 225.6 517 219.4 521.5 221.7 528.9 215.5 524.3 209.2 528.9 211.6 521.5 205.3 517 213.1 517 215.5 509.6"/>
            <polygon class="st58" points="178.9 519.2 181.3 526.6 189 526.6 182.7 531.2 185.1 538.5 178.9 534 172.6 538.5 175 531.2 168.7 526.6 176.5 526.6 178.9 519.2"/>
            <polygon class="st58" points="178.9 643.7 181.3 651.1 189 651.1 182.7 655.7 185.1 663 178.9 658.5 172.6 663 175 655.7 168.7 651.1 176.5 651.1 178.9 643.7"/>
            <polygon class="st58" points="251.2 519.2 253.6 526.6 261.3 526.6 255.1 531.2 257.5 538.5 251.2 534 244.9 538.5 247.3 531.2 241.1 526.6 248.8 526.6 251.2 519.2"/>
            <polygon class="st58" points="251.2 643.7 253.6 651.1 261.3 651.1 255.1 655.7 257.5 663 251.2 658.5 244.9 663 247.3 655.7 241.1 651.1 248.8 651.1 251.2 643.7"/>
            <polygon class="st58" points="154 617.8 156.4 625.2 164.1 625.2 157.9 629.7 160.3 637.1 154 632.6 147.7 637.1 150.1 629.7 143.9 625.2 151.6 625.2 154 617.8"/>
            <polygon class="st58" points="154 546.9 156.4 554.2 164.1 554.2 157.9 558.8 160.3 566.2 154 561.6 147.7 566.2 150.1 558.8 143.9 554.2 151.6 554.2 154 546.9"/>
            <polygon class="st58" points="276.8 617.8 279.2 625.2 286.9 625.2 280.6 629.7 283 637.1 276.8 632.6 270.5 637.1 272.9 629.7 266.6 625.2 274.4 625.2 276.8 617.8"/>
            <polygon class="st58" points="276.8 546.9 279.2 554.2 286.9 554.2 280.6 558.8 283 566.2 276.8 561.6 270.5 566.2 272.9 558.8 266.6 554.2 274.4 554.2 276.8 546.9"/>
            <polygon class="st58" points="143.9 582.9 146.3 590.3 154 590.3 147.7 594.8 150.1 602.2 143.9 597.6 137.6 602.2 140 594.8 133.7 590.3 141.5 590.3 143.9 582.9"/>
            <polygon class="st58" points="286.9 582.9 289.3 590.3 297 590.3 290.8 594.8 293.2 602.2 286.9 597.6 280.6 602.2 283 594.8 276.8 590.3 284.5 590.3 286.9 582.9"/>
          </g>
        </g>
      </g>
      <g>
        <g>
          <rect class="st49" x="1087" y="655.6" width="156.7" height="103.7"/>
          <path class="st64" d="M1241.6,657.8v99.5h-152.4v-99.5h152.4M1245.8,653.5h-161v108h161v-108h0Z"/>
        </g>
        <g>
          <rect class="st49" x="1087" y="655.6" width="156.7" height="103.7"/>
          <path class="st64" d="M1241.6,657.8v99.5h-152.4v-99.5h152.4M1245.8,653.5h-161v108h161v-108h0Z"/>
        </g>
        <g>
          <path class="st60" d="M1136.5,707.6v4.7l4.6-1.4.7,2.4-4.6,1.4,3,3.7-2,1.6-2.8-3.8-2.7,3.8-2-1.3,2.8-4-4.7-1.4.7-2.4,4.6,1.4v-4.7h2.4Z"/>
          <path class="st60" d="M1151.6,707.6v4.7l4.6-1.4.7,2.4-4.6,1.4,3,3.7-2,1.6-2.8-3.8-2.7,3.8-2-1.3,2.8-4-4.7-1.4.7-2.4,4.6,1.4v-4.7h2.4Z"/>
          <path class="st60" d="M1166.6,707.6v4.7l4.6-1.4.7,2.4-4.6,1.4,3,3.7-2,1.6-2.8-3.8-2.7,3.8-2-1.3,2.8-4-4.7-1.4.7-2.4,4.6,1.4v-4.7h2.4Z"/>
          <path class="st60" d="M1181.6,707.6v4.7l4.6-1.4.7,2.4-4.6,1.4,3,3.7-2,1.6-2.8-3.8-2.7,3.8-2-1.3,2.8-4-4.7-1.4.7-2.4,4.6,1.4v-4.7h2.4Z"/>
          <path class="st60" d="M1196.6,707.6v4.7l4.6-1.4.7,2.4-4.6,1.4,3,3.7-2,1.6-2.8-3.8-2.7,3.8-2-1.3,2.8-4-4.7-1.4.7-2.4,4.6,1.4v-4.7h2.4Z"/>
        </g>
        <rect class="st22" x="1107.1" y="703.2" width="116.5" height="21.1"/>
        <line class="st24" x1="1132.1" y1="684.9" x2="1198.6" y2="684.9"/>
      </g>
      <path class="st54" d="M746.2,309.4l15.3,15.3c-8.4,8.4-22.2,8.4-30.6,0-8.4-8.4-8.4-22.2,0-30.7,8.4-8.4,22.2-8.4,30.7,0l-15.3,15.3Z"/>
      <g>
        <line class="st13" x1="762.4" y1="309.5" x2="762.4" y2="309.5"/>
        <line class="st28" x1="772.5" y1="309.5" x2="1136.7" y2="309.5"/>
        <line class="st13" x1="1136.7" y1="309.5" x2="1136.7" y2="309.5"/>
      </g>
      <path class="st44" d="M1675.2,587.3h-260.7V192.3h95.9v304.2h164.8v90.9Z"/>
      <g>
        <g>
          <polygon class="st36" points="1089.9 601.7 1055.8 635.8 1055.8 716.4 1144.3 716.4 1144.3 601.7 1089.9 601.7"/>
          <polyline class="st19" points="1055.8 635.8 1091.8 635.8 1091.8 601.7"/>
        </g>
        <g>
          <rect class="st61" x="1069.8" y="663.9" width="60.6" height="14.3" transform="translate(-152.3 974.4) rotate(-45)"/>
          <rect class="st61" x="1069.8" y="663.9" width="60.6" height="14.3" transform="translate(796.7 -581.3) rotate(45)"/>
        </g>
      </g>
      <g>
        <path class="st3" d="M767.3,544.8c38.6-38.6,85.1-57.8,139.7-57.8s101.2,19.3,140,57.8c38.7,38.6,58.1,85.1,58.1,139.7s-19.3,101.1-57.8,139.7c-38.6,38.6-85.3,57.8-140.2,57.8s-101.6-19.3-140-57.8c-38.4-38.6-57.6-85.1-57.6-139.7s19.3-101.1,57.8-139.7Z"/>
        <path class="st10" d="M907,577.8c-29,0-53.1,9.8-72.2,29.3-19.2,19.6-28.8,45.3-28.8,77.3s9.6,57.8,28.8,77.3c19.2,19.6,43.3,29.3,72.2,29.3s53.6-9.8,72.8-29.3c19.2-19.6,28.8-45.3,28.8-77.3s-9.6-57.8-28.8-77.3c-19.2-19.6-43.5-29.3-72.8-29.3Z"/>
      </g>
      <g>
        <g>
          <g>
            <g>
              <rect class="st49" x="349.8" y="294.1" width="199" height="131.8"/>
              <rect class="st49" x="349.8" y="323.6" width="199" height="102.3"/>
              <path class="st54" d="M546.1,296.8v126.3h-193.6v-126.3h193.6M551.5,291.4h-204.4v137.2h204.4v-137.2h0Z"/>
            </g>
            <line class="st18" x1="350.7" y1="323.6" x2="549.3" y2="323.6"/>
          </g>
          <circle class="st54" cx="365.6" cy="309.4" r="5.6"/>
          <rect class="st54" x="528.5" y="311.3" width="13.6" height="3.7"/>
        </g>
        <g>
          <rect class="st65" x="424.1" y="383.3" width="17.2" height="17.2"/>
          <rect class="st65" x="458.6" y="348.9" width="17.2" height="17.2"/>
          <rect class="st51" x="424.1" y="348.9" width="17.2" height="17.2"/>
          <rect class="st51" x="458.6" y="383.3" width="17.2" height="17.2"/>
          <rect class="st51" x="475.8" y="400.6" width="17.2" height="17.2"/>
          <rect class="st65" x="475.8" y="331.6" width="17.2" height="17.2"/>
          <rect class="st51" x="406.9" y="331.6" width="17.2" height="17.2"/>
          <rect class="st65" x="406.9" y="400" width="17.2" height="17.2"/>
        </g>
      </g>
      <g>
        <path class="st44" d="M616.2,926.9h-302.5v-58.1l156.9-128.7c30.5-23.7,45.7-45.2,45.7-64.3s-4.6-27.4-13.8-35.8c-9.2-8.5-21.5-13.1-37-13.8h-2.8c-18.4,0-45,13-79.6,38.9l-62.1-57.6c52.3-47.8,102.3-71.7,150.1-71.7h3.4c30.5.4,56.2,6.6,77.3,18.6,21.1,12,36.1,26.8,45.2,44.3,9,17.5,13.5,36.4,13.5,56.7s-9,55.3-27.1,80.1c-18.1,24.8-45.2,51.2-81.3,79l-26.5,22h140.5v90.3Z"/>
        <path class="st44" d="M1430.1,926.9h-302.5v-58.1l156.9-128.7c30.5-23.7,45.7-45.2,45.7-64.3s-4.6-27.4-13.8-35.8c-9.2-8.5-21.5-13.1-37-13.8h-2.8c-18.4,0-45,13-79.6,38.9l-62.1-57.6c52.3-47.8,102.3-71.7,150.1-71.7h3.4c30.5.4,56.2,6.6,77.3,18.6,21.1,12,36.1,26.8,45.2,44.3,9,17.5,13.5,36.4,13.5,56.7s-9,55.3-27.1,80.1c-18.1,24.8-45.2,51.2-81.3,79l-26.5,22h140.5v90.3Z"/>
        <path class="st44" d="M731.6,593.6c38.6-38.6,85.1-57.8,139.7-57.8s101.2,19.3,140,57.8c38.7,38.6,58.1,85.1,58.1,139.7s-19.3,101.1-57.8,139.7c-38.6,38.6-85.3,57.8-140.2,57.8s-101.6-19.3-140-57.8c-38.4-38.6-57.6-85.1-57.6-139.7s19.3-101.1,57.8-139.7ZM871.3,626.6c-29,0-53.1,9.8-72.2,29.3-19.2,19.6-28.8,45.3-28.8,77.3s9.6,57.8,28.8,77.3c19.2,19.6,43.3,29.3,72.2,29.3s53.6-9.8,72.8-29.3c19.2-19.6,28.8-45.3,28.8-77.3s-9.6-57.8-28.8-77.3c-19.2-19.6-43.5-29.3-72.8-29.3Z"/>
      </g>
      <g>
        <g class="st67">
          <rect class="st49" x="1422.6" y="75.7" width="302.6" height="462.3"/>
          <g>
            <g>
              <path class="st63" d="M1583.5,421.2s24,19.7,35.5,1.6c0,0,4-6.4,5.1-13.2,0,0,.1-6.3,6.3-9.7,0,0,.7,9,9.1,12.8.7.3,1.4.6,2.1.5,0,0,0-.6-1.2-1.3-1.5-.9-1.8-.6-2.2-.9-2-1.6-4.1-3.9-4.3-5.8l5.8,2.5s3.9,1.2,4.4,6.8c0,0,.5,4,2.6,7.6,0,0-13.5-1.4-21.6,13.7l-1-1.7s-.1,5-3.2,6.7c0,0-.5-3.2-2.6-3.7,0,0-.3,5.1-3.9,7.3,0,0,.6-3.2-1.8-4.6,0,0-3.3,7-9.7,6.8,0,0,1.2-2.4.3-5.9,0,0-6.7,6.3-12.6,3.8,0,0,2.8-2.2,2.6-6.9,0,0-7.8,4.4-15-6.3,0,0,2,2,8.2-1.4,0,0-3.8-4.5-2.9-8.6"/>
              <path class="st63" d="M1593.7,315.6s8.2,1.6,1.6,15.9c0,0-3,11.3,3.5,16.3,0,0,.9.9,1.7,2.4,0,0-8.1,2.9-2.5,17.6,0,0-5.3-1.7-7.4-5.2,0,0,1.4-.6,2-3.2,0,0-4.3,1.8-7.6-2.6l3.9-2.6s-3.5-.1-7.4-5.5l4.7-2s-5.1-.9-6.7-6h4.5s-3.9-7-2.9-10.9c0,0,3.1,2.8,5.6,3,0,0,2.4-3.6-.9-7.5,0,0-1.6-3.1.3-7.5,0,0,.1.7,2.9,1.3,0,0,2.9,0,4.6,6.2l.6-.6s-2.6-4.7-.6-9.1"/>
              <path class="st63" d="M1660.3,401.2l5.1-.5s24.4-3.1,24-35.1c0,0-.7-18.5-14.4-27.3-1-.7-3.1-2.2-5.3-2.9-2.3-.7-7-1.7-10.8.8-1.4.8-3,2.9-3.5,4.4-.3,1.4-.9,5.5,4.8,10.2l2.1-2.6s-3.9-2.9-2.8-5.9c1.2-3,3.9-2.6,4.1-2.8,3.3-.2,14.5.7,20.5,21.8,0,0,3.6,16.5-8.6,29.2,0,0,2-7.8-7-21.2,0,0-7.9-11.1,3-25l-3.5-2.3s-13.9,16.3-2.5,30.3c0,0,9,10.9,5.3,18.1-.8,1.6-2.6,3.6-4.6,4.1-2,.5-7.6,1.7-7.6,1.7"/>
              <path class="st63" d="M1673.5,335.7s6.1-7.6,24.8-9.6c0,0,1.2,5.2-9.1,8.4,0,0,.5,2,9.3-.2,0,0-3.6,8.2-14.2,4.3,0,0-4.6-1.5-7.7-.3"/>
              <path class="st63" d="M1631.4,301.3s3.7,1.8,3.6,8.5l16.6,6s1.7-4.5,8.3-6.6c0,0-.6-1.1-5.1-.5,0,0-.8-1.4-3.3-1.8,0,0-.9,1.3.2,3.8,0,0-2.4,1.3-3,1.8,0,0-.8-1.7-1.6-3.1,0,0,3.1-.8,3.1-3.3,0,0-1.4.7-2.1.5,0,0,2.4-3.1-.9-5.8,0,0-2.3,1.6-2.6,4.7,0,0-1.7-1.3-3-1.5,0,0-.6,1.6.3,4.3,0,0-.8,1.4-2.5,1.6,0,0-1.8-.7-2.5-3h1.4c0-.1,1.4-.8,1.7-1.5,0,0-1-.7-2.8-.7v-.5c-.1,0,.3,0,.3,0,0,0,.1-4.1-6.1-3"/>
              <path class="st63" d="M1630.7,382.1l-.6-.8c5.1-1.8,6.6-7.6,6.6-7.6,1.8-9.6,7.1-9.7,7.1-9.7l-.7.8c-3.6,1.4-4.3,7.8-4.3,7.8-.2,8.2-8.2,9.4-8.2,9.4M1625.7,382.7l-3.6,1.3-1.2-.3.2-.2,1.6-.3c4.3-2.4,6.3-10,6.3-10,3.1-7.3,8.4-7.9,8.4-7.9l.5.7-.8.3c-5.4,2.1-6,7.9-6,7.9-.2,7.5-5.5,8.6-5.5,8.6M1636.3,319.9s.6-.7.9,0v.3c.1,0-.2.1-.2.1,0,0-.3,0-1,.3,0,0-.7.5-1-.3l1.4-.5M1688.1,448.9c-.7-1.6-1.4-3.7-1.4-3.7h5.3c-4.8,0-5.2-8.4-5.2-8.4-1.3-7.1,3-11.6,3-11.6-13.8.3-17.2-8.1-17.2-8.1-6.4-6.3-8.6-21.3-8.6-21.3,0,0-.2-1.4-.8-2.2-.6-1-.9-1.5-2.3-2.9-2-2.1-9.1-6.4-10-7.1-4-2.8-6.1-6.1-6.1-6.1-2.4,3-5.5,3.8-5.5,3.8l-.3-1c13.1-8.3,7.9-21.1,7.9-21.1.6-2.8,2.6-6.3,2.6-6.3,9.2-12.3,2.8-29.9,2.8-29.9,2.5-4.1-.8-4.7-.8-4.7-3.3-.7-3.5.9-3.5.9h-.5c0-.1-.2-.5-.2-.5l-9.4-3.5c-3.1-1.7-4.6-1.3-4.6-1.3-.2,1.8.3,2.6.3,2.6.7.6,1.5.3,1.5.3,3.5-.9,5,1.6,5,1.6l-.5.6c-.9-1-2-1-2-1-2.4-.2-2.3,1.2-2.3,1.2-.8,1.2-1.2-.1-1.2-.1l-.3-1.2c-2.5-.6-2.1-4-2.1-4-4.4.2-8.5,1.6-8.5,1.6-1.5.6-1,1.6-1,1.6l1.3,1.8-.7,2.5c-1.5,3.9,2.8,4,2.8,4h5.8c4.4.9,1.4,3.9,1.4,3.9.1,4.9-2.8,3.9-2.8,3.9-3.8-3-5.9-.3-5.9-.3-1.3,2.5,1.6,2.5,1.6,2.5,5.8.1,2.2,4.4,2.2,4.4-1.4,3.2-5.2,2.5-5.2,2.5-9.1-.9-10.7,3.6-10.7,3.6-3.3,3.5-2.9,13.2-2.9,13.2-2.4-5.9.2-12.7.2-12.7-8.3,2.9-5.3,18.3-5.3,18.3-3.9-8.3-1.3-13.4-1.3-13.4-7.5,1-5.3,12.1-5.3,12.1l2.9,7-7.7,3.9c-6.2,3.5-10.1.3-10.1.3-11.3-10.5-23.6-.5-23.6-.5,6.1,4.1,12.9,2.2,12.9,2.2-1.6,2.6-8.6,5.8-8.6,5.8,12,4.7,15.4-.8,15.4-.8,1.6,4.9-1.2,7.7-1.2,7.7,4.6,1.3,10.2-4.5,10.2-4.5-.5,2.6-2.5,5-2.5,5,4.3-.1,9-5.5,9-5.5.3,2.6-1.5,4.6-1.5,4.6,5.9-.9,9.1-6.2,9.1-6.2.2,3-1.5,5.4-1.5,5.4,3.3-.5,5.8-3.2,5.8-3.2-6.3-4.8-4.8-8.4-4.8-8.4,2,7.7,8.6,9,8.6,9,5.4-.9,8.8-9.8,8.8-9.8,4.1-8.7,9.3-7.8,9.3-7.8-6.2,2.3-6.7,6.2-6.7,6.2-2.3,9.2-5.8,10.5-5.8,10.5,1.2,3.6,8.9,5.5,8.9,5.5,2,.9,4.8,2.4,6.3,3.2,12.4,6.3,13.6,17.6,13.6,17.6,1.8,12,11.2,14.7,11.2,14.7,18.3,6,16.9,18.9,16.9,18.9-1,19.3-12.8,26.6-12.8,26.6h.3c3.3,1.2,5.4-.1,5.4-.1.9,2.8,0,5.1,0,5.1,9.7-1.4,14.6-11.9,14.6-11.9,2.5,3.2,6.2,3.3,6.2,3.3-2.5-4-1.8-12.4-1.8-12.4l3.8,2.4-1.8-4.5-.7-2.9c1.4,1.4,4.4,2.5,4.4,2.5-.1-.8-1-2.2-1.8-3.8"/>
              <path class="st63" d="M1631.1,399.5s5.1-2.5,7.8,3l2.5,4.5s1.5,2.3,1.6,2.9c0,0-.9-2.2-5.1-3.5,0,0-6.4-2.3-6.9-6.9"/>
              <polyline class="st63" points="1635.1 311.2 1635 312 1648.3 317.2 1650 316.2"/>
              <path class="st63" d="M1615.1,317.9s.3,10.4,9.8,10.2c0,0,1-1.2,7,2l-.3,1.4s-2.2-2.4-6.4-1.6c0,0-6,2.2-9.9-.9,0,0-6.2-5.1-.1-11.1"/>
            </g>
            <g>
              <path class="st6" d="M1581.5,422.1s24,19.7,35.5,1.6c0,0,4-6.4,5.1-13.2,0,0,.1-6.3,6.3-9.7,0,0,.7,9,9.1,12.8.7.3,1.4.6,2.1.5,0,0,0-.6-1.2-1.3-1.5-.9-1.8-.6-2.2-.9-2-1.6-4.1-3.9-4.3-5.8l5.8,2.5s3.9,1.2,4.4,6.8c0,0,.5,4,2.6,7.6,0,0-13.5-1.4-21.6,13.7l-1-1.7s-.1,5-3.2,6.7c0,0-.5-3.2-2.6-3.7,0,0-.3,5.1-3.9,7.3,0,0,.6-3.2-1.8-4.6,0,0-3.3,7-9.7,6.8,0,0,1.2-2.4.3-5.9,0,0-6.7,6.3-12.6,3.8,0,0,2.8-2.2,2.6-6.9,0,0-7.8,4.4-15-6.3,0,0,2,2,8.2-1.4,0,0-3.8-4.5-2.9-8.6"/>
              <path class="st6" d="M1591.6,316.4s8.2,1.6,1.6,15.9c0,0-3,11.3,3.5,16.3,0,0,.9.9,1.7,2.4,0,0-8.1,2.9-2.5,17.6,0,0-5.3-1.7-7.4-5.2,0,0,1.4-.6,2-3.2,0,0-4.3,1.8-7.6-2.6l3.9-2.6s-3.5-.1-7.4-5.5l4.7-2s-5.1-.9-6.7-6h4.5s-3.9-7-2.9-10.9c0,0,3.1,2.8,5.6,3,0,0,2.4-3.6-.9-7.5,0,0-1.6-3.1.3-7.5,0,0,.1.7,2.9,1.3,0,0,2.9,0,4.6,6.2l.6-.6s-2.6-4.7-.6-9.1"/>
              <path class="st6" d="M1658.3,402.1l5.1-.5s24.4-3.1,24-35.1c0,0-.7-18.5-14.4-27.3-1-.7-3.1-2.2-5.3-2.9-2.3-.7-7-1.7-10.8.8-1.4.8-3,2.9-3.5,4.4-.3,1.4-.9,5.5,4.8,10.2l2.1-2.6s-3.9-2.9-2.8-5.9c1.2-3,3.9-2.6,4.1-2.8,3.3-.2,14.5.7,20.5,21.8,0,0,3.6,16.5-8.6,29.2,0,0,2-7.8-7-21.2,0,0-7.9-11.1,3-25l-3.5-2.3s-13.9,16.3-2.5,30.3c0,0,9,10.9,5.3,18.1-.8,1.6-2.6,3.6-4.6,4.1-2,.5-7.6,1.7-7.6,1.7"/>
              <path class="st6" d="M1671.4,336.6s6.1-7.6,24.8-9.6c0,0,1.2,5.2-9.1,8.4,0,0,.5,2,9.3-.2,0,0-3.6,8.2-14.2,4.3,0,0-4.6-1.5-7.7-.3"/>
              <path class="st6" d="M1629.4,302.2s3.7,1.8,3.6,8.5l16.6,6s1.7-4.5,8.3-6.6c0,0-.6-1.1-5.1-.5,0,0-.8-1.4-3.3-1.8,0,0-.9,1.3.2,3.8,0,0-2.4,1.3-3,1.8,0,0-.8-1.7-1.6-3.1,0,0,3.1-.8,3.1-3.3,0,0-1.4.7-2.1.5,0,0,2.4-3.1-.9-5.8,0,0-2.3,1.6-2.6,4.7,0,0-1.7-1.3-3-1.5,0,0-.6,1.6.3,4.3,0,0-.8,1.4-2.5,1.6,0,0-1.8-.7-2.5-3h1.4c0-.1,1.4-.8,1.7-1.5,0,0-1-.7-2.8-.7v-.5c-.1,0,.3,0,.3,0,0,0,.1-4.1-6.1-3"/>
              <path class="st6" d="M1628.7,383l-.6-.8c5.1-1.8,6.6-7.6,6.6-7.6,1.8-9.6,7.1-9.7,7.1-9.7l-.7.8c-3.6,1.4-4.3,7.8-4.3,7.8-.2,8.2-8.2,9.4-8.2,9.4M1623.6,383.6l-3.6,1.3-1.2-.3.2-.2,1.6-.3c4.3-2.4,6.3-10,6.3-10,3.1-7.3,8.4-7.9,8.4-7.9l.5.7-.8.3c-5.4,2.1-6,7.9-6,7.9-.2,7.5-5.5,8.6-5.5,8.6M1634.2,320.8s.6-.7.9,0v.3c.1,0-.2.1-.2.1,0,0-.3,0-1,.3,0,0-.7.5-1-.3l1.4-.5M1686.1,449.8c-.7-1.6-1.4-3.7-1.4-3.7h5.3c-4.8,0-5.2-8.4-5.2-8.4-1.3-7.1,3-11.6,3-11.6-13.8.3-17.2-8.1-17.2-8.1-6.4-6.3-8.6-21.3-8.6-21.3,0,0-.2-1.4-.8-2.2-.6-1-.9-1.5-2.3-2.9-2-2.1-9.1-6.4-10-7.1-4-2.8-6.1-6.1-6.1-6.1-2.4,3-5.5,3.8-5.5,3.8l-.3-1c13.1-8.3,7.9-21.1,7.9-21.1.6-2.8,2.6-6.3,2.6-6.3,9.2-12.3,2.8-29.9,2.8-29.9,2.5-4.1-.8-4.7-.8-4.7-3.3-.7-3.5.9-3.5.9h-.5c0-.1-.2-.5-.2-.5l-9.4-3.5c-3.1-1.7-4.6-1.3-4.6-1.3-.2,1.8.3,2.6.3,2.6.7.6,1.5.3,1.5.3,3.5-.9,5,1.6,5,1.6l-.5.6c-.9-1-2-1-2-1-2.4-.2-2.3,1.2-2.3,1.2-.8,1.2-1.2-.1-1.2-.1l-.3-1.2c-2.5-.6-2.1-4-2.1-4-4.4.2-8.5,1.6-8.5,1.6-1.5.6-1,1.6-1,1.6l1.3,1.8-.7,2.5c-1.5,3.9,2.8,4,2.8,4h5.8c4.4.9,1.4,3.9,1.4,3.9.1,4.9-2.8,3.9-2.8,3.9-3.8-3-5.9-.3-5.9-.3-1.3,2.5,1.6,2.5,1.6,2.5,5.8.1,2.2,4.4,2.2,4.4-1.4,3.2-5.2,2.5-5.2,2.5-9.1-.9-10.7,3.6-10.7,3.6-3.3,3.5-2.9,13.2-2.9,13.2-2.4-5.9.2-12.7.2-12.7-8.3,2.9-5.3,18.3-5.3,18.3-3.9-8.3-1.3-13.4-1.3-13.4-7.5,1-5.3,12.1-5.3,12.1l2.9,7-7.7,3.9c-6.2,3.5-10.1.3-10.1.3-11.3-10.5-23.6-.5-23.6-.5,6.1,4.1,12.9,2.2,12.9,2.2-1.6,2.6-8.6,5.8-8.6,5.8,12,4.7,15.4-.8,15.4-.8,1.6,4.9-1.2,7.7-1.2,7.7,4.6,1.3,10.2-4.5,10.2-4.5-.5,2.6-2.5,5-2.5,5,4.3-.1,9-5.5,9-5.5.3,2.6-1.5,4.6-1.5,4.6,5.9-.9,9.1-6.2,9.1-6.2.2,3-1.5,5.4-1.5,5.4,3.3-.5,5.8-3.2,5.8-3.2-6.3-4.8-4.8-8.4-4.8-8.4,2,7.7,8.6,9,8.6,9,5.4-.9,8.8-9.8,8.8-9.8,4.1-8.7,9.3-7.8,9.3-7.8-6.2,2.3-6.7,6.2-6.7,6.2-2.3,9.2-5.8,10.5-5.8,10.5,1.2,3.6,8.9,5.5,8.9,5.5,2,.9,4.8,2.4,6.3,3.2,12.4,6.3,13.6,17.6,13.6,17.6,1.8,12,11.2,14.7,11.2,14.7,18.3,6,16.9,18.9,16.9,18.9-1,19.3-12.8,26.6-12.8,26.6h.3c3.3,1.2,5.4-.1,5.4-.1.9,2.8,0,5.1,0,5.1,9.7-1.4,14.6-11.9,14.6-11.9,2.5,3.2,6.2,3.3,6.2,3.3-2.5-4-1.8-12.4-1.8-12.4l3.8,2.4-1.8-4.5-.7-2.9c1.4,1.4,4.4,2.5,4.4,2.5-.1-.8-1-2.2-1.8-3.8"/>
              <path class="st6" d="M1629.1,400.4s5.1-2.5,7.8,3l2.5,4.5s1.5,2.3,1.6,2.9c0,0-.9-2.2-5.1-3.5,0,0-6.4-2.3-6.9-6.9"/>
              <polyline class="st6" points="1633.1 312.1 1633 312.9 1646.3 318.1 1647.9 317.1"/>
              <path class="st6" d="M1613.1,318.7s.3,10.4,9.8,10.2c0,0,1-1.2,7,2l-.3,1.4s-2.2-2.4-6.4-1.6c0,0-6,2.2-9.9-.9,0,0-6.2-5.1-.1-11.1"/>
            </g>
          </g>
        </g>
        <path class="st17" d="M1627.6,454.5c1.4,0,.8,2,2,2.3.7.3.6,1.3,1.4,1.5.5-.3,1.5-.9,2.1-.9.7-.1.4.9.6,1.3.2.1.8.5,1.1.6-.4,1,1,1.2,1.7,1,.8-.4,2.1.4,2.8.4,1,0,.3,1.7.3,2.4,0,.9.7,2.3,1.8,1.5.4-.5,1.4,0,1,.5,0,0-.1.6-.1.6-.3,0-1.1-.5-1.1,0-.2.8.6,1.4.8,2.1,0,.3.4,1.1.9.8.2-.6.2-1.3.9-1.2,2.7-1,.6,1.1.4,2.4.3,1,1.9,1.3,2.7,2,.7-.2,2.3-1.7,2.5-.3,2.5,0,3.5,2.6,5.1,3.9.2.7,1.1.4,1.6.1.2,0,.6.4.8,0,.5-.3,1,.6,1.5.9,1.9-1.5,2.7,1.4,4.1,2.1,3.5,2.3,1.2-4.7,1.8-6.4.5-4.3-.2-8.7-.1-13-3-11.4-5.3-8.8,2.6-17.9,6.7-6.7-10.7-7.6-3.1-12.8,1.9-1.8,2.9,1.1,4.4.3,1.3-1.5-1.1-2.6-1.5-3.9-.6-2.4,1.3-4.3,3-5.8,1.3-.5,3-.4,4.1-1.5,1.5-1.8,2.1-4.2,4.2-5.5,3.9-3.8,3.7-10.4,6.7-15.5,2.2-5-8.4-3.3-.4-9.1,4.2-2.4,4.1-6.8,7.7-8.6,4.8-1.5,15.1-9.4,8.4-13.1.2-4.5,3.6,1,5.2.8,2.7-2.3-4.6-3.4-3.4-6-1-6.7.1-7.5,4.5-11.8-4.1-8.6,2.3-7.3-2.8-10.6-1.6-2.8,5.2-4.4,6-7.6-3.6-10.8-2.6,7.6-6.8-1.5-5.9-1.4-8.6-8.9-11.9-4.1-1.3,1.6-2.7,3.4-4.9,2.7-1.6-2-2.2.3-4.2.3-1.6-2.1-2.3-2.7-5.4-3.1-6.9-1.3-14.3-24-20.6-10.1-.5,3.2-5.4,2.3-4.7-.8,1.5-3.4-1.7-5.8-1.8-8.5.3-3.7-2.6-2.9-4.5-1.6-.7,0-2.7-4.2-4.5-5.2-3.3,1.2-1.8.8-5-.8-2.1-1.4-3.3-4.6-4.7-6.8-3.3.3-6.8-6-3.7-7,1.1-4.7-8-3.6-2.1-7.1.7-7.4-3.8-4.5-1-9-.3,0-3.8-.2-4-2-1.5-1.8-2.5,4.3-2.8,2.2-1-1.8-.9-4.5-1.7-6.4-.1-4.8-4.2.8-2,2.7,1.5.6,1,1.5,0,2-4,1.9-1.2-4.1-4.5-4.4-2.3-3.4-.7-6.2,0-9.8-3.9-1.2-3.4.5-5.4-3.8-2.6.6-4.7-3.5-1.2-1.7,3.2-5,1.6-5.5,0-5.6-5.3-1.2,5.8-4.5-3.7-8.2,3.1-6.4-3.6-7.6-2.2-13.2-.4-.3-1-.4-1.4.2-.9,4.9-3.2-1.1-1.7-2.4.3-.4.9-.3,2.5.5-.3-2.5,5.1-4.5.4-5.7-.8.9.5,4.3-2.2,2.2-.4-1,.8-3.6,2.1-3.1.4-2.1-2.4-6.6,1.8-5.2,4.1.5-1.6-2.6-.3-4.3,3.6.1,2.4-.9,1.2-2.9,2.9-3.5-.2-2-1.7-3-.2-1.7.7-3.5,2.4-3.9.2-.5.5-1.9.7-2.4-2.3.9-2.8-2.1-4.7-2.6-.5,0-2,.3-2.2-.2,0-1.4.4-3.2,1.5-4.1.4-.4,1.4-1.3,2.1-1.4-.2-.5-.6-.9-1.1-1.1-5.3-3.7,3.7-3-3.6-7.4-.3,0-1.4-1.2-1.7-1-.4.3-1,.6-1.5.7-1,.2-2.4-.5-3.2-1-2.8-.4-.4,3.4-1.6,6.2.3,1-1.6.3-2.1.3-2.3,3.1-4.2.8-6.7-.3-8.1-3.5-3.3-4.6-6.6-11.2-2,.4-4.8,2.6-7,3.2-5.6.8-9.8-2.1-10.1,5.6-.5.5.9,2.7,1,3.6-.6.8-1.5.8-2,1.5.1,1,.4,2.6.5,3.6-.6.9-.8,2.2-.5,3.2,1,2.6-1.6,1.6-3.1,2.8-10.5,1.1-17.6,9.6-17,19.9.9,4.7-5,2.3-6.5,5.6-8.4,6.7,5.2,7-.7,13.6-2.4.7-1.2,2.9-.8,4.5-4.1,1.2-.7,3.8-7.6,5.1-.4.5-1.1.6-1.3,1.3-.9,0-2.8,0-2.3,1.4-.4.5.2,1.5.3,2-.2,1.3,0,2.7.5,3.9.6.7,1.7,1.2,2,2.1.3,1.1,1.1.4,1.9.5,2.1,2.2-.6,7.1-3.5,6.9-.8,1.4-2,1.8-3.5,1.6-.4.5,0,1.3-.6,1.8.2.7.2,1.4-.5,1.7-.3.3-.8,0-1.1,0-.9.3-1.6-.4-2.1-1-.8.5-1.5.7-1.7,1.7-2.4,1.7-1.8-1.2-4.1.6,0,.8,0,1.3-.7,1.7.5.9.4,1.7-.4,2.4-.5,1-.3,1.7.3,2.6-.8.7.5,1.6.5,2.4.2.8-1.2,1.1-1.2,1.9-.2,1.4,0,1.5-1.5,1.7-.3,1.1-.2,2.7-.4,3.5-.4.2,0,.7,0,1,0,.6-.3,1.3,0,1.9-1,1.2-3,2.2-4.3,3.1-.5,1-1,2.1-2.2,2.4.3.4-.4.9-.6,1.2-2,2.2,1.2,2,2.2,3,1.8,2,4.8,1.8,6.9,3,.4,1.3,2.2.6,2.4,1.9.1.7,1.2.9,1.4,1.7-.4,1.5,0,1.6-1.3,1.1-1.1.1,3.8,1.9-.5,1.9-1,3.4-1.1,1.8-2.1,0-.7.2-.9,1.2-1.7,1.4-1,0-1.4-1.6-2.3-1.6-1,.7-.7,1.9.2,2.7-.1,1-.8,2.1.3,2.8,1.9,1.8-.4,1.6-1.6,2.1-.3.4-1.8.1-1.4.8.9.6,2.5,0,3,1.4.3,3.9-2.7.5-2.6,2.1-.3.7.2,1.5.4,2.1,0,2-2.3,0-2.8,1.7-.2.9.6,1.6,1.1,2.2.7,2.2,1.8,3.2-.2,4.9,0,1.2.9,1.9,1.6,2.7-.4,2.5.3,5,.9,7.4-.6,3.7,3,1,5.1,1.2,1.1-1.1,1.4,0,2.4.2,2-2.4,2.5-1.3,3.5,1.2-.5,2,1.4,2.4,1.8,4.1.6,2,2.7,2.2,2.8,5.5,0,1.2,1.1,2.2,1.7,3.1.4,1.2.5,2.9,1.3,3.8.5,1.6,3.4.4,2.8,2.8.4,3.3-1.7,2-.8,5.2-1,.9-.2,2.1-.4,3.2-.4,2,.9,1,2.1.9,6.5,2.5,4.3-4.2,11.8.9.5.6,0,1.4-.2,1.9.9.8,2.2,2.7,3,3.2-5.3,7.5-11.2,12.2-.4,17.6.5.6,1,.8,1.7-.2.7,1.1,2.4,1,3.3.8.4.4-.6,2.2,1.2,1.2,2.7-1-2.3,3.3-1.2,7.5,4.7,9.2-7.4,1.2-4.7,8.5-3,1.8-3.2,5.1-3.1,8.2-1.5.9-3.2,1.7-4.4,3.1-1.1.5-2.4,1.1-2.9,2.3.1,3,1.5,5.3,4.8,3.9.4-.9.6-.8,1.4-.4.7,1.7-.2,1.9-.8,3.4.8,0,.9.4.7,1,0,.4.3,1.4,0,1.7-1-.3-1.5,1.4-2.5,1.5,0,.5-.1,1.3-.6,1.6-1.1-.1-1.9.6-2.5,1.4-1.5.2-1.8,1.6-1.2,2.8-.5,1.4-2,1.8-3.3,2-.3.2-.9.6-1.2.8-.2-.2-.6-.4-.9-.3-1.3.3-2,2.1-2.9,2.2-2.8,0-.2,2.3.6,3.4,1.9-.6,3.6-1.9,5.5-2.4.2,1.2.5,2.6,1.4,3.8,2.1,3.2-3.5,1.1-1.9,5.4,1.2,2.4,4.7,2,4.1,5.4,3,.6,3.9,4.6,5.6,4.2.6-.5,1,0,1.4.4,4-1.2,5.1,2.7,9.6-1.3,2.2-1.1,4.4,2.5,6.5.8,2.3-1.6,4,1.4,5.7,2.5,1.4.5,3.5-.9,4.2.8-.1,1.1,0,2.3.4,3.3.6.3,1.4.8,1.3,1.5.3,1-.1,2.1-.8,2.9.3,1.9.8,4.1,2,5.6.6-.2.8-.6,1.1-1.1,1.5-.6,1.5,1.2,1.1,2.1-.1,2.5-2-.8-2.3,2.1,1.2,3.3,5.6-3.9,7.4-.6.3.3.9,1.3,1.4.5,1.2.2,2.6-.7,3.9-.9,1,.3,1.2,1.6.6,2.4.2.3.4.4.7.1.8,0,1.8,0,2.4.4,2.9,2.2,2.7-10.2,6.7-7.2.6,0,1.3,0,1.9,0,.3,0,1.2-1,1.4-.5-.8,1.1,1.4-.2,1.7.6.5.6-.2,2,.2,2.7,1.4,1.3,3.5,2.4,5.5,2.3,0-2.4-1.4-5.2.7-7.2.8-1.2,2.2-1.3,3-.1,1.3-.7,2.9-.9,2.5-2.7,1.5-2.1.7-4.7,1.3-7,.8,0,.8,1.3,1.4,1.5,1.6,0,3.6-2,2.3,1.1,1,.2,1.7-1.4,2.6-1.6.6-.1.6-1.1,1.2-1.3.1.2.5.7.6.9.2-.1.8-.3,1-.4-.2-1.1-1.5-2.2-1.7-3.5-.2-2.3,3.9-1.6,5.2-3.5,1.2-1.3.9,0,1.4.7.7,0,1.7-.4,2.3,0,.6.4,1.5.1,2.1,0,.7.9,1.7.5,2.7.1,1.5.4,4.5,1,3.9-1.5.2,0,.8.4,1.1.6.5-.1,1.6-.8,2-.4.1.2.4.2.5,0,.4-.6,1.5.6,2,.3.5-.2.3-1.7.6-2.1,1,.1,0-1.7-.8-1.5"/>
      </g>
      <path class="st53" d="M1675.2,559.4h-260.7V164.4h95.9v304.2h164.8v90.9Z"/>
      <g>
        <g>
          <path class="st50" d="M1580.6,518.4c-.8,17.1-4.8,34-12.1,49.9l-37.8-37.8c15.9-7.2,32.8-11.3,49.9-12.1Z"/>
          <path class="st49" d="M1530.7,530.5l37.8,37.8c-6.6,14.4-15.8,27.9-27.7,39.8-4.8,4.8-9.9,9.2-15.2,13.1h0v-5.4l-3.3,2-43.3-43.3,2-3.3h-1.7c3.5-4.5,7.3-8.9,11.5-13.1,11.9-11.9,25.4-21.1,39.8-27.7ZM1535.6,583.7c5.6-5.6,5.6-14.6,0-20.2-5.6-5.6-14.6-5.6-20.2,0-5.6,5.6-5.6,14.6,0,20.2,5.6,5.6,14.6,5.6,20.2,0Z"/>
          <path class="st61" d="M1535.6,563.5c5.6,5.6,5.6,14.6,0,20.2s-14.6,5.6-20.2,0c-5.6-5.6-5.6-14.6,0-20.2,5.6-5.6,14.6-5.6,20.2,0Z"/>
          <path class="st49" d="M1525.7,621.3s0,0,0,0h0s0,0,0,0Z"/>
          <path class="st49" d="M1525.7,621.3v4.2c0,11.2-4.4,21.9-12.4,29.9l-15.9,15.9-1.7-33.1c10.5-4.3,20.6-9.9,29.9-16.8Z"/>
          <path class="st57" d="M1525.7,621.2h0c-9.4,7-19.4,12.6-29.9,16.9l-.2-4.2,26.8-16,3.3,3.3Z"/>
          <polygon class="st49" points="1525.7 615.9 1525.7 621.2 1522.3 617.9 1525.7 615.9"/>
          <path class="st57" d="M1522.3,617.9l-26.8,16,.2,4.2c-.1,0-.2,0-.3.1l-8-8-17.6-17.6-9-9c.3-.8.6-1.5,1-2.3h1.3c0,0,16-26.7,16-26.7l43.3,43.3Z"/>
          <path class="st49" d="M1487.4,630.3c-1.3,9-5.4,17.7-12.3,24.6-11.2,11.2-35,23-49.3,19.5-3.5-14.4,8.3-38.1,19.5-49.3,6.9-6.9,15.6-11,24.6-12.3-2.4,1.3-4.6,2.9-6.6,4.9-7.2,7.2-17.6,25.4-15.4,34.6,9.3,2.3,27.4-8.1,34.6-15.4s3.6-4.2,4.9-6.6Z"/>
          <path class="st49" d="M1481.1,571.3l-2,3.3-1.3-1.3c.5-.7,1.1-1.4,1.6-2.1h1.7Z"/>
          <path class="st49" d="M1471.4,571.3h8c-.5.7-1.1,1.4-1.6,2.1-6.6,8.8-11.9,18.2-16,28l-36.1-1.8,15.9-15.9c7.9-7.9,18.7-12.4,29.9-12.4Z"/>
          <path class="st49" d="M1479.1,574.6l-16,26.8h-1.3c4.2-9.9,9.5-19.3,16-28.1l1.3,1.3Z"/>
        </g>
        <g>
          <line class="st20" x1="1389.4" y1="713.1" x2="1349.6" y2="752.9"/>
          <line class="st20" x1="1405.9" y1="667" x2="1360.1" y2="712.8"/>
          <line class="st20" x1="1435.8" y1="696.9" x2="1409.4" y2="723.4"/>
          <line class="st20" x1="1345.7" y1="727.2" x2="1332.9" y2="740"/>
          <line class="st20" x1="1390.2" y1="742.5" x2="1344.2" y2="788.6"/>
          <path class="st34" d="M1479.4,571.3h-8c-11.2,0-21.9,4.4-29.9,12.4l-15.9,15.9,36.1,1.8"/>
          <path class="st34" d="M1525.7,621.3v4.2c0,11.2-4.4,21.9-12.4,29.9l-15.9,15.9-1.7-33.1"/>
          <path class="st34" d="M1568.5,568.3c-6.6,14.4-15.8,27.9-27.7,39.8-4.8,4.8-9.9,9.2-15.2,13.1,0,0,0,0,0,0-9.4,7-19.4,12.6-29.9,16.8-.1,0-.2,0-.3.1l-8-8-17.6-17.6-9-9c.3-.8.6-1.5,1-2.3,4.2-9.8,9.5-19.2,16-28,.5-.7,1.1-1.4,1.6-2.1,3.5-4.5,7.3-8.9,11.5-13.1,11.9-11.9,25.4-21.1,39.8-27.7,15.9-7.2,32.8-11.3,49.9-12.1-.8,17.1-4.8,34-12.1,49.9Z"/>
          <polyline class="st19" points="1529.1 528.9 1530.7 530.5 1568.5 568.3 1569.8 569.7"/>
          <polyline class="st19" points="1477.8 573.4 1479.1 574.6 1522.3 617.9 1525.7 621.2 1525.7 621.3 1526.7 622.3"/>
          <path class="st34" d="M1535.6,583.7c-5.6,5.6-14.6,5.6-20.2,0-5.6-5.6-5.6-14.6,0-20.2,5.6-5.6,14.6-5.6,20.2,0,5.6,5.6,5.6,14.6,0,20.2Z"/>
          <path class="st20" d="M1487.4,630.3c-1.3,2.4-2.9,4.6-4.9,6.6-7.2,7.2-25.4,17.7-34.6,15.4-2.3-9.3,8.1-27.4,15.4-34.6,2-2,4.2-3.6,6.6-4.9-9,1.3-17.7,5.4-24.6,12.3-11.2,11.2-23,35-19.5,49.3,14.4,3.5,38.1-8.3,49.3-19.5,6.9-6.9,11-15.6,12.3-24.6Z"/>
        </g>
      </g>
      <g>
        <g>
          <g>
            <rect class="st49" x="1287" y="297" width="164.2" height="108.7"/>
            <rect class="st52" x="1287.7" y="309.2" width="164.2" height="96.5"/>
            <path class="st54" d="M1449,299.3v104.2h-159.7v-104.2h159.7M1453.5,294.8h-168.7v113.2h168.7v-113.2h0Z"/>
          </g>
          <line class="st32" x1="1287.8" y1="309.7" x2="1451.6" y2="309.7"/>
        </g>
        <rect class="st49" x="1340.8" y="342.3" width="56.7" height="6.9"/>
        <g>
          <line class="st4" x1="1315.7" y1="358.3" x2="1321.9" y2="358.3"/>
          <line class="st26" x1="1325" y1="358.3" x2="1416.2" y2="358.3"/>
          <line class="st4" x1="1417.7" y1="358.3" x2="1424" y2="358.3"/>
        </g>
        <g>
          <line class="st4" x1="1315.7" y1="363.6" x2="1325.6" y2="363.6"/>
          <line class="st2" x1="1332.1" y1="363.6" x2="1410.8" y2="363.6"/>
          <line class="st4" x1="1414" y1="363.6" x2="1424" y2="363.6"/>
        </g>
        <line class="st25" x1="1352.6" y1="372.2" x2="1404.4" y2="372.2"/>
        <line class="st25" x1="1352.6" y1="376.8" x2="1404.4" y2="376.8"/>
      </g>
      <path class="st50" d="M616.2,900.5h-302.5v-58.1l156.9-128.7c30.5-23.7,45.7-45.2,45.7-64.3s-4.6-27.4-13.8-35.8c-9.2-8.5-21.5-13.1-37-13.8h-2.8c-18.4,0-45,13-79.6,38.9l-62.1-57.6c52.3-47.8,102.3-71.7,150.1-71.7h3.4c30.5.4,56.2,6.6,77.3,18.6,21.1,12,36.1,26.8,45.2,44.3,9,17.5,13.5,36.4,13.5,56.7s-9,55.3-27.1,80.1c-18.1,24.8-45.2,51.2-81.3,79l-26.5,22h140.5v90.3Z"/>
      <g>
        <g>
          <path class="st62" d="M254.4,785.1l-73.4,13.7,13.3,71.1c7.2,38.7,37.3,69,75.9,76.5l14.9,2.9,12.8-8.1c33.3-21,50.4-60.1,43.2-98.8l-13.3-71.1-73.4,13.7Z"/>
          <path class="st41" d="M323.1,778.3l12.2,65.2c3.3,17.8,1.3,35.9-6,52.5-7.2,16.6-19.2,30.4-34.5,40.1l-10.8,6.8-12.6-2.5c-17.8-3.5-33.9-12.1-46.6-24.9s-21.2-29-24.6-46.8l-12.2-65.2,67.5-12.6,67.5-12.6M327.9,771.3l-73.4,13.7-73.4,13.7,13.3,71.1c7.2,38.7,37.3,69,75.9,76.5l14.9,2.9,12.8-8.1c33.3-21,50.4-60.1,43.2-98.8l-13.3-71.1h0Z"/>
        </g>
        <polyline class="st33" points="235.9 878.4 271.7 902.9 303.9 816.4"/>
      </g>
      <path class="st50" d="M1430.1,900.5h-302.5v-58.1l156.9-128.7c30.5-23.7,45.7-45.2,45.7-64.3s-4.6-27.4-13.8-35.8c-9.2-8.5-21.5-13.1-37-13.8h-2.8c-18.4,0-45,13-79.6,38.9l-62.1-57.6c52.3-47.8,102.3-71.7,150.1-71.7h3.4c30.5.4,56.2,6.6,77.3,18.6,21.1,12,36.1,26.8,45.2,44.3,9,17.5,13.5,36.4,13.5,56.7s-9,55.3-27.1,80.1c-18.1,24.8-45.2,51.2-81.3,79l-26.5,22h140.5v90.3Z"/>
      <g class="st45">
        <g>
          <path class="st48" d="M298.7,188.3c58.7,0,108.4,21.8,149,65.5l-62.1,57.6c-24.1-21.8-53.1-32.7-86.9-32.7s-55.1,10.3-75.1,30.8c-19.9,20.5-29.9,47.3-29.9,80.4s10,59.8,29.9,80.1c19.9,20.3,45,30.5,75.1,30.5s63.2-10.7,86.9-32.2l62.1,57.6c-40.6,43.7-90.3,65.5-149,65.5s-103.1-19.7-142.2-59c-39.1-39.3-58.7-86.8-58.7-142.5s19.6-103.2,58.7-142.5c39.1-39.3,86.5-59,142.2-59Z"/>
          <path class="st48" d="M623.2,188.3h4c53.4,0,105.9,21.8,157.5,65.5l-62.6,57.6c-15.1-9-31.9-16.7-50.5-23.1-18.6-6.4-33.4-9.6-44.3-9.6h-4c-37.2,0-55.9,10.5-55.9,31.6s1.6,9.1,4.8,12.7c3.2,3.6,8.2,6.3,15,8.2,6.8,1.9,12.4,3.2,16.9,4,4.5.8,11.1,1.7,19.8,2.8l25.4,2.3c21.4,2.3,40.5,6.1,57.3,11.6,16.7,5.5,32.1,12.9,46,22.3,13.9,9.4,24.6,21.9,32.2,37.5,7.5,15.6,11.3,33.8,11.3,54.5,0,38-14.6,68.2-43.7,90.6-29.2,22.4-67.3,34-114.3,34.7h-2.8c-36.9,0-70-7.2-99.3-21.7-29.3-14.5-53.6-32.6-72.8-54.5l62.6-57.6c30.1,29,66.6,43.5,109.5,43.5h2.8c41.4-.7,62.1-12.4,62.1-35s-1.6-12.4-4.8-16.9c-3.2-4.5-8.5-8.1-15.8-10.7-7.3-2.6-13.8-4.5-19.5-5.6s-13.5-2.3-23.7-3.4l-26-2.8c-41-4.5-74.4-15.8-100.2-33.9-25.8-18.1-38.7-44.6-38.7-79.6s14.2-67.6,42.6-90c28.4-22.4,64.8-34,109.2-34.7Z"/>
          <path class="st48" d="M1216.4,587.3h-57.6l-81.3-200.9-80.7,200.9h-57.6l-160.8-395.1h106.7l81.8,219.5,82.4-219.5h57l82.4,219.5,81.8-219.5h106.7l-160.8,395.1Z"/>
        </g>
      </g>
      <g>
        <path class="st40" d="M298.7,160.4c58.7,0,108.4,21.8,149,65.5l-62.1,57.6c-24.1-21.8-53.1-32.7-86.9-32.7s-55.1,10.3-75.1,30.8c-19.9,20.5-29.9,47.3-29.9,80.4s10,59.8,29.9,80.1c19.9,20.3,45,30.5,75.1,30.5s63.2-10.7,86.9-32.2l62.1,57.6c-40.6,43.7-90.3,65.5-149,65.5s-103.1-19.7-142.2-59c-39.1-39.3-58.7-86.8-58.7-142.5s19.6-103.2,58.7-142.5c39.1-39.3,86.5-59,142.2-59Z"/>
        <path class="st42" d="M623.2,160.4h4c53.4,0,105.9,21.8,157.5,65.5l-62.6,57.6c-15.1-9-31.9-16.7-50.5-23.1-18.6-6.4-33.4-9.6-44.3-9.6h-4c-37.2,0-55.9,10.5-55.9,31.6s1.6,9.1,4.8,12.7c3.2,3.6,8.2,6.3,15,8.2,6.8,1.9,12.4,3.2,16.9,4,4.5.8,11.1,1.7,19.8,2.8l25.4,2.3c21.4,2.3,40.5,6.1,57.3,11.6,16.7,5.5,32.1,12.9,46,22.3,13.9,9.4,24.6,21.9,32.2,37.5,7.5,15.6,11.3,33.8,11.3,54.5,0,38-14.6,68.2-43.7,90.6-29.2,22.4-67.3,34-114.3,34.7h-2.8c-36.9,0-70-7.2-99.3-21.7-29.3-14.5-53.6-32.6-72.8-54.5l62.6-57.6c30.1,29,66.6,43.5,109.5,43.5h2.8c41.4-.7,62.1-12.4,62.1-35s-1.6-12.4-4.8-16.9c-3.2-4.5-8.5-8.1-15.8-10.7-7.3-2.6-13.8-4.5-19.5-5.6s-13.5-2.3-23.7-3.4l-26-2.8c-41-4.5-74.4-15.8-100.2-33.9-25.8-18.1-38.7-44.6-38.7-79.6s14.2-67.6,42.6-90c28.4-22.4,64.8-34,109.2-34.7Z"/>
        <path class="st43" d="M1216.4,559.4h-57.6l-81.3-200.9-80.7,200.9h-57.6l-160.8-395.1h106.7l81.8,219.5,82.4-219.5h57l82.4,219.5,81.8-219.5h106.7l-160.8,395.1Z"/>
      </g>
      <g>
        <g>
          <circle class="st15" cx="873.3" cy="708.6" r="56.1"/>
          <line class="st30" x1="931.1" y1="765.9" x2="913.2" y2="748"/>
          <line class="st29" x1="952" y1="787.2" x2="988.2" y2="823.5"/>
        </g>
        <path class="st31" d="M873.3,674c19.1,0,34.6,15.5,34.6,34.6"/>
      </g>
      <path class="st50" d="M730.6,568.3c38.3-38.8,84.7-58.5,139.3-58.9,54.6-.4,101.3,18.6,140.4,56.8,39,38.3,58.7,84.7,59.1,139.3.4,54.6-18.6,101.3-56.8,140.1-38.3,38.8-84.9,58.5-139.8,58.9-54.9.4-101.7-18.5-140.4-56.8-38.7-38.3-58.2-84.7-58.6-139.3-.4-54.5,18.5-101.2,56.8-140.1ZM870.6,600.3c-29,.2-53,10.2-72,29.9-19,19.7-28.5,45.6-28.2,77.5.2,32,10,57.7,29.3,77.1,19.3,19.4,43.5,29,72.5,28.8,29.3-.2,53.5-10.2,72.6-29.9,19-19.7,28.5-45.5,28.2-77.5-.2-32-10-57.7-29.3-77.1-19.3-19.4-43.7-29-73-28.8Z"/>
      <g>
        <polyline class="st11" points="1246.6 568.9 1242.8 578.1 1232.8 578.1"/>
        <line class="st0" x1="1220.3" y1="578.1" x2="1195.2" y2="578.1"/>
        <polyline class="st11" points="1195.2 578.1 1185.2 578.1 1181.5 568.9"/>
        <line class="st14" x1="1173.3" y1="548.6" x2="1107.7" y2="386.5"/>
        <polyline class="st11" points="1107.7 386.5 1104 377.2 1100.2 386.5"/>
        <line class="st9" x1="1092.1" y1="406.8" x2="1027" y2="568.9"/>
        <polyline class="st11" points="1027 568.9 1023.3 578.1 1013.3 578.1"/>
        <line class="st12" x1="1000.7" y1="578.1" x2="975.7" y2="578.1"/>
        <polyline class="st11" points="975.7 578.1 965.7 578.1 961.9 568.9"/>
        <line class="st23" x1="954.6" y1="550.9" x2="808.6" y2="192.3"/>
        <polyline class="st11" points="808.6 192.3 804.8 183.1 814.8 183.1"/>
        <line class="st7" x1="832.2" y1="183.1" x2="901.5" y2="183.1"/>
        <polyline class="st11" points="901.5 183.1 911.5 183.1 915 192.4"/>
        <line class="st8" x1="921.8" y1="210.7" x2="989.8" y2="393.2"/>
        <polyline class="st11" points="989.8 393.2 993.3 402.6 996.9 393.3"/>
        <line class="st21" x1="1003.7" y1="375" x2="1072.2" y2="192.4"/>
        <polyline class="st11" points="1072.2 192.4 1075.7 183.1 1085.7 183.1"/>
        <line class="st27" x1="1098.1" y1="183.1" x2="1122.7" y2="183.1"/>
        <polyline class="st11" points="1122.7 183.1 1132.7 183.1 1136.3 192.4"/>
        <line class="st21" x1="1143.1" y1="210.7" x2="1211.6" y2="393.3"/>
        <polyline class="st11" points="1211.6 393.3 1215.1 402.6 1218.6 393.2"/>
        <line class="st8" x1="1225.4" y1="375" x2="1293.5" y2="192.4"/>
        <polyline class="st11" points="1293.5 192.4 1297 183.1 1307 183.1"/>
        <line class="st5" x1="1324.3" y1="183.1" x2="1393.6" y2="183.1"/>
        <polyline class="st11" points="1393.6 183.1 1403.6 183.1 1399.9 192.3"/>
        <line class="st23" x1="1392.6" y1="210.3" x2="1246.6" y2="568.9"/>
      </g>
    </g>
  </g>
</svg>