<?xml version="1.0" encoding="UTF-8"?>
<svg xmlns="http://www.w3.org/2000/svg" xmlns:xlink="http://www.w3.org/1999/xlink" version="1.1" viewBox="0 0 818.4 328">
  <!-- Generator: Adobe Illustrator 29.1.0, SVG Export Plug-In . SVG Version: 2.1.0 Build 142)  -->
  <defs>
    <style>
      .st0, .st1, .st2 {
        fill: none;
      }

      .st3 {
        fill: url(#linear-gradient2);
      }

      .st4 {
        fill: url(#linear-gradient1);
      }

      .st5 {
        fill: url(#linear-gradient3);
      }

      .st6 {
        fill: url(#linear-gradient6);
      }

      .st7 {
        fill: url(#linear-gradient5);
      }

      .st8 {
        fill: url(#linear-gradient4);
      }

      .st9 {
        font-family: Acrom-ExtraBold, Acrom;
        font-size: 24.2px;
        font-weight: 700;
        letter-spacing: .2em;
      }

      .st10 {
        fill: #1a1818;
      }

      .st11 {
        fill: url(#linear-gradient);
      }

      .st12 {
        isolation: isolate;
      }

      .st13 {
        mix-blend-mode: multiply;
      }

      .st14 {
        fill: #d3d5d6;
        font-family: AquaGrotesque, 'Aqua Grotesque';
        font-size: 14.8px;
      }

      .st15 {
        fill: #00b0eb;
      }

      .st1 {
        stroke: #31aa3a;
        stroke-linejoin: round;
        stroke-width: 8.5px;
      }

      .st1, .st2 {
        stroke-linecap: round;
      }

      .st2 {
        stroke: #fff;
        stroke-dasharray: 10.5 2.6;
        stroke-miterlimit: 10;
        stroke-width: .9px;
      }

      .st16 {
        fill: #eeeeef;
      }

      .st17 {
        fill: #00993f;
      }

      .st18 {
        fill: url(#New_Pattern_6);
        opacity: .7;
      }
    </style>
    <pattern id="New_Pattern_6" data-name="New Pattern 6" x="0" y="0" width="559.2" height="268.3" patternTransform="translate(668 -1075.1) rotate(-15)" patternUnits="userSpaceOnUse" viewBox="0 0 559.2 268.3">
      <g>
        <rect class="st0" width="559.2" height="268.3"/>
        <g>
          <text class="st14" transform="translate(279.9 267.5)"><tspan x="0" y="0">OIIIOIOIIOOOOIIOIOIOIIIIIOIOOIOOIOIIOOIIOOIIIOIOIIOOOOIOIOIOIOIIOIO</tspan></text>
          <text class="st14" transform="translate(838 269.1) rotate(-180)"><tspan x="0" y="0">IIIOOIIOOIIIOIIOIOIOIIIIIOIOIOOIOOIOIIOOIIOOIIIOIOIIOOOOIOIOIOIOIIOIO</tspan></text>
        </g>
        <g>
          <text class="st14" transform="translate(-279.3 267.5)"><tspan x="0" y="0">OIIIOIOIIOOOOIIOIOIOIIIIIOIOOIOOIOIIOOIIOOIIIOIOIIOOOOIOIOIOIOIIOIO</tspan></text>
          <text class="st14" transform="translate(278.8 269.1) rotate(-180)"><tspan x="0" y="0">IIIOOIIOOIIIOIIOIOIOIIIIIOIOIOOIOOIOIIOOIIOOIIIOIOIIOOOOIOIOIOIOIIOIO</tspan></text>
        </g>
        <g>
          <text class="st14" transform="translate(.3 240.6)"><tspan x="0" y="0">OIIIOIOIIOOOOIIOIOIOIIIIIOIOOIOOIOIIOOIIOOIIIOIOIIOOOOIOIOIOIOIIOIO</tspan></text>
          <text class="st14" transform="translate(558.4 242.3) rotate(-180)"><tspan x="0" y="0">IIIOOIIOOIIIOIIOIOIOIIIIIOIOIOOIOOIOIIOOIIOOIIIOIOIIOOOOIOIOIOIOIIOIO</tspan></text>
        </g>
        <text class="st14" transform="translate(-558.9 240.6)"><tspan x="0" y="0">OIIIOIOIIOOOOIIOIOIOIIIIIOIOOIOOIOIIOOIIOOIIIOIOIIOOOOIOIOIOIOIIOIO</tspan></text>
        <g>
          <text class="st14" transform="translate(279.9 213.8)"><tspan x="0" y="0">OIIIOIOIIOOOOIIOIOIOIIIIIOIOOIOOIOIIOOIIOOIIIOIOIIOOOOIOIOIOIOIIOIO</tspan></text>
          <text class="st14" transform="translate(838 215.4) rotate(-180)"><tspan x="0" y="0">IIIOOIIOOIIIOIIOIOIOIIIIIOIOIOOIOOIOIIOOIIOOIIIOIOIIOOOOIOIOIOIOIIOIO</tspan></text>
        </g>
        <g>
          <text class="st14" transform="translate(-279.3 213.8)"><tspan x="0" y="0">OIIIOIOIIOOOOIIOIOIOIIIIIOIOOIOOIOIIOOIIOOIIIOIOIIOOOOIOIOIOIOIIOIO</tspan></text>
          <text class="st14" transform="translate(278.8 215.4) rotate(-180)"><tspan x="0" y="0">IIIOOIIOOIIIOIIOIOIOIIIIIOIOIOOIOOIOIIOOIIOOIIIOIOIIOOOOIOIOIOIOIIOIO</tspan></text>
        </g>
        <g>
          <text class="st14" transform="translate(.3 187)"><tspan x="0" y="0">OIIIOIOIIOOOOIIOIOIOIIIIIOIOOIOOIOIIOOIIOOIIIOIOIIOOOOIOIOIOIOIIOIO</tspan></text>
          <text class="st14" transform="translate(558.4 188.6) rotate(-180)"><tspan x="0" y="0">IIIOOIIOOIIIOIIOIOIOIIIIIOIOIOOIOOIOIIOOIIOOIIIOIOIIOOOOIOIOIOIOIIOIO</tspan></text>
        </g>
        <text class="st14" transform="translate(-558.9 187)"><tspan x="0" y="0">OIIIOIOIIOOOOIIOIOIOIIIIIOIOOIOOIOIIOOIIOOIIIOIOIIOOOOIOIOIOIOIIOIO</tspan></text>
        <g>
          <text class="st14" transform="translate(279.9 160.2)"><tspan x="0" y="0">OIIIOIOIIOOOOIIOIOIOIIIIIOIOOIOOIOIIOOIIOOIIIOIOIIOOOOIOIOIOIOIIOIO</tspan></text>
          <text class="st14" transform="translate(838 161.8) rotate(-180)"><tspan x="0" y="0">IIIOOIIOOIIIOIIOIOIOIIIIIOIOIOOIOOIOIIOOIIOOIIIOIOIIOOOOIOIOIOIOIIOIO</tspan></text>
        </g>
        <g>
          <text class="st14" transform="translate(-279.3 160.2)"><tspan x="0" y="0">OIIIOIOIIOOOOIIOIOIOIIIIIOIOOIOOIOIIOOIIOOIIIOIOIIOOOOIOIOIOIOIIOIO</tspan></text>
          <text class="st14" transform="translate(278.8 161.8) rotate(-180)"><tspan x="0" y="0">IIIOOIIOOIIIOIIOIOIOIIIIIOIOIOOIOOIOIIOOIIOOIIIOIOIIOOOOIOIOIOIOIIOIO</tspan></text>
        </g>
        <g>
          <text class="st14" transform="translate(.3 133.3)"><tspan x="0" y="0">OIIIOIOIIOOOOIIOIOIOIIIIIOIOOIOOIOIIOOIIOOIIIOIOIIOOOOIOIOIOIOIIOIO</tspan></text>
          <text class="st14" transform="translate(558.4 135) rotate(-180)"><tspan x="0" y="0">IIIOOIIOOIIIOIIOIOIOIIIIIOIOIOOIOOIOIIOOIIOOIIIOIOIIOOOOIOIOIOIOIIOIO</tspan></text>
        </g>
        <text class="st14" transform="translate(-558.9 133.3)"><tspan x="0" y="0">OIIIOIOIIOOOOIIOIOIOIIIIIOIOOIOOIOIIOOIIOOIIIOIOIIOOOOIOIOIOIOIIOIO</tspan></text>
        <g>
          <text class="st14" transform="translate(279.9 106.5)"><tspan x="0" y="0">OIIIOIOIIOOOOIIOIOIOIIIIIOIOOIOOIOIIOOIIOOIIIOIOIIOOOOIOIOIOIOIIOIO</tspan></text>
          <text class="st14" transform="translate(838 108.1) rotate(-180)"><tspan x="0" y="0">IIIOOIIOOIIIOIIOIOIOIIIIIOIOIOOIOOIOIIOOIIOOIIIOIOIIOOOOIOIOIOIOIIOIO</tspan></text>
        </g>
        <g>
          <text class="st14" transform="translate(-279.3 106.5)"><tspan x="0" y="0">OIIIOIOIIOOOOIIOIOIOIIIIIOIOOIOOIOIIOOIIOOIIIOIOIIOOOOIOIOIOIOIIOIO</tspan></text>
          <text class="st14" transform="translate(278.8 108.1) rotate(-180)"><tspan x="0" y="0">IIIOOIIOOIIIOIIOIOIOIIIIIOIOIOOIOOIOIIOOIIOOIIIOIOIIOOOOIOIOIOIOIIOIO</tspan></text>
        </g>
        <g>
          <text class="st14" transform="translate(.3 79.7)"><tspan x="0" y="0">OIIIOIOIIOOOOIIOIOIOIIIIIOIOOIOOIOIIOOIIOOIIIOIOIIOOOOIOIOIOIOIIOIO</tspan></text>
          <text class="st14" transform="translate(558.4 81.3) rotate(-180)"><tspan x="0" y="0">IIIOOIIOOIIIOIIOIOIOIIIIIOIOIOOIOOIOIIOOIIOOIIIOIOIIOOOOIOIOIOIOIIOIO</tspan></text>
        </g>
        <text class="st14" transform="translate(-558.9 79.7)"><tspan x="0" y="0">OIIIOIOIIOOOOIIOIOIOIIIIIOIOOIOOIOIIOOIIOOIIIOIOIIOOOOIOIOIOIOIIOIO</tspan></text>
        <g>
          <text class="st14" transform="translate(279.9 52.8)"><tspan x="0" y="0">OIIIOIOIIOOOOIIOIOIOIIIIIOIOOIOOIOIIOOIIOOIIIOIOIIOOOOIOIOIOIOIIOIO</tspan></text>
          <text class="st14" transform="translate(838 54.5) rotate(-180)"><tspan x="0" y="0">IIIOOIIOOIIIOIIOIOIOIIIIIOIOIOOIOOIOIIOOIIOOIIIOIOIIOOOOIOIOIOIOIIOIO</tspan></text>
        </g>
        <g>
          <text class="st14" transform="translate(-279.3 52.8)"><tspan x="0" y="0">OIIIOIOIIOOOOIIOIOIOIIIIIOIOOIOOIOIIOOIIOOIIIOIOIIOOOOIOIOIOIOIIOIO</tspan></text>
          <text class="st14" transform="translate(278.8 54.5) rotate(-180)"><tspan x="0" y="0">IIIOOIIOOIIIOIIOIOIOIIIIIOIOIOOIOOIOIIOOIIOOIIIOIOIIOOOOIOIOIOIOIIOIO</tspan></text>
        </g>
        <g>
          <text class="st14" transform="translate(.3 26)"><tspan x="0" y="0">OIIIOIOIIOOOOIIOIOIOIIIIIOIOOIOOIOIIOOIIOOIIIOIOIIOOOOIOIOIOIOIIOIO</tspan></text>
          <text class="st14" transform="translate(558.4 27.6) rotate(-180)"><tspan x="0" y="0">IIIOOIIOOIIIOIIOIOIOIIIIIOIOIOOIOOIOIIOOIIOOIIIOIOIIOOOOIOIOIOIOIIOIO</tspan></text>
        </g>
        <text class="st14" transform="translate(-558.9 26)"><tspan x="0" y="0">OIIIOIOIIOOOOIIOIOIOIIIIIOIOOIOOIOIIOOIIOOIIIOIOIIOOOOIOIOIOIOIIOIO</tspan></text>
        <g>
          <text class="st14" transform="translate(279.9 -.8)"><tspan x="0" y="0">OIIIOIOIIOOOOIIOIOIOIIIIIOIOOIOOIOIIOOIIOOIIIOIOIIOOOOIOIOIOIOIIOIO</tspan></text>
          <text class="st14" transform="translate(838 .8) rotate(-180)"><tspan x="0" y="0">IIIOOIIOOIIIOIIOIOIOIIIIIOIOIOOIOOIOIIOOIIOOIIIOIOIIOOOOIOIOIOIOIIOIO</tspan></text>
        </g>
        <g>
          <text class="st14" transform="translate(-279.3 -.8)"><tspan x="0" y="0">OIIIOIOIIOOOOIIOIOIOIIIIIOIOOIOOIOIIOOIIOOIIIOIOIIOOOOIOIOIOIOIIOIO</tspan></text>
          <text class="st14" transform="translate(278.8 .8) rotate(-180)"><tspan x="0" y="0">IIIOOIIOOIIIOIIOIOIOIIIIIOIOIOOIOOIOIIOOIIOOIIIOIOIIOOOOIOIOIOIOIIOIO</tspan></text>
        </g>
      </g>
    </pattern>
    <linearGradient id="linear-gradient" x1="110.6" y1="139.1" x2="96.9" y2="65.7" gradientUnits="userSpaceOnUse">
      <stop offset="0" stop-color="#4072b9"/>
      <stop offset="1" stop-color="#00b0eb"/>
    </linearGradient>
    <linearGradient id="linear-gradient1" x1="178.9" y1="160" x2="699.8" y2="134.7" gradientUnits="userSpaceOnUse">
      <stop offset="0" stop-color="#7cbe31"/>
      <stop offset="1" stop-color="#02572b"/>
    </linearGradient>
    <linearGradient id="linear-gradient2" x1="178.9" y1="159.7" x2="699.8" y2="134.3" xlink:href="#linear-gradient1"/>
    <linearGradient id="linear-gradient3" x1="178.9" y1="160.3" x2="699.8" y2="134.9" xlink:href="#linear-gradient1"/>
    <linearGradient id="linear-gradient4" x1="178.9" y1="159.7" x2="699.8" y2="134.3" xlink:href="#linear-gradient1"/>
    <linearGradient id="linear-gradient5" x1="178.9" y1="159.4" x2="699.8" y2="134.1" xlink:href="#linear-gradient1"/>
    <linearGradient id="linear-gradient6" x1="178.9" y1="159" x2="699.8" y2="133.6" xlink:href="#linear-gradient1"/>
  </defs>
  <g class="st12">
    <g id="Backdrop_IO">
      <rect class="st18" x="-8181.3" y="-7209.8" width="16231.1" height="16283.7"/>
    </g>
    <g id="CSWL_SPRING">
      <g>
        <line class="st2" x1="382.6" y1="113.5" x2="382.6" y2="113.5"/>
        <line class="st2" x1="382.6" y1="116" x2="382.6" y2="116"/>
      </g>
      <g>
        <g>
          <path class="st16" d="M96.9,65.7l-32.8,6.1,5.9,31.8c3.2,17.3,16.7,30.8,33.9,34.2l6.7,1.3,5.7-3.6c14.9-9.4,22.5-26.9,19.3-44.1l-5.9-31.8-32.8,6.1Z"/>
          <path class="st11" d="M126.3,64.4l5.2,27.7c2.9,15.7-3.9,31.3-17.4,39.9l-4.3,2.7-5-1c-15.7-3.1-27.7-15.2-30.6-30.9l-5.2-27.7,28.7-5.4,28.7-5.4M129.7,59.5l-32.8,6.1-32.8,6.1,5.9,31.8c3.2,17.3,16.7,30.8,33.9,34.2l6.7,1.3,5.7-3.6c14.9-9.4,22.5-26.9,19.3-44.1l-5.9-31.8h0Z"/>
        </g>
        <polyline class="st1" points="88.6 107.4 104.6 118.3 118.9 79.6"/>
      </g>
      <g class="st13">
        <path class="st4" d="M179.4,127.8c2.9-.1,4.9,1.9,5.1,4.5.2,3-2,4.9-4.6,5.1-2.9.1-4.8-1.9-4.9-4.2,0-.6,0-1.3.3-2.1.5-1.8,2.3-3.1,4.2-3.2ZM182.3,141.1c3-.2,5,1.9,5.2,4.2.2,3.3-2.5,5.3-4.8,5.4-3,.2-4.9-2-5-4.3,0-.8,0-1.3.4-2,.7-2,2.4-3.3,4.3-3.4ZM183.9,189.2c2.9-.1,5,1.9,5.2,4.4.1,2.8-2,5.1-4.4,5.2-3,.2-5.2-2.2-5.3-4.6,0-.6,0-1.2.3-1.8.8-1.8,2.4-3.1,4.3-3.2ZM188.4,116.6c2.8-.1,4.9,2,5,4.3.2,3.3-2.1,5.3-4.4,5.4-3.3.2-5.1-2.3-5.2-4.6,0-.6,0-1.2.3-1.8.7-2,2.4-3.3,4.3-3.4ZM194.3,149.3c2.8-.1,4.8,1.9,4.9,4.3.1,2.9-1.7,4.9-4.5,5.1-2.9.1-4.9-2-5.1-4.5,0-.5,0-1.1.3-1.7.5-2,2.4-3.1,4.3-3.2ZM197.9,194.4c2.8-.1,4.9,2.2,5.1,4.6.1,2.9-2.2,5.1-4.4,5.2-2.8.1-4.9-1.8-5-4.2,0-.8,0-1.6.4-2.2.5-1.8,2.1-3.2,4.1-3.3ZM202.8,112.3c2.5-.1,4.7,1.9,4.8,4.3.1,2.8-1.9,5-4.7,5.2-2.8.1-4.8-2.1-4.9-4.5,0-.6,0-1.2.3-1.8.7-2,2.5-3.1,4.5-3.2ZM208.8,152.6c2.8-.1,5,1.9,5.2,4.3.1,2.5-2,4.9-4.6,5.1-2.8.1-4.8-1.8-4.9-4.2,0-.6,0-1.2.3-1.8.5-2.3,2.1-3.2,4.1-3.3ZM213.8,195.3c2.8-.1,4.7,2.1,4.8,4.6.1,2.9-2.2,4.8-4.7,4.9-2.8.1-4.8-1.9-4.9-4.3,0-.6,0-1.2.3-1.8.7-2,2.5-3.3,4.5-3.4ZM217,112.9c2.8-.1,4.7,2.1,4.8,4.5.1,2.8-1.9,5-4.3,5.2-2.8.1-4.9-1.9-5-4.3,0-.6,0-1.2.3-1.8.7-2.1,2.4-3.4,4.3-3.5ZM223.3,156.7c3-.2,4.8,2.2,4.9,4.2.2,3-1.9,5.2-4.7,5.3-2.8.1-4.7-2.1-4.8-4.6,0-.6,0-1.2.3-1.8.8-1.8,2.4-3,4.3-3.1ZM228,190.4c2.8-.1,4.7,2.1,4.8,4.6.1,2.8-1.9,5-4.7,5.2-2.8.1-4.7-2.1-4.8-4.6,0-.6,0-1.2.3-1.8.5-2,2.4-3.3,4.4-3.4ZM230.7,119.5c3.3-.2,5.2,2.2,5.3,4.4.1,2.9-2.2,4.9-4.7,5.1-2.9.1-4.8-2.1-4.9-4.5,0-.7,0-1.3.2-1.7.7-2.1,2.1-3.2,4.2-3.4ZM234.7,165c2.9-.1,4.9,2,5.1,4.5.1,2.9-1.8,5-4.6,5.2-2.9.1-4.9-1.8-5-4.3,0-.6,0-1.3.3-2.1.5-1.8,2.3-3.1,4.3-3.2ZM237.1,178.6c2.8-.1,4.9,1.9,5,4.3.1,2.8-1.7,5.2-4.4,5.3-3.3.2-5.2-2-5.3-4.4,0-.6,0-1.2.3-1.8.7-2,2.5-3.3,4.4-3.4Z"/>
        <path class="st3" d="M273.1,110.8c2.8-.1,4.8,2.1,4.9,4.3.1,2.9-2.1,4.8-4.5,4.9-2.9.1-4.8-1.9-4.9-4.5,0-.5-.2-1.1.2-1.6.7-2,2.5-3.1,4.3-3.2ZM273.9,123.9c2.8-.1,4.7,2.1,4.8,4.3.1,2.8-1.9,4.9-4.5,5.1-2.8.1-4.8-2.2-4.9-4.5,0-.5,0-1.1.3-1.7.7-2,2.4-3.1,4.3-3.2ZM274.5,138c2.8-.1,4.8,2.1,4.9,4.3.1,2.8-2,4.9-4.5,5.1-2.8.1-4.8-2.2-4.9-4.5,0-.5,0-1.1.3-1.7.7-2,2.4-3.1,4.2-3.2ZM275,151.2c2.8-.1,4.9,1.9,5,4.3.1,2.8-1.9,4.9-4.5,5.1-2.8.1-4.8-1.9-4.9-4.5,0-.5,0-1.1.3-1.7.7-2.1,2-3.1,4.1-3.2ZM276,164.6c2.8-.1,4.7,2.1,4.8,4.3.1,2.8-1.9,4.9-4.5,5.1-2.8.1-4.8-2-4.9-4.5,0-.5,0-1.1.3-1.7.7-2,2.5-3.1,4.3-3.2ZM276.7,178.1c2.8-.1,4.7,1.9,4.8,4.2.1,2.9-2,4.9-4.6,5.1-2.8.1-4.7-1.9-4.8-4.3,0-.5,0-1.1.3-1.7.7-2,2.4-3.1,4.3-3.2ZM277.2,190.9c2.8-.1,4.8,1.9,4.9,4.3.1,2.8-1.8,4.9-4.6,5.1-2.8.1-4.7-2.2-4.8-4.5,0-.5,0-1.1.3-1.7.8-1.8,2.4-3.1,4.2-3.2ZM282.4,114.4c-.1-2.5,1.7-4.9,4.5-5.1,2.4-.1,4.7,1.7,4.8,4.5.1,2.3-1.4,4.8-4.3,4.9-1.9,0-3.7-.9-4.6-2.8-.4-.5-.3-1.1-.3-1.6ZM294.4,168.3c.1,2.8-1.8,4.8-4.2,4.9-2.8.1-5-1.6-5.2-4.4-.1-2.8,1.8-4.8,4.6-4.9,2.4,0,4.7,1.9,4.8,4.5ZM295.7,113.2c-.1-2.8,1.7-4.7,4.2-4.8,2.5-.1,5,1.3,5.2,4.2.1,2.4-1.7,4.8-4.6,4.9-2,.1-3.4-.8-4.4-2.7-.3-.5-.4-1.1-.4-1.7ZM304,163.2c2.9-.1,4.7,2.2,4.8,4.5.1,2.8-1.9,4.8-4.3,4.9-2.9.1-4.8-2.2-4.9-4.6,0-.5-.2-1.1.2-1.6.7-2,2.4-3.1,4.3-3.2ZM309.5,113.8c-.1-2.5,1.6-4.9,4.3-5,2.5-.1,4.9,1.7,5.1,4.6.1,2.5-1.6,4.5-4.4,4.7-1.9,0-3.8-.8-4.7-2.7-.4-.5-.3-1.1-.3-1.6ZM317.5,160.1c2.8-.1,4.9,2,5.1,4.6.1,2.8-2.1,4.7-4.3,4.8-3,.2-4.8-2.2-4.9-4.6,0-.5-.2-1.1.2-1.6.5-1.8,2.3-3.1,4.1-3.2ZM321.3,119.6c-.1-2.3,1.6-4.8,4.5-4.9,2.3-.1,4.8,1.7,4.9,4.5.1,2.4-1.8,4.8-4.6,4.9-1.8,0-3.6-1-4.5-2.8-.1-.4-.3-.8-.3-1.7ZM328.3,152.1c2.9-.1,4.7,2.2,4.8,4.5.1,2.9-2.1,4.7-4.5,4.8-2.8.1-4.8-1.9-4.9-4.3,0-.5,0-1.1.3-1.7.7-2,2.4-3.1,4.3-3.2ZM328.3,144.7c-.1-2.3,1.4-4.8,4.3-4.9,2.3-.1,4.9,1.7,5.1,4.5.1,2.4-1.7,4.7-4.5,4.8-1.9,0-3.7-.8-4.6-2.7-.1-.4-.3-1-.3-1.7ZM328.4,131.2c-.1-2.3,1.6-4.7,4.3-4.8,2.4-.1,4.9,1.6,5.1,4.5.1,2.4-1.7,4.8-4.5,4.9-1.9,0-3.8-1-4.5-2.9-.3-.5-.4-1.1-.4-1.7Z"/>
        <path class="st5" d="M370.5,106.4c2.8-.1,4.7,2.2,4.8,4.6.1,2.8-2.1,4.6-4.4,4.7-2.9.1-4.7-2.1-4.8-4.3,0-.7,0-1.3.2-1.7.5-1.8,2.3-3.1,4.2-3.2ZM371.1,120.1c2.8-.1,4.7,2.1,4.8,4.3.1,2.8-1.8,4.8-4.2,4.9-2.8.1-4.8-2.1-4.9-4.6,0-.5-.2-1.1.2-1.6.8-1.8,2.3-3,4.2-3.1ZM371.8,133.3c2.9-.1,4.7,1.9,4.8,4.3.1,2.8-2.1,4.7-4.3,4.8-2.8.1-4.7-2.1-4.8-4.3,0-.7,0-1.2.2-1.6.7-2,2.4-3.1,4.2-3.2ZM372.5,146.2c2.8-.1,4.7,2.1,4.8,4.3.1,2.8-1.8,4.8-4.2,4.9-2.8.1-4.8-2.1-4.9-4.5,0-.5-.2-1.1.2-1.6.7-2.1,2.1-3.1,4.2-3.2ZM373.3,159.6c2.8-.1,4.6,1.8,4.7,4.3.1,2.8-2.1,4.7-4.3,4.8-2.8.1-4.7-2.1-4.8-4.3,0-.7,0-1.2.2-1.6.7-2,2.4-3.1,4.3-3.2ZM374,173.2c2.8-.1,4.6,1.8,4.7,4.4.1,2.8-2.1,4.7-4.3,4.8-2.8.1-4.7-2.1-4.8-4.3,0-.7,0-1.2.2-1.6.7-2,2.4-3.1,4.3-3.2ZM374.6,186.1c2.8-.1,4.6,1.8,4.7,4.4.1,2.8-2.1,4.7-4.3,4.8-2.8.1-4.7-2.1-4.8-4.3,0-.7,0-1.2.2-1.6.7-2,2.4-3.1,4.3-3.2ZM379.6,109.9c-.1-2.3,1.5-4.7,4.2-4.8,2.4-.1,4.9,1.6,5,4.3.1,2.4-1.7,4.8-4.5,4.9-1.8,0-3.6-1-4.5-2.8-.1-.4-.3-.8-.3-1.7ZM391.3,162.9c.1,2.9-1.6,4.9-4.1,5-2.8.1-4.9-1.4-5-4.3-.1-2.8,1.9-4.7,4.3-4.8,2.8,0,4.7,1.7,4.8,4.1ZM392.8,109.3c-.1-2.3,1.6-4.8,4.3-4.9,2.3-.1,4.8,1.4,4.9,4.2.1,2.5-1.7,4.9-4.5,5.1-1.8,0-3.6-1-4.5-2.8-.4-.5-.3-1.1-.3-1.6ZM401,158.2c2.8-.1,4.7,2.1,4.8,4.3.1,2.8-2.2,4.7-4.5,4.8-2.8.1-4.6-2.1-4.7-4.4,0-.5-.2-1.1.2-1.6.5-2,2.3-3.1,4.2-3.2ZM406.3,109.2c-.1-2.3,1.6-4.8,4.3-4.9,2.3-.1,4.8,1.7,4.9,4.5.1,2.3-1.5,4.7-4.5,4.8-1.8,0-3.7-.8-4.4-2.7-.3-.6-.4-1.1-.4-1.7ZM411.1,167.1c2.4-.1,4.8,1.7,4.9,4.5.1,2.3-1.6,4.7-4.3,4.8-2.3.1-4.7-1.7-4.8-4.5,0-1.8.8-3.4,2.6-4.4.6-.3,1.1-.4,1.7-.4ZM414.3,155c2.8-.1,4.8,2.2,4.9,4.5.1,2.5-1.9,4.7-4.3,4.8-2.8.1-4.8-1.9-4.9-4.3,0-.5,0-1.1.3-1.7.5-1.8,2.3-3.1,4.1-3.2ZM421.2,175.5c2.4-.1,4.8,1.7,4.9,4.5.1,2.4-1.6,4.7-4.3,4.8-2.4.1-4.8-1.7-4.9-4.5,0-1.9.8-3.4,2.7-4.4.6-.3,1.1-.4,1.7-.4ZM417.9,115.2c-.1-2.4,1.7-4.8,4.5-4.9,2.4-.1,4.7,1.7,4.8,4.5.1,2.4-1.7,4.7-4.5,4.8-1.8,0-3.7-.9-4.4-2.7-.3-.6-.4-1.1-.4-1.7ZM424.9,147.2c2.5-.1,4.7,2.1,4.8,4.3.1,2.9-2.2,4.7-4.5,4.8-2.9.1-4.7-1.9-4.8-4.3,0-.7,0-1.3.2-1.7.8-1.8,2.4-3,4.3-3.1ZM424.9,139.7c-.1-2.3,1.7-4.6,4.2-4.7,2.3-.1,4.9,1.7,5.1,4.5.1,2.4-1.7,4.6-4.5,4.7-1.8,0-3.7-.8-4.4-2.7-.3-.6-.4-1.2-.5-1.8ZM425,126.7c-.1-2.4,1.6-4.7,4.3-4.8,2.5-.1,4.7,1.5,4.8,4.2.1,2.4-1.4,4.8-4.2,4.9-1.9,0-3.7-.9-4.6-2.8-.1-.4-.3-.8-.3-1.6ZM430.9,184.1c2.3-.1,4.7,1.5,4.8,4.2.1,2.4-1.7,4.8-4.5,4.9-2.3.1-4.7-1.5-4.8-4.3-.1-2,.8-3.4,2.7-4.4.6-.3,1.2-.4,1.8-.5Z"/>
        <path class="st8" d="M468.7,100.8c2.8-.1,4.7,2.2,4.8,4.5.1,2.8-2.2,4.7-4.6,4.8-2.8.1-4.7-2.1-4.8-4.3,0-.5,0-1.1.3-1.7.7-2,2.4-3.1,4.3-3.2ZM469.3,114.5c2.8-.1,4.8,2.2,4.9,4.6.1,2.8-2.1,4.7-4.3,4.8-2.8.1-4.8-2-4.9-4.6,0-.5-.2-1.1.2-1.6.7-2.1,2.1-3.1,4.2-3.2ZM469.9,127.9c2.8-.1,4.8,2.2,4.9,4.6.1,2.8-2.2,4.7-4.5,4.8-2.8.1-4.7-2.2-4.8-4.6,0-.5-.2-1.1.2-1.6.7-2.1,2.1-3.1,4.2-3.2ZM470.6,141c2.8-.1,4.8,2.2,4.9,4.6.1,2.8-2.1,4.7-4.3,4.8-2.8.1-4.8-2.1-4.9-4.6,0-.5-.2-1.1.2-1.6.7-2.1,2.1-3.1,4.2-3.2ZM471.3,154.5c2.8-.1,4.9,1.9,5.1,4.5.1,2.8-2,4.8-4.5,4.9-2.8.1-4.8-2.1-4.9-4.6,0-.5-.2-1.1.2-1.6.7-2.1,2.1-3.1,4.2-3.2ZM472.1,168c2.8-.1,4.8,2.1,4.9,4.3.1,2.8-2.2,4.9-4.6,5.1-2.8.1-4.7-2.3-4.8-4.6,0-.5-.2-1.1.2-1.6.7-2,2.4-3.1,4.3-3.2ZM472.7,180.7c2.8-.1,4.8,2.1,4.9,4.5.1,2.8-2,4.8-4.5,4.9-2.8.1-4.8-2.2-4.9-4.6,0-.5-.2-1.1.2-1.6.7-2,2.4-3.1,4.3-3.2Z"/>
        <path class="st7" d="M509.5,98.7c2.8-.1,4.7,2.1,4.8,4.3.1,2.8-2,4.8-4.6,4.9-2.8.1-4.7-2.1-4.8-4.3,0-.5,0-1.1.3-1.7.5-2,2.4-3.1,4.3-3.2ZM510.1,112.4c2.8-.1,4.8,2.1,4.9,4.5.1,2.8-2,4.8-4.5,4.9-2.8.1-4.8-1.9-4.9-4.5,0-.5,0-1.1.3-1.7.7-2.1,2.1-3.1,4.2-3.2ZM510.8,125.8c2.8-.1,4.8,2.1,4.9,4.5.1,2.8-2,4.8-4.6,4.9-2.8.1-4.7-2.1-4.8-4.5,0-.5,0-1.1.3-1.7.7-2.1,2.1-3.1,4.2-3.2ZM511.4,138.9c2.8-.1,4.8,2.1,4.9,4.5.1,2.8-2,4.8-4.5,4.9-2.8.1-4.8-1.9-4.9-4.5,0-.5,0-1.1.3-1.7.7-2.1,2.1-3.1,4.2-3.2ZM512.1,152.4c2.8-.1,4.8,2,4.9,4.6.1,2.8-2.1,4.7-4.3,4.8-2.8.1-4.9-1.9-5.1-4.5,0-.5,0-1.1.3-1.7.7-2.1,2.1-3.1,4.2-3.2ZM512.9,165.9c2.8-.1,4.7,2.2,4.8,4.5.1,2.8-2,4.8-4.5,4.9-2.8.1-4.8-2-4.9-4.5,0-.5,0-1.1.3-1.7.7-2,2.4-3.1,4.3-3.2ZM513.6,178.7c2.8-.1,4.7,2.2,4.8,4.6.1,2.8-2.1,4.7-4.3,4.8-2.9.1-4.9-2-5.1-4.5,0-.5,0-1.1.3-1.7.7-2,2.4-3.1,4.3-3.2ZM515.4,112.3c-.1-2.4,1.8-4.8,4.6-4.9,2.3-.1,4.7,1.8,4.8,4.6.1,2.3-1.8,4.7-4.6,4.8-2,.1-3.5-.9-4.5-3.2-.1-.5-.3-.8-.3-1.3ZM524.4,122.8c-.1-2.4,1.8-4.8,4.6-4.9,2.3-.1,4.7,1.8,4.8,4.6.1,2.3-1.8,4.7-4.6,4.8-2,.1-3.5-.9-4.5-3.2-.2-.6-.3-1.1-.3-1.3ZM533.1,132.9c-.1-2.3,1.8-4.7,4.6-4.8,2.3-.1,4.7,1.7,4.8,4.5.1,2.4-1.8,4.8-4.6,4.9-2,.1-3.5-.9-4.5-3.2-.2-.6-.3-1.1-.3-1.4ZM541.6,142.8c-.1-2.3,1.7-4.7,4.5-4.8,2.4-.1,4.8,1.8,4.9,4.6.1,2.3-1.7,4.8-4.5,4.9-2,.1-3.7-1.3-4.6-3.3-.2-.6-.3-1.1-.3-1.4ZM550.3,153.3c-.1-2.4,1.8-4.8,4.6-4.9,2.3-.1,4.8,1.7,4.9,4.5.1,2.4-1.8,4.8-4.6,4.9-2.2.1-3.7-.9-4.6-3.1-.1-.5-.3-.8-.3-1.3ZM559,163.4c-.1-2.4,1.8-4.8,4.6-4.9,2.3-.1,4.8,1.8,4.9,4.6.1,2.3-1.8,4.8-4.6,4.9-2,.1-3.7-1.3-4.6-3.1-.2-.6-.3-1.1-.3-1.4ZM567.4,173.2c-.1-2.3,1.7-4.8,4.5-4.9,2.3-.1,4.8,1.9,4.9,4.7.1,2.3-1.8,4.7-4.6,4.8-1.9,0-3.6-1.3-4.5-3.2-.2-.6-.3-1.1-.3-1.4ZM578.5,95.1c2.8-.1,4.7,2.2,4.8,4.6.1,2.8-2.1,4.7-4.5,4.8-2.8.1-4.8-2-4.9-4.5,0-.5,0-1.1.3-1.7.7-2,2.4-3.1,4.3-3.2ZM579.2,108.9c2.8-.1,4.7,2.2,4.8,4.5.1,2.8-2.2,4.7-4.5,4.8-2.8.1-4.7-2.2-4.8-4.5,0-.5-.2-1.1.2-1.6.7-2,2.4-3.1,4.3-3.2ZM579.9,122.3c2.8-.1,4.7,2.2,4.8,4.5.1,2.8-2.2,4.8-4.5,4.9-2.8.1-4.7-2.3-4.8-4.6,0-.5-.2-1.1.2-1.6.7-2,2.4-3.1,4.3-3.2ZM580.6,135.4c2.8-.1,4.7,2.2,4.8,4.5.1,2.8-2.2,4.7-4.5,4.8-2.8.1-4.7-2.2-4.8-4.5,0-.5-.2-1.1.2-1.6.7-2,2.4-3.1,4.3-3.2ZM581.2,148.8c2.8-.1,4.8,2.1,4.9,4.5.1,2.8-2.2,4.8-4.6,4.9-2.8.1-4.7-2.2-4.8-4.5,0-.5-.2-1.1.2-1.6.7-2,2.4-3.3,4.3-3.4ZM581.9,162.3c2.8-.1,4.8,2.1,4.9,4.5.1,2.8-2.1,4.8-4.5,4.9-2.8.1-4.8-2.1-4.9-4.6,0-.5-.2-1.1.2-1.6.8-1.8,2.4-3.1,4.3-3.2ZM582.6,175.1c2.8-.1,4.8,2,4.9,4.5.1,2.8-2.1,4.8-4.5,4.9-2.8.1-4.8-2-4.9-4.6,0-.5-.2-1.1.2-1.6.8-1.8,2.4-3.1,4.3-3.2Z"/>
        <path class="st6" d="M623.4,130.4c.1,2.5-1.7,4.7-4.5,4.8-2.5.1-4.7-1.6-4.8-4.3-.1-2.3,1.4-4.8,4.3-4.9,1.9,0,3.5.9,4.5,2.8.3.6.4,1.2.4,1.7ZM619.7,149.4c-2.9.1-4.7-2.1-4.8-4.5-.1-2.8,1.8-4.7,4.3-4.8,2.8-.1,4.8,1.8,4.9,4.3,0,.6,0,1.2-.3,1.8-.7,2-2.1,3-4.2,3.1ZM627.3,116.6c.1,2.4-1.5,4.7-4.5,4.8-2.3.1-4.7-1.6-4.8-4.5-.1-2.3,1.7-4.7,4.5-4.8,1.8,0,3.8,1,4.5,2.8.2.6.3,1.1.3,1.7ZM625,162.6c-2.8.1-4.8-1.9-4.9-4.3-.1-2.9,2-4.8,4.3-4.9,3-.2,4.8,2,4.9,4.3,0,.5,0,1.1-.2,1.7-.5,1.8-2.4,3.1-4.2,3.2ZM634.6,105.6c.1,2.4-1.8,4.7-4.6,4.8-2.3.1-4.7-1.7-4.8-4.5-.1-2.4,1.7-4.8,4.5-4.9,1.8,0,3.6,1,4.5,2.9.3.6.4,1.2.4,1.7ZM633.2,173c-2.8.1-4.7-2.1-4.8-4.5-.1-2.8,2-4.8,4.3-4.9,2.8-.1,4.9,1.9,5,4.3,0,.6,0,1.2-.3,1.7-.7,2.1-2.4,3.3-4.3,3.4ZM646.1,97.5c.1,2.5-1.7,4.9-4.6,5.1-2,.1-4.7-1.3-4.8-4.6-.1-2.4,2.1-4.8,4.6-4.9,1.9,0,3.7,1,4.4,2.8.3.6.4,1.2.4,1.7ZM645.6,179.9c-2.8.1-4.8-2.3-4.9-4.6-.1-2.8,2.1-4.8,4.3-4.9,2.8-.1,4.9,1.9,5.1,4.5,0,.6,0,1.1-.3,1.7-.5,2-2.3,3.3-4.2,3.4ZM655.5,98.8c-2.8.1-4.9-1.9-5-4.2-.2-3.3,2.2-4.9,4.5-5.1,2.8-.1,4.9,1.9,5.1,4.5,0,.6,0,1.1-.3,1.7-.8,1.8-2.4,3-4.2,3.1ZM664.2,177c.1,2.5-1.7,4.8-4.6,4.9-2.3.1-4.8-1.6-4.9-4.3-.1-2.4,1.8-4.8,4.6-4.9,1.8,0,3.5.9,4.5,2.7.3.6.4,1.2.4,1.7ZM667,130.3c2.8-.1,4.8,1.9,4.9,4.3.1,2.8-2,4.8-4.6,4.9-2.8.1-4.6-1.9-4.7-4.4,0-.8,0-1.5.1-1.8.5-1.8,2.3-3,4.2-3.1ZM670,100c-2.8.1-5.1-2.2-5.2-4.4-.2-3.3,2.4-4.8,4.5-4.9,3-.2,4.8,2.2,4.9,4.5,0,.5,0,1.1-.2,1.7-.5,1.8-2.3,3.1-4.1,3.2ZM678.3,174.4c.1,2.4-1.6,4.9-4.5,5.1-2,.1-4.8-1.3-4.9-4.6-.1-2.3,1.8-4.8,4.6-4.9,1.8,0,3.6,1,4.5,2.8.2.6.3,1.1.3,1.7ZM680.6,129.6c2.8-.1,4.7,2.1,4.8,4.3.1,2.8-2.1,4.8-4.5,4.9-2.9.1-4.7-2.1-4.8-4.3,0-.8,0-1.5.1-1.8.5-1.8,2.4-3,4.3-3.1ZM682.4,105.8c-2.8.1-4.6-2.2-4.7-4.5-.1-2.8,2-4.8,4.5-4.9,2.8-.1,4.8,2.2,4.9,4.6,0,.6,0,1.1-.3,1.6-.8,1.8-2.5,3.1-4.4,3.2ZM690.5,167.4c.1,2.3-1.7,4.8-4.5,4.9-2.4.1-4.8-1.7-4.9-4.5-.1-2.3,1.7-4.8,4.5-4.9,1.8,0,3.6,1,4.5,2.8.3.6.4,1.2.4,1.7ZM693,115.4c-2.8.1-4.7-1.9-4.8-4.3-.1-2.8,2-4.9,4.3-5,2.9-.1,4.8,2.2,4.9,4.5,0,.5,0,1.1-.2,1.7-.5,1.8-2.4,3.1-4.3,3.2ZM694.2,128.9c2.9-.1,4.7,2.2,4.8,4.5.1,2.8-1.8,4.7-4.6,4.8-2.8.1-4.6-1.8-4.7-4.2,0-.6,0-1.2.3-1.9.5-1.8,2.3-3,4.2-3.1ZM699.7,146.1c.1,2.3-1.4,4.8-4.3,4.9-2.5.1-4.8-1.7-4.9-4.5-.1-2.4,1.6-4.8,4.3-4.9,1.9,0,3.7,1,4.6,2.8.2.6.3,1.1.3,1.7ZM700.3,159.2c.1,2.4-1.5,4.7-4.5,4.8-2.3.1-4.7-1.6-4.8-4.5-.1-2.5,1.7-4.7,4.5-4.8,1.8,0,3.8,1,4.5,2.8.2.6.3,1.1.3,1.7Z"/>
      </g>
      <text class="st9" transform="translate(316.3 274.7)"><tspan class="st17" x="0" y="0">JUNE</tspan><tspan class="st10" x="86" y="0" xml:space="preserve"> 2025</tspan></text>
      <g class="st13">
        <path class="st15" d="M175.3,128.5c2.9-.1,4.9,1.9,5.1,4.5.2,3-2,4.9-4.6,5.1-2.9.1-4.8-1.9-4.9-4.2,0-.6,0-1.3.3-2.1.5-1.8,2.3-3.1,4.2-3.2ZM178.1,141.9c3-.2,5,1.9,5.2,4.2.2,3.3-2.5,5.3-4.8,5.4-3,.2-4.9-2-5-4.3,0-.8,0-1.3.4-2,.7-2,2.4-3.3,4.3-3.4ZM179.7,190c2.9-.1,5,1.9,5.2,4.4.1,2.8-2,5.1-4.4,5.2-3,.2-5.2-2.2-5.3-4.6,0-.6,0-1.2.3-1.8.8-1.8,2.4-3.1,4.3-3.2ZM184.3,117.3c2.8-.1,4.9,2,5,4.3.2,3.3-2.1,5.3-4.4,5.4-3.3.2-5.1-2.3-5.2-4.6,0-.6,0-1.2.3-1.8.7-2,2.4-3.3,4.3-3.4ZM190.1,150.1c2.8-.1,4.8,1.9,4.9,4.3.1,2.9-1.7,4.9-4.5,5.1-2.9.1-4.9-2-5.1-4.5,0-.5,0-1.1.3-1.7.5-2,2.4-3.1,4.3-3.2ZM193.8,195.2c2.8-.1,4.9,2.2,5.1,4.6.1,2.9-2.2,5.1-4.4,5.2-2.8.1-4.9-1.8-5-4.2,0-.8,0-1.6.4-2.2.5-1.8,2.1-3.2,4.1-3.3ZM198.7,113.1c2.5-.1,4.7,1.9,4.8,4.3.1,2.8-1.9,5-4.7,5.2-2.8.1-4.8-2.1-4.9-4.5,0-.6,0-1.2.3-1.8.7-2,2.5-3.1,4.5-3.2ZM204.7,153.3c2.8-.1,5,1.9,5.2,4.3.1,2.5-2,4.9-4.6,5.1-2.8.1-4.8-1.8-4.9-4.2,0-.6,0-1.2.3-1.8.5-2.3,2.1-3.2,4.1-3.3ZM209.6,196.1c2.8-.1,4.7,2.1,4.8,4.6.1,2.9-2.2,4.8-4.7,4.9-2.8.1-4.8-1.9-4.9-4.3,0-.6,0-1.2.3-1.8.7-2,2.5-3.3,4.5-3.4ZM212.8,113.7c2.8-.1,4.7,2.1,4.8,4.5.1,2.8-1.9,5-4.3,5.2-2.8.1-4.9-1.9-5-4.3,0-.6,0-1.2.3-1.8.7-2.1,2.4-3.4,4.3-3.5ZM219.1,157.4c3-.2,4.8,2.2,4.9,4.2.2,3-1.9,5.2-4.7,5.3-2.8.1-4.7-2.1-4.8-4.6,0-.6,0-1.2.3-1.8.8-1.8,2.4-3,4.3-3.1ZM223.9,191.1c2.8-.1,4.7,2.1,4.8,4.6.1,2.8-1.9,5-4.7,5.2-2.8.1-4.7-2.1-4.8-4.6,0-.6,0-1.2.3-1.8.5-2,2.4-3.3,4.4-3.4ZM226.5,120.2c3.3-.2,5.2,2.2,5.3,4.4.1,2.9-2.2,4.9-4.7,5.1-2.9.1-4.8-2.1-4.9-4.5,0-.7,0-1.3.2-1.7.7-2.1,2.1-3.2,4.2-3.4ZM230.5,165.8c2.9-.1,4.9,2,5.1,4.5.1,2.9-1.8,5-4.6,5.2-2.9.1-4.9-1.8-5-4.3,0-.6,0-1.3.3-2.1.5-1.8,2.3-3.1,4.3-3.2ZM232.9,179.3c2.8-.1,4.9,1.9,5,4.3.1,2.8-1.7,5.2-4.4,5.3-3.3.2-5.2-2-5.3-4.4,0-.6,0-1.2.3-1.8.7-2,2.5-3.3,4.4-3.4Z"/>
        <path class="st15" d="M269,111.6c2.8-.1,4.8,2.1,4.9,4.3.1,2.9-2.1,4.8-4.5,4.9-2.9.1-4.8-1.9-4.9-4.5,0-.5-.2-1.1.2-1.6.7-2,2.5-3.1,4.3-3.2ZM269.8,124.7c2.8-.1,4.7,2.1,4.8,4.3.1,2.8-1.9,4.9-4.5,5.1-2.8.1-4.8-2.2-4.9-4.5,0-.5,0-1.1.3-1.7.7-2,2.4-3.1,4.3-3.2ZM270.4,138.8c2.8-.1,4.8,2.1,4.9,4.3.1,2.8-2,4.9-4.5,5.1-2.8.1-4.8-2.2-4.9-4.5,0-.5,0-1.1.3-1.7.7-2,2.4-3.1,4.2-3.2ZM270.9,151.9c2.8-.1,4.9,1.9,5,4.3.1,2.8-1.9,4.9-4.5,5.1-2.8.1-4.8-1.9-4.9-4.5,0-.5,0-1.1.3-1.7.7-2.1,2-3.1,4.1-3.2ZM271.8,165.4c2.8-.1,4.7,2.1,4.8,4.3.1,2.8-1.9,4.9-4.5,5.1-2.8.1-4.8-2-4.9-4.5,0-.5,0-1.1.3-1.7.7-2,2.5-3.1,4.3-3.2ZM272.5,178.9c2.8-.1,4.7,1.9,4.8,4.2.1,2.9-2,4.9-4.6,5.1-2.8.1-4.7-1.9-4.8-4.3,0-.5,0-1.1.3-1.7.7-2,2.4-3.1,4.3-3.2ZM273,191.7c2.8-.1,4.8,1.9,4.9,4.3.1,2.8-1.8,4.9-4.6,5.1-2.8.1-4.7-2.2-4.8-4.5,0-.5,0-1.1.3-1.7.8-1.8,2.4-3.1,4.2-3.2ZM278.2,115.2c-.1-2.5,1.7-4.9,4.5-5.1,2.4-.1,4.7,1.7,4.8,4.5.1,2.3-1.4,4.8-4.3,4.9-1.9,0-3.7-.9-4.6-2.8-.4-.5-.3-1.1-.3-1.6ZM290.2,169.1c.1,2.8-1.8,4.8-4.2,4.9-2.8.1-5-1.6-5.2-4.4-.1-2.8,1.8-4.8,4.6-4.9,2.4,0,4.7,1.9,4.8,4.5ZM291.5,113.9c-.1-2.8,1.7-4.7,4.2-4.8,2.5-.1,5,1.3,5.2,4.2.1,2.4-1.7,4.8-4.6,4.9-2,.1-3.4-.8-4.4-2.7-.3-.5-.4-1.1-.4-1.7ZM299.9,164c2.9-.1,4.7,2.2,4.8,4.5.1,2.8-1.9,4.8-4.3,4.9-2.9.1-4.8-2.2-4.9-4.6,0-.5-.2-1.1.2-1.6.7-2,2.4-3.1,4.3-3.2ZM305.3,114.6c-.1-2.5,1.6-4.9,4.3-5,2.5-.1,4.9,1.7,5.1,4.6.1,2.5-1.6,4.5-4.4,4.7-1.9,0-3.8-.8-4.7-2.7-.4-.5-.3-1.1-.3-1.6ZM313.4,160.9c2.8-.1,4.9,2,5.1,4.6.1,2.8-2.1,4.7-4.3,4.8-3,.2-4.8-2.2-4.9-4.6,0-.5-.2-1.1.2-1.6.5-1.8,2.3-3.1,4.1-3.2ZM317.1,120.4c-.1-2.3,1.6-4.8,4.5-4.9,2.3-.1,4.8,1.7,4.9,4.5.1,2.4-1.8,4.8-4.6,4.9-1.8,0-3.6-1-4.5-2.8-.1-.4-.3-.8-.3-1.7ZM324.2,152.8c2.9-.1,4.7,2.2,4.8,4.5.1,2.9-2.1,4.7-4.5,4.8-2.8.1-4.8-1.9-4.9-4.3,0-.5,0-1.1.3-1.7.7-2,2.4-3.1,4.3-3.2ZM324.2,145.5c-.1-2.3,1.4-4.8,4.3-4.9,2.3-.1,4.9,1.7,5.1,4.5.1,2.4-1.7,4.7-4.5,4.8-1.9,0-3.7-.8-4.6-2.7-.1-.4-.3-1-.3-1.7ZM324.2,132c-.1-2.3,1.6-4.7,4.3-4.8,2.4-.1,4.9,1.6,5.1,4.5.1,2.4-1.7,4.8-4.5,4.9-1.9,0-3.8-1-4.5-2.9-.3-.5-.4-1.1-.4-1.7Z"/>
        <path class="st15" d="M366.3,107.1c2.8-.1,4.7,2.2,4.8,4.6.1,2.8-2.1,4.6-4.4,4.7-2.9.1-4.7-2.1-4.8-4.3,0-.7,0-1.3.2-1.7.5-1.8,2.3-3.1,4.2-3.2ZM367,120.9c2.8-.1,4.7,2.1,4.8,4.3.1,2.8-1.8,4.8-4.2,4.9-2.8.1-4.8-2.1-4.9-4.6,0-.5-.2-1.1.2-1.6.8-1.8,2.3-3,4.2-3.1ZM367.7,134.1c2.9-.1,4.7,1.9,4.8,4.3.1,2.8-2.1,4.7-4.3,4.8-2.8.1-4.7-2.1-4.8-4.3,0-.7,0-1.2.2-1.6.7-2,2.4-3.1,4.2-3.2ZM368.3,147c2.8-.1,4.7,2.1,4.8,4.3.1,2.8-1.8,4.8-4.2,4.9-2.8.1-4.8-2.1-4.9-4.5s-.2-1.1.2-1.6c.7-2.1,2.1-3.1,4.2-3.2ZM369.1,160.3c2.8-.1,4.6,1.8,4.7,4.3.1,2.8-2.1,4.7-4.3,4.8-2.8.1-4.7-2.1-4.8-4.3,0-.7,0-1.2.2-1.6.7-2,2.4-3.1,4.3-3.2ZM369.8,174c2.8-.1,4.6,1.8,4.7,4.4.1,2.8-2.1,4.7-4.3,4.8-2.8.1-4.7-2.1-4.8-4.3,0-.7,0-1.2.2-1.6.7-2,2.4-3.1,4.3-3.2ZM370.5,186.8c2.8-.1,4.6,1.8,4.7,4.4.1,2.8-2.1,4.7-4.3,4.8-2.8.1-4.7-2.1-4.8-4.3,0-.7,0-1.2.2-1.6.7-2,2.4-3.1,4.3-3.2ZM375.4,110.6c-.1-2.3,1.5-4.7,4.2-4.8,2.4-.1,4.9,1.6,5,4.3.1,2.4-1.7,4.8-4.5,4.9-1.8,0-3.6-1-4.5-2.8-.1-.4-.3-.8-.3-1.7ZM387.2,163.7c.1,2.9-1.6,4.9-4.1,5-2.8.1-4.9-1.4-5-4.3-.1-2.8,1.9-4.7,4.3-4.8,2.8,0,4.7,1.7,4.8,4.1ZM388.7,110.1c-.1-2.3,1.6-4.8,4.3-4.9,2.3-.1,4.8,1.4,4.9,4.2.1,2.5-1.7,4.9-4.5,5.1-1.8,0-3.6-1-4.5-2.8-.4-.5-.3-1.1-.3-1.6ZM396.8,158.9c2.8-.1,4.7,2.1,4.8,4.3.1,2.8-2.2,4.7-4.5,4.8-2.8.1-4.6-2.1-4.7-4.4,0-.5-.2-1.1.2-1.6.5-2,2.3-3.1,4.2-3.2ZM402.2,110c-.1-2.3,1.6-4.8,4.3-4.9,2.3-.1,4.8,1.7,4.9,4.5.1,2.3-1.5,4.7-4.5,4.8-1.8,0-3.7-.8-4.4-2.7-.3-.6-.4-1.1-.4-1.7ZM406.9,167.8c2.4-.1,4.8,1.7,4.9,4.5.1,2.3-1.6,4.7-4.3,4.8-2.3.1-4.7-1.7-4.8-4.5,0-1.8.8-3.4,2.6-4.4.6-.3,1.1-.4,1.7-.4ZM410.2,155.7c2.8-.1,4.8,2.2,4.9,4.5.1,2.5-1.9,4.7-4.3,4.8-2.8.1-4.8-1.9-4.9-4.3,0-.5,0-1.1.3-1.7.5-1.8,2.3-3.1,4.1-3.2ZM417,176.3c2.4-.1,4.8,1.7,4.9,4.5.1,2.4-1.6,4.7-4.3,4.8-2.4.1-4.8-1.7-4.9-4.5,0-1.9.8-3.4,2.7-4.4.6-.3,1.1-.4,1.7-.4ZM413.7,115.9c-.1-2.4,1.7-4.8,4.5-4.9,2.4-.1,4.7,1.7,4.8,4.5.1,2.4-1.7,4.7-4.5,4.8-1.8,0-3.7-.9-4.4-2.7-.3-.6-.4-1.1-.4-1.7ZM420.8,147.9c2.5-.1,4.7,2.1,4.8,4.3.1,2.9-2.2,4.7-4.5,4.8-2.9.1-4.7-1.9-4.8-4.3,0-.7,0-1.3.2-1.7.8-1.8,2.4-3,4.3-3.1ZM420.8,140.5c-.1-2.3,1.7-4.6,4.2-4.7,2.3-.1,4.9,1.7,5.1,4.5.1,2.4-1.7,4.6-4.5,4.7-1.8,0-3.7-.8-4.4-2.7-.3-.6-.4-1.2-.5-1.8ZM420.8,127.4c-.1-2.4,1.6-4.7,4.3-4.8,2.5-.1,4.7,1.5,4.8,4.2.1,2.4-1.4,4.8-4.2,4.9-1.9,0-3.7-.9-4.6-2.8-.1-.4-.3-.8-.3-1.6ZM426.8,184.8c2.3-.1,4.7,1.5,4.8,4.2.1,2.4-1.7,4.8-4.5,4.9-2.3.1-4.7-1.5-4.8-4.3-.1-2,.8-3.4,2.7-4.4.6-.3,1.2-.4,1.8-.5Z"/>
        <path class="st15" d="M464.5,101.5c2.8-.1,4.7,2.2,4.8,4.5.1,2.8-2.2,4.7-4.6,4.8-2.8.1-4.7-2.1-4.8-4.3,0-.5,0-1.1.3-1.7.7-2,2.4-3.1,4.3-3.2ZM465.1,115.3c2.8-.1,4.8,2.2,4.9,4.6.1,2.8-2.1,4.7-4.3,4.8-2.8.1-4.8-2-4.9-4.6,0-.5-.2-1.1.2-1.6.7-2.1,2.1-3.1,4.2-3.2ZM465.8,128.6c2.8-.1,4.8,2.2,4.9,4.6.1,2.8-2.2,4.7-4.5,4.8-2.8.1-4.7-2.2-4.8-4.6,0-.5-.2-1.1.2-1.6.7-2.1,2.1-3.1,4.2-3.2ZM466.5,141.8c2.8-.1,4.8,2.2,4.9,4.6.1,2.8-2.1,4.7-4.3,4.8-2.8.1-4.8-2.1-4.9-4.6,0-.5-.2-1.1.2-1.6.7-2.1,2.1-3.1,4.2-3.2ZM467.1,155.3c2.8-.1,4.9,1.9,5.1,4.5.1,2.8-2,4.8-4.5,4.9-2.8.1-4.8-2.1-4.9-4.6,0-.5-.2-1.1.2-1.6.7-2.1,2.1-3.1,4.2-3.2ZM468,168.7c2.8-.1,4.8,2.1,4.9,4.3.1,2.8-2.2,4.9-4.6,5.1-2.8.1-4.7-2.3-4.8-4.6,0-.5-.2-1.1.2-1.6.7-2,2.4-3.1,4.3-3.2ZM468.6,181.5c2.8-.1,4.8,2.1,4.9,4.5.1,2.8-2,4.8-4.5,4.9-2.8.1-4.8-2.2-4.9-4.6s-.2-1.1.2-1.6c.7-2,2.4-3.1,4.3-3.2Z"/>
        <path class="st15" d="M505.4,99.5c2.8-.1,4.7,2.1,4.8,4.3.1,2.8-2,4.8-4.6,4.9-2.8.1-4.7-2.1-4.8-4.3,0-.5,0-1.1.3-1.7.5-2,2.4-3.1,4.3-3.2ZM505.9,113.2c2.8-.1,4.8,2.1,4.9,4.5.1,2.8-2,4.8-4.5,4.9-2.8.1-4.8-1.9-4.9-4.5,0-.5,0-1.1.3-1.7.7-2.1,2.1-3.1,4.2-3.2ZM506.6,126.6c2.8-.1,4.8,2.1,4.9,4.5.1,2.8-2,4.8-4.6,4.9-2.8.1-4.7-2.1-4.8-4.5,0-.5,0-1.1.3-1.7.7-2.1,2.1-3.1,4.2-3.2ZM507.3,139.7c2.8-.1,4.8,2.1,4.9,4.5.1,2.8-2,4.8-4.5,4.9-2.8.1-4.8-1.9-4.9-4.5,0-.5,0-1.1.3-1.7.7-2.1,2.1-3.1,4.2-3.2ZM508,153.2c2.8-.1,4.8,2,4.9,4.6.1,2.8-2.1,4.7-4.3,4.8-2.8.1-4.9-1.9-5.1-4.5,0-.5,0-1.1.3-1.7.7-2.1,2.1-3.1,4.2-3.2ZM508.8,166.7c2.8-.1,4.7,2.2,4.8,4.5.1,2.8-2,4.8-4.5,4.9-2.8.1-4.8-2-4.9-4.5,0-.5,0-1.1.3-1.7.7-2,2.4-3.1,4.3-3.2ZM509.4,179.4c2.8-.1,4.7,2.2,4.8,4.6.1,2.8-2.1,4.7-4.3,4.8-2.9.1-4.9-2-5.1-4.5,0-.5,0-1.1.3-1.7.7-2,2.4-3.1,4.3-3.2ZM511.3,113.1c-.1-2.4,1.8-4.8,4.6-4.9,2.3-.1,4.7,1.8,4.8,4.6.1,2.3-1.8,4.7-4.6,4.8-2,.1-3.5-.9-4.5-3.2-.1-.5-.3-.8-.3-1.3ZM520.2,123.6c-.1-2.4,1.8-4.8,4.6-4.9,2.3-.1,4.7,1.8,4.8,4.6.1,2.3-1.8,4.7-4.6,4.8-2,.1-3.5-.9-4.5-3.2-.2-.6-.3-1.1-.3-1.3ZM529,133.6c-.1-2.3,1.8-4.7,4.6-4.8,2.3-.1,4.7,1.7,4.8,4.5.1,2.4-1.8,4.8-4.6,4.9-2,.1-3.5-.9-4.5-3.2-.2-.6-.3-1.1-.3-1.4ZM537.4,143.6c-.1-2.3,1.7-4.7,4.5-4.8,2.4-.1,4.8,1.8,4.9,4.6.1,2.3-1.7,4.8-4.5,4.9-2,.1-3.7-1.3-4.6-3.3-.2-.6-.3-1.1-.3-1.4ZM546.2,154c-.1-2.4,1.8-4.8,4.6-4.9,2.3-.1,4.8,1.7,4.9,4.5.1,2.4-1.8,4.8-4.6,4.9-2.2.1-3.7-.9-4.6-3.1-.1-.5-.3-.8-.3-1.3ZM554.9,164.2c-.1-2.4,1.8-4.8,4.6-4.9,2.3-.1,4.8,1.8,4.9,4.6.1,2.3-1.8,4.8-4.6,4.9-2,.1-3.7-1.3-4.6-3.1-.2-.6-.3-1.1-.3-1.4ZM563.2,173.9c-.1-2.3,1.7-4.8,4.5-4.9,2.3-.1,4.8,1.9,4.9,4.7.1,2.3-1.8,4.7-4.6,4.8-1.9,0-3.6-1.3-4.5-3.2-.2-.6-.3-1.1-.3-1.4ZM574.4,95.8c2.8-.1,4.7,2.2,4.8,4.6.1,2.8-2.1,4.7-4.5,4.8-2.8.1-4.8-2-4.9-4.5,0-.5,0-1.1.3-1.7.7-2,2.4-3.1,4.3-3.2ZM575.1,109.7c2.8-.1,4.7,2.2,4.8,4.5.1,2.8-2.2,4.7-4.5,4.8-2.8.1-4.7-2.2-4.8-4.5,0-.5-.2-1.1.2-1.6.7-2,2.4-3.1,4.3-3.2ZM575.8,123.1c2.8-.1,4.7,2.2,4.8,4.5.1,2.8-2.2,4.8-4.5,4.9-2.8.1-4.7-2.3-4.8-4.6,0-.5-.2-1.1.2-1.6.7-2,2.4-3.1,4.3-3.2ZM576.4,136.2c2.8-.1,4.7,2.2,4.8,4.5.1,2.8-2.2,4.7-4.5,4.8-2.8.1-4.7-2.2-4.8-4.5,0-.5-.2-1.1.2-1.6.7-2,2.4-3.1,4.3-3.2ZM577.1,149.6c2.8-.1,4.8,2.1,4.9,4.5.1,2.8-2.2,4.8-4.6,4.9-2.8.1-4.7-2.2-4.8-4.5,0-.5-.2-1.1.2-1.6.7-2,2.4-3.3,4.3-3.4ZM577.8,163c2.8-.1,4.8,2.1,4.9,4.5.1,2.8-2.1,4.8-4.5,4.9-2.8.1-4.8-2.1-4.9-4.6,0-.5-.2-1.1.2-1.6.8-1.8,2.4-3.1,4.3-3.2ZM578.4,175.8c2.8-.1,4.8,2,4.9,4.5.1,2.8-2.1,4.8-4.5,4.9-2.8.1-4.8-2-4.9-4.6,0-.5-.2-1.1.2-1.6.8-1.8,2.4-3.1,4.3-3.2Z"/>
        <path class="st15" d="M619.3,131.1c.1,2.5-1.7,4.7-4.5,4.8-2.5.1-4.7-1.6-4.8-4.3-.1-2.3,1.4-4.8,4.3-4.9,1.9,0,3.5.9,4.5,2.8.3.6.4,1.2.4,1.7ZM615.5,150.1c-2.9.1-4.7-2.1-4.8-4.5-.1-2.8,1.8-4.7,4.3-4.8,2.8-.1,4.8,1.8,4.9,4.3,0,.6,0,1.2-.3,1.8-.7,2-2.1,3-4.2,3.1ZM623.2,117.4c.1,2.4-1.5,4.7-4.5,4.8-2.3.1-4.7-1.6-4.8-4.5-.1-2.3,1.7-4.7,4.5-4.8,1.8,0,3.8,1,4.5,2.8.2.6.3,1.1.3,1.7ZM620.9,163.4c-2.8.1-4.8-1.9-4.9-4.3-.1-2.9,2-4.8,4.3-4.9,3-.2,4.8,2,4.9,4.3,0,.5,0,1.1-.2,1.7-.5,1.8-2.4,3.1-4.2,3.2ZM630.4,106.4c.1,2.4-1.8,4.7-4.6,4.8-2.3.1-4.7-1.7-4.8-4.5-.1-2.4,1.7-4.8,4.5-4.9,1.8,0,3.6,1,4.5,2.9.3.6.4,1.2.4,1.7ZM629,173.7c-2.8.1-4.7-2.1-4.8-4.5-.1-2.8,2-4.8,4.3-4.9,2.8-.1,4.9,1.9,5,4.3,0,.6,0,1.2-.3,1.7-.7,2.1-2.4,3.3-4.3,3.4ZM642,98.2c.1,2.5-1.7,4.9-4.6,5.1-2,.1-4.7-1.3-4.8-4.6-.1-2.4,2.1-4.8,4.6-4.9,1.9,0,3.7,1,4.4,2.8.3.6.4,1.2.4,1.7ZM641.5,180.7c-2.8.1-4.8-2.3-4.9-4.6-.1-2.8,2.1-4.8,4.3-4.9,2.8-.1,4.9,1.9,5.1,4.5,0,.6,0,1.1-.3,1.7-.5,2-2.3,3.3-4.2,3.4ZM651.4,99.6c-2.8.1-4.9-1.9-5-4.2-.2-3.3,2.2-4.9,4.5-5.1,2.8-.1,4.9,1.9,5.1,4.5,0,.6,0,1.1-.3,1.7-.8,1.8-2.4,3-4.2,3.1ZM660,177.7c.1,2.5-1.7,4.8-4.6,4.9-2.3.1-4.8-1.6-4.9-4.3-.1-2.4,1.8-4.8,4.6-4.9,1.8,0,3.5.9,4.5,2.7.3.6.4,1.2.4,1.7ZM662.9,131.1c2.8-.1,4.8,1.9,4.9,4.3.1,2.8-2,4.8-4.6,4.9-2.8.1-4.6-1.9-4.7-4.4,0-.8,0-1.5.1-1.8.5-1.8,2.3-3,4.2-3.1ZM665.9,100.7c-2.8.1-5.1-2.2-5.2-4.4-.2-3.3,2.4-4.8,4.5-4.9,3-.2,4.8,2.2,4.9,4.5,0,.5,0,1.1-.2,1.7-.5,1.8-2.3,3.1-4.1,3.2ZM674.1,175.2c.1,2.4-1.6,4.9-4.5,5.1-2,.1-4.8-1.3-4.9-4.6-.1-2.3,1.8-4.8,4.6-4.9,1.8,0,3.6,1,4.5,2.8.2.6.3,1.1.3,1.7ZM676.5,130.4c2.8-.1,4.7,2.1,4.8,4.3.1,2.8-2.1,4.8-4.5,4.9-2.9.1-4.7-2.1-4.8-4.3,0-.8,0-1.5.1-1.8.5-1.8,2.4-3,4.3-3.1ZM678.3,106.5c-2.8.1-4.6-2.2-4.7-4.5-.1-2.8,2-4.8,4.5-4.9,2.8-.1,4.8,2.2,4.9,4.6,0,.6,0,1.1-.3,1.6-.8,1.8-2.5,3.1-4.4,3.2ZM686.3,168.2c.1,2.3-1.7,4.8-4.5,4.9-2.4.1-4.8-1.7-4.9-4.5-.1-2.3,1.7-4.8,4.5-4.9,1.8,0,3.6,1,4.5,2.8.3.6.4,1.2.4,1.7ZM688.9,116.1c-2.8.1-4.7-1.9-4.8-4.3-.1-2.8,2-4.9,4.3-5,2.9-.1,4.8,2.2,4.9,4.5,0,.5,0,1.1-.2,1.7-.5,1.8-2.4,3.1-4.3,3.2ZM690.1,129.7c2.9-.1,4.7,2.2,4.8,4.5.1,2.8-1.8,4.7-4.6,4.8-2.8.1-4.6-1.8-4.7-4.2,0-.6,0-1.2.3-1.9.5-1.8,2.3-3,4.2-3.1ZM695.5,146.8c.1,2.3-1.4,4.8-4.3,4.9-2.5.1-4.8-1.7-4.9-4.5-.1-2.4,1.6-4.8,4.3-4.9,1.9,0,3.7,1,4.6,2.8.2.6.3,1.1.3,1.7ZM696.2,159.9c.1,2.4-1.5,4.7-4.5,4.8-2.3.1-4.7-1.6-4.8-4.5-.1-2.5,1.7-4.7,4.5-4.8,1.8,0,3.8,1,4.5,2.8.2.6.3,1.1.3,1.7Z"/>
      </g>
    </g>
  </g>
</svg>