<?xml version="1.0" encoding="UTF-8"?>
<svg xmlns="http://www.w3.org/2000/svg" xmlns:xlink="http://www.w3.org/1999/xlink" version="1.1" viewBox="0 0 848.9 369.9">
  <!-- Generator: Adobe Illustrator 29.1.0, SVG Export Plug-In . SVG Version: 2.1.0 Build 142)  -->
  <defs>
    <style>
      .st0, .st1, .st2 {
        fill: none;
      }

      .st1 {
        stroke: #faa133;
        stroke-linejoin: round;
        stroke-width: 8.5px;
      }

      .st1, .st2 {
        stroke-linecap: round;
      }

      .st3 {
        font-family: Acrom-ExtraBold, Acrom;
        font-size: 24.2px;
        font-weight: 700;
        letter-spacing: .2em;
      }

      .st4 {
        fill: #1a1818;
      }

      .st5 {
        fill: url(#linear-gradient);
      }

      .st6 {
        fill: #d3d5d6;
        font-family: AquaGrotesque, 'Aqua Grotesque';
        font-size: 14.8px;
      }

      .st7 {
        fill: #ec431f;
      }

      .st2 {
        stroke: #fff;
        stroke-dasharray: 10.5 2.6;
        stroke-miterlimit: 10;
        stroke-width: .9px;
      }

      .st8 {
        fill: #eeeeef;
      }

      .st9 {
        fill: url(#New_Gradient_Swatch_3);
      }

      .st10 {
        fill: url(#New_Gradient_Swatch_2);
      }

      .st11 {
        fill: url(#New_Pattern_6);
        opacity: .7;
      }
    </style>
    <pattern id="New_Pattern_6" data-name="New Pattern 6" x="0" y="0" width="559.2" height="268.3" patternTransform="translate(2599.6 -4164.2) rotate(-15)" patternUnits="userSpaceOnUse" viewBox="0 0 559.2 268.3">
      <g>
        <rect class="st0" width="559.2" height="268.3"/>
        <g>
          <text class="st6" transform="translate(279.9 267.5)"><tspan x="0" y="0">OIIIOIOIIOOOOIIOIOIOIIIIIOIOOIOOIOIIOOIIOOIIIOIOIIOOOOIOIOIOIOIIOIO</tspan></text>
          <text class="st6" transform="translate(838 269.1) rotate(-180)"><tspan x="0" y="0">IIIOOIIOOIIIOIIOIOIOIIIIIOIOIOOIOOIOIIOOIIOOIIIOIOIIOOOOIOIOIOIOIIOIO</tspan></text>
        </g>
        <g>
          <text class="st6" transform="translate(-279.3 267.5)"><tspan x="0" y="0">OIIIOIOIIOOOOIIOIOIOIIIIIOIOOIOOIOIIOOIIOOIIIOIOIIOOOOIOIOIOIOIIOIO</tspan></text>
          <text class="st6" transform="translate(278.8 269.1) rotate(-180)"><tspan x="0" y="0">IIIOOIIOOIIIOIIOIOIOIIIIIOIOIOOIOOIOIIOOIIOOIIIOIOIIOOOOIOIOIOIOIIOIO</tspan></text>
        </g>
        <g>
          <text class="st6" transform="translate(.3 240.6)"><tspan x="0" y="0">OIIIOIOIIOOOOIIOIOIOIIIIIOIOOIOOIOIIOOIIOOIIIOIOIIOOOOIOIOIOIOIIOIO</tspan></text>
          <text class="st6" transform="translate(558.4 242.3) rotate(-180)"><tspan x="0" y="0">IIIOOIIOOIIIOIIOIOIOIIIIIOIOIOOIOOIOIIOOIIOOIIIOIOIIOOOOIOIOIOIOIIOIO</tspan></text>
        </g>
        <text class="st6" transform="translate(-558.9 240.6)"><tspan x="0" y="0">OIIIOIOIIOOOOIIOIOIOIIIIIOIOOIOOIOIIOOIIOOIIIOIOIIOOOOIOIOIOIOIIOIO</tspan></text>
        <g>
          <text class="st6" transform="translate(279.9 213.8)"><tspan x="0" y="0">OIIIOIOIIOOOOIIOIOIOIIIIIOIOOIOOIOIIOOIIOOIIIOIOIIOOOOIOIOIOIOIIOIO</tspan></text>
          <text class="st6" transform="translate(838 215.4) rotate(-180)"><tspan x="0" y="0">IIIOOIIOOIIIOIIOIOIOIIIIIOIOIOOIOOIOIIOOIIOOIIIOIOIIOOOOIOIOIOIOIIOIO</tspan></text>
        </g>
        <g>
          <text class="st6" transform="translate(-279.3 213.8)"><tspan x="0" y="0">OIIIOIOIIOOOOIIOIOIOIIIIIOIOOIOOIOIIOOIIOOIIIOIOIIOOOOIOIOIOIOIIOIO</tspan></text>
          <text class="st6" transform="translate(278.8 215.4) rotate(-180)"><tspan x="0" y="0">IIIOOIIOOIIIOIIOIOIOIIIIIOIOIOOIOOIOIIOOIIOOIIIOIOIIOOOOIOIOIOIOIIOIO</tspan></text>
        </g>
        <g>
          <text class="st6" transform="translate(.3 187)"><tspan x="0" y="0">OIIIOIOIIOOOOIIOIOIOIIIIIOIOOIOOIOIIOOIIOOIIIOIOIIOOOOIOIOIOIOIIOIO</tspan></text>
          <text class="st6" transform="translate(558.4 188.6) rotate(-180)"><tspan x="0" y="0">IIIOOIIOOIIIOIIOIOIOIIIIIOIOIOOIOOIOIIOOIIOOIIIOIOIIOOOOIOIOIOIOIIOIO</tspan></text>
        </g>
        <text class="st6" transform="translate(-558.9 187)"><tspan x="0" y="0">OIIIOIOIIOOOOIIOIOIOIIIIIOIOOIOOIOIIOOIIOOIIIOIOIIOOOOIOIOIOIOIIOIO</tspan></text>
        <g>
          <text class="st6" transform="translate(279.9 160.2)"><tspan x="0" y="0">OIIIOIOIIOOOOIIOIOIOIIIIIOIOOIOOIOIIOOIIOOIIIOIOIIOOOOIOIOIOIOIIOIO</tspan></text>
          <text class="st6" transform="translate(838 161.8) rotate(-180)"><tspan x="0" y="0">IIIOOIIOOIIIOIIOIOIOIIIIIOIOIOOIOOIOIIOOIIOOIIIOIOIIOOOOIOIOIOIOIIOIO</tspan></text>
        </g>
        <g>
          <text class="st6" transform="translate(-279.3 160.2)"><tspan x="0" y="0">OIIIOIOIIOOOOIIOIOIOIIIIIOIOOIOOIOIIOOIIOOIIIOIOIIOOOOIOIOIOIOIIOIO</tspan></text>
          <text class="st6" transform="translate(278.8 161.8) rotate(-180)"><tspan x="0" y="0">IIIOOIIOOIIIOIIOIOIOIIIIIOIOIOOIOOIOIIOOIIOOIIIOIOIIOOOOIOIOIOIOIIOIO</tspan></text>
        </g>
        <g>
          <text class="st6" transform="translate(.3 133.3)"><tspan x="0" y="0">OIIIOIOIIOOOOIIOIOIOIIIIIOIOOIOOIOIIOOIIOOIIIOIOIIOOOOIOIOIOIOIIOIO</tspan></text>
          <text class="st6" transform="translate(558.4 135) rotate(-180)"><tspan x="0" y="0">IIIOOIIOOIIIOIIOIOIOIIIIIOIOIOOIOOIOIIOOIIOOIIIOIOIIOOOOIOIOIOIOIIOIO</tspan></text>
        </g>
        <text class="st6" transform="translate(-558.9 133.3)"><tspan x="0" y="0">OIIIOIOIIOOOOIIOIOIOIIIIIOIOOIOOIOIIOOIIOOIIIOIOIIOOOOIOIOIOIOIIOIO</tspan></text>
        <g>
          <text class="st6" transform="translate(279.9 106.5)"><tspan x="0" y="0">OIIIOIOIIOOOOIIOIOIOIIIIIOIOOIOOIOIIOOIIOOIIIOIOIIOOOOIOIOIOIOIIOIO</tspan></text>
          <text class="st6" transform="translate(838 108.1) rotate(-180)"><tspan x="0" y="0">IIIOOIIOOIIIOIIOIOIOIIIIIOIOIOOIOOIOIIOOIIOOIIIOIOIIOOOOIOIOIOIOIIOIO</tspan></text>
        </g>
        <g>
          <text class="st6" transform="translate(-279.3 106.5)"><tspan x="0" y="0">OIIIOIOIIOOOOIIOIOIOIIIIIOIOOIOOIOIIOOIIOOIIIOIOIIOOOOIOIOIOIOIIOIO</tspan></text>
          <text class="st6" transform="translate(278.8 108.1) rotate(-180)"><tspan x="0" y="0">IIIOOIIOOIIIOIIOIOIOIIIIIOIOIOOIOOIOIIOOIIOOIIIOIOIIOOOOIOIOIOIOIIOIO</tspan></text>
        </g>
        <g>
          <text class="st6" transform="translate(.3 79.7)"><tspan x="0" y="0">OIIIOIOIIOOOOIIOIOIOIIIIIOIOOIOOIOIIOOIIOOIIIOIOIIOOOOIOIOIOIOIIOIO</tspan></text>
          <text class="st6" transform="translate(558.4 81.3) rotate(-180)"><tspan x="0" y="0">IIIOOIIOOIIIOIIOIOIOIIIIIOIOIOOIOOIOIIOOIIOOIIIOIOIIOOOOIOIOIOIOIIOIO</tspan></text>
        </g>
        <text class="st6" transform="translate(-558.9 79.7)"><tspan x="0" y="0">OIIIOIOIIOOOOIIOIOIOIIIIIOIOOIOOIOIIOOIIOOIIIOIOIIOOOOIOIOIOIOIIOIO</tspan></text>
        <g>
          <text class="st6" transform="translate(279.9 52.8)"><tspan x="0" y="0">OIIIOIOIIOOOOIIOIOIOIIIIIOIOOIOOIOIIOOIIOOIIIOIOIIOOOOIOIOIOIOIIOIO</tspan></text>
          <text class="st6" transform="translate(838 54.5) rotate(-180)"><tspan x="0" y="0">IIIOOIIOOIIIOIIOIOIOIIIIIOIOIOOIOOIOIIOOIIOOIIIOIOIIOOOOIOIOIOIOIIOIO</tspan></text>
        </g>
        <g>
          <text class="st6" transform="translate(-279.3 52.8)"><tspan x="0" y="0">OIIIOIOIIOOOOIIOIOIOIIIIIOIOOIOOIOIIOOIIOOIIIOIOIIOOOOIOIOIOIOIIOIO</tspan></text>
          <text class="st6" transform="translate(278.8 54.5) rotate(-180)"><tspan x="0" y="0">IIIOOIIOOIIIOIIOIOIOIIIIIOIOIOOIOOIOIIOOIIOOIIIOIOIIOOOOIOIOIOIOIIOIO</tspan></text>
        </g>
        <g>
          <text class="st6" transform="translate(.3 26)"><tspan x="0" y="0">OIIIOIOIIOOOOIIOIOIOIIIIIOIOOIOOIOIIOOIIOOIIIOIOIIOOOOIOIOIOIOIIOIO</tspan></text>
          <text class="st6" transform="translate(558.4 27.6) rotate(-180)"><tspan x="0" y="0">IIIOOIIOOIIIOIIOIOIOIIIIIOIOIOOIOOIOIIOOIIOOIIIOIOIIOOOOIOIOIOIOIIOIO</tspan></text>
        </g>
        <text class="st6" transform="translate(-558.9 26)"><tspan x="0" y="0">OIIIOIOIIOOOOIIOIOIOIIIIIOIOOIOOIOIIOOIIOOIIIOIOIIOOOOIOIOIOIOIIOIO</tspan></text>
        <g>
          <text class="st6" transform="translate(279.9 -.8)"><tspan x="0" y="0">OIIIOIOIIOOOOIIOIOIOIIIIIOIOOIOOIOIIOOIIOOIIIOIOIIOOOOIOIOIOIOIIOIO</tspan></text>
          <text class="st6" transform="translate(838 .8) rotate(-180)"><tspan x="0" y="0">IIIOOIIOOIIIOIIOIOIOIIIIIOIOIOOIOOIOIIOOIIOOIIIOIOIIOOOOIOIOIOIOIIOIO</tspan></text>
        </g>
        <g>
          <text class="st6" transform="translate(-279.3 -.8)"><tspan x="0" y="0">OIIIOIOIIOOOOIIOIOIOIIIIIOIOOIOOIOIIOOIIOOIIIOIOIIOOOOIOIOIOIOIIOIO</tspan></text>
          <text class="st6" transform="translate(278.8 .8) rotate(-180)"><tspan x="0" y="0">IIIOOIIOOIIIOIIOIOIOIIIIIOIOIOOIOOIOIIOOIIOOIIIOIOIIOOOOIOIOIOIOIIOIO</tspan></text>
        </g>
      </g>
    </pattern>
    <linearGradient id="New_Gradient_Swatch_3" data-name="New Gradient Swatch 3" x1="450.6" y1="142" x2="1001.7" y2="142" gradientTransform="translate(-296.2 49.4) rotate(-2.2) scale(1 1)" gradientUnits="userSpaceOnUse">
      <stop offset="0" stop-color="#f6e724"/>
      <stop offset="1" stop-color="#ec7507"/>
    </linearGradient>
    <linearGradient id="New_Gradient_Swatch_2" data-name="New Gradient Swatch 2" x1="453.7" y1="141.5" x2="1004.8" y2="141.5" gradientTransform="translate(-296.2 49.4) rotate(-2.2) scale(1 1)" gradientUnits="userSpaceOnUse">
      <stop offset="0" stop-color="#ec7507"/>
      <stop offset="1" stop-color="#a80608"/>
    </linearGradient>
    <linearGradient id="linear-gradient" x1="100.8" y1="155.5" x2="87.1" y2="82" gradientUnits="userSpaceOnUse">
      <stop offset="0" stop-color="#4072b9"/>
      <stop offset="1" stop-color="#00b0eb"/>
    </linearGradient>
  </defs>
  <g id="Backdrop_IO">
    <rect class="st11" x="-6249.7" y="-10298.9" width="16231.1" height="16283.7"/>
  </g>
  <g id="CSWL_AUTUMN">
    <g>
      <line class="st2" x1="372.8" y1="129.9" x2="372.8" y2="129.9"/>
      <line class="st2" x1="372.8" y1="132.4" x2="372.8" y2="132.4"/>
    </g>
    <g>
      <path class="st9" d="M173.7,219.4c-2.5,0-4.7-1.9-4.8-4.2-.1-2.9,1.8-5.1,4.3-5.2,3.4-.1,5.2,2.4,5.3,5-.3,2.5-2,4.4-4.8,4.5ZM179.4,207.3c-2.6.1-4.9-1.8-5-4.2-.1-2.8,1.8-5,4.7-5.1,2.4,0,4.6,1.9,4.7,4.2v.6c0,2.3-1.9,4.4-4.3,4.5ZM184.7,195.2c-2.9.1-5.1-1.6-5.2-4.5,0-2.5,1.9-4.6,4.3-4.7,2.6-.1,5.1,1.6,5.2,4.2v.6c-.3,2.3-1.9,4.2-4.3,4.3ZM189.7,183.3c-3,.1-4.8-2.1-4.9-4.7s1.9-4.6,4.4-4.7c3-.1,5.1,2,5.2,4.8-.3,2.8-2.2,4.5-4.7,4.6ZM195.4,171.2c-2.9.1-5.1-1.8-5.2-4.2-.1-3.1,2.1-5.1,4.7-5.2,2.5,0,4.6,1.9,4.7,4.4v.6c0,2.3-1.8,4.4-4.2,4.5ZM203.7,190.1c0,2.6-2.1,4.6-4.4,4.7-2.9.1-4.8-2.1-4.9-4.5-.1-2.8,2.1-4.7,4.6-4.8.4,0,1,0,1.6.2,1.9.8,3.1,2.5,3.2,4.4ZM200.5,159.1c-2.6.1-4.9-1.5-5-4.1,0-2.6,1.7-5,4.2-5.1s5.2,1.5,5.3,4.3v.5c0,2.3-2.1,4.3-4.4,4.3ZM205.6,147.1c-3,.1-4.8-2.3-4.9-4.6,0-2.5,1.9-4.6,4.4-4.7,2.6-.1,5.1,1.8,5.2,4.2v.6c-.3,2.5-2.2,4.4-4.7,4.5ZM211.2,135.1c-2.6.1-5.1-1.9-5.2-4.3-.1-2.8,2.1-5,4.7-5.1s4.7,2.4,4.8,4.8c-.3,2.6-2,4.5-4.3,4.6ZM217.8,189.6c0,2.6-2.1,4.6-4.4,4.7s-4.8-2-4.9-4.5c-.1-2.8,2.2-4.7,4.6-4.8.4,0,1,0,1.6.2,1.9.8,3.1,2.5,3.2,4.4ZM217.1,137.3c2.6-.1,4.6,2.2,4.7,4.7,0,2.3-1.6,4.1-4.2,4.6-2.6.1-4.8-1.3-5.3-4.1v-.6c-.1-2.3,1.9-4.5,4.8-4.6ZM223.2,149c2.4,0,4.6,1.9,4.7,4.7,0,2.5-2.2,4.4-4.8,4.5-2.4,0-4.4-1.7-4.6-4v-.6c-.1-2.6,1.9-4.5,4.8-4.6ZM231.8,188.9c.1,2.8-2.2,4.7-4.6,4.8-2.9.1-4.8-2.1-4.9-4.5-.1-2.8,2.1-4.9,4.4-5,.5,0,1.1,0,1.8.3,2,.8,3.2,2.3,3.3,4.3ZM228.8,160.5c2.6-.1,5.2,1.5,5.3,4.8,0,2.5-2.2,4.5-4.8,4.6-2.4,0-4.2-1.8-4.7-4.1-.1-3.1,1.3-4.8,4.2-5.3ZM235.6,172.1c2.5,0,4.3,1.8,4.8,4.1.1,2.8-1.3,4.8-4.3,5.3-2.6.1-4.8-1.3-5.3-4.2v-.6c-.1-2.5,2.2-4.5,4.8-4.6ZM241.8,183.8c2.6-.1,4.6,2.2,4.7,4.7,0,2.6-2.1,4.4-4.7,4.5-2.4,0-4.4-1.7-4.6-4v-.6c-.1-2.6,2.1-4.5,4.7-4.6ZM247.4,195.3c2.9-.1,5.3,1.8,5.4,4.7s-2.1,4.5-4.9,4.6c-2.4,0-4.3-1.8-4.5-4.1v-.6c-.1-2.3,1.7-4.1,4-4.6ZM254.3,206.9c2.4,0,4.2,1.7,4.7,4.2,0,2.6-1.3,4.7-4.2,5.2-3.1.1-4.9-1.3-5.4-4.1-.1-2.8,1.5-5.2,4.9-5.3ZM273.3,123.2c3-.1,5,2.1,5,4.6.1,2.9-2.3,4.8-4.7,4.8s-5-2.1-5-4.5,0-1.1.3-1.7c.6-1.9,2.4-3.2,4.4-3.2ZM273.8,136.5c2.9-.1,5.1,2.1,5.2,4.6s-2.2,4.9-4.7,5-5.1-2-5.2-4.5c0-.6,0-1.2.3-1.9.6-1.9,2.4-3.2,4.4-3.2ZM274.4,150.9c2.9-.1,5.1,2.1,5.2,4.6.1,2.8-2.3,5-4.8,5.1-2.9.1-5-2.5-5-4.6s0-1.1.3-1.7c.5-2,2.4-3.3,4.4-3.4ZM274.9,164.2c2.9-.1,5.1,2.1,5.2,4.6.1,2.9-2.3,5-4.7,5.1-3,.1-5.1-2.3-5.2-4.6,0-.5,0-1.1.3-1.7.5-2,2.4-3.3,4.4-3.4ZM275.4,177.9c2.9-.1,5.1,2.3,5.2,4.6.1,2.9-2.3,5-4.7,5.1-2.9.1-5.1-2.1-5.2-4.6,0-.5,0-1.1.3-1.7.8-2,2.5-3.3,4.4-3.4ZM280.8,190.6c2.9-.1,5,2.3,5.1,4.7.1,2.8-2.2,4.9-4.6,5s-4.9-1.9-5.1-4.7c0-.5-.2-1.1.2-1.6.8-2.1,2.2-3.3,4.4-3.4ZM290,200.6c2.9-.1,5,2.1,5.1,4.7s-2.2,4.7-4.6,4.8c-3,.1-5.1-2.1-5.2-4.6,0-.7,0-1.4.2-1.7.8-1.9,2.5-3.2,4.5-3.2ZM303.3,205.3c2.9-.1,5.1,2.1,5.2,4.6.1,2.8-2.1,4.9-4.7,5s-5.1-2-5.2-4.5c0-.6,0-1.2.3-1.9.6-1.9,2.4-3.2,4.4-3.2ZM323,209.4c0,2.6-1.8,4.9-4.7,5s-4.9-1.8-5-4.6c0-2.6,2.1-4.9,4.7-5,2,0,3.8,1.1,4.7,2.9.1.6.3,1.1.3,1.7ZM336.1,203.4c0,2.6-1.8,4.9-4.7,5s-4.9-1.8-5-4.6c0-2.6,1.8-4.9,4.7-5,2,0,3.8,1.1,4.7,2.9.1.6.3,1.1.3,1.7ZM344.7,192.7c0,2.3-1.7,4.7-4.6,4.8-2.6.1-5.1-1.8-5.2-4.6,0-2.5,1.7-4.9,4.6-5,2.4,0,3.9.8,4.7,2.9.3.6.4,1.2.4,1.8ZM340.7,120.6c2.9-.1,4.9,2,5,4.6.1,2.9-2.3,4.8-4.7,4.8-2.9.1-4.9-2-5-4.5,0-.5,0-1.1.3-1.7.8-2.1,2.3-3.2,4.4-3.2ZM341.2,133.9c3-.1,4.9,2,5,4.6.1,2.8-2.2,4.9-4.6,5s-4.9-2-5-4.5c0-.6,0-1.2.3-1.9.6-1.9,2.3-3.2,4.2-3.2ZM341.7,148.3c3-.1,5,2.1,5,4.6.1,2.8-2.2,5-4.7,5.1-2.9.1-4.8-2.3-4.9-4.6,0-.5,0-1.1.3-1.7.5-2,2.4-3.3,4.2-3.4ZM342.2,161.6c3-.1,5,2.1,5,4.6.1,2.9-2.2,5-4.6,5.1s-5-2.3-5-4.6c0-.5,0-1.1.3-1.7.5-2,2.4-3.3,4.2-3.4ZM342.8,175.4c2.9-.1,5.1,2.1,5.2,4.6.1,2.8-2.2,5-4.7,5.1-2.9.1-4.9-2-5-4.5,0-.6,0-1.2.3-1.9.5-2,2.4-3.3,4.2-3.4ZM363.6,120.4c2.9-.1,5,2.1,5.1,4.7.1,2.9-2.3,4.6-4.7,4.7s-5-2.3-5-4.6c0-.5-.2-1.1.2-1.6.8-1.9,2.5-3.2,4.5-3.2ZM377.5,119.9c2.9-.1,5,2.1,5,4.6.1,2.8-2.2,4.7-4.6,4.8s-5.1-2.1-5.2-4.5c0-.5,0-1.1.3-1.7.6-1.9,2.4-3.2,4.4-3.2ZM392.2,119.2c2.9-.1,5,2.1,5,4.6.1,2.8-2.2,4.7-4.7,4.8-2.9.1-4.9-2-5-4.5,0-.5,0-1.1.3-1.7.6-1.9,2.4-3.2,4.4-3.2ZM392.8,133.3c2.9-.1,4.8,2.1,4.9,4.5.1,2.8-2.1,4.9-4.7,5-2.9.1-4.9-2-5-4.5,0-.6,0-1.2.3-1.9.6-1.9,2.5-3,4.5-3.1ZM393.2,146.9c2.9-.1,4.9,2,5,4.5.1,2.8-2.2,5-4.7,5.1-2.9.1-5-2.1-5-4.6,0-.5,0-1.1.3-1.7.6-1.9,2.4-3.2,4.4-3.2ZM393.7,160.2c2.9-.1,5,2.3,5,4.6.1,2.8-2.2,5-4.7,5.1s-5-2.1-5-4.6c0-.5,0-1.1.3-1.7.5-2,2.5-3.3,4.4-3.4ZM394.3,173.9c2.9-.1,5,2.3,5.1,4.7.1,2.8-2.2,4.7-4.6,4.8s-4.9-2-5-4.5c0-.7,0-1.4.2-1.7.8-2,2.5-3.3,4.4-3.4ZM394.8,187.6c2.9-.1,5,2.1,5.1,4.7.1,2.8-2.2,4.6-4.7,4.7-3,.1-4.8-2.1-4.9-4.5,0-.7,0-1.4.2-1.7.8-1.9,2.5-3.2,4.4-3.2ZM395.3,200.6c2.9-.1,5,2.3,5,4.6.1,2.8-2.2,4.9-4.6,5s-5-2.1-5-4.6,0-1.4.2-1.7c.8-1.9,2.5-3.2,4.4-3.2ZM406.9,118.8c2.9-.1,5.1,2,5.2,4.6.1,2.9-2.3,4.8-4.7,4.8-2.9.1-4.9-2-5-4.5,0-.5,0-1.1.3-1.7.6-1.9,2.3-3.2,4.2-3.2ZM420.9,118.2c2.9-.1,5,2.1,5,4.6.1,2.8-2.2,4.7-4.7,4.8-2.9.1-4.9-2-5-4.5,0-.5,0-1.1.3-1.7.8-2.1,2.3-3.2,4.4-3.2ZM444.4,116.6c3-.1,5,2.1,5,4.6.1,2.9-2.3,4.8-4.7,4.8-2.9.1-5-2.1-5-4.5s0-1.1.3-1.7c.6-1.9,2.4-3.2,4.4-3.2ZM444.9,130c2.9-.1,5.1,2.1,5.2,4.6s-2.2,4.9-4.7,5-5.1-2-5.2-4.5c0-.6,0-1.2.3-1.9.6-1.9,2.4-3.2,4.4-3.2ZM445.4,144.3c2.9-.1,5.1,2.1,5.2,4.6.1,2.8-2.3,5-4.8,5.1-2.9.1-5-2.5-5-4.6s0-1.1.3-1.7c.5-2,2.4-3.3,4.4-3.4ZM446,157.7c2.9-.1,5.1,2.1,5.2,4.6.1,2.9-2.3,5-4.7,5.1-3,.1-5.1-2.3-5.2-4.6,0-.5,0-1.1.3-1.7.5-2,2.4-3.3,4.4-3.4ZM446.5,171.4c2.9-.1,5.1,2.3,5.2,4.6.1,2.9-2.3,5-4.7,5.1-2.9.1-5.1-2.1-5.2-4.6,0-.5,0-1.1.3-1.7.8-2,2.5-3.3,4.4-3.4ZM451.8,184.1c2.9-.1,5,2.3,5.1,4.7s-2.2,4.9-4.6,5c-2.9.1-4.9-1.9-5.1-4.7,0-.5-.2-1.1.2-1.6.8-2.1,2.2-3.3,4.4-3.4ZM461.1,194c2.9-.1,5,2.1,5.1,4.7.1,2.8-2.2,4.7-4.6,4.8s-5.1-2.1-5.2-4.6,0-1.4.2-1.7c.8-1.9,2.5-3.2,4.5-3.2ZM474.4,198.8c2.9-.1,5.1,2.1,5.2,4.6.1,2.8-2.1,4.9-4.7,5-2.9.1-5.1-2-5.2-4.5,0-.6,0-1.2.3-1.9.6-1.9,2.4-3.2,4.4-3.2ZM494,202.8c0,2.6-1.8,4.9-4.7,5s-4.9-1.8-5-4.6c0-2.6,2.1-4.9,4.7-5,2,0,3.8,1.1,4.7,2.9.1.6.3,1.1.3,1.7ZM507.1,196.8c0,2.6-1.8,4.9-4.7,5-2.5,0-4.9-1.8-5-4.6,0-2.6,1.8-4.9,4.7-5,2,0,3.8,1.1,4.7,2.9.1.6.3,1.1.3,1.7ZM515.7,186.2c0,2.3-1.7,4.7-4.6,4.8s-5.1-1.8-5.2-4.6c0-2.5,1.7-4.9,4.6-5,2.4,0,3.9.8,4.7,2.9.3.6.4,1.2.4,1.8ZM511.7,114c2.9-.1,4.9,2,5,4.6.1,2.9-2.3,4.8-4.7,4.8-2.9.1-4.9-2-5-4.5,0-.5,0-1.1.3-1.7.8-2.1,2.3-3.2,4.4-3.2ZM512.2,127.4c3-.1,4.9,2,5,4.6.1,2.8-2.2,4.9-4.6,5-2.9.1-4.9-2-5-4.5,0-.6,0-1.2.3-1.9.6-1.9,2.3-3.2,4.2-3.2ZM512.8,141.7c3-.1,5,2.1,5,4.6.1,2.8-2.2,5-4.7,5.1-2.9.1-4.8-2.3-4.9-4.6,0-.5,0-1.1.3-1.7.5-2,2.4-3.3,4.2-3.4ZM513.3,155.1c3-.1,5,2.1,5,4.6.1,2.9-2.2,5-4.6,5.1s-5-2.3-5-4.6c0-.5,0-1.1.3-1.7.5-2,2.4-3.3,4.2-3.4ZM513.8,168.8c2.9-.1,5.1,2.1,5.2,4.6.1,2.8-2.2,5-4.7,5.1-2.9.1-4.9-2-5-4.5,0-.6,0-1.2.3-1.9.5-2,2.4-3.3,4.2-3.4ZM541.8,113.8c2.9-.1,4.8,2.3,4.9,4.6s-2.3,4.8-4.7,4.8-4.8-2.3-4.9-4.6c0-.5-.2-1.1.2-1.6.8-2,2.5-3.2,4.5-3.2ZM542.3,127.8c2.9-.1,5,2.1,5,4.6.1,2.8-2.2,4.9-4.7,5s-5-2.1-5.1-4.7c0-.5-.2-1.1.2-1.6.8-1.9,2.5-3.2,4.5-3.2ZM542.9,141.4c2.9-.1,5,2.1,5,4.6.1,2.8-2.3,4.9-4.8,5-2.9.1-4.8-2.3-4.9-4.7,0-.5-.2-1.1.2-1.6.8-1.9,2.5-3.2,4.5-3.2ZM543.4,154.8c2.9-.1,5,2.1,5,4.6.1,2.8-2.2,4.9-4.7,5s-5-2.1-5.1-4.7-.2-1.1.2-1.6c.8-1.9,2.5-3.2,4.5-3.2ZM543.9,168.5c2.9-.1,5,2.1,5,4.6.1,2.8-2.2,4.9-4.7,5-2.9.1-4.9-2-5-4.6,0-.5,0-1.1.3-1.7.6-1.9,2.4-3.2,4.4-3.2ZM544.5,182.2c2.9-.1,4.8,2.1,4.9,4.5.1,2.8-2.2,5-4.7,5.1s-5-2.3-5-4.6c0-.5,0-1.1.3-1.7.5-2,2.5-3.2,4.5-3.2ZM545,195.2c2.9-.1,4.8,2.1,4.9,4.6.1,2.8-2.2,4.9-4.7,5s-5-2.1-5-4.6c0-.5,0-1.1.3-1.7.5-2,2.5-3.2,4.5-3.2ZM548.3,128.2c0-2.6,1.9-4.9,4.8-5,2.6-.1,4.9,1.8,5,4.6,0,2.6-2.1,4.9-4.7,5s-4.5-1.4-5-4c0-.4-.1-.2-.1-.6ZM556,139.9c0-2.3,1.9-4.7,4.6-4.8,2.6-.1,5.1,1.9,5.2,4.7,0,2.5-1.9,4.7-4.8,4.8-2.4,0-4.3-1.6-4.8-3.9-.1-.1-.1-.5-.2-.9ZM563.4,151.6c0-2.5,1.8-4.7,4.7-4.8s4.9,1.8,5,4.3c0,2.5-1.9,5.1-4.5,5.2-2.4,0-4.6-1.7-5-4,0-.4-.1-.4-.2-.7ZM570.5,163c0-2.3,1.7-4.9,4.6-5s5.1,1.9,5.2,4.5-1.8,5-4.7,5.1-4.4-1.5-4.9-3.9c0-.4-.1-.4-.2-.7ZM578.6,174.4c0-2.3,1.9-4.7,4.6-4.8,2.6-.1,5.1,1.9,5.2,4.7s-1.8,4.7-4.7,4.8-4.4-1.5-4.9-3.9c-.1-.1-.1-.5-.2-.9ZM589.9,157.2c2.9-.1,4.8,1.9,4.9,4.5.1,2.8-1.8,5-4.7,5.1-2.9.1-5-2.3-5.1-4.7,0-.4.1-.4,0-.7.3-2.3,2.1-4,4.7-4.1ZM596.2,145c2.9-.1,4.9,2,5,4.6s-1.9,4.9-4.4,5-5.2-2-5.3-4.6c0-.4.1-.4,0-.7.3-2.3,2.1-4.1,4.6-4.2ZM602.6,133.2c2.9-.1,4.8,2,4.9,4.5.1,2.9-2.1,5-4.6,5.1-2.9.1-5.1-2.1-5.2-4.7,0-.4.1-.4,0-.7.4-2.3,2.3-4,4.7-4.1ZM609.1,121.1c2.9-.1,4.8,1.9,4.9,4.5.1,2.9-2.1,5-4.6,5.1s-5.1-2.1-5.2-4.6.1-.5,0-.9c.3-2.3,2.1-4,4.7-4.1ZM619.6,110.9c2.9-.1,4.8,2.3,4.9,4.6.1,2.8-2.3,4.8-4.7,4.8-2.9.1-5-2.1-5-4.5,0-.5,0-1.1.3-1.7.8-2,2.5-3.2,4.5-3.2ZM620,124.8c2.9-.1,5.1,2.3,5.2,4.7.1,2.8-2.3,4.8-4.7,4.8-2.9.1-5-2.1-5.1-4.7,0-.5-.2-1.1.2-1.6.8-2.1,2.3-3.2,4.4-3.2ZM620.5,138.4c2.9-.1,5.1,2.3,5.2,4.7.1,2.8-2.4,4.8-4.8,4.8-2.9.1-4.8-2.3-4.9-4.7,0-.5-.2-1.1.2-1.6.8-2.1,2.3-3.2,4.4-3.2ZM621,151.8c2.9-.1,5.1,2.3,5.2,4.7.1,2.8-2.3,4.8-4.7,4.8-2.9.1-5-2.1-5.1-4.7,0-.5-.2-1.1.2-1.6.8-2.1,2.3-3.2,4.4-3.2ZM621.7,165.5c2.9-.1,5,2.1,5,4.6.1,2.8-2.2,4.9-4.7,5-2.9.1-4.9-2-5-4.6,0-.5,0-1.1.3-1.7.6-1.9,2.4-3.2,4.4-3.2ZM622.4,179.3c2.9-.1,4.8,2.1,4.9,4.5.1,2.8-2.3,5-4.8,5.1-2.9.1-4.8-2.3-4.9-4.6,0-.5,0-1.1.3-1.7.5-2,2.5-3.2,4.5-3.2ZM622.8,192.2c2.9-.1,4.8,2.1,4.9,4.6.1,2.8-2.2,4.9-4.7,5-2.9.1-5-2.1-5-4.6,0-.5,0-1.1.3-1.7.5-2,2.5-3.2,4.5-3.2ZM649.5,109.7c2.9-.1,4.8,2.1,4.9,4.5.1,2.8-2.2,4.9-4.8,5s-4.8-2.1-4.9-4.5,0-1.1.3-1.7c.5-2,2.5-3.2,4.5-3.2ZM649.9,123.7c2.9-.1,5,2.1,5,4.6.1,2.8-2.2,4.9-4.7,5-2.9.1-4.9-2-5-4.6,0-.5,0-1.1.3-1.7.8-2.1,2.3-3.2,4.4-3.2ZM650.5,137.3c2.9-.1,5,2.1,5,4.6s-2.2,4.9-4.8,5-4.8-2.1-4.9-4.6c0-.5,0-1.1.3-1.7.8-2.1,2.3-3.2,4.4-3.2ZM651,150.7c2.9-.1,5,2.1,5,4.6.1,2.8-2.2,4.9-4.7,5-2.9.1-4.9-2-5-4.6,0-.5,0-1.1.3-1.7.8-2.1,2.3-3.2,4.4-3.2ZM651.5,164.4c2.9-.1,5,2.1,5.1,4.7.1,2.8-2.2,4.7-4.6,4.8-2.9.1-5.1-2-5.2-4.6,0-.5,0-1.1.3-1.7.8-2.1,2.3-3.2,4.4-3.2ZM652.1,178.1c2.9-.1,4.8,2.3,4.9,4.6s-2.2,4.9-4.7,5c-2.9.1-5-2.1-5-4.6,0-.5,0-1.1.3-1.7.8-2,2.5-3.2,4.5-3.2ZM652.6,191.1c2.9-.1,4.8,2.3,4.9,4.7.1,2.8-2.2,4.7-4.6,4.8-3,.1-5.1-2.1-5.2-4.6,0-.5,0-1.1.3-1.7.8-2,2.5-3.2,4.5-3.2ZM655.4,123.6c0-2.5,1.9-4.9,4.8-5s4.8,1.9,4.9,4.7c0,2.3-1.9,4.7-4.8,4.8s-3.7-1-4.6-3.3c-.1-.5-.3-.8-.3-1.3ZM664.6,134.4c0-2.5,1.9-4.9,4.8-5s4.8,1.9,4.9,4.7c0,2.3-1.9,4.7-4.8,4.8-2.1,0-3.7-1-4.6-3.3-.1-.6-.3-1.1-.3-1.3ZM673.5,144.8c0-2.3,1.9-4.7,4.8-4.8,2.4,0,4.8,1.8,4.9,4.6,0,2.5-1.9,4.9-4.8,5-2.1,0-3.7-1-4.6-3.3-.1-.6-.3-1.1-.3-1.5ZM682.1,155c0-2.3,1.8-4.7,4.7-4.8,2.5,0,4.9,1.9,5.1,4.7,0,2.3-1.8,4.9-4.7,5-2.1,0-3.8-1.3-4.7-3.4-.1-.6-.3-1.1-.3-1.5ZM691,165.7c0-2.5,1.9-4.9,4.8-5,2.4,0,4.9,1.8,5,4.6,0,2.5-1.9,4.9-4.8,5-2.2,0-3.8-1-4.7-3.3-.1-.5-.3-.8-.3-1.3ZM699.9,176.2c0-2.5,1.9-4.9,4.8-5s4.9,1.9,5.1,4.7c0,2.3-1.9,4.9-4.8,5-2.1,0-3.8-1.3-4.7-3.3-.1-.6-.3-1.1-.3-1.5ZM708.4,186.1c0-2.3,1.8-4.9,4.7-5,2.4,0,4.9,2,5.1,4.8,0,2.3-1.9,4.7-4.8,4.8-2,0-3.7-1.3-4.6-3.3-.1-.6-.3-1.1-.3-1.5ZM721,106.9c2.9-.1,4.8,2.3,4.9,4.7.1,2.8-2.2,4.7-4.7,4.8s-5-2.1-5-4.6c0-.5,0-1.1.3-1.7.8-2,2.5-3.2,4.5-3.2ZM721.5,121c2.9-.1,4.8,2.3,4.9,4.6.1,2.8-2.3,4.8-4.7,4.8s-4.8-2.3-4.9-4.6-.2-1.1.2-1.6c.8-2,2.5-3.2,4.5-3.2ZM722,134.6c2.9-.1,4.8,2.3,4.9,4.6.1,2.8-2.3,4.9-4.7,5s-4.8-2.4-4.9-4.7-.2-1.1.2-1.6c.8-2,2.5-3.2,4.5-3.2ZM722.5,147.9c2.9-.1,4.8,2.3,4.9,4.6s-2.3,4.8-4.7,4.8-4.8-2.3-4.9-4.6c0-.5-.2-1.1.2-1.6.8-2,2.5-3.2,4.5-3.2ZM723.1,161.5c2.9-.1,5,2.1,5,4.6.1,2.8-2.3,4.9-4.8,5-2.9.1-4.8-2.3-4.9-4.6,0-.5-.2-1.1.2-1.6.8-2,2.5-3.3,4.5-3.4ZM723.6,175.3c2.9-.1,5,2.1,5,4.6.1,2.8-2.2,4.9-4.7,5s-5-2.1-5.1-4.7c0-.5-.2-1.1.2-1.6.8-1.9,2.5-3.2,4.5-3.2ZM724.1,188.2c2.9-.1,5,2.1,5,4.6s-2.2,4.9-4.7,5-5-2.1-5.1-4.7c0-.5-.2-1.1.2-1.6.8-1.9,2.5-3.2,4.5-3.2Z"/>
      <path class="st10" d="M176.8,218.8c-2.5,0-4.7-1.9-4.8-4.2-.1-2.9,1.8-5.1,4.3-5.2s5.2,2.4,5.3,5c-.3,2.5-2,4.4-4.8,4.5ZM182.5,206.7c-2.6.1-4.9-1.8-5-4.2-.1-2.8,1.8-5,4.7-5.1s4.6,1.9,4.7,4.2v.6c0,2.3-1.9,4.4-4.3,4.5ZM187.8,194.6c-2.9.1-5.1-1.6-5.2-4.5,0-2.5,1.9-4.6,4.3-4.7s5.1,1.6,5.2,4.2v.6c-.3,2.3-1.9,4.2-4.3,4.3ZM192.8,182.7c-3,.1-4.8-2.1-4.9-4.7s1.9-4.6,4.4-4.7c3-.1,5.1,2,5.2,4.8-.3,2.8-2.2,4.5-4.7,4.6ZM198.5,170.6c-2.9.1-5.1-1.8-5.2-4.2-.1-3.1,2.1-5.1,4.7-5.2,2.5,0,4.6,1.9,4.7,4.4v.6c0,2.3-1.8,4.4-4.2,4.5ZM206.8,189.5c0,2.6-2.1,4.6-4.4,4.7s-4.8-2.1-4.9-4.5c-.1-2.8,2.1-4.7,4.6-4.8.4,0,1,0,1.6.2,1.9.8,3.1,2.5,3.2,4.4ZM203.6,158.5c-2.6.1-4.9-1.5-5-4.1s1.7-5,4.2-5.1,5.2,1.5,5.3,4.3v.5c0,2.3-2.1,4.3-4.4,4.3ZM208.7,146.5c-3,.1-4.8-2.3-4.9-4.6,0-2.5,1.9-4.6,4.4-4.7,2.6-.1,5.1,1.8,5.2,4.2v.6c-.3,2.5-2.2,4.4-4.7,4.5ZM214.3,134.5c-2.6.1-5.1-1.9-5.2-4.3-.1-2.8,2.1-5,4.7-5.1,2.9-.1,4.7,2.4,4.8,4.8-.3,2.6-2,4.5-4.3,4.6ZM220.9,189c0,2.6-2.1,4.6-4.4,4.7-2.9.1-4.8-2-4.9-4.5-.1-2.8,2.2-4.7,4.6-4.8.4,0,1,0,1.6.2,1.9.8,3.1,2.5,3.2,4.4ZM220.1,136.7c2.6-.1,4.6,2.2,4.7,4.7,0,2.3-1.6,4.1-4.2,4.6-2.6.1-4.8-1.3-5.3-4.1v-.6c-.1-2.3,1.9-4.5,4.8-4.6ZM226.3,148.4c2.4,0,4.6,1.9,4.7,4.7,0,2.5-2.2,4.4-4.8,4.5-2.4,0-4.4-1.7-4.6-4v-.6c-.1-2.6,1.9-4.5,4.8-4.6ZM234.9,188.3c.1,2.8-2.2,4.7-4.6,4.8-2.9.1-4.8-2.1-4.9-4.5-.1-2.8,2.1-4.9,4.4-5,.5,0,1.1,0,1.8.3,2,.8,3.2,2.3,3.3,4.3ZM231.9,159.9c2.6-.1,5.2,1.5,5.3,4.8,0,2.5-2.2,4.5-4.8,4.6-2.4,0-4.2-1.8-4.7-4.1-.1-3.1,1.3-4.8,4.2-5.3ZM238.7,171.5c2.5,0,4.3,1.8,4.8,4.1.1,2.8-1.3,4.8-4.3,5.3-2.6.1-4.8-1.3-5.3-4.2v-.6c-.1-2.5,2.2-4.5,4.8-4.6ZM244.9,183.2c2.6-.1,4.6,2.2,4.7,4.7,0,2.6-2.1,4.4-4.7,4.5s-4.4-1.7-4.6-4v-.6c-.1-2.6,2.1-4.5,4.7-4.6ZM250.5,194.7c2.9-.1,5.3,1.8,5.4,4.7,0,2.3-2.1,4.5-4.9,4.6-2.4,0-4.3-1.8-4.5-4.1v-.6c-.1-2.3,1.7-4.1,4-4.6ZM257.4,206.3c2.4,0,4.2,1.7,4.7,4.2,0,2.6-1.3,4.7-4.2,5.2-3.1.1-4.9-1.3-5.4-4.1-.1-2.8,1.5-5.2,4.9-5.3ZM276.4,122.5c3-.1,5,2.1,5,4.6s-2.3,4.8-4.7,4.8-5-2.1-5-4.5c0-.5,0-1.1.3-1.7.6-1.9,2.4-3.2,4.4-3.2ZM276.9,135.9c2.9-.1,5.1,2.1,5.2,4.6.1,2.8-2.2,4.9-4.7,5-2.9.1-5.1-2-5.2-4.5,0-.6,0-1.2.3-1.9.6-1.9,2.4-3.2,4.4-3.2ZM277.5,150.2c2.9-.1,5.1,2.1,5.2,4.6.1,2.8-2.3,5-4.8,5.1s-5-2.5-5-4.6c0-.5,0-1.1.3-1.7.5-2,2.4-3.3,4.4-3.4ZM278,163.6c2.9-.1,5.1,2.1,5.2,4.6.1,2.9-2.3,5-4.7,5.1-3,.1-5.1-2.3-5.2-4.6,0-.5,0-1.1.3-1.7.5-2,2.4-3.3,4.4-3.4ZM278.5,177.3c2.9-.1,5.1,2.3,5.2,4.6.1,2.9-2.3,5-4.7,5.1-2.9.1-5.1-2.1-5.2-4.6,0-.5,0-1.1.3-1.7.8-2,2.5-3.3,4.4-3.4ZM283.9,190c2.9-.1,5,2.3,5.1,4.7.1,2.8-2.2,4.9-4.6,5s-4.9-1.9-5.1-4.7c0-.5-.2-1.1.2-1.6.8-2.1,2.2-3.3,4.4-3.4ZM293.1,200c2.9-.1,5,2.1,5.1,4.7.1,2.8-2.2,4.7-4.6,4.8-3,.1-5.1-2.1-5.2-4.6s0-1.4.2-1.7c.8-1.9,2.5-3.2,4.5-3.2ZM306.4,204.7c2.9-.1,5.1,2.1,5.2,4.6.1,2.8-2.1,4.9-4.7,5s-5.1-2-5.2-4.5c0-.6,0-1.2.3-1.9.6-1.9,2.4-3.2,4.4-3.2ZM326,208.8c0,2.6-1.8,4.9-4.7,5s-4.9-1.8-5-4.6c0-2.6,2.1-4.9,4.7-5,2,0,3.8,1.1,4.7,2.9.1.6.3,1.1.3,1.7ZM339.2,202.8c0,2.6-1.8,4.9-4.7,5-2.5,0-4.9-1.8-5-4.6,0-2.6,1.8-4.9,4.7-5,2,0,3.8,1.1,4.7,2.9.1.6.3,1.1.3,1.7ZM347.8,192.1c0,2.3-1.7,4.7-4.6,4.8s-5.1-1.8-5.2-4.6,1.7-4.9,4.6-5c2.4,0,3.9.8,4.7,2.9.3.6.4,1.2.4,1.8ZM343.7,120c2.9-.1,4.9,2,5,4.6.1,2.9-2.3,4.8-4.7,4.8-2.9.1-4.9-2-5-4.5,0-.5,0-1.1.3-1.7.8-2.1,2.3-3.2,4.4-3.2ZM344.3,133.3c3-.1,4.9,2,5,4.6s-2.2,4.9-4.6,5-4.9-2-5-4.5c0-.6,0-1.2.3-1.9.6-1.9,2.3-3.2,4.2-3.2ZM344.8,147.7c3-.1,5,2.1,5,4.6.1,2.8-2.2,5-4.7,5.1-2.9.1-4.8-2.3-4.9-4.6,0-.5,0-1.1.3-1.7.5-2,2.4-3.3,4.2-3.4ZM345.3,161c3-.1,5,2.1,5,4.6.1,2.9-2.2,5-4.6,5.1-2.9.1-5-2.3-5-4.6s0-1.1.3-1.7c.5-2,2.4-3.3,4.2-3.4ZM345.8,174.8c2.9-.1,5.1,2.1,5.2,4.6.1,2.8-2.2,5-4.7,5.1s-4.9-2-5-4.5c0-.6,0-1.2.3-1.9.5-2,2.4-3.3,4.2-3.4ZM366.7,119.8c2.9-.1,5,2.1,5.1,4.7.1,2.9-2.3,4.6-4.7,4.7s-5-2.3-5-4.6-.2-1.1.2-1.6c.8-1.9,2.5-3.2,4.5-3.2ZM380.6,119.3c2.9-.1,5,2.1,5,4.6.1,2.8-2.2,4.7-4.6,4.8s-5.1-2.1-5.2-4.5,0-1.1.3-1.7c.6-1.9,2.4-3.2,4.4-3.2ZM395.3,118.6c2.9-.1,5,2.1,5,4.6.1,2.8-2.2,4.7-4.7,4.8s-4.9-2-5-4.5,0-1.1.3-1.7c.6-1.9,2.4-3.2,4.4-3.2ZM395.9,132.7c2.9-.1,4.8,2.1,4.9,4.5s-2.1,4.9-4.7,5c-2.9.1-4.9-2-5-4.5,0-.6,0-1.2.3-1.9.6-1.9,2.5-3,4.5-3.1ZM396.3,146.3c2.9-.1,4.9,2,5,4.5.1,2.8-2.2,5-4.7,5.1-2.9.1-5-2.1-5-4.6,0-.5,0-1.1.3-1.7.6-1.9,2.4-3.2,4.4-3.2ZM396.8,159.5c2.9-.1,5,2.3,5,4.6.1,2.8-2.2,5-4.7,5.1s-5-2.1-5-4.6,0-1.1.3-1.7c.5-2,2.5-3.3,4.4-3.4ZM397.4,173.3c2.9-.1,5,2.3,5.1,4.7.1,2.8-2.2,4.7-4.6,4.8-3,.1-4.9-2-5-4.5,0-.7,0-1.4.2-1.7.8-2,2.5-3.3,4.4-3.4ZM397.9,187c2.9-.1,5,2.1,5.1,4.7.1,2.8-2.2,4.6-4.7,4.7-3,.1-4.8-2.1-4.9-4.5,0-.7,0-1.4.2-1.7.8-1.9,2.5-3.2,4.4-3.2ZM398.4,200c2.9-.1,5,2.3,5,4.6.1,2.8-2.2,4.9-4.6,5s-5-2.1-5-4.6c0-.7,0-1.4.2-1.7.8-1.9,2.5-3.2,4.4-3.2ZM410,118.2c2.9-.1,5.1,2,5.2,4.6.1,2.9-2.3,4.8-4.7,4.8-2.9.1-4.9-2-5-4.5s0-1.1.3-1.7c.6-1.9,2.3-3.2,4.2-3.2ZM423.9,117.6c2.9-.1,5,2.1,5,4.6.1,2.8-2.2,4.7-4.7,4.8-2.9.1-4.9-2-5-4.5,0-.5,0-1.1.3-1.7.8-2.1,2.3-3.2,4.4-3.2ZM447.5,116c3-.1,5,2.1,5,4.6.1,2.9-2.3,4.8-4.7,4.8s-5-2.1-5-4.5c0-.5,0-1.1.3-1.7.6-1.9,2.4-3.2,4.4-3.2ZM448,129.4c2.9-.1,5.1,2.1,5.2,4.6.1,2.8-2.2,4.9-4.7,5-2.9.1-5.1-2-5.2-4.5,0-.6,0-1.2.3-1.9.6-1.9,2.4-3.2,4.4-3.2ZM448.5,143.7c2.9-.1,5.1,2.1,5.2,4.6.1,2.8-2.3,5-4.8,5.1-2.9.1-5-2.5-5-4.6s0-1.1.3-1.7c.5-2,2.4-3.3,4.4-3.4ZM449.1,157.1c2.9-.1,5.1,2.1,5.2,4.6s-2.3,5-4.7,5.1c-3,.1-5.1-2.3-5.2-4.6,0-.5,0-1.1.3-1.7.5-2,2.4-3.3,4.4-3.4ZM449.6,170.8c2.9-.1,5.1,2.3,5.2,4.6.1,2.9-2.3,5-4.7,5.1s-5.1-2.1-5.2-4.6c0-.5,0-1.1.3-1.7.8-2,2.5-3.3,4.4-3.4ZM454.9,183.5c2.9-.1,5,2.3,5.1,4.7.1,2.8-2.2,4.9-4.6,5s-4.9-1.9-5.1-4.7c0-.5-.2-1.1.2-1.6.8-2.1,2.2-3.3,4.4-3.4ZM464.2,193.4c2.9-.1,5,2.1,5.1,4.7.1,2.8-2.2,4.7-4.6,4.8-3,.1-5.1-2.1-5.2-4.6s0-1.4.2-1.7c.8-1.9,2.5-3.2,4.5-3.2ZM477.5,198.2c2.9-.1,5.1,2.1,5.2,4.6.1,2.8-2.1,4.9-4.7,5-2.9.1-5.1-2-5.2-4.5,0-.6,0-1.2.3-1.9.6-1.9,2.4-3.2,4.4-3.2ZM497.1,202.2c0,2.6-1.8,4.9-4.7,5s-4.9-1.8-5-4.6c0-2.6,2.1-4.9,4.7-5,2,0,3.8,1.1,4.7,2.9.1.6.3,1.1.3,1.7ZM510.2,196.2c0,2.6-1.8,4.9-4.7,5-2.5,0-4.9-1.8-5-4.6,0-2.6,1.8-4.9,4.7-5,2,0,3.8,1.1,4.7,2.9.1.6.3,1.1.3,1.7ZM518.8,185.6c0,2.3-1.7,4.7-4.6,4.8-2.6.1-5.1-1.8-5.2-4.6,0-2.5,1.7-4.9,4.6-5,2.4,0,3.9.8,4.7,2.9.3.6.4,1.2.4,1.8ZM514.8,113.4c2.9-.1,4.9,2,5,4.6.1,2.9-2.3,4.8-4.7,4.8-2.9.1-4.9-2-5-4.5,0-.5,0-1.1.3-1.7.8-2.1,2.3-3.2,4.4-3.2ZM515.3,126.8c3-.1,4.9,2,5,4.6.1,2.8-2.2,4.9-4.6,5-2.9.1-4.9-2-5-4.5,0-.6,0-1.2.3-1.9.6-1.9,2.3-3.2,4.2-3.2ZM515.9,141.1c3-.1,5,2.1,5,4.6.1,2.8-2.2,5-4.7,5.1-2.9.1-4.8-2.3-4.9-4.6,0-.5,0-1.1.3-1.7.5-2,2.4-3.3,4.2-3.4ZM516.4,154.5c3-.1,5,2.1,5,4.6.1,2.9-2.2,5-4.6,5.1-2.9.1-5-2.3-5-4.6,0-.5,0-1.1.3-1.7.5-2,2.4-3.3,4.2-3.4ZM516.9,168.2c2.9-.1,5.1,2.1,5.2,4.6.1,2.8-2.2,5-4.7,5.1-2.9.1-4.9-2-5-4.5,0-.6,0-1.2.3-1.9.5-2,2.4-3.3,4.2-3.4ZM544.9,113.2c2.9-.1,4.8,2.3,4.9,4.6.1,2.8-2.3,4.8-4.7,4.8-2.9.1-4.8-2.3-4.9-4.6s-.2-1.1.2-1.6c.8-2,2.5-3.2,4.5-3.2ZM545.4,127.2c2.9-.1,5,2.1,5,4.6.1,2.8-2.2,4.9-4.7,5-2.9.1-5-2.1-5.1-4.7,0-.5-.2-1.1.2-1.6.8-1.9,2.5-3.2,4.5-3.2ZM545.9,140.8c2.9-.1,5,2.1,5,4.6.1,2.8-2.3,4.9-4.8,5-2.9.1-4.8-2.3-4.9-4.7,0-.5-.2-1.1.2-1.6.8-1.9,2.5-3.2,4.5-3.2ZM546.5,154.2c2.9-.1,5,2.1,5,4.6.1,2.8-2.2,4.9-4.7,5-2.9.1-5-2.1-5.1-4.7s-.2-1.1.2-1.6c.8-1.9,2.5-3.2,4.5-3.2ZM547,167.9c2.9-.1,5,2.1,5,4.6.1,2.8-2.2,4.9-4.7,5-2.9.1-4.9-2-5-4.6,0-.5,0-1.1.3-1.7.6-1.9,2.4-3.2,4.4-3.2ZM547.6,181.6c2.9-.1,4.8,2.1,4.9,4.5s-2.2,5-4.7,5.1-5-2.3-5-4.6c0-.5,0-1.1.3-1.7.5-2,2.5-3.2,4.5-3.2ZM548.1,194.6c2.9-.1,4.8,2.1,4.9,4.6.1,2.8-2.2,4.9-4.7,5-2.9.1-5-2.1-5-4.6,0-.5,0-1.1.3-1.7.5-2,2.5-3.2,4.5-3.2ZM551.4,127.6c0-2.6,1.9-4.9,4.8-5s4.9,1.8,5,4.6c0,2.6-2.1,4.9-4.7,5-2.4,0-4.5-1.4-5-4,0-.4-.1-.2-.1-.6ZM559.1,139.3c0-2.3,1.9-4.7,4.6-4.8,2.6-.1,5.1,1.9,5.2,4.7,0,2.5-1.9,4.7-4.8,4.8s-4.3-1.6-4.8-3.9c-.1-.1-.1-.5-.2-.9ZM566.4,151c0-2.5,1.8-4.7,4.7-4.8s4.9,1.8,5,4.3-1.9,5.1-4.5,5.2c-2.4,0-4.6-1.7-5-4,0-.4-.1-.4-.2-.7ZM573.6,162.3c0-2.3,1.7-4.9,4.6-5s5.1,1.9,5.2,4.5c0,2.6-1.8,5-4.7,5.1-2.4,0-4.4-1.5-4.9-3.9,0-.4-.1-.4-.2-.7ZM581.7,173.8c0-2.3,1.9-4.7,4.6-4.8,2.6-.1,5.1,1.9,5.2,4.7s-1.8,4.7-4.7,4.8c-2.4,0-4.4-1.5-4.9-3.9-.1-.1-.1-.5-.2-.9ZM593,156.6c2.9-.1,4.8,1.9,4.9,4.5.1,2.8-1.8,5-4.7,5.1s-5-2.3-5.1-4.7.1-.4,0-.7c.3-2.3,2.1-4,4.7-4.1ZM599.3,144.4c2.9-.1,4.9,2,5,4.6.1,2.8-1.9,4.9-4.4,5-3.1.1-5.2-2-5.3-4.6,0-.4.1-.4,0-.7.3-2.3,2.1-4.1,4.6-4.2ZM605.7,132.6c2.9-.1,4.8,2,4.9,4.5.1,2.9-2.1,5-4.6,5.1-2.9.1-5.1-2.1-5.2-4.7s.1-.4,0-.7c.4-2.3,2.3-4,4.7-4.1ZM612.2,120.5c2.9-.1,4.8,1.9,4.9,4.5.1,2.9-2.1,5-4.6,5.1-3,.1-5.1-2.1-5.2-4.6s.1-.5,0-.9c.3-2.3,2.1-4,4.7-4.1ZM622.7,110.3c2.9-.1,4.8,2.3,4.9,4.6.1,2.8-2.3,4.8-4.7,4.8-2.9.1-5-2.1-5-4.5s0-1.1.3-1.7c.8-2,2.5-3.2,4.5-3.2ZM623.1,124.2c2.9-.1,5.1,2.3,5.2,4.7.1,2.8-2.3,4.8-4.7,4.8s-5-2.1-5.1-4.7c0-.5-.2-1.1.2-1.6.8-2.1,2.3-3.2,4.4-3.2ZM623.6,137.8c2.9-.1,5.1,2.3,5.2,4.7.1,2.8-2.4,4.8-4.8,4.8s-4.8-2.3-4.9-4.7c0-.5-.2-1.1.2-1.6.8-2.1,2.3-3.2,4.4-3.2ZM624.1,151.2c2.9-.1,5.1,2.3,5.2,4.7s-2.3,4.8-4.7,4.8-5-2.1-5.1-4.7c0-.5-.2-1.1.2-1.6.8-2.1,2.3-3.2,4.4-3.2ZM624.8,164.9c2.9-.1,5,2.1,5,4.6.1,2.8-2.2,4.9-4.7,5-2.9.1-4.9-2-5-4.6,0-.5,0-1.1.3-1.7.6-1.9,2.4-3.2,4.4-3.2ZM625.4,178.6c2.9-.1,4.8,2.1,4.9,4.5.1,2.8-2.3,5-4.8,5.1-2.9.1-4.8-2.3-4.9-4.6s0-1.1.3-1.7c.5-2,2.5-3.2,4.5-3.2ZM625.9,191.6c2.9-.1,4.8,2.1,4.9,4.6.1,2.8-2.2,4.9-4.7,5-2.9.1-5-2.1-5-4.6s0-1.1.3-1.7c.5-2,2.5-3.2,4.5-3.2ZM652.6,109.1c2.9-.1,4.8,2.1,4.9,4.5s-2.2,4.9-4.8,5c-2.9.1-4.8-2.1-4.9-4.5,0-.5,0-1.1.3-1.7.5-2,2.5-3.2,4.5-3.2ZM653,123.1c2.9-.1,5,2.1,5,4.6.1,2.8-2.2,4.9-4.7,5-2.9.1-4.9-2-5-4.6,0-.5,0-1.1.3-1.7.8-2.1,2.3-3.2,4.4-3.2ZM653.5,136.7c2.9-.1,5,2.1,5,4.6.1,2.8-2.2,4.9-4.8,5-2.9.1-4.8-2.1-4.9-4.6,0-.5,0-1.1.3-1.7.8-2.1,2.3-3.2,4.4-3.2ZM654.1,150.1c2.9-.1,5,2.1,5,4.6.1,2.8-2.2,4.9-4.7,5-2.9.1-4.9-2-5-4.6,0-.5,0-1.1.3-1.7.8-2.1,2.3-3.2,4.4-3.2ZM654.6,163.8c2.9-.1,5,2.1,5.1,4.7.1,2.8-2.2,4.7-4.6,4.8-2.9.1-5.1-2-5.2-4.6,0-.5,0-1.1.3-1.7.8-2.1,2.3-3.2,4.4-3.2ZM655.2,177.5c2.9-.1,4.8,2.3,4.9,4.6.1,2.8-2.2,4.9-4.7,5s-5-2.1-5-4.6c0-.5,0-1.1.3-1.7.8-2,2.5-3.2,4.5-3.2ZM655.7,190.5c2.9-.1,4.8,2.3,4.9,4.7.1,2.8-2.2,4.7-4.6,4.8-3,.1-5.1-2.1-5.2-4.6s0-1.1.3-1.7c.8-2,2.5-3.2,4.5-3.2ZM658.5,123c0-2.5,1.9-4.9,4.8-5,2.4,0,4.8,1.9,4.9,4.7s-1.9,4.7-4.8,4.8c-2.1,0-3.7-1-4.6-3.3-.1-.5-.3-.8-.3-1.3ZM667.7,133.8c0-2.5,1.9-4.9,4.8-5s4.8,1.9,4.9,4.7c0,2.3-1.9,4.7-4.8,4.8-2.1,0-3.7-1-4.6-3.3-.1-.6-.3-1.1-.3-1.3ZM676.6,144.2c0-2.3,1.9-4.7,4.8-4.8,2.4,0,4.8,1.8,4.9,4.6,0,2.5-1.9,4.9-4.8,5s-3.7-1-4.6-3.3c-.1-.6-.3-1.1-.3-1.5ZM685.2,154.4c0-2.3,1.8-4.7,4.7-4.8,2.5,0,4.9,1.9,5.1,4.7,0,2.3-1.8,4.9-4.7,5s-3.8-1.3-4.7-3.4c-.1-.6-.3-1.1-.3-1.5ZM694.1,165.1c0-2.5,1.9-4.9,4.8-5,2.4,0,4.9,1.8,5,4.6,0,2.5-1.9,4.9-4.8,5s-3.8-1-4.7-3.3c-.1-.5-.3-.8-.3-1.3ZM703,175.6c0-2.5,1.9-4.9,4.8-5s4.9,1.9,5.1,4.7c0,2.3-1.9,4.9-4.8,5s-3.8-1.3-4.7-3.3c-.1-.6-.3-1.1-.3-1.5ZM711.5,185.5c0-2.3,1.8-4.9,4.7-5,2.4,0,4.9,2,5.1,4.8,0,2.3-1.9,4.7-4.8,4.8-2,0-3.7-1.3-4.6-3.3-.1-.6-.3-1.1-.3-1.5ZM724.1,106.3c2.9-.1,4.8,2.3,4.9,4.7.1,2.8-2.2,4.7-4.7,4.8s-5-2.1-5-4.6c0-.5,0-1.1.3-1.7.8-2,2.5-3.2,4.5-3.2ZM724.6,120.4c2.9-.1,4.8,2.3,4.9,4.6.1,2.8-2.3,4.8-4.7,4.8s-4.8-2.3-4.9-4.6-.2-1.1.2-1.6c.8-2,2.5-3.2,4.5-3.2ZM725.1,134c2.9-.1,4.8,2.3,4.9,4.6s-2.3,4.9-4.7,5c-2.9.1-4.8-2.4-4.9-4.7,0-.5-.2-1.1.2-1.6.8-2,2.5-3.2,4.5-3.2ZM725.6,147.3c2.9-.1,4.8,2.3,4.9,4.6.1,2.8-2.3,4.8-4.7,4.8s-4.8-2.3-4.9-4.6-.2-1.1.2-1.6c.8-2,2.5-3.2,4.5-3.2ZM726.2,160.9c2.9-.1,5,2.1,5,4.6.1,2.8-2.3,4.9-4.8,5s-4.8-2.3-4.9-4.6c0-.5-.2-1.1.2-1.6.8-2,2.5-3.3,4.5-3.4ZM726.7,174.6c2.9-.1,5,2.1,5,4.6.1,2.8-2.2,4.9-4.7,5s-5-2.1-5.1-4.7c0-.5-.2-1.1.2-1.6.8-1.9,2.5-3.2,4.5-3.2ZM727.2,187.6c2.9-.1,5,2.1,5,4.6.1,2.8-2.2,4.9-4.7,5s-5-2.1-5.1-4.7-.2-1.1.2-1.6c.8-1.9,2.5-3.2,4.5-3.2Z"/>
    </g>
    <g>
      <path class="st8" d="M87.1,82l-32.8,6.1,5.9,31.8c3.2,17.3,16.7,30.8,33.9,34.2l6.7,1.3,5.7-3.6c14.9-9.4,22.5-26.9,19.3-44.1l-5.9-31.8-32.8,6.1Z"/>
      <path class="st5" d="M116.6,80.8l5.2,27.7c2.9,15.7-3.9,31.3-17.4,39.9l-4.3,2.7-5-1c-15.7-3.1-27.7-15.2-30.6-30.9l-5.2-27.7,28.7-5.4,28.7-5.4M119.9,75.9l-32.8,6.1-32.8,6.1,5.9,31.8c3.2,17.3,16.7,30.8,33.9,34.2l6.7,1.3,5.7-3.6c14.9-9.4,22.5-26.9,19.3-44.1l-5.9-31.8h0Z"/>
    </g>
    <polyline class="st1" points="78.8 123.7 94.8 134.7 109.2 96"/>
    <text class="st3" transform="translate(271.9 307)"><tspan class="st7" x="0" y="0">OCTOBER</tspan><tspan class="st4" x="155.1" y="0" xml:space="preserve"> 2025</tspan></text>
  </g>
</svg>