<?xml version="1.0" encoding="UTF-8"?>
<svg xmlns="http://www.w3.org/2000/svg" xmlns:xlink="http://www.w3.org/1999/xlink" version="1.1" viewBox="0 0 1341.8 1080">
  <!-- Generator: Adobe Illustrator 29.1.0, SVG Export Plug-In . SVG Version: 2.1.0 Build 142)  -->
  <defs>
    <style>
      .st0 {
        fill: url(#Gold);
      }

      .st1 {
        stroke-width: 1.2px;
      }

      .st1, .st2 {
        fill: #0000f8;
      }

      .st1, .st3, .st4, .st5, .st6, .st7, .st8, .st9, .st10, .st11, .st12, .st13, .st14, .st15, .st16, .st17, .st18, .st19, .st20, .st21, .st22 {
        stroke-miterlimit: 10;
      }

      .st1, .st3, .st6, .st8 {
        stroke: blue;
      }

      .st23, .st4 {
        fill: gray;
      }

      .st24 {
        stroke: url(#Gold53);
      }

      .st24, .st25, .st26, .st27, .st28, .st29, .st30, .st31, .st32, .st33 {
        stroke-width: 1.7px;
      }

      .st24, .st25, .st26, .st27, .st28, .st29, .st30, .st31, .st32, .st33, .st34, .st35, .st36, .st37, .st38, .st39, .st40, .st41, .st42 {
        stroke-linejoin: round;
      }

      .st25 {
        stroke: url(#Gold54);
      }

      .st26 {
        stroke: url(#Gold50);
      }

      .st27 {
        stroke: url(#Gold52);
      }

      .st28 {
        stroke: url(#Gold51);
      }

      .st29 {
        stroke: url(#Gold47);
      }

      .st30 {
        stroke: url(#Gold48);
      }

      .st31 {
        stroke: url(#Gold49);
      }

      .st32 {
        stroke: url(#Gold46);
      }

      .st33 {
        stroke: url(#Gold45);
      }

      .st43 {
        stroke: #b0b0b0;
        stroke-dasharray: 59.7 12.4 0 0 0 0;
      }

      .st43, .st44, .st34, .st5, .st6, .st45, .st46, .st7, .st9, .st47, .st48, .st10, .st42 {
        fill: none;
      }

      .st43, .st34, .st5, .st6, .st45, .st9, .st48, .st40, .st41, .st42 {
        stroke-linecap: round;
      }

      .st43, .st45, .st48 {
        stroke-width: 2.5px;
      }

      .st49 {
        fill: url(#Gold4);
      }

      .st50 {
        fill: url(#Gold3);
      }

      .st51 {
        fill: url(#Gold6);
      }

      .st52 {
        fill: url(#Gold5);
      }

      .st53 {
        fill: url(#Gold8);
      }

      .st54 {
        fill: url(#Gold7);
      }

      .st55 {
        fill: url(#Gold1);
      }

      .st56 {
        fill: url(#Gold2);
      }

      .st57 {
        opacity: .5;
      }

      .st57, .st58 {
        mix-blend-mode: multiply;
      }

      .st58 {
        opacity: .4;
      }

      .st59 {
        fill: #e6001c;
      }

      .st60 {
        fill: #e6001c;
      }

      .st44 {
        stroke: url(#Gold9);
      }

      .st44, .st47 {
        stroke-width: 3.1px;
      }

      .st3 {
        stroke-width: 1.5px;
      }

      .st3, .st8 {
        fill: blue;
      }

      .st34 {
        stroke-width: .8px;
      }

      .st34, .st42 {
        stroke: #00b0eb;
      }

      .st61, .st35, .st36, .st37, .st38, .st39 {
        fill: #1a1818;
      }

      .st62 {
        fill: url(#linear-gradient);
      }

      .st63 {
        fill: #c7c9ca;
      }

      .st35 {
        stroke: url(#Gold12);
      }

      .st35, .st36 {
        stroke-width: 2.1px;
      }

      .st36 {
        stroke: url(#Gold11);
      }

      .st64 {
        fill: #757575;
      }

      .st4 {
        stroke-width: 1.2px;
      }

      .st4, .st5, .st40, .st41 {
        stroke: gray;
      }

      .st65, .st46 {
        stroke: #6d6f72;
        stroke-width: 10px;
      }

      .st65, .st66 {
        fill: #6d6f72;
      }

      .st67 {
        isolation: isolate;
      }

      .st68 {
        fill: url(#Gold39);
      }

      .st69 {
        fill: url(#Gold30);
      }

      .st70 {
        fill: url(#Gold32);
      }

      .st71 {
        fill: url(#Gold35);
      }

      .st72 {
        fill: url(#Gold38);
      }

      .st73 {
        fill: url(#Gold37);
      }

      .st74 {
        fill: url(#Gold31);
      }

      .st75 {
        fill: url(#Gold34);
      }

      .st76 {
        fill: url(#Gold33);
      }

      .st77 {
        fill: url(#Gold36);
      }

      .st78 {
        fill: url(#Gold15);
      }

      .st79 {
        fill: url(#Gold14);
      }

      .st80 {
        fill: url(#Gold13);
      }

      .st81 {
        fill: url(#Gold17);
      }

      .st82 {
        fill: url(#Gold20);
      }

      .st83 {
        fill: url(#Gold23);
      }

      .st84 {
        fill: url(#Gold22);
      }

      .st85 {
        fill: url(#Gold25);
      }

      .st86 {
        fill: url(#Gold24);
      }

      .st87 {
        fill: url(#Gold27);
      }

      .st88 {
        fill: url(#Gold26);
      }

      .st89 {
        fill: url(#Gold29);
      }

      .st90 {
        fill: url(#Gold28);
      }

      .st91 {
        fill: url(#Gold40);
      }

      .st92 {
        fill: url(#Gold42);
      }

      .st93 {
        fill: url(#Gold44);
      }

      .st94 {
        fill: url(#Gold41);
      }

      .st95 {
        fill: url(#Gold43);
      }

      .st5 {
        stroke-width: 5.1px;
      }

      .st96, .st40 {
        fill: #fff;
      }

      .st97 {
        fill: #00b0eb;
      }

      .st98 {
        fill: #ff0;
      }

      .st6 {
        stroke-width: 20.8px;
      }

      .st45 {
        stroke-dasharray: 60 12.5 0 0 0 0;
      }

      .st45, .st48 {
        stroke: #cfcfcf;
      }

      .st99 {
        fill: url(#Gold_Radial2);
      }

      .st100 {
        fill: url(#Gold_Radial1);
      }

      .st101 {
        fill: url(#Gold_Radial4);
      }

      .st102 {
        fill: url(#Gold_Radial3);
      }

      .st103 {
        fill: url(#Gold_Radial6);
      }

      .st104 {
        fill: url(#Gold_Radial5);
      }

      .st105 {
        fill: url(#Gold_Radial8);
      }

      .st106 {
        fill: url(#Gold_Radial7);
      }

      .st107 {
        fill: url(#Gold_Radial9);
      }

      .st108 {
        fill: url(#Gold_Radial21);
      }

      .st109 {
        fill: url(#Gold_Radial20);
      }

      .st110 {
        fill: url(#Gold_Radial19);
      }

      .st111 {
        fill: url(#Gold_Radial18);
      }

      .st112 {
        fill: url(#Gold_Radial17);
      }

      .st113 {
        fill: url(#Gold_Radial12);
      }

      .st114 {
        fill: url(#Gold_Radial16);
      }

      .st115 {
        fill: url(#Gold_Radial15);
      }

      .st116 {
        fill: url(#Gold_Radial14);
      }

      .st117 {
        fill: url(#Gold_Radial13);
      }

      .st118 {
        fill: url(#Gold_Radial11);
      }

      .st119 {
        fill: url(#Gold_Radial10);
      }

      .st7 {
        stroke: #97999c;
        stroke-width: 1.3px;
      }

      .st120 {
        opacity: .2;
      }

      .st8 {
        stroke-width: 2.4px;
      }

      .st37 {
        stroke: url(#Gold19);
      }

      .st37, .st38, .st39 {
        stroke-width: 1.6px;
      }

      .st38 {
        stroke: url(#Gold18);
      }

      .st39 {
        stroke: url(#Gold16);
      }

      .st121 {
        fill: red;
      }

      .st9 {
        stroke: #e6001c;
        stroke-width: 3.3px;
      }

      .st47 {
        stroke: url(#Gold10);
      }

      .st122 {
        fill: #aeb0b3;
      }

      .st48 {
        stroke-dasharray: 63.7 13.3 0 0 0 0;
      }

      .st40 {
        stroke-width: 3.7px;
      }

      .st41 {
        stroke-width: 4.3px;
      }

      .st10 {
        stroke: url(#Gold21);
        stroke-width: 3.5px;
      }

      .st123 {
        fill: #3db8ff;
      }

      .st11 {
        stroke: url(#Gold57);
      }

      .st11, .st12, .st13, .st14, .st15, .st16, .st17, .st18, .st19, .st20, .st21, .st22 {
        stroke-width: 5px;
      }

      .st12 {
        stroke: url(#Gold58);
      }

      .st13 {
        stroke: url(#Gold59);
      }

      .st14 {
        stroke: url(#Gold55);
      }

      .st15 {
        stroke: url(#Gold56);
      }

      .st16 {
        stroke: url(#Gold60);
      }

      .st17 {
        stroke: url(#Gold61);
      }

      .st18 {
        stroke: url(#Gold64);
      }

      .st19 {
        stroke: url(#Gold63);
      }

      .st20 {
        stroke: url(#Gold62);
      }

      .st21 {
        stroke: url(#Gold66);
      }

      .st22 {
        stroke: url(#Gold65);
      }

      .st42 {
        stroke-width: 12.3px;
      }

      .st124 {
        font-family: Acrom-ExtraBold, Acrom;
        font-size: 47.2px;
        font-weight: 700;
      }

      .st124, .st125 {
        fill: #999;
      }

      .st126 {
        clip-path: url(#clippath);
      }

      .st127 {
        fill: url(#Gold_Radial);
      }
    </style>
    <linearGradient id="Gold" x1="228.5" y1="577.2" x2="325.1" y2="577.2" gradientUnits="userSpaceOnUse">
      <stop offset="0" stop-color="#f9bf1e"/>
      <stop offset=".3" stop-color="#fffbc1"/>
      <stop offset=".3" stop-color="#f6edaf"/>
      <stop offset=".4" stop-color="#e1cb82"/>
      <stop offset=".6" stop-color="#c0933b"/>
      <stop offset=".6" stop-color="#b58123"/>
      <stop offset=".9" stop-color="#e9cf76"/>
      <stop offset="1" stop-color="#fffbc1"/>
    </linearGradient>
    <linearGradient id="Gold1" data-name="Gold" x1="228.5" x2="325.1" xlink:href="#Gold"/>
    <linearGradient id="Gold2" data-name="Gold" x1="228.5" x2="325.1" xlink:href="#Gold"/>
    <linearGradient id="Gold3" data-name="Gold" x1="228.5" x2="325.1" xlink:href="#Gold"/>
    <linearGradient id="Gold4" data-name="Gold" x1="228.5" x2="325.1" xlink:href="#Gold"/>
    <linearGradient id="Gold5" data-name="Gold" x1="381.9" y1="807.3" x2="654.5" y2="719.1" xlink:href="#Gold"/>
    <linearGradient id="Gold6" data-name="Gold" x1="384.6" y1="815.8" x2="657.2" y2="727.6" xlink:href="#Gold"/>
    <linearGradient id="Gold7" data-name="Gold" x1="1099.6" y1="296.2" x2="1213.9" y2="296.2" xlink:href="#Gold"/>
    <linearGradient id="Gold8" data-name="Gold" x1="1099.6" y1="282.3" x2="1213.9" y2="282.3" xlink:href="#Gold"/>
    <linearGradient id="Gold9" data-name="Gold" x1="1107.5" y1="619.6" x2="1287.6" y2="619.6" xlink:href="#Gold"/>
    <clipPath id="clippath">
      <path class="st44" d="M1220.5,722.6c1.1,0,.6,1.6,1.6,1.8.6.2.5,1,1.1,1.2.4-.2,1.2-.7,1.7-.7.5-.1.3.7.5,1,.2,0,.7.4.9.5-.3.8.8.9,1.3.8.6-.3,1.7.3,2.3.3.8,0,.2,1.4.3,1.9,0,.7.5,1.9,1.4,1.2.3-.4,1.1,0,.8.4,0,0-.1.4-.1.4-.2,0-.9-.4-.9,0-.2.7.5,1.1.7,1.7,0,.3.4.8.7.7.1-.5.2-1,.7-.9,2.1-.8.5.9.3,1.9.2.8,1.5,1.1,2.2,1.6.6-.2,1.9-1.4,2-.2,2,0,2.8,2.1,4.1,3.1.1.6.9.3,1.3.1.2,0,.5.3.6,0,.4-.2.8.5,1.2.7,1.5-1.2,2.1,1.1,3.2,1.7,2.8,1.9,1-3.7,1.4-5.1.4-3.4-.2-6.9-.1-10.4-2.4-9.1-4.2-7,2.1-14.3,5.4-5.4-8.5-6-2.5-10.2,1.5-1.4,2.3.8,3.5.2,1-1.2-.9-2.1-1.2-3.1-.5-1.9,1-3.5,2.4-4.6,1-.4,2.4-.3,3.3-1.2,1.2-1.4,1.7-3.4,3.3-4.4,3.1-3.1,2.9-8.3,5.4-12.3,1.7-4-6.7-2.6-.3-7.3,3.4-1.9,3.3-5.4,6.1-6.8,3.9-1.2,12.1-7.5,6.7-10.4.1-3.6,2.8.8,4.1.6,2.1-1.8-3.7-2.7-2.7-4.8-.8-5.3.1-6,3.6-9.4-3.2-6.9,1.8-5.8-2.2-8.4-1.3-2.3,4.2-3.5,4.8-6.1-2.9-8.6-2.1,6.1-5.4-1.2-4.7-1.1-6.9-7.1-9.5-3.2-1.1,1.2-2.2,2.7-3.9,2.1-1.3-1.6-1.8.3-3.3.2-1.3-1.7-1.9-2.1-4.3-2.4-5.5-1.1-11.4-19.1-16.4-8.1-.4,2.6-4.3,1.8-3.7-.6,1.2-2.7-1.4-4.6-1.4-6.8.2-2.9-2.1-2.3-3.6-1.3-.5,0-2.2-3.3-3.6-4.1-2.6,1-1.5.6-4-.6-1.7-1.1-2.6-3.7-3.8-5.4-2.6.2-5.4-4.8-3-5.6.8-3.7-6.4-2.9-1.7-5.7.5-5.9-3-3.6-.8-7.2-.2,0-3-.2-3.2-1.6-1.2-1.5-2,3.4-2.2,1.7-.8-1.4-.7-3.6-1.3-5.1-.1-3.8-3.3.6-1.6,2.1,1.2.5.8,1.2,0,1.6-3.2,1.5-1-3.2-3.6-3.5-1.8-2.7-.6-4.9,0-7.8-3.1-1-2.7.4-4.3-3-2,.5-3.7-2.8-.9-1.3,2.6-4,1.3-4.4,0-4.5-4.2-1,4.7-3.6-2.9-6.5,2.4-5.1-2.9-6.1-1.7-10.5-.3-.3-.8-.3-1.1.1-.7,3.9-2.6-.9-1.3-1.9.2-.3.7-.2,2,.4-.2-2,4-3.6.3-4.5-.6.7.4,3.5-1.8,1.7-.3-.8.7-2.9,1.7-2.5.4-1.6-1.9-5.2,1.4-4.2,3.3.4-1.3-2.1-.2-3.4,2.8.1,1.9-.7,1-2.3,2.3-2.8-.2-1.6-1.4-2.4-.2-1.4.5-2.8,1.9-3.1.1-.4.4-1.5.6-1.9-1.8.7-2.3-1.6-3.8-2.1-.4,0-1.6.2-1.7-.2,0-1.1.3-2.5,1.2-3.2.3-.3,1.1-1,1.6-1.1-.2-.4-.5-.7-.9-.9-4.2-2.9,2.9-2.4-2.8-5.9-.2,0-1.1-.9-1.3-.8-.3.3-.8.5-1.2.6-.8.2-1.9-.4-2.6-.8-2.2-.3-.4,2.7-1.3,4.9.3.8-1.2.2-1.7.3-1.9,2.5-3.3.7-5.3-.3-6.5-2.8-2.6-3.6-5.3-8.9-1.6.3-3.8,2.1-5.6,2.5-4.4.6-7.8-1.7-8,4.5-.4.4.7,2.1.8,2.9-.4.6-1.2.6-1.6,1.2.1.8.3,2.1.4,2.8-.5.7-.6,1.7-.4,2.5.8,2.1-1.3,1.3-2.4,2.2-8.4.9-14,7.6-13.5,15.8.7,3.8-4,1.9-5.1,4.5-6.7,5.4,4.2,5.6-.6,10.8-1.9.6-1,2.3-.6,3.6-3.2,1-.5,3-6.1,4-.3.4-.9.5-1.1,1-.7,0-2.2,0-1.8,1.1-.3.4.2,1.2.3,1.6-.2,1,0,2.2.4,3.1.5.5,1.3,1,1.6,1.7.2.9.9.4,1.5.4,1.6,1.7-.5,5.7-2.8,5.5-.6,1.1-1.6,1.4-2.8,1.3-.4.4,0,1-.5,1.4.2.6.2,1.1-.4,1.4-.2.2-.6,0-.9,0-.7.3-1.2-.3-1.7-.8-.6.4-1.2.6-1.3,1.3-1.9,1.3-1.4-.9-3.2.5,0,.6,0,1.1-.6,1.4.4.7.3,1.4-.3,1.9-.4.8-.2,1.4.2,2.1-.6.6.4,1.3.4,2,.2.6-1,.9-1,1.6-.2,1.1,0,1.2-1.2,1.4-.2.8-.2,2.2-.3,2.8-.3.1,0,.6,0,.8,0,.5-.2,1.1,0,1.5-.8,1-2.4,1.8-3.4,2.4-.4.8-.8,1.7-1.7,1.9.2.3-.3.7-.5,1-1.6,1.8.9,1.6,1.7,2.4,1.4,1.6,3.8,1.4,5.5,2.4.3,1,1.7.5,1.9,1.5,0,.6,1,.7,1.1,1.3-.3,1.2,0,1.3-1,.9-.8.1,3,1.6-.4,1.5-.8,2.7-.9,1.4-1.6,0-.6.1-.7,1-1.3,1.1-.8,0-1.2-1.3-1.8-1.3-.8.5-.6,1.5.2,2.2,0,.8-.6,1.7.2,2.2,1.6,1.5-.3,1.3-1.2,1.7-.2.3-1.4.1-1.1.7.7.5,2,0,2.4,1.1.2,3.1-2.1.4-2.1,1.6-.2.5.2,1.2.3,1.7,0,1.6-1.8,0-2.2,1.4-.2.7.5,1.3.9,1.8.6,1.7,1.5,2.5-.1,3.9,0,.9.7,1.5,1.3,2.2-.3,2,.2,4,.7,5.9-.5,3,2.4.8,4.1,1,.9-.9,1.1,0,1.9.2,1.6-1.9,2-1,2.8.9-.4,1.6,1.1,1.9,1.4,3.3.5,1.6,2.2,1.7,2.2,4.4,0,.9.9,1.8,1.3,2.5.3.9.4,2.3,1.1,3,.4,1.3,2.7.3,2.2,2.2.3,2.7-1.3,1.6-.6,4.2-.8.7-.1,1.7-.3,2.6-.3,1.6.7.8,1.7.8,5.2,2,3.4-3.3,9.4.7.4.5,0,1.1-.1,1.5.7.6,1.7,2.1,2.4,2.5-4.2,6-9,9.7-.3,14.1.4.4.8.6,1.3-.2.6.9,1.9.8,2.7.6.3.3-.5,1.7,1,1,2.1-.8-1.9,2.7-.9,6,3.7,7.3-5.9.9-3.7,6.8-2.4,1.4-2.5,4.1-2.5,6.6-1.2.7-2.6,1.3-3.5,2.4-.9.4-1.9.9-2.3,1.9,0,2.4,1.2,4.2,3.8,3.1.3-.7.5-.6,1.1-.3.6,1.4-.2,1.5-.6,2.7.6,0,.8.3.6.8,0,.3.2,1.1,0,1.4-.8-.2-1.2,1.1-2,1.2,0,.4,0,1-.4,1.2-.8,0-1.5.5-2,1.1-1.2.1-1.4,1.3-.9,2.3-.4,1.1-1.6,1.4-2.7,1.6-.2.1-.7.5-1,.7-.2-.2-.5-.3-.7-.2-1,.3-1.6,1.7-2.4,1.8-2.3,0-.1,1.8.5,2.7,1.5-.5,2.9-1.5,4.4-1.9.2,1,.4,2.1,1.1,3,1.7,2.5-2.8.9-1.5,4.3,1,1.9,3.8,1.6,3.3,4.3,2.4.5,3.1,3.7,4.5,3.3.5-.4.8,0,1.1.3,3.2-1,4,2.2,7.6-1,1.8-.8,3.5,2,5.2.6,1.8-1.3,3.2,1.1,4.5,2,1.1.4,2.8-.7,3.4.7,0,.8,0,1.8.4,2.6.5.3,1.1.6,1.1,1.2.3.8,0,1.7-.6,2.3.2,1.5.6,3.2,1.6,4.4.5-.1.7-.5.8-.9,1.2-.5,1.2,1,.9,1.7-.1,2-1.6-.6-1.8,1.7,1,2.7,4.5-3.1,5.9-.5.3.2.8,1.1,1.1.4,1,.2,2.1-.6,3.1-.7.8.2.9,1.3.5,1.9.1.2.3.3.6.1.6,0,1.4,0,1.9.3,2.3,1.8,2.1-8.1,5.3-5.7.5,0,1,0,1.5,0,.3,0,1-.8,1.1-.4-.6.9,1.1-.2,1.4.5.4.5-.1,1.6.1,2.1,1.1,1,2.8,1.9,4.4,1.8,0-1.9-1.1-4.1.6-5.7.7-1,1.8-1,2.4-.1,1-.6,2.3-.7,2-2.2,1.2-1.6.5-3.7,1-5.5.6,0,.6,1,1.1,1.2,1.3,0,2.8-1.6,1.9.9.8.2,1.4-1.1,2.1-1.3.5-.1.4-.9,1-1,.1.2.4.6.5.8.2-.1.6-.2.8-.3-.1-.9-1.2-1.8-1.4-2.8-.2-1.8,3.1-1.3,4.1-2.8.9-1,.7,0,1.1.6.5,0,1.4-.3,1.9,0,.4.3,1.2,0,1.7,0,.6.7,1.4.4,2.1.1,1.2.3,3.6.8,3.1-1.2.2,0,.7.4.9.4.4,0,1.3-.6,1.6-.3,0,.1.3.2.4,0,.3-.5,1.2.5,1.6.2.4-.2.3-1.3.4-1.7.8.1,0-1.3-.6-1.2"/>
    </clipPath>
    <linearGradient id="Gold10" data-name="Gold" x1="1107.5" y1="619.6" x2="1287.6" y2="619.6" xlink:href="#Gold"/>
    <linearGradient id="Gold11" data-name="Gold" x1="1099.2" y1="301.2" x2="1160.3" y2="301.2" gradientTransform="translate(-166.4 399.1) rotate(-5.2)" xlink:href="#Gold"/>
    <linearGradient id="Gold12" data-name="Gold" x1="1139.6" y1="780.6" x2="1067" y2="780.6" gradientTransform="translate(-112.7 -145.8)" xlink:href="#Gold"/>
    <linearGradient id="Gold13" data-name="Gold" x1="3105.2" y1="1249.4" x2="3093.2" y2="1249.4" gradientTransform="translate(-7443.3 -1226.8) scale(2.7 1.5)" xlink:href="#Gold"/>
    <linearGradient id="Gold14" data-name="Gold" x1="3105.2" y1="1253.4" x2="3093.2" y2="1253.4" gradientTransform="translate(-7442.7 -1226.8) scale(2.7 1.5)" xlink:href="#Gold"/>
    <linearGradient id="Gold15" data-name="Gold" x1="3105.2" y1="1257.5" x2="3093.2" y2="1257.5" gradientTransform="translate(-7442.2 -1226.8) scale(2.7 1.5)" xlink:href="#Gold"/>
    <linearGradient id="Gold16" data-name="Gold" x1="603.7" y1="482.7" x2="603.2" y2="365.1" gradientTransform="translate(-539.2 79) rotate(-18.3)" xlink:href="#Gold"/>
    <linearGradient id="Gold17" data-name="Gold" x1="603.7" y1="410.7" x2="603.5" y2="382.1" gradientTransform="translate(-539.2 79) rotate(-18.3)" xlink:href="#Gold"/>
    <linearGradient id="Gold18" data-name="Gold" x1="395.4" y1="692.3" x2="419.8" y2="692.3" gradientTransform="translate(-391.1 -454.7) rotate(-29.4) scale(1.2 1.3) skewX(-22.3)" xlink:href="#Gold"/>
    <linearGradient id="Gold19" data-name="Gold" x1="606.8" y1="382.2" x2="623.7" y2="382.2" gradientTransform="translate(-539.2 79) rotate(-18.3)" xlink:href="#Gold"/>
    <linearGradient id="Gold20" data-name="Gold" x1="589.4" y1="629.8" x2="722.4" y2="629.8" xlink:href="#Gold"/>
    <linearGradient id="Gold21" data-name="Gold" x1="591.8" y1="606.1" x2="721" y2="606.1" xlink:href="#Gold"/>
    <linearGradient id="Gold22" data-name="Gold" x1="177.7" y1="750.8" x2="274.9" y2="750.8" xlink:href="#Gold"/>
    <radialGradient id="Gold_Radial" data-name="Gold Radial" cx="177.8" cy="444.7" fx="177.8" fy="444.7" r="194.6" gradientUnits="userSpaceOnUse">
      <stop offset="0" stop-color="#fffbc1"/>
      <stop offset=".1" stop-color="#f9f0af"/>
      <stop offset=".3" stop-color="#ecd683"/>
      <stop offset=".4" stop-color="#e9cf76"/>
      <stop offset=".7" stop-color="#e5ae11"/>
      <stop offset="1" stop-color="#b58123"/>
    </radialGradient>
    <radialGradient id="Gold_Radial1" data-name="Gold Radial" cx="177.8" cy="444.7" fx="177.8" fy="444.7" r="194.6" xlink:href="#Gold_Radial"/>
    <radialGradient id="Gold_Radial2" data-name="Gold Radial" cx="177.8" cy="444.7" fx="177.8" fy="444.7" r="194.6" xlink:href="#Gold_Radial"/>
    <radialGradient id="Gold_Radial3" data-name="Gold Radial" cx="177.8" cy="444.7" fx="177.8" fy="444.7" r="194.6" xlink:href="#Gold_Radial"/>
    <radialGradient id="Gold_Radial4" data-name="Gold Radial" cx="177.8" cy="444.7" fx="177.8" fy="444.7" r="194.6" xlink:href="#Gold_Radial"/>
    <radialGradient id="Gold_Radial5" data-name="Gold Radial" cx="177.8" cy="444.7" fx="177.8" fy="444.7" r="194.6" xlink:href="#Gold_Radial"/>
    <radialGradient id="Gold_Radial6" data-name="Gold Radial" cx="177.8" cy="444.7" fx="177.8" fy="444.7" r="194.6" xlink:href="#Gold_Radial"/>
    <radialGradient id="Gold_Radial7" data-name="Gold Radial" cx="177.8" cy="444.7" fx="177.8" fy="444.7" r="194.6" xlink:href="#Gold_Radial"/>
    <radialGradient id="Gold_Radial8" data-name="Gold Radial" cx="177.8" cy="444.7" fx="177.8" fy="444.7" r="194.6" xlink:href="#Gold_Radial"/>
    <radialGradient id="Gold_Radial9" data-name="Gold Radial" cx="177.8" cy="444.7" fx="177.8" fy="444.7" r="194.6" xlink:href="#Gold_Radial"/>
    <radialGradient id="Gold_Radial10" data-name="Gold Radial" cx="177.8" cy="444.7" fx="177.8" fy="444.7" r="194.6" xlink:href="#Gold_Radial"/>
    <radialGradient id="Gold_Radial11" data-name="Gold Radial" cx="177.8" cy="444.7" fx="177.8" fy="444.7" r="194.6" xlink:href="#Gold_Radial"/>
    <radialGradient id="Gold_Radial12" data-name="Gold Radial" cx="177.8" cy="444.7" fx="177.8" fy="444.7" r="194.6" xlink:href="#Gold_Radial"/>
    <radialGradient id="Gold_Radial13" data-name="Gold Radial" cx="177.8" cy="444.7" fx="177.8" fy="444.7" r="194.6" xlink:href="#Gold_Radial"/>
    <radialGradient id="Gold_Radial14" data-name="Gold Radial" cx="177.8" cy="444.7" fx="177.8" fy="444.7" r="194.6" xlink:href="#Gold_Radial"/>
    <radialGradient id="Gold_Radial15" data-name="Gold Radial" cx="177.8" cy="444.7" fx="177.8" fy="444.7" r="194.6" xlink:href="#Gold_Radial"/>
    <radialGradient id="Gold_Radial16" data-name="Gold Radial" cx="177.8" cy="444.7" fx="177.8" fy="444.7" r="194.6" xlink:href="#Gold_Radial"/>
    <radialGradient id="Gold_Radial17" data-name="Gold Radial" cx="177.8" cy="444.7" fx="177.8" fy="444.7" r="194.6" xlink:href="#Gold_Radial"/>
    <radialGradient id="Gold_Radial18" data-name="Gold Radial" cx="177.8" cy="444.7" fx="177.8" fy="444.7" r="194.6" xlink:href="#Gold_Radial"/>
    <radialGradient id="Gold_Radial19" data-name="Gold Radial" cx="177.8" cy="444.7" fx="177.8" fy="444.7" r="194.6" xlink:href="#Gold_Radial"/>
    <radialGradient id="Gold_Radial20" data-name="Gold Radial" cx="177.8" cy="444.7" fx="177.8" fy="444.7" r="194.6" xlink:href="#Gold_Radial"/>
    <radialGradient id="Gold_Radial21" data-name="Gold Radial" cx="177.8" cy="444.7" fx="177.8" fy="444.7" r="194.6" xlink:href="#Gold_Radial"/>
    <linearGradient id="Gold23" data-name="Gold" x1="427.3" y1="496.2" x2="643.4" y2="289.6" xlink:href="#Gold"/>
    <linearGradient id="Gold24" data-name="Gold" x1="427.3" y1="496.2" x2="643.4" y2="289.6" xlink:href="#Gold"/>
    <linearGradient id="Gold25" data-name="Gold" x1="404.1" y1="472" x2="620.3" y2="265.4" xlink:href="#Gold"/>
    <linearGradient id="Gold26" data-name="Gold" x1="421.4" y1="490.1" x2="637.6" y2="283.5" xlink:href="#Gold"/>
    <linearGradient id="Gold27" data-name="Gold" x1="407.2" y1="475.3" x2="623.4" y2="268.6" xlink:href="#Gold"/>
    <linearGradient id="Gold28" data-name="Gold" x1="384.1" y1="451.1" x2="600.3" y2="244.5" xlink:href="#Gold"/>
    <linearGradient id="Gold29" data-name="Gold" x1="459.7" y1="530.2" x2="675.9" y2="323.5" xlink:href="#Gold"/>
    <linearGradient id="Gold30" data-name="Gold" x1="455.3" y1="525.6" x2="671.5" y2="318.9" xlink:href="#Gold"/>
    <linearGradient id="Gold31" data-name="Gold" x1="424.4" y1="493.2" x2="640.6" y2="286.6" xlink:href="#Gold"/>
    <linearGradient id="Gold32" data-name="Gold" x1="397.2" y1="464.8" x2="613.4" y2="258.2" xlink:href="#Gold"/>
    <linearGradient id="Gold33" data-name="Gold" x1="421.8" y1="490.5" x2="638" y2="283.9" xlink:href="#Gold"/>
    <linearGradient id="Gold34" data-name="Gold" x1="480" y1="551.5" x2="696.2" y2="344.8" xlink:href="#Gold"/>
    <linearGradient id="Gold35" data-name="Gold" x1="372.2" y1="438.6" x2="588.4" y2="232" xlink:href="#Gold"/>
    <linearGradient id="Gold36" data-name="Gold" x1="451.6" y1="521.7" x2="667.8" y2="315.1" xlink:href="#Gold"/>
    <linearGradient id="Gold37" data-name="Gold" x1="484.2" y1="555.8" x2="700.4" y2="349.2" xlink:href="#Gold"/>
    <linearGradient id="Gold38" data-name="Gold" x1="434.3" y1="503.7" x2="650.5" y2="297" xlink:href="#Gold"/>
    <linearGradient id="Gold39" data-name="Gold" x1="431.5" y1="500.7" x2="647.7" y2="294" xlink:href="#Gold"/>
    <linearGradient id="Gold40" data-name="Gold" x1="387.1" y1="454.2" x2="603.3" y2="247.6" xlink:href="#Gold"/>
    <linearGradient id="Gold41" data-name="Gold" x1="354.9" y1="420.5" x2="571" y2="213.9" xlink:href="#Gold"/>
    <linearGradient id="Gold42" data-name="Gold" x1="461.6" y1="532.2" x2="677.8" y2="325.5" xlink:href="#Gold"/>
    <linearGradient id="Gold43" data-name="Gold" x1="402.1" y1="469.9" x2="618.3" y2="263.2" xlink:href="#Gold"/>
    <linearGradient id="Gold44" data-name="Gold" x1="493.7" y1="565.8" x2="709.9" y2="359.1" xlink:href="#Gold"/>
    <linearGradient id="Gold45" data-name="Gold" x1="316.1" y1="404.7" x2="298.7" y2="406.4" xlink:href="#Gold"/>
    <linearGradient id="Gold46" data-name="Gold" x1="314.3" y1="359.9" x2="300.5" y2="361.2" xlink:href="#Gold"/>
    <linearGradient id="Gold47" data-name="Gold" x1="319.8" y1="454.3" x2="295" y2="456.7" xlink:href="#Gold"/>
    <linearGradient id="Gold48" data-name="Gold" x1="322.5" y1="459" x2="292.3" y2="461.9" xlink:href="#Gold"/>
    <linearGradient id="Gold49" data-name="Gold" x1="316" y1="349.3" x2="298.8" y2="351" xlink:href="#Gold"/>
    <linearGradient id="Gold50" data-name="Gold" x1="416.2" y1="404.7" x2="398.8" y2="406.4" xlink:href="#Gold"/>
    <linearGradient id="Gold51" data-name="Gold" x1="414.4" y1="359.9" x2="400.6" y2="361.2" xlink:href="#Gold"/>
    <linearGradient id="Gold52" data-name="Gold" x1="419.9" y1="454.3" x2="395.1" y2="456.7" xlink:href="#Gold"/>
    <linearGradient id="Gold53" data-name="Gold" x1="422.6" y1="459" x2="392.4" y2="461.9" xlink:href="#Gold"/>
    <linearGradient id="Gold54" data-name="Gold" x1="416.1" y1="349.3" x2="398.9" y2="351" xlink:href="#Gold"/>
    <linearGradient id="Gold55" data-name="Gold" x1="122" y1="106.1" x2="208" y2="106.1" xlink:href="#Gold"/>
    <linearGradient id="Gold56" data-name="Gold" x1="208.9" y1="106.1" x2="307.2" y2="106.1" xlink:href="#Gold"/>
    <linearGradient id="Gold57" data-name="Gold" x1="294.7" y1="106.1" x2="393.1" y2="106.1" xlink:href="#Gold"/>
    <linearGradient id="Gold58" data-name="Gold" x1="406" y1="106.1" x2="476" y2="106.1" xlink:href="#Gold"/>
    <linearGradient id="Gold59" data-name="Gold" x1="530.5" y1="106.1" x2="607" y2="106.1" xlink:href="#Gold"/>
    <linearGradient id="Gold60" data-name="Gold" x1="621.2" y1="106.1" x2="701.7" y2="106.1" xlink:href="#Gold"/>
    <linearGradient id="Gold61" data-name="Gold" x1="724" y1="106.1" x2="794" y2="106.1" xlink:href="#Gold"/>
    <linearGradient id="Gold62" data-name="Gold" x1="856.6" y1="106.1" x2="944.4" y2="106.1" xlink:href="#Gold"/>
    <linearGradient id="Gold63" data-name="Gold" x1="944.2" y1="106.1" x2="1042.4" y2="106.1" xlink:href="#Gold"/>
    <linearGradient id="Gold64" data-name="Gold" x1="1036.4" y1="106.1" x2="1112.9" y2="106.1" xlink:href="#Gold"/>
    <linearGradient id="Gold65" data-name="Gold" x1="1127" y1="106.1" x2="1197" y2="106.1" xlink:href="#Gold"/>
    <linearGradient id="Gold66" data-name="Gold" x1="1205.8" y1="106.6" x2="1235.3" y2="106.6" xlink:href="#Gold"/>
    <linearGradient id="linear-gradient" x1="738.1" y1="989.8" x2="738.1" y2="841.2" gradientUnits="userSpaceOnUse">
      <stop offset=".3" stop-color="#f9bf1e"/>
      <stop offset=".4" stop-color="#fffbc1"/>
      <stop offset=".4" stop-color="#f6edaf"/>
      <stop offset=".5" stop-color="#e1cb82"/>
      <stop offset=".6" stop-color="#c0933b"/>
      <stop offset=".6" stop-color="#b58123"/>
      <stop offset=".9" stop-color="#e9cf76"/>
      <stop offset="1" stop-color="#fffbc1"/>
    </linearGradient>
  </defs>
  <g class="st67">
    <g id="DARKMODE">
      <rect class="st61" x="-425.2" y="-164.5" width="2330.7" height="1412.4"/>
      <g>
        <g>
          <rect class="st96" x="214" y="539.3" width="101.9" height="67.5"/>
          <path class="st122" d="M314.5,540.7v64.7h-99.1v-64.7h99.1M317.3,537.9h-104.7v70.3h104.7v-70.3h0Z"/>
        </g>
        <g>
          <rect x="214" y="539.3" width="101.9" height="67.5"/>
          <path class="st4" d="M314.5,540.7v64.7h-99.1v-64.7h99.1M317.3,537.9h-104.7v70.3h104.7v-70.3h0Z"/>
        </g>
        <g>
          <path class="st0" d="M246.2,573.1v3.1l3-.9.4,1.5-3,.9,2,2.4-1.3,1-1.9-2.5-1.7,2.5-1.3-.8,1.9-2.6-3-.9.5-1.5,3,.9v-3.1h1.6Z"/>
          <path class="st55" d="M256,573.1v3.1l3-.9.4,1.5-3,.9,2,2.4-1.3,1-1.9-2.5-1.7,2.5-1.3-.8,1.9-2.6-3-.9.5-1.5,3,.9v-3.1h1.6Z"/>
          <path class="st56" d="M265.7,573.1v3.1l3-.9.4,1.5-3,.9,2,2.4-1.3,1-1.9-2.5-1.7,2.5-1.3-.8,1.9-2.6-3-.9.5-1.5,3,.9v-3.1h1.6Z"/>
          <path class="st50" d="M275.5,573.1v3.1l3-.9.4,1.5-3,.9,2,2.4-1.3,1-1.9-2.5-1.7,2.5-1.3-.8,1.9-2.6-3-.9.5-1.5,3,.9v-3.1h1.6Z"/>
          <path class="st49" d="M285.3,573.1v3.1l3-.9.4,1.5-3,.9,2,2.4-1.3,1-1.9-2.5-1.7,2.5-1.3-.8,1.9-2.6-3-.9.5-1.5,3,.9v-3.1h1.6Z"/>
        </g>
        <rect class="st7" x="227" y="570.3" width="75.8" height="13.7"/>
        <line class="st5" x1="243.3" y1="558.4" x2="286.6" y2="558.4"/>
      </g>
      <g>
        <path class="st125" d="M399.2,800c2.7-.5,5,1.4,5.5,3.8.5,2.7-1.4,4.8-3.7,5.2-2.9.5-5-1.3-5.5-3.7,0-.5-.3-1,0-1.6.5-1.9,1.9-3.4,3.7-3.8ZM405.3,787.4c2.7-.5,5,1.2,5.5,3.7.5,2.7-1.3,4.9-3.6,5.3-2.7.5-5-.9-5.5-3.8-.4-2.4,1.2-4.8,3.6-5.2ZM411.4,797.7c2.7-.5,5.1,1.3,5.6,3.6.5,2.7-1.4,4.9-3.8,5.4-2.9.5-4.9-1.3-5.3-3.6-.1-.7-.1-1.3,0-1.7.5-1.9,1.8-3.4,3.6-3.7ZM411.5,776c2.9-.5,5.2,1.4,5.6,3.6.5,2.7-1.4,5-3.7,5.5-2.7.5-5.2-1.5-5.6-3.8,0-.4,0-.9,0-1.5.2-2,1.8-3.5,3.7-3.9ZM417.2,764.1c2.7-.5,5.1,1.5,5.5,3.8.5,2.5-1.5,5.1-3.8,5.5-2.7.5-5-1.7-5.4-3.9,0-.4,0-.9,0-1.5.2-2,1.8-3.5,3.7-3.9ZM423,752c2.7-.5,5,1.4,5.5,3.7.5,2.7-1.4,5-3.7,5.5-2.7.5-5-1.3-5.5-3.7,0-.4,0-.9,0-1.5.2-2.1,1.8-3.6,3.7-4ZM423.8,795.5c2.7-.5,5.1,1.3,5.6,3.6.5,2.7-1.4,4.9-3.7,5.3-2.7.5-5-1.2-5.4-3.5,0-.5,0-1.1,0-1.7.3-1.9,1.7-3.4,3.5-3.7ZM429.2,740.6c2.7-.5,5,1.4,5.5,3.7.5,2.9-1.5,5.1-3.8,5.5-2.7.5-5-1.4-5.5-3.7,0-.4,0-.9,0-1.5.2-2.1,1.9-3.7,3.8-4ZM437,793c2.7-.5,5,1.4,5.5,3.8.5,2.7-1.6,4.8-3.8,5.2-2.7.5-4.9-1.1-5.3-3.6,0-.5,0-1.1,0-1.7.3-1.9,1.8-3.4,3.6-3.7ZM444.7,765.2c2.7-.5,5.1,1.5,5.5,3.8.5,2.9-1.4,4.9-3.7,5.3-2.9.5-5-1.4-5.5-3.7,0-.5,0-1.1,0-1.7.3-1.9,1.8-3.4,3.6-3.7ZM447.2,778c2.7-.5,5,1.5,5.4,3.8.5,2.7-1.4,4.9-3.7,5.3-2.7.5-5-1.3-5.5-3.7,0-.5,0-1.1,0-1.7.2-2,1.8-3.4,3.7-3.8ZM449.4,790.8c2.9-.5,5.1,1.5,5.5,3.8.5,2.7-1.3,4.8-3.7,5.2-2.7.5-5-1.2-5.4-3.5,0-.5,0-1.1,0-1.7.3-1.9,1.8-3.4,3.6-3.7ZM452,804.3c2.9-.5,4.9,1.4,5.3,3.7.5,2.7-1.3,5-3.7,5.5-2.7.5-5-1.4-5.5-3.7,0-.5,0-1.1,0-1.7.2-2,1.9-3.4,3.7-3.8ZM454.3,816.7c2.9-.5,4.9,1.4,5.3,3.7.5,2.7-1.3,5-3.7,5.5-2.7.5-5-1.3-5.5-3.7,0-.5,0-1.1,0-1.7.2-2,1.8-3.4,3.7-3.8ZM461.5,788.5c2.9-.5,5.1,1.5,5.5,3.8.5,2.7-1.3,4.8-3.7,5.2-2.7.5-5-1.3-5.4-3.5,0-.5,0-1.1,0-1.7.5-2.2,1.6-3.4,3.6-3.7Z"/>
        <path class="st125" d="M469,750.8c-.4-2.4,1.4-4.9,3.8-5.4,2.4-.4,4.9,1.1,5.4,3.8.5,2.7-1.4,4.9-3.8,5.4-1.1.2-2.1,0-3-.5-1.2-.8-2.1-1.8-2.3-3.3ZM475.1,739.5c-.5-2.7,1.5-5,3.8-5.4,2.3-.4,4.9,1.4,5.4,3.8.4,2.4-1.1,4.9-3.8,5.4-1.2.2-2.2,0-3.2-.5-1.3-.9-2-2-2.2-3.3ZM486.3,811.3c2.7-.5,4.9,1.1,5.3,3.6.5,2.7-1.2,5-3.7,5.5-2.7.5-4.9-1.4-5.4-3.8,0-.5-.3-1,0-1.6.5-2.1,1.7-3.3,3.8-3.6ZM486.6,733.1c-.5-2.5,1.4-4.9,3.8-5.4,2.7-.5,4.9,1.4,5.3,3.7.5,2.5-1.5,5-3.8,5.4-1.1.2-2.1,0-3.1-.7-1.2-.6-2-1.7-2.3-3ZM493.6,799.1c2.7-.5,4.8,1.4,5.2,3.7.5,2.7-1.1,4.9-3.6,5.3-2.7.5-5-1.2-5.4-3.5,0-.5,0-1.1,0-1.7.2-2,1.8-3.4,3.7-3.8ZM498.9,808.8c2.7-.5,5.2,1.4,5.6,3.6.5,2.9-1.4,4.9-3.8,5.4-2.7.5-4.9-1.3-5.3-3.6,0-.5,0-1.1,0-1.7.3-1.9,1.7-3.4,3.5-3.7ZM501.8,788c2.7-.5,5.2,1.4,5.6,3.6.5,2.9-1.5,5-3.8,5.4-2.8.5-4.9-1.3-5.3-3.7,0-.5-.3-1,0-1.7.5-1.9,1.9-3.3,3.6-3.6ZM499.5,730.3c-.5-2.5,1.4-4.9,3.8-5.4,2.7-.5,4.9,1.4,5.3,3.7.5,2.7-1.5,5.1-3.8,5.5-1.1.2-2.1,0-3.1-.7-1.2-.8-2.1-1.8-2.3-3.1ZM507.4,783.4c-.5-2.7,1.4-4.9,3.7-5.3,2.7-.5,5.1,1.5,5.5,3.8.4,2.4-1.4,4.9-3.8,5.4-1.2.2-2.2,0-3.2-.6-1.2-.8-1.9-1.9-2.2-3.2ZM512,806.4c2.7-.5,5,1.3,5.5,3.7.5,2.7-1.4,4.9-3.7,5.3-2.7.5-5-1.3-5.4-3.5,0-.5,0-1.1,0-1.7.3-1.9,1.8-3.4,3.6-3.7ZM512.6,735.8c-.5-2.5,1.4-4.8,3.8-5.2,2.7-.5,4.9,1.3,5.3,3.7.5,2.7-1.5,5-3.8,5.4-1.1.2-2.1,0-3.1-.7-1.2-.6-2-1.7-2.3-3.1ZM515.2,772.9c-.4-2.4,1.3-4.8,3.8-5.2,2.7-.5,4.8,1.3,5.2,3.7.5,2.7-1.4,4.9-3.7,5.3-1.1.2-2.1,0-3.1-.7-1.2-.6-2-1.7-2.3-3.1ZM520.3,746.5c-.4-2.4,1.2-4.8,3.7-5.2,2.7-.5,4.9,1.3,5.3,3.6.4,2.4-1.3,5-3.8,5.5-1.1.2-2.1,0-3.1-.7-1.2-.8-1.9-1.9-2.2-3.2ZM520.7,760.2c-.5-2.7,1.5-5,3.8-5.4,2.4-.4,4.9,1.4,5.4,3.8.4,2.3-1.4,4.9-3.7,5.3-1.2.2-2.3,0-3.3-.6-1.2-.8-1.9-1.9-2.2-3.2ZM525.3,803.9c2.7-.5,4.9,1.4,5.4,3.8.5,2.7-1.4,4.8-3.7,5.2-2.7.5-4.9-1.2-5.3-3.7,0-.5-.3-1,0-1.6.5-1.9,1.9-3.4,3.7-3.8ZM537.9,801.6c2.7-.5,5,1.3,5.5,3.8.5,2.7-1.6,4.8-3.8,5.2-2.7.5-4.8-1.3-5.2-3.7,0-.5-.3-1,0-1.6.5-2.2,1.6-3.4,3.6-3.7Z"/>
      </g>
      <g>
        <path class="st52" d="M404.3,802.8c2.7-.5,5,1.4,5.5,3.8.5,2.7-1.4,4.8-3.7,5.2-2.9.5-5-1.3-5.5-3.7,0-.5-.3-1,0-1.6.5-1.9,1.9-3.4,3.7-3.8ZM410.4,790.3c2.7-.5,5,1.2,5.5,3.7.5,2.7-1.3,4.9-3.6,5.3-2.7.5-5-.9-5.5-3.8-.4-2.4,1.2-4.8,3.6-5.2ZM416.4,800.6c2.7-.5,5.1,1.3,5.6,3.6.5,2.7-1.4,4.9-3.8,5.4-2.9.5-4.9-1.3-5.3-3.6-.1-.7-.1-1.3,0-1.7.5-1.9,1.8-3.4,3.6-3.7ZM416.6,778.8c2.9-.5,5.2,1.4,5.6,3.6.5,2.7-1.4,5-3.7,5.5-2.7.5-5.2-1.5-5.6-3.8,0-.4,0-.9,0-1.5.2-2,1.8-3.5,3.7-3.9ZM422.3,766.9c2.7-.5,5.1,1.5,5.5,3.8.5,2.5-1.5,5.1-3.8,5.5-2.7.5-5-1.7-5.4-3.9,0-.4,0-.9,0-1.5.2-2,1.8-3.5,3.7-3.9ZM428,754.8c2.7-.5,5,1.4,5.5,3.7.5,2.7-1.4,5-3.7,5.5-2.7.5-5-1.3-5.5-3.7,0-.4,0-.9,0-1.5.2-2.1,1.8-3.6,3.7-4ZM428.9,798.3c2.7-.5,5.1,1.3,5.6,3.6.5,2.7-1.4,4.9-3.7,5.3-2.7.5-5-1.2-5.4-3.5,0-.5,0-1.1,0-1.7.3-1.9,1.7-3.4,3.5-3.7ZM434.3,743.4c2.7-.5,5,1.4,5.5,3.7.5,2.9-1.5,5.1-3.8,5.5-2.7.5-5-1.4-5.5-3.7,0-.4,0-.9,0-1.5.2-2.1,1.9-3.7,3.8-4ZM442.1,795.8c2.7-.5,5,1.4,5.5,3.8.5,2.7-1.6,4.8-3.8,5.2-2.7.5-4.9-1.1-5.3-3.6,0-.5,0-1.1,0-1.7.3-1.9,1.8-3.4,3.6-3.7ZM449.8,768c2.7-.5,5.1,1.5,5.5,3.8.5,2.9-1.4,4.9-3.7,5.3-2.9.5-5-1.4-5.5-3.7,0-.5,0-1.1,0-1.7.3-1.9,1.8-3.4,3.6-3.7ZM452.2,780.8c2.7-.5,5,1.5,5.4,3.8.5,2.7-1.4,4.9-3.7,5.3-2.7.5-5-1.3-5.5-3.7,0-.5,0-1.1,0-1.7.2-2,1.8-3.4,3.7-3.8ZM454.5,793.6c2.9-.5,5.1,1.5,5.5,3.8.5,2.7-1.3,4.8-3.7,5.2-2.7.5-5-1.2-5.4-3.5,0-.5,0-1.1,0-1.7.3-1.9,1.8-3.4,3.6-3.7ZM457.1,807.1c2.9-.5,4.9,1.4,5.3,3.7.5,2.7-1.3,5-3.7,5.5-2.7.5-5-1.4-5.5-3.7,0-.5,0-1.1,0-1.7.2-2,1.9-3.4,3.7-3.8ZM459.4,819.6c2.9-.5,4.9,1.4,5.3,3.7.5,2.7-1.3,5-3.7,5.5-2.7.5-5-1.3-5.5-3.7,0-.5,0-1.1,0-1.7.2-2,1.8-3.4,3.7-3.8ZM466.6,791.3c2.9-.5,5.1,1.5,5.5,3.8.5,2.7-1.3,4.8-3.7,5.2-2.7.5-5-1.3-5.4-3.5,0-.5,0-1.1,0-1.7.5-2.2,1.6-3.4,3.6-3.7Z"/>
        <path class="st51" d="M474.1,753.6c-.4-2.4,1.4-4.9,3.8-5.4,2.4-.4,4.9,1.1,5.4,3.8.5,2.7-1.4,4.9-3.8,5.4-1.1.2-2.1,0-3-.5-1.2-.8-2.1-1.8-2.3-3.3ZM480.1,742.3c-.5-2.7,1.5-5,3.8-5.4,2.3-.4,4.9,1.4,5.4,3.8.4,2.4-1.1,4.9-3.8,5.4-1.2.2-2.2,0-3.2-.5-1.3-.9-2-2-2.2-3.3ZM491.4,814.2c2.7-.5,4.9,1.1,5.3,3.6.5,2.7-1.2,5-3.7,5.5-2.7.5-4.9-1.4-5.4-3.8,0-.5-.3-1,0-1.6.5-2.1,1.7-3.3,3.8-3.6ZM491.7,735.9c-.5-2.5,1.4-4.9,3.8-5.4,2.7-.5,4.9,1.4,5.3,3.7.5,2.5-1.5,5-3.8,5.4-1.1.2-2.1,0-3.1-.7-1.2-.6-2-1.7-2.3-3ZM498.7,801.9c2.7-.5,4.8,1.4,5.2,3.7.5,2.7-1.1,4.9-3.6,5.3-2.7.5-5-1.2-5.4-3.5,0-.5,0-1.1,0-1.7.2-2,1.8-3.4,3.7-3.8ZM503.9,811.6c2.7-.5,5.2,1.4,5.6,3.6.5,2.9-1.4,4.9-3.8,5.4-2.7.5-4.9-1.3-5.3-3.6,0-.5,0-1.1,0-1.7.3-1.9,1.7-3.4,3.5-3.7ZM506.9,790.8c2.7-.5,5.2,1.4,5.6,3.6.5,2.9-1.5,5-3.8,5.4-2.9.5-4.9-1.3-5.3-3.7,0-.5-.3-1,0-1.7.5-1.9,1.9-3.3,3.6-3.6ZM504.6,733.1c-.5-2.5,1.4-4.9,3.8-5.4,2.7-.5,4.9,1.4,5.3,3.7.5,2.7-1.5,5.1-3.8,5.5-1.1.2-2.1,0-3.1-.7-1.2-.8-2.1-1.8-2.3-3.1ZM512.5,786.2c-.5-2.7,1.4-4.9,3.7-5.3,2.7-.5,5.1,1.5,5.5,3.8.4,2.4-1.4,4.9-3.8,5.4-1.2.2-2.2,0-3.2-.6-1.2-.8-1.9-1.9-2.2-3.2ZM517.1,809.2c2.7-.5,5,1.3,5.5,3.7.5,2.7-1.4,4.9-3.7,5.3-2.7.5-5-1.3-5.4-3.5,0-.5,0-1.1,0-1.7.3-1.9,1.8-3.4,3.6-3.7ZM517.6,738.6c-.5-2.5,1.4-4.8,3.8-5.2,2.7-.5,4.9,1.3,5.3,3.7.5,2.7-1.5,5-3.8,5.4-1.1.2-2.1,0-3.1-.7-1.2-.6-2-1.7-2.3-3.1ZM520.3,775.7c-.4-2.4,1.3-4.8,3.8-5.2,2.7-.5,4.8,1.3,5.2,3.7.5,2.7-1.4,4.9-3.7,5.3-1.1.2-2.1,0-3.1-.7-1.2-.6-2-1.7-2.3-3.1ZM525.4,749.3c-.4-2.4,1.2-4.8,3.7-5.2,2.7-.5,4.9,1.3,5.3,3.6.4,2.4-1.3,5-3.8,5.5-1.1.2-2.1,0-3.1-.7-1.2-.8-1.9-1.9-2.2-3.2ZM525.8,763c-.5-2.7,1.5-5,3.8-5.4,2.4-.4,4.9,1.4,5.4,3.8.4,2.3-1.4,4.9-3.7,5.3-1.2.2-2.3,0-3.3-.6-1.2-.8-1.9-1.9-2.2-3.2ZM530.4,806.7c2.7-.5,4.9,1.4,5.4,3.8.5,2.7-1.4,4.8-3.7,5.2-2.7.5-4.9-1.2-5.3-3.7,0-.5-.3-1,0-1.6.5-1.9,1.9-3.4,3.7-3.8ZM543,804.4c2.7-.5,5,1.3,5.5,3.8.5,2.7-1.6,4.8-3.8,5.2-2.7.5-4.8-1.3-5.2-3.7,0-.5-.3-1,0-1.6.5-2.2,1.6-3.4,3.6-3.7Z"/>
      </g>
      <g>
        <path class="st41" d="M1146.7,323.7c-4.7,4.7-16.6,11.5-22.6,10.1-1.5-6.1,5.3-17.9,10.1-22.6,1.3-1.3,2.8-2.4,4.3-3.2-5.9.9-11.6,3.5-16.1,8-7.3,7.3-15,22.9-12.7,32.3,9.4,2.3,24.9-5.4,32.3-12.7,4.5-4.5,7.2-10.2,8-16.1-.8,1.6-1.9,3-3.2,4.3Z"/>
        <g>
          <line class="st40" x1="1085.9" y1="373.5" x2="1059.8" y2="399.6"/>
          <line class="st40" x1="1096.7" y1="343.4" x2="1066.8" y2="373.3"/>
          <line class="st40" x1="1116.2" y1="363" x2="1098.9" y2="380.3"/>
          <line class="st40" x1="1057.3" y1="382.8" x2="1048.9" y2="391.2"/>
          <line class="st40" x1="1086.4" y1="392.8" x2="1056.3" y2="422.9"/>
          <g>
            <path d="M1145.8,280.8h-6.3c-7.3,0-14.3,2.9-19.5,8.1l-10.4,10.4,24.4,1.2"/>
            <path d="M1175,310v6.3c0,7.3-2.9,14.3-8.1,19.5l-10.4,10.4-1.2-24.4"/>
            <g>
              <path class="st54" d="M1212.6,244.5c-.5-.5-1.2-.7-1.8-.7-22.7,1.1-44.2,10.6-60.3,26.7-2.5,2.5-4.8,5.1-7,7.8h-4c-8,0-15.6,3.1-21.2,8.8l-10.4,10.4c-.7.7-.9,1.7-.6,2.6.3.9,1.2,1.5,2.2,1.6l20.8,1.1c.1.3.3.7.6.9l22.2,22.2,1,20.4c0,1,.7,1.8,1.6,2.2.3.1.6.2.9.2.6,0,1.3-.2,1.7-.7l10.4-10.4c5.7-5.7,8.8-13.2,8.8-21.2v-1.6c3.2-2.5,6.3-5.2,9.2-8.1h0c16.1-16.1,25.6-37.5,26.7-60.3,0-.7-.2-1.4-.7-1.8ZM1115.2,297.1l6.5-6.5c4.8-4.8,11.1-7.4,17.8-7.4h.4c-3.2,4.6-6,9.5-8.3,14.7l-16.4-.8ZM1155.8,321.7h0s-20.3-20.3-20.3-20.3c2.3-5.4,5.2-10.6,8.5-15.5l27.2,27.2c-4.8,3.4-10,6.2-15.5,8.5ZM1165.1,334.1l-6.5,6.5-.7-14.5c5.1-2.2,9.9-4.8,14.5-7.8-.5,6-3,11.5-7.3,15.8ZM1183.2,303.2c-2.4,2.4-5,4.7-7.6,6.8h-.6l-28-28c2.2-2.8,4.5-5.5,7.1-8,7-7,15-12.7,23.8-16.9l22.3,22.3c-4.2,8.7-9.9,16.8-16.9,23.8ZM1202.2,274.6l-19.6-19.6c8.1-3.3,16.8-5.4,25.7-6.1-.7,8.9-2.8,17.6-6.1,25.7Z"/>
              <path class="st53" d="M1166.5,274c-4.6,4.6-4.6,12.1,0,16.7,2.3,2.3,5.3,3.4,8.3,3.4s6-1.1,8.3-3.4c4.6-4.6,4.6-12.1,0-16.7-4.6-4.6-12.1-4.6-16.7,0ZM1179.7,287.2c-2.7,2.7-7.1,2.7-9.7,0-2.7-2.7-2.7-7.1,0-9.7,1.3-1.3,3.1-2,4.9-2s3.5.7,4.9,2c2.7,2.7,2.7,7.1,0,9.7Z"/>
            </g>
          </g>
        </g>
      </g>
      <g>
        <g class="st126">
          <rect class="st61" x="1057.1" y="420.6" width="241.3" height="368.6"/>
          <g>
            <g>
              <path class="st121" d="M1185.3,696.1s19.1,15.7,28.3,1.3c0,0,3.2-5.1,4-10.6,0,0,0-5,5-7.7,0,0,.6,7.2,7.3,10.2.6.3,1.1.5,1.7.4,0,0,0-.5-.9-1-1.2-.7-1.5-.5-1.7-.7-1.6-1.3-3.3-3.1-3.4-4.6l4.6,2s3.1.9,3.5,5.4c0,0,.4,3.2,2.1,6.1,0,0-10.7-1.1-17.3,10.9l-.8-1.4s0,3.9-2.6,5.3c0,0-.4-2.6-2.1-2.9,0,0-.3,4-3.1,5.8,0,0,.5-2.6-1.5-3.7,0,0-2.7,5.6-7.7,5.4,0,0,.9-1.9.3-4.7,0,0-5.3,5-10,3,0,0,2.2-1.7,2.1-5.5,0,0-6.2,3.5-11.9-5,0,0,1.6,1.6,6.5-1.1,0,0-3-3.6-2.3-6.9"/>
              <path class="st121" d="M1193.4,611.9s6.5,1.3,1.3,12.7c0,0-2.4,9,2.8,13,0,0,.7.7,1.4,1.9,0,0-6.4,2.3-2,14,0,0-4.2-1.4-5.9-4.1,0,0,1.1-.5,1.6-2.6,0,0-3.4,1.5-6.1-2.1l3.1-2.1s-2.8,0-5.9-4.4l3.8-1.6s-4-.7-5.3-4.8h3.6s-3.1-5.6-2.3-8.7c0,0,2.5,2.2,4.5,2.4,0,0,1.9-2.8-.7-6,0,0-1.3-2.5.3-6,0,0,0,.6,2.3,1,0,0,2.3,0,3.7,5l.5-.5s-2.1-3.8-.5-7.3"/>
              <path class="st121" d="M1246.6,680.2l4-.4s19.5-2.5,19.1-28c0,0-.6-14.8-11.5-21.8-.8-.5-2.5-1.7-4.2-2.3-1.8-.6-5.6-1.4-8.6.6-1.1.6-2.4,2.3-2.8,3.5-.3,1.1-.7,4.4,3.9,8.2l1.7-2.1s-3.1-2.3-2.2-4.7c.9-2.4,3.1-2.1,3.3-2.2,2.7-.2,11.6.6,16.3,17.3,0,0,2.8,13.1-6.9,23.3,0,0,1.6-6.2-5.6-16.9,0,0-6.3-8.8,2.4-19.9l-2.8-1.8s-11.1,13-2,24.1c0,0,7.2,8.7,4.2,14.4-.6,1.3-2.1,2.8-3.7,3.3-1.6.4-6.1,1.4-6.1,1.4"/>
              <path class="st121" d="M1257,627.9s4.9-6.1,19.7-7.6c0,0,.9,4.1-7.3,6.7,0,0,.4,1.6,7.4-.2,0,0-2.8,6.5-11.3,3.4,0,0-3.7-1.2-6.2-.3"/>
              <path class="st121" d="M1223.5,600.5s2.9,1.5,2.8,6.8l13.2,4.8s1.4-3.6,6.6-5.2c0,0-.5-.9-4-.4,0,0-.6-1.1-2.7-1.5,0,0-.7,1,.2,3,0,0-1.9,1-2.4,1.5,0,0-.6-1.4-1.3-2.5,0,0,2.5-.6,2.5-2.7,0,0-1.1.5-1.7.4,0,0,1.9-2.5-.7-4.6,0,0-1.8,1.3-2.1,3.8,0,0-1.4-1-2.4-1.2,0,0-.5,1.3.3,3.4,0,0-.6,1.1-2,1.3,0,0-1.5-.6-2-2.4h1.1c0,0,1.1-.6,1.4-1.2,0,0-.8-.5-2.2-.5v-.4c0,0,.3,0,.3,0,0,0,0-3.3-4.9-2.4"/>
              <path class="st121" d="M1223,664.9l-.5-.6c4-1.5,5.2-6.1,5.2-6.1,1.5-7.6,5.7-7.7,5.7-7.7l-.6.6c-2.8,1.1-3.4,6.2-3.4,6.2-.2,6.5-6.5,7.5-6.5,7.5M1218.9,665.4l-2.8,1-.9-.3.2-.2,1.3-.3c3.4-1.9,5-8,5-8,2.5-5.8,6.7-6.3,6.7-6.3l.4.6-.6.3c-4.3,1.7-4.8,6.3-4.8,6.3-.2,6-4.4,6.9-4.4,6.9M1227.4,615.4s.5-.5.7,0v.3c0,0-.2,0-.2,0,0,0-.3,0-.8.3,0,0-.6.4-.8-.3l1.1-.4M1268.7,718.2c-.5-1.3-1.1-2.9-1.1-2.9h4.2c-3.9,0-4.1-6.7-4.1-6.7-1-5.7,2.4-9.3,2.4-9.3-11,.3-13.7-6.4-13.7-6.4-5.1-5-6.9-17-6.9-17,0,0-.2-1.1-.6-1.7-.5-.8-.7-1.2-1.8-2.3-1.6-1.7-7.3-5.1-8-5.7-3.2-2.2-4.9-4.9-4.9-4.9-1.9,2.4-4.4,3-4.4,3l-.3-.8c10.5-6.6,6.3-16.8,6.3-16.8.5-2.2,2.1-5.1,2.1-5.1,7.3-9.8,2.2-23.9,2.2-23.9,2-3.3-.6-3.8-.6-3.8-2.7-.6-2.8.7-2.8.7h-.4c0,0-.2-.4-.2-.4l-7.5-2.8c-2.5-1.4-3.7-1-3.7-1-.2,1.5.3,2.1.3,2.1.6.5,1.2.3,1.2.3,2.8-.7,3.9,1.3,3.9,1.3l-.4.5c-.7-.8-1.6-.8-1.6-.8-1.9-.2-1.8.9-1.8.9-.6.9-.9,0-.9,0l-.3-.9c-2-.5-1.7-3.2-1.7-3.2-3.5.2-6.8,1.3-6.8,1.3-1.2.5-.8,1.3-.8,1.3l1,1.5-.6,2c-1.2,3.1,2.2,3.2,2.2,3.2h4.6c3.5.7,1.1,3.1,1.1,3.1,0,3.9-2.2,3.1-2.2,3.1-3-2.4-4.7-.3-4.7-.3-1,2,1.3,2,1.3,2,4.6,0,1.7,3.5,1.7,3.5-1.1,2.6-4.1,2-4.1,2-7.3-.7-8.5,2.8-8.5,2.8-2.7,2.8-2.3,10.6-2.3,10.6-1.9-4.7.2-10.1.2-10.1-6.6,2.3-4.2,14.6-4.2,14.6-3.1-6.6-1-10.6-1-10.6-6,.8-4.2,9.6-4.2,9.6l2.3,5.6-6.2,3.1c-5,2.8-8.1.3-8.1.3-9-8.4-18.8-.4-18.8-.4,4.9,3.3,10.3,1.7,10.3,1.7-1.3,2.1-6.9,4.6-6.9,4.6,9.5,3.8,12.3-.6,12.3-.6,1.3,3.9-.9,6.2-.9,6.2,3.7,1,8.2-3.6,8.2-3.6-.4,2.1-2,3.9-2,3.9,3.4,0,7.2-4.4,7.2-4.4.3,2.1-1.2,3.7-1.2,3.7,4.7-.7,7.3-5,7.3-5,.2,2.4-1.2,4.3-1.2,4.3,2.7-.4,4.6-2.6,4.6-2.6-5-3.9-3.9-6.7-3.9-6.7,1.6,6.2,6.9,7.2,6.9,7.2,4.3-.7,7-7.8,7-7.8,3.3-7,7.4-6.2,7.4-6.2-5,1.8-5.3,5-5.3,5-1.8,7.3-4.6,8.4-4.6,8.4.9,2.8,7.1,4.4,7.1,4.4,1.6.7,3.9,1.9,5,2.6,9.9,5,10.8,14,10.8,14,1.5,9.5,8.9,11.8,8.9,11.8,14.6,4.8,13.5,15.1,13.5,15.1-.8,15.4-10.2,21.2-10.2,21.2h.3c2.7.9,4.3,0,4.3,0,.7,2.2,0,4,0,4,7.7-1.1,11.7-9.5,11.7-9.5,2,2.6,5,2.7,5,2.7-2-3.2-1.5-9.9-1.5-9.9l3,1.9-1.5-3.6-.6-2.3c1.1,1.1,3.5,2,3.5,2,0-.6-.8-1.7-1.5-3"/>
              <path class="st121" d="M1223.3,678.8s4-2,6.2,2.4l2,3.6s1.2,1.8,1.3,2.3c0,0-.7-1.7-4-2.8,0,0-5.1-1.8-5.5-5.5"/>
              <polyline class="st121" points="1226.5 608.4 1226.4 609 1237 613.1 1238.3 612.4"/>
              <path class="st121" d="M1210.5,613.7s.3,8.3,7.8,8.2c0,0,.8-.9,5.6,1.6l-.3,1.1s-1.7-1.9-5.1-1.3c0,0-4.8,1.7-7.9-.7,0,0-5-4,0-8.8"/>
            </g>
            <g>
              <path class="st34" d="M1183.7,696.8s19.1,15.7,28.3,1.3c0,0,3.2-5.1,4-10.6,0,0,0-5,5-7.7,0,0,.6,7.2,7.3,10.2.6.3,1.1.5,1.7.4,0,0,0-.5-.9-1-1.2-.7-1.5-.5-1.7-.7-1.6-1.3-3.3-3.1-3.4-4.6l4.6,2s3.1.9,3.5,5.4c0,0,.4,3.2,2.1,6.1,0,0-10.7-1.1-17.3,10.9l-.8-1.4s0,3.9-2.6,5.3c0,0-.4-2.6-2.1-2.9,0,0-.3,4-3.1,5.8,0,0,.5-2.6-1.5-3.7,0,0-2.7,5.6-7.7,5.4,0,0,.9-1.9.3-4.7,0,0-5.3,5-10,3,0,0,2.2-1.7,2.1-5.5,0,0-6.2,3.5-11.9-5,0,0,1.6,1.6,6.5-1.1,0,0-3-3.6-2.3-6.9"/>
              <path class="st34" d="M1191.8,612.6s6.5,1.3,1.3,12.7c0,0-2.4,9,2.8,13,0,0,.7.7,1.4,1.9,0,0-6.4,2.3-2,14,0,0-4.2-1.4-5.9-4.1,0,0,1.1-.5,1.6-2.6,0,0-3.4,1.5-6.1-2.1l3.1-2.1s-2.8,0-5.9-4.4l3.8-1.6s-4-.7-5.3-4.8h3.6s-3.1-5.6-2.3-8.7c0,0,2.5,2.2,4.5,2.4,0,0,1.9-2.8-.7-6,0,0-1.3-2.5.3-6,0,0,0,.6,2.3,1,0,0,2.3,0,3.7,5l.5-.5s-2.1-3.8-.5-7.3"/>
              <path class="st34" d="M1245,680.9l4-.4s19.5-2.5,19.1-28c0,0-.6-14.8-11.5-21.8-.8-.5-2.5-1.7-4.2-2.3-1.8-.6-5.6-1.4-8.6.6-1.1.6-2.4,2.3-2.8,3.5-.3,1.1-.7,4.4,3.9,8.2l1.7-2.1s-3.1-2.3-2.2-4.7c.9-2.4,3.1-2.1,3.3-2.2,2.7-.2,11.6.6,16.3,17.3,0,0,2.8,13.1-6.9,23.3,0,0,1.6-6.2-5.6-16.9,0,0-6.3-8.8,2.4-19.9l-2.8-1.8s-11.1,13-2,24.1c0,0,7.2,8.7,4.2,14.4-.6,1.3-2.1,2.8-3.7,3.3-1.6.4-6.1,1.4-6.1,1.4"/>
              <path class="st34" d="M1255.4,628.6s4.9-6.1,19.7-7.6c0,0,.9,4.1-7.3,6.7,0,0,.4,1.6,7.4-.2,0,0-2.8,6.5-11.3,3.4,0,0-3.7-1.2-6.2-.3"/>
              <path class="st34" d="M1221.9,601.2s2.9,1.5,2.8,6.8l13.2,4.8s1.4-3.6,6.6-5.2c0,0-.5-.9-4-.4,0,0-.6-1.1-2.7-1.5,0,0-.7,1,.2,3,0,0-1.9,1-2.4,1.5,0,0-.6-1.4-1.3-2.5,0,0,2.5-.6,2.5-2.7,0,0-1.1.5-1.7.4,0,0,1.9-2.5-.7-4.6,0,0-1.8,1.3-2.1,3.8,0,0-1.4-1-2.4-1.2,0,0-.5,1.3.3,3.4,0,0-.6,1.1-2,1.3,0,0-1.5-.6-2-2.4h1.1c0,0,1.1-.6,1.4-1.2,0,0-.8-.5-2.2-.5v-.4c0,0,.3,0,.3,0,0,0,0-3.3-4.9-2.4"/>
              <path class="st34" d="M1221.4,665.6l-.5-.6c4-1.5,5.2-6.1,5.2-6.1,1.5-7.6,5.7-7.7,5.7-7.7l-.6.6c-2.8,1.1-3.4,6.2-3.4,6.2-.2,6.5-6.5,7.5-6.5,7.5M1217.3,666.1l-2.8,1-.9-.3.2-.2,1.3-.3c3.4-1.9,5-8,5-8,2.5-5.8,6.7-6.3,6.7-6.3l.4.6-.6.3c-4.3,1.7-4.8,6.3-4.8,6.3-.2,6-4.4,6.9-4.4,6.9M1225.8,616.1s.5-.5.7,0v.3c0,0-.2,0-.2,0,0,0-.3,0-.8.3,0,0-.6.4-.8-.3l1.1-.4M1267.1,718.9c-.5-1.3-1.1-2.9-1.1-2.9h4.2c-3.9,0-4.1-6.7-4.1-6.7-1-5.7,2.4-9.3,2.4-9.3-11,.3-13.7-6.4-13.7-6.4-5.1-5-6.9-17-6.9-17,0,0-.2-1.1-.6-1.7-.5-.8-.7-1.2-1.8-2.3-1.6-1.7-7.3-5.1-8-5.7-3.2-2.2-4.9-4.9-4.9-4.9-1.9,2.4-4.4,3-4.4,3l-.3-.8c10.5-6.6,6.3-16.8,6.3-16.8.5-2.2,2.1-5.1,2.1-5.1,7.3-9.8,2.2-23.9,2.2-23.9,2-3.3-.6-3.8-.6-3.8-2.7-.6-2.8.7-2.8.7h-.4c0,0-.2-.4-.2-.4l-7.5-2.8c-2.5-1.4-3.7-1-3.7-1-.2,1.5.3,2.1.3,2.1.6.5,1.2.3,1.2.3,2.8-.7,3.9,1.3,3.9,1.3l-.4.5c-.7-.8-1.6-.8-1.6-.8-1.9-.2-1.8.9-1.8.9-.6.9-.9,0-.9,0l-.3-.9c-2-.5-1.7-3.2-1.7-3.2-3.5.2-6.8,1.3-6.8,1.3-1.2.5-.8,1.3-.8,1.3l1,1.5-.6,2c-1.2,3.1,2.2,3.2,2.2,3.2h4.6c3.5.7,1.1,3.1,1.1,3.1,0,3.9-2.2,3.1-2.2,3.1-3-2.4-4.7-.3-4.7-.3-1,2,1.3,2,1.3,2,4.6,0,1.7,3.5,1.7,3.5-1.1,2.6-4.1,2-4.1,2-7.3-.7-8.5,2.8-8.5,2.8-2.7,2.8-2.3,10.6-2.3,10.6-1.9-4.7.2-10.1.2-10.1-6.6,2.3-4.2,14.6-4.2,14.6-3.1-6.6-1-10.6-1-10.6-6,.8-4.2,9.6-4.2,9.6l2.3,5.6-6.2,3.1c-5,2.8-8.1.3-8.1.3-9-8.4-18.8-.4-18.8-.4,4.9,3.3,10.3,1.7,10.3,1.7-1.3,2.1-6.9,4.6-6.9,4.6,9.5,3.8,12.3-.6,12.3-.6,1.3,3.9-.9,6.2-.9,6.2,3.7,1,8.2-3.6,8.2-3.6-.4,2.1-2,3.9-2,3.9,3.4,0,7.2-4.4,7.2-4.4.3,2.1-1.2,3.7-1.2,3.7,4.7-.7,7.3-5,7.3-5,.2,2.4-1.2,4.3-1.2,4.3,2.7-.4,4.6-2.6,4.6-2.6-5-3.9-3.9-6.7-3.9-6.7,1.6,6.2,6.9,7.2,6.9,7.2,4.3-.7,7-7.8,7-7.8,3.3-7,7.4-6.2,7.4-6.2-5,1.8-5.3,5-5.3,5-1.8,7.3-4.6,8.4-4.6,8.4.9,2.8,7.1,4.4,7.1,4.4,1.6.7,3.9,1.9,5,2.6,9.9,5,10.8,14,10.8,14,1.5,9.5,8.9,11.8,8.9,11.8,14.6,4.8,13.5,15.1,13.5,15.1-.8,15.4-10.2,21.2-10.2,21.2h.3c2.7.9,4.3,0,4.3,0,.7,2.2,0,4,0,4,7.7-1.1,11.7-9.5,11.7-9.5,2,2.6,5,2.7,5,2.7-2-3.2-1.5-9.9-1.5-9.9l3,1.9-1.5-3.6-.6-2.3c1.1,1.1,3.5,2,3.5,2,0-.6-.8-1.7-1.5-3"/>
              <path class="st34" d="M1221.7,679.5s4-2,6.2,2.4l2,3.6s1.2,1.8,1.3,2.3c0,0-.7-1.7-4-2.8,0,0-5.1-1.8-5.5-5.5"/>
              <polyline class="st34" points="1224.9 609.1 1224.8 609.7 1235.4 613.9 1236.7 613.1"/>
              <path class="st34" d="M1208.9,614.4s.3,8.3,7.8,8.2c0,0,.8-.9,5.6,1.6l-.3,1.1s-1.7-1.9-5.1-1.3c0,0-4.8,1.7-7.9-.7,0,0-5-4,0-8.8"/>
            </g>
          </g>
        </g>
        <path class="st47" d="M1220.5,722.6c1.1,0,.6,1.6,1.6,1.8.6.2.5,1,1.1,1.2.4-.2,1.2-.7,1.7-.7.5-.1.3.7.5,1,.2,0,.7.4.9.5-.3.8.8.9,1.3.8.6-.3,1.7.3,2.3.3.8,0,.2,1.4.3,1.9,0,.7.5,1.9,1.4,1.2.3-.4,1.1,0,.8.4,0,0-.1.4-.1.4-.2,0-.9-.4-.9,0-.2.7.5,1.1.7,1.7,0,.3.4.8.7.7.1-.5.2-1,.7-.9,2.1-.8.5.9.3,1.9.2.8,1.5,1.1,2.2,1.6.6-.2,1.9-1.4,2-.2,2,0,2.8,2.1,4.1,3.1.1.6.9.3,1.3.1.2,0,.5.3.6,0,.4-.2.8.5,1.2.7,1.5-1.2,2.1,1.1,3.2,1.7,2.8,1.9,1-3.7,1.4-5.1.4-3.4-.2-6.9-.1-10.4-2.4-9.1-4.2-7,2.1-14.3,5.4-5.4-8.5-6-2.5-10.2,1.5-1.4,2.3.8,3.5.2,1-1.2-.9-2.1-1.2-3.1-.5-1.9,1-3.5,2.4-4.6,1-.4,2.4-.3,3.3-1.2,1.2-1.4,1.7-3.4,3.3-4.4,3.1-3.1,2.9-8.3,5.4-12.3,1.7-4-6.7-2.6-.3-7.3,3.4-1.9,3.3-5.4,6.1-6.8,3.9-1.2,12.1-7.5,6.7-10.4.1-3.6,2.8.8,4.1.6,2.1-1.8-3.7-2.7-2.7-4.8-.8-5.3.1-6,3.6-9.4-3.2-6.9,1.8-5.8-2.2-8.4-1.3-2.3,4.2-3.5,4.8-6.1-2.9-8.6-2.1,6.1-5.4-1.2-4.7-1.1-6.9-7.1-9.5-3.2-1.1,1.2-2.2,2.7-3.9,2.1-1.3-1.6-1.8.3-3.3.2-1.3-1.7-1.9-2.1-4.3-2.4-5.5-1.1-11.4-19.1-16.4-8.1-.4,2.6-4.3,1.8-3.7-.6,1.2-2.7-1.4-4.6-1.4-6.8.2-2.9-2.1-2.3-3.6-1.3-.5,0-2.2-3.3-3.6-4.1-2.6,1-1.5.6-4-.6-1.7-1.1-2.6-3.7-3.8-5.4-2.6.2-5.4-4.8-3-5.6.8-3.7-6.4-2.9-1.7-5.7.5-5.9-3-3.6-.8-7.2-.2,0-3-.2-3.2-1.6-1.2-1.5-2,3.4-2.2,1.7-.8-1.4-.7-3.6-1.3-5.1-.1-3.8-3.3.6-1.6,2.1,1.2.5.8,1.2,0,1.6-3.2,1.5-1-3.2-3.6-3.5-1.8-2.7-.6-4.9,0-7.8-3.1-1-2.7.4-4.3-3-2,.5-3.7-2.8-.9-1.3,2.6-4,1.3-4.4,0-4.5-4.2-1,4.7-3.6-2.9-6.5,2.4-5.1-2.9-6.1-1.7-10.5-.3-.3-.8-.3-1.1.1-.7,3.9-2.6-.9-1.3-1.9.2-.3.7-.2,2,.4-.2-2,4-3.6.3-4.5-.6.7.4,3.5-1.8,1.7-.3-.8.7-2.9,1.7-2.5.4-1.6-1.9-5.2,1.4-4.2,3.3.4-1.3-2.1-.2-3.4,2.8.1,1.9-.7,1-2.3,2.3-2.8-.2-1.6-1.4-2.4-.2-1.4.5-2.8,1.9-3.1.1-.4.4-1.5.6-1.9-1.8.7-2.3-1.6-3.8-2.1-.4,0-1.6.2-1.7-.2,0-1.1.3-2.5,1.2-3.2.3-.3,1.1-1,1.6-1.1-.2-.4-.5-.7-.9-.9-4.2-2.9,2.9-2.4-2.8-5.9-.2,0-1.1-.9-1.3-.8-.3.3-.8.5-1.2.6-.8.2-1.9-.4-2.6-.8-2.2-.3-.4,2.7-1.3,4.9.3.8-1.2.2-1.7.3-1.9,2.5-3.3.7-5.3-.3-6.5-2.8-2.6-3.6-5.3-8.9-1.6.3-3.8,2.1-5.6,2.5-4.4.6-7.8-1.7-8,4.5-.4.4.7,2.1.8,2.9-.4.6-1.2.6-1.6,1.2.1.8.3,2.1.4,2.8-.5.7-.6,1.7-.4,2.5.8,2.1-1.3,1.3-2.4,2.2-8.4.9-14,7.6-13.5,15.8.7,3.8-4,1.9-5.1,4.5-6.7,5.4,4.2,5.6-.6,10.8-1.9.6-1,2.3-.6,3.6-3.2,1-.5,3-6.1,4-.3.4-.9.5-1.1,1-.7,0-2.2,0-1.8,1.1-.3.4.2,1.2.3,1.6-.2,1,0,2.2.4,3.1.5.5,1.3,1,1.6,1.7.2.9.9.4,1.5.4,1.6,1.7-.5,5.7-2.8,5.5-.6,1.1-1.6,1.4-2.8,1.3-.4.4,0,1-.5,1.4.2.6.2,1.1-.4,1.4-.2.2-.6,0-.9,0-.7.3-1.2-.3-1.7-.8-.6.4-1.2.6-1.3,1.3-1.9,1.3-1.4-.9-3.2.5,0,.6,0,1.1-.6,1.4.4.7.3,1.4-.3,1.9-.4.8-.2,1.4.2,2.1-.6.6.4,1.3.4,2,.2.6-1,.9-1,1.6-.2,1.1,0,1.2-1.2,1.4-.2.8-.2,2.2-.3,2.8-.3.1,0,.6,0,.8,0,.5-.2,1.1,0,1.5-.8,1-2.4,1.8-3.4,2.4-.4.8-.8,1.7-1.7,1.9.2.3-.3.7-.5,1-1.6,1.8.9,1.6,1.7,2.4,1.4,1.6,3.8,1.4,5.5,2.4.3,1,1.7.5,1.9,1.5,0,.6,1,.7,1.1,1.3-.3,1.2,0,1.3-1,.9-.8.1,3,1.6-.4,1.5-.8,2.7-.9,1.4-1.6,0-.6.1-.7,1-1.3,1.1-.8,0-1.2-1.3-1.8-1.3-.8.5-.6,1.5.2,2.2,0,.8-.6,1.7.2,2.2,1.6,1.5-.3,1.3-1.2,1.7-.2.3-1.4.1-1.1.7.7.5,2,0,2.4,1.1.2,3.1-2.1.4-2.1,1.6-.2.5.2,1.2.3,1.7,0,1.6-1.8,0-2.2,1.4-.2.7.5,1.3.9,1.8.6,1.7,1.5,2.5-.1,3.9,0,.9.7,1.5,1.3,2.2-.3,2,.2,4,.7,5.9-.5,3,2.4.8,4.1,1,.9-.9,1.1,0,1.9.2,1.6-1.9,2-1,2.8.9-.4,1.6,1.1,1.9,1.4,3.3.5,1.6,2.2,1.7,2.2,4.4,0,.9.9,1.8,1.3,2.5.3.9.4,2.3,1.1,3,.4,1.3,2.7.3,2.2,2.2.3,2.7-1.3,1.6-.6,4.2-.8.7-.1,1.7-.3,2.6-.3,1.6.7.8,1.7.8,5.2,2,3.4-3.3,9.4.7.4.5,0,1.1-.1,1.5.7.6,1.7,2.1,2.4,2.5-4.2,6-9,9.7-.3,14.1.4.4.8.6,1.3-.2.6.9,1.9.8,2.7.6.3.3-.5,1.7,1,1,2.1-.8-1.9,2.7-.9,6,3.7,7.3-5.9.9-3.7,6.8-2.4,1.4-2.5,4.1-2.5,6.6-1.2.7-2.6,1.3-3.5,2.4-.9.4-1.9.9-2.3,1.9,0,2.4,1.2,4.2,3.8,3.1.3-.7.5-.6,1.1-.3.6,1.4-.2,1.5-.6,2.7.6,0,.8.3.6.8,0,.3.2,1.1,0,1.4-.8-.2-1.2,1.1-2,1.2,0,.4,0,1-.4,1.2-.8,0-1.5.5-2,1.1-1.2.1-1.4,1.3-.9,2.3-.4,1.1-1.6,1.4-2.7,1.6-.2.1-.7.5-1,.7-.2-.2-.5-.3-.7-.2-1,.3-1.6,1.7-2.4,1.8-2.3,0-.1,1.8.5,2.7,1.5-.5,2.9-1.5,4.4-1.9.2,1,.4,2.1,1.1,3,1.7,2.5-2.8.9-1.5,4.3,1,1.9,3.8,1.6,3.3,4.3,2.4.5,3.1,3.7,4.5,3.3.5-.4.8,0,1.1.3,3.2-1,4,2.2,7.6-1,1.8-.8,3.5,2,5.2.6,1.8-1.3,3.2,1.1,4.5,2,1.1.4,2.8-.7,3.4.7,0,.8,0,1.8.4,2.6.5.3,1.1.6,1.1,1.2.3.8,0,1.7-.6,2.3.2,1.5.6,3.2,1.6,4.4.5-.1.7-.5.8-.9,1.2-.5,1.2,1,.9,1.7-.1,2-1.6-.6-1.8,1.7,1,2.7,4.5-3.1,5.9-.5.3.2.8,1.1,1.1.4,1,.2,2.1-.6,3.1-.7.8.2.9,1.3.5,1.9.1.2.3.3.6.1.6,0,1.4,0,1.9.3,2.3,1.8,2.1-8.1,5.3-5.7.5,0,1,0,1.5,0,.3,0,1-.8,1.1-.4-.6.9,1.1-.2,1.4.5.4.5-.1,1.6.1,2.1,1.1,1,2.8,1.9,4.4,1.8,0-1.9-1.1-4.1.6-5.7.7-1,1.8-1,2.4-.1,1-.6,2.3-.7,2-2.2,1.2-1.6.5-3.7,1-5.5.6,0,.6,1,1.1,1.2,1.3,0,2.8-1.6,1.9.9.8.2,1.4-1.1,2.1-1.3.5-.1.4-.9,1-1,.1.2.4.6.5.8.2-.1.6-.2.8-.3-.1-.9-1.2-1.8-1.4-2.8-.2-1.8,3.1-1.3,4.1-2.8.9-1,.7,0,1.1.6.5,0,1.4-.3,1.9,0,.4.3,1.2,0,1.7,0,.6.7,1.4.4,2.1.1,1.2.3,3.6.8,3.1-1.2.2,0,.7.4.9.4.4,0,1.3-.6,1.6-.3,0,.1.3.2.4,0,.3-.5,1.2.5,1.6.2.4-.2.3-1.3.4-1.7.8.1,0-1.3-.6-1.2"/>
      </g>
      <g>
        <polygon class="st36" points="988.3 625.5 1018.2 622.8 1015.5 593.1 983.7 566.6 954 569.4 956.8 599.3 988.3 625.5"/>
        <rect class="st35" x="955.3" y="629.7" width="70.6" height="10.4" transform="translate(-53.8 92.9) rotate(-5.2)"/>
        <rect class="st80" x="969.3" y="588" width="32.5" height="4.3" transform="translate(-49.7 92.3) rotate(-5.2)"/>
        <rect class="st79" x="969.9" y="593.9" width="32.5" height="4.3" transform="translate(-50.2 92.4) rotate(-5.2)"/>
        <rect class="st78" x="970.4" y="599.8" width="32.5" height="4.3" transform="translate(-50.8 92.5) rotate(-5.2)"/>
      </g>
      <g>
        <g>
          <path class="st39" d="M168,282.1l24.3-48.4c2.5-4.9-2.2-10.3-7.4-8.6l-72.7,24.1c-5.2,1.7-5.7,8.9-.8,11.3l48.4,24.3c.2,0,.3.1.5.2l17,51.3-23,13.1c-1.7,3.4,1.6,7.2,5.2,6l51-16.9c3.7-1.2,4-6.2.6-8l-26.3,3.2-17-51.3c0-.1.2-.3.3-.4Z"/>
          <polygon class="st81" points="162.5 279.5 126.5 261.5 181.2 243.4 162.5 279.5"/>
        </g>
        <line class="st38" x1="159.4" y1="269.1" x2="175.9" y2="209.2"/>
        <circle class="st37" cx="165" cy="248.7" r="7.7"/>
      </g>
      <path class="st43" d="M891.7,546.4h-40.2l-56.8-140.5-56.4,140.5h-40.2l-112.4-276.2h74.6l57.2,153.5,57.6-153.5h39.8l57.6,153.5,57.2-153.5h74.6l-112.4,276.2Z"/>
      <g>
        <path class="st45" d="M548.9,533.6c27-27,59.5-40.4,97.7-40.4s70.8,13.5,97.8,40.4c27.1,27,40.6,59.5,40.6,97.6s-13.5,70.7-40.4,97.6c-27,27-59.6,40.4-98,40.4s-71-13.5-97.8-40.4c-26.8-27-40.2-59.5-40.2-97.6s13.5-70.7,40.4-97.6Z"/>
        <path class="st48" d="M646.5,556.6c-20.3,0-37.1,6.8-50.5,20.5-13.4,13.7-20.1,31.7-20.1,54.1s6.7,40.4,20.1,54.1c13.4,13.7,30.2,20.5,50.5,20.5s37.5-6.8,50.9-20.5c13.4-13.7,20.1-31.7,20.1-54.1s-6.7-40.4-20.1-54.1c-13.4-13.7-30.4-20.5-50.9-20.5Z"/>
      </g>
      <g>
        <g>
          <g>
            <g>
              <rect x="591.2" y="586.9" width="129.5" height="85.7"/>
              <rect x="591.2" y="606.1" width="129.5" height="66.5"/>
              <path class="st82" d="M718.9,588.7v82.2h-125.9v-82.2h125.9M722.4,585.2h-133v89.2h133v-89.2h0Z"/>
            </g>
            <line class="st10" x1="591.8" y1="606.1" x2="721" y2="606.1"/>
          </g>
          <circle class="st23" cx="601.5" cy="596.9" r="3.7"/>
          <rect class="st63" x="707.5" y="598.1" width="8.9" height="2.4"/>
        </g>
        <g>
          <rect class="st123" x="639.6" y="645" width="11.2" height="11.2"/>
          <rect class="st123" x="662" y="622.6" width="11.2" height="11.2"/>
          <rect class="st60" x="639.6" y="622.6" width="11.2" height="11.2"/>
          <rect class="st60" x="662" y="645" width="11.2" height="11.2"/>
          <rect class="st60" x="673.2" y="656.2" width="11.2" height="11.2"/>
          <rect class="st123" x="673.2" y="611.4" width="11.2" height="11.2"/>
          <rect class="st60" x="628.3" y="611.4" width="11.2" height="11.2"/>
          <rect class="st123" x="628.3" y="655.8" width="11.2" height="11.2"/>
        </g>
      </g>
      <g>
        <path class="st61" d="M226.3,696.4h-48.6v47.1c0,25.6,15.6,48.6,39.4,58l9.2,3.6,9.2-3.6c23.8-9.4,39.4-32.4,39.4-58v-47.1h-48.6Z"/>
        <path class="st84" d="M271.3,700v43.5c0,11.8-3.5,23.3-10.2,33.1-6.6,9.8-16,17.3-27,21.6l-7.9,3.1-7.9-3.1c-11-4.4-20.3-11.8-27-21.6-6.6-9.8-10.2-21.2-10.2-33.1v-43.5h90M274.9,696.4h-97.2v47.1c0,25.6,15.6,48.6,39.4,58l9.2,3.6,9.2-3.6c23.8-9.4,39.4-32.4,39.4-58v-47.1h0Z"/>
      </g>
      <polyline class="st42" points="206 746.2 225.9 766.2 256.8 714.7"/>
      <g class="st57">
        <path class="st65" d="M473,784.3h-211.5v-40.6l109.7-90c21.3-16.6,32-31.6,32-45s-3.2-19.1-9.7-25.1c-6.4-5.9-15.1-9.1-25.8-9.7h-2c-12.9,0-31.4,9.1-55.6,27.2l-43.4-40.2c36.6-33.4,71.5-50.1,104.9-50.1h2.4c21.3.3,39.3,4.6,54.1,13,14.7,8.4,25.3,18.7,31.6,31,6.3,12.2,9.5,25.4,9.5,39.7s-6.3,38.7-18.9,56c-12.6,17.4-31.6,35.8-56.8,55.2l-18.5,15.4h98.2v63.1Z"/>
      </g>
      <path class="st60" d="M480.7,767.9h-211.5v-40.6l109.7-90c21.3-16.6,32-31.6,32-45s-3.2-19.1-9.7-25.1c-6.4-5.9-15.1-9.1-25.8-9.7h-2c-12.9,0-31.4,9.1-55.6,27.2l-43.4-40.2c36.6-33.4,71.5-50.1,104.9-50.1h2.4c21.3.3,39.3,4.6,54.1,13,14.7,8.4,25.3,18.7,31.6,31,6.3,12.2,9.5,25.4,9.5,39.7s-6.3,38.7-18.9,56c-12.6,17.4-31.6,35.8-56.8,55.2l-18.5,15.4h98.2v63.1Z"/>
      <g class="st57">
        <path class="st65" d="M515.4,550c27-27,59.5-40.4,97.7-40.4s70.8,13.5,97.8,40.4c27.1,27,40.6,59.5,40.6,97.7s-13.5,70.7-40.4,97.7c-27,27-59.6,40.4-98,40.4s-71-13.5-97.8-40.4c-26.8-27-40.2-59.5-40.2-97.7s13.5-70.7,40.4-97.7ZM613,573c-20.3,0-37.1,6.8-50.5,20.5-13.4,13.7-20.1,31.7-20.1,54.1s6.7,40.4,20.1,54.1c13.4,13.7,30.2,20.5,50.5,20.5s37.5-6.8,50.9-20.5c13.4-13.7,20.1-31.7,20.1-54.1s-6.7-40.4-20.1-54.1c-13.4-13.7-30.4-20.5-50.9-20.5Z"/>
      </g>
      <path class="st60" d="M523,533.6c27-27,59.5-40.4,97.7-40.4s70.8,13.5,97.8,40.4c27.1,27,40.6,59.5,40.6,97.7s-13.5,70.7-40.4,97.7c-27,27-59.6,40.4-98,40.4s-71-13.5-97.8-40.4c-26.8-27-40.2-59.5-40.2-97.7s13.5-70.7,40.4-97.7ZM620.7,556.6c-20.3,0-37.1,6.8-50.5,20.5-13.4,13.7-20.1,31.7-20.1,54.1s6.7,40.4,20.1,54.1c13.4,13.7,30.2,20.5,50.5,20.5s37.5-6.8,50.9-20.5c13.4-13.7,20.1-31.7,20.1-54.1s-6.7-40.4-20.1-54.1c-13.4-13.7-30.4-20.5-50.9-20.5Z"/>
      <g class="st57">
        <path class="st65" d="M940.9,782.9h-211.5v-40.6l109.7-90c21.3-16.6,32-31.6,32-45s-3.2-19.1-9.7-25.1c-6.4-5.9-15.1-9.1-25.8-9.7h-2c-12.9,0-31.4,9.1-55.6,27.2l-43.4-40.2c36.6-33.4,71.5-50.1,104.9-50.1h2.4c21.3.3,39.3,4.6,54.1,13,14.7,8.4,25.3,18.7,31.6,31,6.3,12.2,9.5,25.4,9.5,39.7s-6.3,38.7-18.9,56c-12.6,17.4-31.6,35.8-56.8,55.2l-18.5,15.4h98.2v63.1Z"/>
      </g>
      <path class="st60" d="M948.6,766.5h-211.5v-40.6l109.7-90c21.3-16.6,32-31.6,32-45s-3.2-19.1-9.7-25.1c-6.4-5.9-15.1-9.1-25.8-9.7h-2c-12.9,0-31.4,9.1-55.6,27.2l-43.4-40.2c36.6-33.4,71.5-50.1,104.9-50.1h2.4c21.3.3,39.3,4.6,54.1,13,14.7,8.4,25.3,18.7,31.6,31,6.3,12.2,9.5,25.4,9.5,39.7s-6.3,38.7-18.9,56c-12.6,17.4-31.6,35.8-56.8,55.2l-18.5,15.4h98.2v63.1Z"/>
      <g>
        <rect class="st2" x="72.4" y="450.7" width="58.7" height="15.9"/>
        <g>
          <rect class="st1" x="84.4" y="399.8" width="61.1" height="25.3"/>
          <g>
            <rect class="st6" x="105" y="497.7" width="61.1" height="25.3"/>
            <rect class="st1" x="105" y="497.7" width="61.1" height="25.3"/>
          </g>
          <g>
            <rect class="st8" x="168.2" y="475" width="61.1" height="12.6"/>
            <rect class="st6" x="168.2" y="475" width="61.1" height="12.6"/>
          </g>
          <rect class="st6" x="175.1" y="452.3" width="61.1" height="12.6"/>
          <g>
            <rect class="st3" x="125.1" y="383.5" width="35.2" height="9.5"/>
            <rect class="st6" x="125.1" y="383.5" width="35.2" height="9.5"/>
          </g>
          <g>
            <polygon class="st98" points="143.4 499.3 145.2 505 151.2 505 146.4 508.6 148.2 514.3 143.4 510.8 138.5 514.3 140.4 508.6 135.5 505 141.5 505 143.4 499.3"/>
            <polygon class="st98" points="143.4 386.5 145.2 392.2 151.2 392.2 146.4 395.7 148.2 401.5 143.4 397.9 138.5 401.5 140.4 395.7 135.5 392.2 141.5 392.2 143.4 386.5"/>
            <polygon class="st98" points="115 394 116.8 399.7 122.8 399.7 118 403.2 119.8 408.9 115 405.4 110.1 408.9 112 403.2 107.1 399.7 113.1 399.7 115 394"/>
            <polygon class="st98" points="115 490.5 116.8 496.2 122.8 496.2 118 499.8 119.8 505.5 115 501.9 110.1 505.5 112 499.8 107.1 496.2 113.1 496.2 115 490.5"/>
            <polygon class="st98" points="171.1 394 172.9 399.7 178.9 399.7 174.1 403.2 175.9 408.9 171.1 405.4 166.2 408.9 168 403.2 163.2 399.7 169.2 399.7 171.1 394"/>
            <polygon class="st98" points="171.1 490.5 172.9 496.2 178.9 496.2 174.1 499.8 175.9 505.5 171.1 501.9 166.2 505.5 168 499.8 163.2 496.2 169.2 496.2 171.1 490.5"/>
            <polygon class="st98" points="95.7 470.4 97.6 476.1 103.6 476.1 98.7 479.7 100.6 485.4 95.7 481.8 90.8 485.4 92.7 479.7 87.8 476.1 93.8 476.1 95.7 470.4"/>
            <polygon class="st98" points="95.7 415.4 97.6 421.1 103.6 421.1 98.7 424.7 100.6 430.4 95.7 426.8 90.8 430.4 92.7 424.7 87.8 421.1 93.8 421.1 95.7 415.4"/>
            <polygon class="st98" points="190.9 470.4 192.7 476.1 198.7 476.1 193.9 479.7 195.7 485.4 190.9 481.8 186 485.4 187.9 479.7 183 476.1 189 476.1 190.9 470.4"/>
            <polygon class="st98" points="190.9 415.4 192.7 421.1 198.7 421.1 193.9 424.7 195.7 430.4 190.9 426.8 186 430.4 187.9 424.7 183 421.1 189 421.1 190.9 415.4"/>
            <polygon class="st98" points="87.8 443.3 89.7 449 95.7 449 90.8 452.6 92.7 458.3 87.8 454.8 83 458.3 84.8 452.6 80 449 86 449 87.8 443.3"/>
            <polygon class="st98" points="198.7 443.3 200.6 449 206.6 449 201.7 452.6 203.6 458.3 198.7 454.8 193.9 458.3 195.7 452.6 190.9 449 196.9 449 198.7 443.3"/>
          </g>
        </g>
      </g>
      <g class="st120">
        <path class="st61" d="M1173.8,582.3h-116.5v39.9c11.1-8.9,27.6-13.3,49.5-13.3,31.1,0,54.6,8.9,70.7,26.6,16.1,17.7,24.1,40.8,24.1,69s-2.1,23.9-6.2,34.9c-4.2,11.1-10.4,21.6-18.7,31.4-8.3,9.8-19.9,17.7-34.7,23.5-14.8,5.8-31.8,8.9-51,9.2h-2.5c-22.5,0-42.8-4.3-60.9-12.9-18.2-8.6-36.4-20.8-54.7-36.6l46.2-42.4c15.8,10,28.6,16.6,38.5,20,9.8,3.3,19.9,5,30.2,5h3.3c12.2,0,22.5-3.3,31-10,8.5-6.7,12.7-15.8,12.7-27.5s-4.2-22.1-12.7-28.9c-8.5-6.8-20.2-10.2-35.1-10.2s-14,1-21.2,3.1c-7.2,2.1-12.8,4.2-16.8,6.2-4,2.1-8.5,4.6-13.5,7.7-5,3.1-7.6,4.6-7.9,4.6l-32.4-25v-141h178.8v66.5Z"/>
      </g>
      <path class="st59" d="M1173.8,561h-116.5v39.9c11.1-8.9,27.6-13.3,49.5-13.3,31.1,0,54.6,8.9,70.7,26.6,16.1,17.7,24.1,40.8,24.1,69s-2.1,23.9-6.2,34.9c-4.2,11.1-10.4,21.6-18.7,31.4-8.3,9.8-19.9,17.7-34.7,23.5-14.8,5.8-31.8,8.9-51,9.2h-2.5c-22.5,0-42.8-4.3-60.9-12.9-18.2-8.6-36.4-20.8-54.7-36.6l46.2-42.4c15.8,10,28.6,16.6,38.5,20,9.8,3.3,19.9,5,30.2,5h3.3c12.2,0,22.5-3.3,31-10,8.5-6.7,12.7-15.8,12.7-27.5s-4.2-22.1-12.7-28.9c-8.5-6.8-20.2-10.2-35.1-10.2s-14,1-21.2,3.1c-7.2,2.1-12.8,4.2-16.8,6.2-4,2.1-8.5,4.6-13.5,7.7-5,3.1-7.6,4.6-7.9,4.6l-32.4-25v-141h178.8v66.5Z"/>
      <g class="st58">
        <path class="st65" d="M1172.9,536.3h-182.3v-276.2h67.1v212.7h115.2v63.5Z"/>
      </g>
      <path class="st97" d="M1180.5,510.1h-182.3V233.9h67.1v212.7h115.2v63.5Z"/>
      <g class="st58">
        <g>
          <path class="st66" d="M903.3,536.4h-40.2l-56.8-140.5-56.4,140.5h-40.2l-112.4-276.2h74.6l57.2,153.5,57.6-153.5h39.8l57.6,153.5,57.2-153.5h74.6l-112.4,276.2Z"/>
          <path class="st46" d="M903.3,536.4h-40.2l-56.8-140.5-56.4,140.5h-40.2l-112.4-276.2h74.6l57.2,153.5,57.6-153.5h39.8l57.6,153.5,57.2-153.5h74.6l-112.4,276.2Z"/>
        </g>
      </g>
      <path class="st97" d="M903.3,510.2h-40.2l-56.8-140.5-56.4,140.5h-40.2l-112.4-276.2h74.6l57.2,153.5,57.6-153.5h39.8l57.6,153.5,57.2-153.5h74.6l-112.4,276.2Z"/>
      <g>
        <path class="st127" d="M269.8,339c-5.8-4.1-11.9-8-17.4-12.5-14.5-11.8-25.1-26.6-31.8-44.1-2-5.2-3.3-10.7-4.8-16-.2-.6,0-1.6.4-2.1.3-.4,1.2-.7,1.7-.5.6.2,1.2.9,1.4,1.5.6,2,1,4.1,1.6,6.2,5.9,20.9,17.2,38.3,33.8,52.2,3.5,2.9,7.3,5.5,11.1,8,5.5,3.6,11,7.1,16.7,10.5,7.4,4.4,16.4,3,22.2-3.4,6.7-7.4,5.5-19.8-2.7-25.5-5-3.5-10.3-6.7-15.6-9.9-8.9-5.4-16.4-12.2-22.3-20.8-.2-.3-.5-.7-.7-1-.5-1-.3-2,.6-2.5.8-.5,1.8-.3,2.5.5,1.1,1.5,2.2,3.1,3.3,4.6,4.9,6.3,10.9,11.4,17.6,15.6,5.6,3.5,11.4,6.9,16.8,10.7,9.1,6.4,11.2,19.6,4.8,28.7-6.6,9.5-19,12.1-28.8,5.9-3.3-2.1-6.7-4.2-10-6.3,0,0-.1.2-.2.3Z"/>
        <path class="st100" d="M259.8,355.5c-6.1-4.3-12.3-8.4-18.2-12.9-6.2-4.7-11.7-10.2-16.8-16.2-.9-1.1-.9-2.1,0-2.9.8-.7,1.9-.5,2.7.5,8.8,10.3,19.2,18.8,30.7,25.8,4.8,2.9,9.4,6,14.2,8.9,15.4,9.2,34.9,6.1,46.8-7.4,13.5-15.4,11.5-39.8-4.5-52.4-4.3-3.4-9.2-6.1-13.8-9.1-.4-.3-.9-.5-1.3-.9-.8-.6-1-1.5-.5-2.4.5-.9,1.5-1.1,2.4-.6.6.3,1.2.7,1.7,1.1,3.9,2.5,7.8,4.8,11.6,7.4,14.7,10.1,20.8,30.1,14.4,46.8-8.1,21.3-31.2,31.8-52.5,23.7-2.9-1.1-5.5-2.7-8.2-4.3-2.9-1.7-5.7-3.6-8.6-5.4,0,0-.1.2-.2.3Z"/>
        <path class="st99" d="M308,282.7c-3.4-2.2-7-4.1-10.3-6.5-12-8.9-17.6-20.9-16.8-35.8,0-1.5,1.1-2.4,2.3-2.1,1.2.3,1.4,1.2,1.4,2.4-.4,5.9.5,11.6,2.8,17.1,3.2,7.4,8.3,13.1,15.2,17.3,5.9,3.7,11.9,7.3,17.6,11.2,18.4,12.5,26.2,37.3,18.3,58.2-4.2,11.2-11.5,20-21.9,26.1-.5.3-1.1.7-1.5.6-.6-.2-1.4-.6-1.7-1.2-.5-.8,0-1.6.8-2.1,1.8-1.2,3.7-2.3,5.4-3.6,23.4-17.9,24.6-52.9,2.2-72-4.2-3.6-9-6.4-13.6-9.6,0,0,0,0,0,.1Z"/>
        <path class="st102" d="M274.6,330.6c-5.4-3.8-10.8-7.7-16.2-11.5-.7-.5-1.4-1.1-2-1.7-.9-.8-.9-1.9-.2-2.7.7-.7,1.7-.8,2.6,0,8.7,7.6,18.8,13,28.5,19.2,3.5,2.2,7.8,1.4,10.1-1.6,2.5-3.2,2.4-7.4-.3-10.3-.7-.7-1.5-1.3-2.4-1.8-6.2-4-12.7-7.6-18.7-11.9-21.1-15-32.2-35.6-33.8-61.4,0-1.4.6-2.2,1.7-2.3,1.1,0,1.8.8,1.9,2.3.6,12.8,4.2,24.8,10.8,35.7,6.4,10.5,14.9,18.9,25.4,25.4,5.1,3.2,10.3,6.4,15.3,9.6,7.2,4.6,7.3,14.9.1,19.4-4.1,2.6-8.4,2.5-12.5-.1-3.4-2.1-6.8-4.3-10.2-6.4,0,0-.1.2-.2.3Z"/>
        <path class="st101" d="M305.5,404.7c-.2-.8-.6-1.5-.5-2,.1-.6.7-1.1,1.2-1.4.6-.3,1.3-.3,2-.5,17.8-4.2,32.3-13.5,43.4-28.1,20.6-27.2,20.3-65-.8-91.9-.1-.2-.3-.3-.4-.5-.8-1.1-.8-2.1,0-2.8.9-.7,1.9-.5,2.8.5,6.5,8.2,11.3,17.3,14.1,27.4,5.5,20,3.9,39.4-5.7,57.8-11.4,22.1-29.5,35.8-53.8,41.3-.7.2-1.5,0-2.4.1Z"/>
        <path class="st104" d="M351.7,361.6c-.4.6-.8,1.2-1.2,1.8-.6,1-1.6,1.2-2.5.8-.9-.5-1.2-1.6-.6-2.6.9-1.6,1.8-3.1,2.6-4.7,13.5-26.3,7.3-59.1-15-78.7-3.1-2.7-6.5-5-9.9-7.3-5.5-3.6-11.2-6.9-16.7-10.7-5.2-3.6-7.8-8.9-8.4-15.1-.1-1.3.5-2.2,1.6-2.3,1.1-.1,1.9.6,2.1,2,.6,6.1,3.6,10.6,8.7,13.8,6.1,3.8,12.3,7.6,18.3,11.6,25.4,17.1,36.4,50.7,26.2,79.5-1.4,4.1-3.4,8-5.1,12,0,0-.2,0-.2,0Z"/>
        <path class="st103" d="M252.5,361.9c-6-3.6-13.1-8.3-19.6-13.8-14.9-12.6-26.6-27.6-35.1-45.2-.6-1.3-.3-2.3.7-2.8,1.1-.5,2,0,2.7,1.3,7,14.5,16.3,27.3,28,38.3,6.7,6.4,14,12,21.9,16.9,5.8,3.6,11.5,7.4,17.4,10.8,11.4,6.5,23.5,7.8,36.1,4.2.4-.1.8-.3,1.3-.4,1-.1,1.7.3,2,1.3.3.9-.1,1.7-1,2.1-.3.2-.6.2-.9.3-14.4,4.2-28.1,2.4-40.9-5.3-3.8-2.3-7.6-4.7-12.6-7.9Z"/>
        <path class="st106" d="M243.4,379.4c-6.2-4.4-12.4-8.7-18.7-13.1-.4-.3-.7-.5-1-.9-.6-.8-.5-1.6.1-2.3.7-.7,1.5-.8,2.3-.3,1.2.8,2.3,1.7,3.5,2.6,9.9,7.3,20.2,14.1,31,19.8,21.7,11.3,43.5,10.5,64.8-1.7,5.8-3.3,10.8-7.7,15.2-12.6,1-1.1,2.1-1.3,2.9-.5.9.8.8,1.9-.2,3-19.5,21.9-50.3,29.2-77.5,18.5-4.7-1.8-9-4.2-13.2-6.9-3-1.9-6.1-3.8-9.1-5.7,0,0-.1.2-.2.3Z"/>
        <path class="st105" d="M273.7,384.3c-1-.7-1.2-1.4-.9-2.3.4-.9,1.2-1.3,2.2-1.1,1.6.4,3.2.9,4.8,1.2,21.7,3.9,40.1-2.2,54.5-18.9,11.5-13.4,15.3-29.2,12.2-46.6,0-.4-.2-.8-.2-1.2,0-1,.6-1.6,1.5-1.7.9-.2,1.6.2,1.9,1.1.1.3.2.7.3,1,3.2,17.7-.5,33.8-11.5,48.1-15,19.4-39.8,27.5-63.3,20.9-.6-.2-1.1-.4-1.6-.5Z"/>
        <path class="st107" d="M261.7,239.3c.6-.2,1.4-.6,1.9-.4.6.2,1.1.8,1.4,1.4.2.3,0,.9,0,1.3-.2,18.8,7,34.2,21.7,46,3.1,2.5,6.6,4.5,10,6.7,4.3,2.8,8.7,5.2,12.8,8.2,9.7,7.3,13.7,17.2,12.2,29.3-.2,1.4-1,2.1-2.1,1.9-1.1-.2-1.6-1.1-1.5-2.4,1.4-11.9-3-21.1-13.1-27.6-5.9-3.8-12.1-7.3-17.8-11.3-17.6-12.5-26-29.8-25.8-51.3,0-.5.1-1,.2-1.8Z"/>
        <path class="st119" d="M279.6,321.9c-5.7-3.5-11.4-7.1-16.5-11.5-13.6-11.8-22.8-26.4-27.4-43.8-1.3-4.8-1.8-9.8-2.7-14.7,0-.4,0-.7,0-1.1.1-.9.7-1.5,1.6-1.6,1-.1,1.6.3,1.9,1.3.1.3.1.7.2,1.1,2.4,22.6,12.1,41.5,29.3,56.3,3.5,3,7.4,5.6,11.2,8.1,4.7,3.1,9.5,6,14.3,9,.3.2.6.3.8.5,1,.7,1.3,1.7.7,2.6-.6.9-1.6,1.1-2.6.5-1.4-.8-2.7-1.7-4.1-2.6-2.2-1.4-4.4-2.8-6.6-4.2Z"/>
        <path class="st118" d="M247.3,370.1c-5.7-3.5-12.4-7.9-18.7-13-12.8-10.4-23.4-22.5-32.1-36.5-.7-1.2-.6-2.3.4-2.8,1-.6,2-.3,2.7,1,7.1,11.4,15.6,21.6,25.5,30.6,6.6,5.9,13.7,11.2,21.2,15.9,6.4,3.9,12.7,7.9,19.1,11.8,1.1.7,1.4,1.6.9,2.5-.5.9-1.5,1.2-2.6.7-1.4-.7-2.7-1.5-4.1-2.4-3.7-2.3-7.4-4.7-12.4-7.8Z"/>
        <path class="st113" d="M344.3,307.5c-.4-.7-.8-1.1-1-1.6-4.8-11.5-12.6-20.4-23.2-26.9-5.8-3.5-11.6-6.9-17.1-10.9-8.8-6.3-12.8-15.2-12.6-26,0-1.4.8-2.2,1.9-2.2,1.1,0,1.8.9,1.8,2.3-.2,10.8,4.3,19,13.4,24.7,6,3.8,12.1,7.4,17.9,11.4,9.7,6.6,16.7,15.4,21.2,26.3.4.9.6,1.9-.3,2.5-.5.4-1.3.4-2,.5Z"/>
        <path class="st117" d="M253.6,339.7c-22.2-15.8-37.4-37-45.3-63.3-.4-1.4,0-2.4,1.1-2.7,1.1-.3,1.9.3,2.4,1.8,5,16.9,13.3,31.8,25.1,44.8,5.9,6.5,12.4,12.1,19.6,17.1,1.3.9,1.7,1.9,1,2.9-.6.9-1.7,1-3,.2-.3-.2-.5-.3-1-.6Z"/>
        <path class="st116" d="M243.1,390.3c-3.4-2.1-6.8-4.3-10.2-6.4-.4-.2-.8-.5-1.1-.8-.7-.7-.8-1.5-.2-2.2.4-.5,1.3-.7,2-.8.4,0,.9.4,1.4.7,6.1,3.8,12.1,7.7,18.3,11.4,13.1,7.8,27.3,11.1,42.5,10.3.4,0,.8,0,1.2,0,1,.1,1.5.7,1.6,1.7,0,1-.4,1.6-1.4,1.9-.3,0-.7,0-1.1.1-14.3.8-27.9-1.9-40.6-8.5-4.2-2.2-8.3-4.8-12.4-7.2,0,0,0,0,0-.1Z"/>
        <path class="st115" d="M270.6,350.5c-2.2-1.4-4.5-2.8-6.7-4.2-1.2-.8-1.6-1.7-1-2.7.6-1,1.6-1.2,2.9-.4,3.9,2.4,7.7,4.9,11.6,7.2,13.3,7.9,29.9,3.6,37.7-9.8.7-1.3,1.7-1.7,2.7-1.1,1,.5,1.2,1.6.5,2.8-6.6,11-16.4,16.2-29.2,15.6-5-.2-9.7-1.9-13.9-4.6-1.5-.9-3-1.9-4.5-2.8Z"/>
        <path class="st114" d="M224,256.3c.7-.2,1.4-.7,2-.6.6.1,1.2.8,1.5,1.3.3.7.3,1.6.4,2.4,3.2,18.2,10.9,34.1,23.3,47.8.2.2.3.4.5.5.8.9.8,2,0,2.7-.8.7-1.9.6-2.7-.2-1.6-1.8-3.2-3.6-4.7-5.5-10.8-13.6-17.6-29.1-20.3-46.3,0-.6,0-1.2,0-2.1Z"/>
        <path class="st112" d="M289.5,282.1c-4-3.3-7.5-7.1-10.2-11.4-5.9-9.1-8.5-19.1-8-30,0-.5,0-1,.2-1.4.3-.9.9-1.4,1.9-1.3.9.1,1.5.7,1.6,1.7,0,.2,0,.4,0,.6-.7,15.6,4.8,28.6,16.6,38.9,1,.9,1.2,1.9.5,2.7-.6.8-1.7.9-2.5.3Z"/>
        <path class="st111" d="M329,257.5c4.4,2.7,10,6.2,15,10.7.8.7,1.6,1.4,2.3,2.1.8.8.9,1.9.2,2.6-.7.8-1.8.9-2.6,0-8.3-8.1-18.6-13.3-28.2-19.6-.3-.2-.6-.4-.9-.6-.7-.7-.7-1.4-.2-2.2.5-.8,1.2-1.1,2.1-.7.4.1.7.4,1.1.6,3.3,2.1,6.7,4.2,11.3,7.1Z"/>
        <path class="st110" d="M201.9,286.2c.8-.3,1.4-.8,1.9-.7.6.2,1.4.7,1.7,1.3,1.2,2.6,2.2,5.3,3.3,7.9,3.4,7.5,7.5,14.5,12.2,21.2.4.6.7,1.5.5,2.2-.4,1.4-2.3,1.5-3.2.1-2-2.9-4-5.8-5.9-8.8-4.1-6.6-7.4-13.5-10.1-20.8-.2-.7-.2-1.4-.4-2.3Z"/>
        <path class="st109" d="M252,241.6c.7-.2,1.4-.6,1.9-.5.5.1,1,.7,1.4,1.2.2.2.1.7.1,1.1,0,9.5,2,18.6,5.9,27.3.3.6.3,1.6,0,2.2-.7,1.3-2.6,1-3.2-.6-1.5-4-3-8.1-4.2-12.2-1.5-5.4-2.1-11-2.1-16.6,0-.6,0-1.1.2-1.9Z"/>
        <path class="st108" d="M216.2,359.2c-1.9-1.8-4-3.7-5.9-5.7-3.2-3.4-6.4-7-9.6-10.5-.1-.1-.2-.3-.3-.4-.8-1-.7-2.1.1-2.8.8-.6,1.8-.5,2.7.5,2.8,3.1,5.5,6.3,8.4,9.3,2,2.2,4.2,4.2,6.4,6.2.3.3.6.5.8.8.6.8.6,1.7-.1,2.4-.7.7-1.5.7-2.5.2Z"/>
      </g>
      <g>
        <path class="st83" d="M576.3,391.3c-5.6,7.9-10.8,16.1-16.9,23.6-16,19.6-36,34-59.7,43-7,2.7-14.4,4.5-21.7,6.6-.9.2-2.1,0-2.8-.5-.5-.4-.9-1.7-.7-2.3.3-.8,1.2-1.6,2-1.8,2.8-.8,5.6-1.4,8.4-2.1,28.2-8,51.9-23.2,70.7-45.8,4-4.8,7.5-9.9,10.9-15.1,4.9-7.4,9.6-14.9,14.2-22.6,6-10,4-22.2-4.6-30-10-9.1-26.8-7.4-34.5,3.7-4.8,6.8-9.1,14-13.4,21.1-7.3,12-16.5,22.3-28.1,30.2-.4.3-.9.6-1.4.9-1.3.7-2.7.4-3.4-.8-.7-1.1-.4-2.5.7-3.3,2-1.5,4.2-2.9,6.2-4.5,8.5-6.6,15.4-14.7,21.1-23.9,4.7-7.6,9.3-15.4,14.5-22.7,8.6-12.3,26.5-15.1,38.9-6.5,12.9,8.9,16.3,25.7,8,39-2.8,4.5-5.7,9-8.5,13.6.1,0,.3.2.4.3Z"/>
        <path class="st86" d="M598.6,404.9c-5.8,8.2-11.4,16.6-17.4,24.7-6.4,8.5-13.9,15.9-21.9,22.8-1.5,1.2-2.9,1.2-3.9,0-.9-1.1-.7-2.6.6-3.7,13.9-11.9,25.4-25.9,34.9-41.6,3.9-6.5,8.1-12.8,12-19.3,12.5-20.9,8.3-47.3-10-63.4-20.9-18.3-53.8-15.6-71,6.1-4.6,5.8-8.2,12.4-12.3,18.6-.4.6-.7,1.2-1.2,1.8-.9,1.1-2,1.3-3.2.6-1.2-.7-1.5-2-.9-3.3.4-.8,1-1.6,1.5-2.4,3.3-5.2,6.5-10.6,10-15.7,13.7-19.9,40.8-28.2,63.4-19.5,28.9,11,43,42.2,32,71.1-1.5,3.9-3.7,7.5-5.8,11.1-2.3,4-4.8,7.8-7.3,11.6.1,0,.2.2.4.3Z"/>
        <path class="st85" d="M500,339.6c-2.9,4.7-5.6,9.5-8.8,13.9-12,16.3-28.3,23.8-48.4,22.8-2.1-.1-3.3-1.5-2.8-3.1.5-1.6,1.7-1.9,3.2-1.8,8,.6,15.7-.7,23.1-3.8,10-4.3,17.7-11.3,23.4-20.5,5-8,9.8-16.1,15.1-23.9,17-25,50.4-35.4,78.7-24.8,15.2,5.7,27,15.6,35.3,29.6.4.6.9,1.5.8,2.1-.2.9-.9,1.9-1.6,2.3-1.1.6-2.2,0-2.9-1.1-1.6-2.5-3.1-5-4.9-7.3-24.2-31.7-71.6-33.2-97.5-2.9-4.8,5.7-8.7,12.2-12.9,18.4,0,0,.1,0,.2.1Z"/>
        <path class="st88" d="M564.9,384.8c-5.2,7.3-10.4,14.6-15.6,21.9-.7,1-1.5,1.9-2.3,2.7-1.1,1.2-2.5,1.3-3.6.3-1-.9-1.1-2.3,0-3.5,10.3-11.8,17.7-25.5,26-38.5,3-4.7,1.9-10.5-2.2-13.7-4.3-3.4-10.1-3.3-14,.4-1,.9-1.8,2.1-2.5,3.2-5.4,8.4-10.4,17.2-16.2,25.3-20.4,28.5-48.2,43.6-83.2,45.7-1.9.1-3-.8-3.1-2.4,0-1.5,1.1-2.5,3.1-2.6,17.4-.8,33.5-5.7,48.4-14.7,14.3-8.6,25.6-20.2,34.4-34.4,4.3-6.9,8.6-13.9,13-20.7,6.3-9.7,20.2-9.9,26.2-.2,3.5,5.6,3.3,11.3-.1,17-2.9,4.6-5.8,9.2-8.7,13.8.1,0,.2.2.4.3Z"/>
        <path class="st87" d="M665.2,343.1c-1.1.3-2,.9-2.7.7-.8-.2-1.5-1-1.9-1.7-.4-.8-.5-1.8-.7-2.7-5.6-24.1-18.2-43.8-38-58.8-36.8-27.9-88-27.4-124.5,1.1-.2.2-.4.3-.6.5-1.5,1.1-2.8,1.1-3.8,0-1-1.2-.7-2.6.7-3.8,11.1-8.8,23.4-15.3,37.1-19.1,27.1-7.5,53.3-5.3,78.3,7.7,29.9,15.5,48.4,40,55.9,72.8.2,1,.1,2,.2,3.2Z"/>
        <path class="st90" d="M606.8,280.4c.8.5,1.7,1,2.5,1.6,1.3.9,1.7,2.2,1,3.4-.7,1.2-2.2,1.6-3.6.8-2.2-1.2-4.2-2.4-6.4-3.6-35.6-18.2-80-9.8-106.5,20.3-3.6,4.1-6.8,8.8-9.9,13.4-4.9,7.4-9.3,15.2-14.4,22.5-4.9,7-12,10.5-20.5,11.4-1.8.2-2.9-.7-3.1-2.1-.2-1.5.8-2.6,2.7-2.8,8.2-.8,14.4-4.9,18.7-11.8,5.2-8.3,10.3-16.7,15.7-24.8,23.1-34.4,68.6-49.3,107.6-35.4,5.5,2,10.8,4.5,16.2,6.8,0,.1,0,.2-.1.3Z"/>
        <path class="st89" d="M607.3,414.9c-4.9,8.1-11.3,17.7-18.7,26.5-17,20.2-37.4,36-61.1,47.5-1.7.8-3.1.5-3.8-.9-.7-1.4,0-2.7,1.8-3.6,19.6-9.5,36.9-22.1,51.9-37.9,8.7-9.1,16.3-19,22.9-29.7,4.9-7.9,10-15.6,14.6-23.6,8.8-15.4,10.5-31.8,5.7-48.9-.2-.6-.4-1.1-.5-1.7-.2-1.4.4-2.4,1.8-2.7,1.3-.4,2.2.2,2.9,1.3.2.4.3.8.4,1.2,5.6,19.5,3.3,38-7.2,55.4-3.1,5.2-6.4,10.2-10.7,17.1Z"/>
        <path class="st69" d="M630.9,427.2c-5.9,8.4-11.8,16.8-17.7,25.3-.3.5-.7,1-1.2,1.3-1.1.8-2.2.7-3.1-.2-1-.9-1.1-2-.4-3.1,1.1-1.6,2.3-3.1,3.5-4.7,9.8-13.4,19.1-27.3,26.7-42,15.3-29.4,14.2-58.9-2.3-87.7-4.5-7.8-10.4-14.6-17.1-20.6-1.5-1.3-1.8-2.8-.7-3.9,1.1-1.2,2.5-1.1,4,.3,29.6,26.3,39.6,68.2,25.1,104.9-2.5,6.3-5.7,12.2-9.4,17.9-2.6,4.1-5.2,8.2-7.7,12.3.1,0,.2.2.3.2Z"/>
        <path class="st74" d="M637.5,386.1c-.9,1.3-1.9,1.6-3.1,1.2-1.3-.5-1.7-1.6-1.4-2.9.5-2.2,1.2-4.3,1.6-6.5,5.3-29.4-3-54.3-25.6-73.7-18.2-15.6-39.6-20.7-63.2-16.5-.5,0-1.1.3-1.6.2-1.3,0-2.1-.8-2.4-2.1-.2-1.2.3-2.1,1.5-2.6.4-.2.9-.3,1.4-.4,24-4.4,45.8.6,65.1,15.5,26.3,20.3,37.2,53.9,28.4,85.7-.2.8-.5,1.6-.6,2.1Z"/>
        <path class="st70" d="M441.3,402.3c-.2-.9-.8-1.9-.6-2.6.2-.8,1.1-1.4,1.9-1.9.4-.3,1.2,0,1.8,0,25.5.2,46.4-9.4,62.3-29.4,3.4-4.2,6.1-9,9.1-13.6,3.7-5.8,7-11.8,11.1-17.3,9.9-13.2,23.3-18.5,39.7-16.5,1.9.2,2.8,1.4,2.6,2.9-.2,1.5-1.4,2.2-3.2,2-16.2-1.9-28.6,4.1-37.3,17.8-5.1,8-9.8,16.4-15.4,24.1-17,23.8-40.3,35.2-69.4,34.9-.7,0-1.4-.2-2.4-.3Z"/>
        <path class="st76" d="M553.1,378.2c-4.8,7.7-9.6,15.4-15.6,22.3-16,18.4-35.7,30.9-59.2,37.1-6.5,1.7-13.2,2.5-19.9,3.7-.5,0-1,.1-1.5,0-1.2-.2-2-.9-2.1-2.1-.1-1.3.4-2.2,1.7-2.6.5-.1,1-.2,1.4-.2,30.6-3.3,56.1-16.4,76.2-39.7,4.1-4.7,7.5-10,11-15.2,4.2-6.3,8.1-12.9,12.2-19.3.2-.4.5-.7.7-1.1,1-1.4,2.2-1.8,3.5-1,1.2.8,1.5,2.1.7,3.6-1.1,1.9-2.3,3.7-3.5,5.5-1.9,3-3.8,6-5.6,9Z"/>
        <path class="st75" d="M618.3,421.9c-4.7,7.7-10.7,16.8-17.6,25.3-14,17.3-30.5,31.7-49.4,43.4-1.6,1-3,.8-3.9-.5-.8-1.3-.3-2.7,1.3-3.7,15.5-9.5,29.3-21.1,41.5-34.5,8.1-8.9,15.1-18.5,21.5-28.7,5.3-8.6,10.6-17.2,16-25.8.9-1.4,2.1-1.9,3.4-1.2,1.3.7,1.7,2,.9,3.5-1,1.9-2.1,3.7-3.2,5.5-3.1,5-6.3,10.1-10.5,16.7Z"/>
        <path class="st71" d="M533.6,290.6c-.9.6-1.5,1-2.1,1.3-15.6,6.5-27.6,17.1-36.5,31.4-4.8,7.8-9.4,15.7-14.8,23.1-8.6,11.9-20.6,17.3-35.3,17-1.9,0-3-1-2.9-2.5,0-1.5,1.2-2.4,3.1-2.4,14.6.2,25.7-5.9,33.5-18.2,5.1-8.1,10-16.3,15.4-24.3,8.9-13.2,20.9-22.6,35.6-28.7,1.2-.5,2.5-.8,3.4.5.5.7.5,1.8.7,2.8Z"/>
        <path class="st77" d="M577.2,413.3c-21.5,30.1-50.1,50.6-85.7,61.3-1.9.6-3.3,0-3.7-1.5-.4-1.5.4-2.6,2.4-3.2,22.8-6.7,43.1-18,60.7-34,8.7-7.9,16.4-16.8,23.1-26.5,1.2-1.8,2.6-2.2,3.9-1.3,1.3.9,1.3,2.3.2,4-.2.4-.5.7-.9,1.4Z"/>
        <path class="st73" d="M645.6,427.5c-2.9,4.6-5.8,9.2-8.7,13.8-.3.5-.6,1-1,1.5-.9.9-2.1,1.1-2.9.3-.6-.6-.9-1.7-1-2.7,0-.6.6-1.3.9-1.8,5.2-8.3,10.5-16.4,15.4-24.8,10.5-17.7,15-36.9,13.9-57.5,0-.5,0-1.1,0-1.6.1-1.3,1-2.1,2.3-2.2,1.3,0,2.2.6,2.5,1.9.1.5.1,1,.2,1.5,1.1,19.4-2.6,37.8-11.6,55-3,5.7-6.5,11.2-9.8,16.8,0,0-.1,0-.2,0Z"/>
        <path class="st72" d="M591.8,390.3c-1.9,3-3.8,6.1-5.7,9.1-1.1,1.7-2.3,2.1-3.6,1.3-1.4-.8-1.6-2.2-.5-4,3.2-5.2,6.6-10.4,9.8-15.7,10.7-18,4.9-40.5-13.2-51-1.7-1-2.3-2.4-1.6-3.7.7-1.3,2.2-1.6,3.8-.6,14.9,9,21.9,22.2,21.1,39.5-.3,6.8-2.6,13.1-6.2,18.9-1.3,2-2.5,4.1-3.8,6.1Z"/>
        <path class="st68" d="M464.3,453.4c-.3-1-.9-2-.8-2.7.2-.8,1-1.6,1.8-2,.9-.4,2.1-.4,3.2-.6,24.6-4.3,46.2-14.8,64.7-31.6.2-.2.5-.4.7-.7,1.2-1,2.7-1,3.6,0,.9,1,.9,2.6-.3,3.6-2.4,2.2-4.9,4.4-7.4,6.4-18.5,14.7-39.4,23.8-62.7,27.4-.8.1-1.7,0-2.9,0Z"/>
        <path class="st91" d="M499.2,364.8c-4.5,5.5-9.6,10.1-15.5,13.9-12.4,8-25.9,11.6-40.6,10.9-.6,0-1.3,0-1.9-.2-1.2-.4-1.9-1.3-1.8-2.6.2-1.3.9-2,2.3-2.2.3,0,.5,0,.8,0,21.2,1,38.7-6.5,52.6-22.5,1.2-1.4,2.5-1.6,3.7-.7,1.1.9,1.2,2.3.4,3.4Z"/>
        <path class="st94" d="M465.9,311.2c3.6-5.9,8.4-13.6,14.4-20.3,1-1,1.9-2.1,2.9-3.1,1.1-1.1,2.6-1.2,3.5-.3,1,.9,1.2,2.4.1,3.5-10.9,11.3-18,25.2-26.5,38.2-.3.4-.5.8-.9,1.2-.9.9-1.9,1-3,.3-1-.6-1.4-1.6-1-2.8.2-.5.5-1,.8-1.4,2.8-4.5,5.7-9,9.6-15.3Z"/>
        <path class="st92" d="M504.8,483.4c-.4-1-1.1-1.9-.9-2.6.2-.9.9-1.9,1.7-2.3,3.5-1.6,7.2-2.9,10.7-4.5,10.1-4.6,19.6-10.1,28.6-16.5.8-.6,2.1-.9,3-.7,1.9.5,2,3.1.2,4.4-3.9,2.7-7.9,5.4-12,7.9-8.9,5.5-18.3,10-28.1,13.7-.9.3-1.9.3-3.2.5Z"/>
        <path class="st95" d="M444.3,415.5c-.3-.9-.9-1.8-.7-2.6.1-.7,1-1.4,1.7-1.9.3-.3.9-.1,1.4-.1,12.9,0,25.2-2.7,36.9-7.9.9-.4,2.2-.4,3,0,1.8,1,1.3,3.5-.8,4.3-5.5,2-10.9,4.1-16.5,5.7-7.3,2.1-14.9,2.8-22.5,2.8-.7,0-1.5-.1-2.6-.2Z"/>
        <path class="st93" d="M603.6,463.9c-2.5,2.5-5,5.4-7.7,7.9-4.7,4.4-9.5,8.6-14.2,12.9-.2.1-.3.3-.5.4-1.4,1.1-2.8,1-3.8-.2-.9-1.1-.6-2.5.6-3.6,4.2-3.8,8.5-7.5,12.6-11.3,2.9-2.8,5.6-5.7,8.4-8.6.3-.4.6-.8,1-1,1.1-.8,2.3-.8,3.3.2,1,.9.9,2,.2,3.4Z"/>
      </g>
      <g>
        <g>
          <rect class="st33" x="304.1" y="358.2" width="6.7" height="94.7"/>
          <rect class="st32" x="301.5" y="358.2" width="11.8" height="4.7"/>
          <rect class="st29" x="295.9" y="453.1" width="22.9" height="4.7"/>
          <rect class="st30" x="293.2" y="458.1" width="28.4" height="4.7"/>
          <circle class="st31" cx="307.4" cy="350.1" r="7.8"/>
        </g>
        <g>
          <rect class="st26" x="404.2" y="358.2" width="6.7" height="94.7"/>
          <rect class="st28" x="401.6" y="358.2" width="11.8" height="4.7"/>
          <rect class="st27" x="396" y="453.1" width="22.9" height="4.7"/>
          <rect class="st24" x="393.3" y="458.1" width="28.4" height="4.7"/>
          <circle class="st25" cx="407.5" cy="350.1" r="7.8"/>
        </g>
        <path class="st9" d="M399.1,368.5c-23.2,23.2-60.7,23.2-83.9,0"/>
      </g>
      <g class="st58">
        <path class="st65" d="M533.4,255.1h2.8c37.3,0,74,15.3,110.1,45.8l-43.8,40.2c-10.5-6.3-22.3-11.7-35.3-16.2-13-4.5-23.3-6.7-31-6.7h-2.8c-26,0-39.1,7.4-39.1,22.1s1.1,6.4,3.4,8.9c2.2,2.5,5.7,4.4,10.5,5.7,4.7,1.3,8.7,2.2,11.8,2.8,3.2.5,7.8,1.2,13.8,2l17.8,1.6c15,1.6,28.3,4.3,40,8.1,11.7,3.8,22.4,9,32.2,15.6,9.7,6.6,17.2,15.3,22.5,26.2,5.3,10.9,7.9,23.6,7.9,38.1,0,26.6-10.2,47.7-30.6,63.3-20.4,15.7-47,23.7-79.9,24.3h-2c-25.8,0-48.9-5.1-69.4-15.2-20.5-10.1-37.5-22.8-50.9-38.1l43.8-40.2c21,20.3,46.6,30.4,76.5,30.4h2c28.9-.5,43.4-8.7,43.4-24.5s-1.1-8.7-3.4-11.8c-2.2-3.2-5.9-5.7-11-7.5-5.1-1.8-9.7-3.2-13.6-3.9-3.9-.8-9.5-1.6-16.6-2.4l-18.1-2c-28.7-3.2-52-11-70-23.7-18-12.6-27-31.2-27-55.6s9.9-47.3,29.8-62.9c19.9-15.6,45.3-23.7,76.3-24.3Z"/>
      </g>
      <path class="st97" d="M533.4,229h2.8c37.3,0,74,15.3,110.1,45.8l-43.8,40.2c-10.5-6.3-22.3-11.7-35.3-16.2-13-4.5-23.3-6.7-31-6.7h-2.8c-26,0-39.1,7.4-39.1,22.1s1.1,6.4,3.4,8.9c2.2,2.5,5.7,4.4,10.5,5.7,4.7,1.3,8.7,2.2,11.8,2.8,3.2.5,7.8,1.2,13.8,2l17.8,1.6c15,1.6,28.3,4.3,40,8.1,11.7,3.8,22.4,9,32.2,15.6,9.7,6.6,17.2,15.3,22.5,26.2,5.3,10.9,7.9,23.6,7.9,38.1,0,26.6-10.2,47.7-30.6,63.3-20.4,15.7-47,23.7-79.9,24.3h-2c-25.8,0-48.9-5.1-69.4-15.2-20.5-10.1-37.5-22.8-50.9-38.1l43.8-40.2c21,20.3,46.6,30.4,76.5,30.4h2c28.9-.5,43.4-8.7,43.4-24.5s-1.1-8.7-3.4-11.8c-2.2-3.2-5.9-5.7-11-7.5-5.1-1.8-9.7-3.2-13.6-3.9-3.9-.8-9.5-1.6-16.6-2.4l-18.1-2c-28.7-3.2-52-11-70-23.7-18-12.6-27-31.2-27-55.6s9.9-47.3,29.8-62.9c19.9-15.6,45.3-23.7,76.3-24.3Z"/>
      <g class="st58">
        <path class="st65" d="M308.8,255.1c41,0,75.8,15.3,104.2,45.8l-43.4,40.2c-16.8-15.3-37.1-22.9-60.8-22.9s-38.5,7.2-52.5,21.5c-13.9,14.3-20.9,33.1-20.9,56.2s7,41.8,20.9,56c13.9,14.2,31.4,21.3,52.5,21.3s44.2-7.5,60.8-22.5l43.4,40.2c-28.4,30.5-63.1,45.8-104.2,45.8s-72.1-13.7-99.4-41.2c-27.4-27.5-41-60.7-41-99.6s13.7-72.1,41-99.6c27.4-27.5,60.5-41.2,99.4-41.2Z"/>
      </g>
      <path class="st97" d="M308.8,229c41,0,75.8,15.3,104.2,45.8l-43.4,40.2c-16.8-15.3-37.1-22.9-60.8-22.9s-38.5,7.2-52.5,21.5c-13.9,14.3-20.9,33.1-20.9,56.2s7,41.8,20.9,56c13.9,14.2,31.4,21.3,52.5,21.3s44.2-7.5,60.8-22.5l43.4,40.2c-28.4,30.5-63.1,45.8-104.2,45.8s-72.1-13.7-99.4-41.2c-27.4-27.5-41-60.7-41-99.6s13.7-72.1,41-99.6c27.4-27.5,60.5-41.2,99.4-41.2Z"/>
      <g>
        <rect class="st23" x="615" y="807.5" width="90.8" height="42.6" rx="21.3" ry="21.3"/>
        <circle cx="685.3" cy="828.8" r="13.5"/>
        <circle class="st64" cx="589.2" cy="829.1" r="8.5"/>
        <g>
          <path class="st96" d="M742.8,834.7c-8.2-.3-15-7-15.3-15.3,0-2.7.5-5.3,1.6-7.6s-.1-.8-.5-.7c-8,2.2-13.8,9.5-13.5,18.3.3,9.6,8.1,17.5,17.8,17.8,8.7.3,16.1-5.6,18.3-13.5.1-.4-.3-.7-.7-.5-2.3,1.1-4.9,1.7-7.6,1.6Z"/>
          <path class="st96" d="M736.6,816.6l.5.9c0,0,.1.2.2.2l.9.5c.4.2.4.8,0,1l-.9.5c0,0-.2.1-.2.2l-.5.9c-.2.4-.8.4-1,0l-.5-.9c0,0-.1-.2-.2-.2l-.9-.5c-.4-.2-.4-.8,0-1l.9-.5c0,0,.2-.1.2-.2l.5-.9c.2-.4.8-.4,1,0Z"/>
          <path class="st96" d="M744.3,824.2l.5.9c0,0,.1.2.2.2l.9.5c.4.2.4.8,0,1l-.9.5c0,0-.2.1-.2.2l-.5.9c-.2.4-.8.4-1,0l-.5-.9c0,0-.1-.2-.2-.2l-.9-.5c-.4-.2-.4-.8,0-1l.9-.5c0,0,.2-.1.2-.2l.5-.9c.2-.4.8-.4,1,0Z"/>
          <path class="st96" d="M746.9,810.9l.7,1.3c0,.1.2.2.3.3l1.3.7c.5.3.5,1.1,0,1.3l-1.3.7c-.1,0-.2.2-.3.3l-.7,1.3c-.3.5-1.1.5-1.3,0l-.7-1.3c0-.1-.2-.2-.3-.3l-1.3-.7c-.5-.3-.5-1.1,0-1.3l1.3-.7c.1,0,.2-.2.3-.3l.7-1.3c.3-.5,1.1-.5,1.3,0Z"/>
        </g>
        <path class="st64" d="M589.2,818.4c-.5,0-.9-.4-.9-.9v-4c0-.5.4-.9.9-.9s.9.4.9.9v4c0,.5-.4.9-.9.9Z"/>
        <path class="st64" d="M589.2,845.5c-.5,0-.9-.4-.9-.9v-4c0-.5.4-.9.9-.9s.9.4.9.9v4c0,.5-.4.9-.9.9Z"/>
        <g>
          <line class="st64" x1="581.1" y1="820.9" x2="578.3" y2="818.1"/>
          <path class="st64" d="M581.1,821.8c-.2,0-.5,0-.6-.3l-2.8-2.8c-.4-.4-.4-.9,0-1.3s.9-.4,1.3,0l2.8,2.8c.4.4.4.9,0,1.3s-.4.3-.6.3Z"/>
        </g>
        <path class="st64" d="M600.2,840.9c-.2,0-.5,0-.6-.3l-2.8-2.8c-.4-.4-.4-.9,0-1.3.4-.4.9-.4,1.3,0l2.8,2.8c.4.4.4.9,0,1.3-.2.2-.4.3-.6.3Z"/>
        <path class="st64" d="M577.7,830h-4c-.5,0-.9-.4-.9-.9s.4-.9.9-.9h4c.5,0,.9.4.9.9s-.4.9-.9.9Z"/>
        <path class="st64" d="M604.7,830h-4c-.5,0-.9-.4-.9-.9s.4-.9.9-.9h4c.5,0,.9.4.9.9s-.4.9-.9.9Z"/>
        <path class="st64" d="M578.3,840.9c-.2,0-.5,0-.6-.3-.4-.4-.4-.9,0-1.3l2.8-2.8c.4-.4.9-.4,1.3,0,.4.4.4.9,0,1.3l-2.8,2.8c-.2.2-.4.3-.6.3Z"/>
        <g>
          <line class="st64" x1="600.2" y1="818.1" x2="597.4" y2="820.9"/>
          <path class="st64" d="M597.4,821.8c-.2,0-.5,0-.6-.3-.4-.4-.4-.9,0-1.3l2.8-2.8c.4-.4.9-.4,1.3,0s.4.9,0,1.3l-2.8,2.8c-.2.2-.4.3-.6.3Z"/>
        </g>
      </g>
      <g>
        <path class="st14" d="M164,57.7h.9c12.8,0,25.4,5.2,37.8,15.7l-15,13.8c-3.6-2.2-7.7-4-12.1-5.6-4.5-1.5-8-2.3-10.6-2.3h-.9c-8.9,0-13.4,2.5-13.4,7.6s.4,2.2,1.2,3.1c.8.9,2,1.5,3.6,2,1.6.5,3,.8,4.1.9,1.1.2,2.7.4,4.7.7l6.1.5c5.2.5,9.7,1.5,13.8,2.8,4,1.3,7.7,3.1,11,5.4,3.3,2.3,5.9,5.3,7.7,9,1.8,3.8,2.7,8.1,2.7,13.1,0,9.1-3.5,16.4-10.5,21.8-7,5.4-16.2,8.2-27.4,8.3h-.7c-8.9,0-16.8-1.7-23.9-5.2-7-3.5-12.9-7.8-17.5-13.1l15-13.8c7.2,7,16,10.4,26.3,10.4h.7c9.9-.2,14.9-3,14.9-8.4s-.4-3-1.2-4.1c-.8-1.1-2-1.9-3.8-2.6-1.8-.6-3.3-1.1-4.7-1.4-1.4-.3-3.3-.5-5.7-.8l-6.2-.7c-9.9-1.1-17.9-3.8-24.1-8.1-6.2-4.3-9.3-10.7-9.3-19.1s3.4-16.2,10.2-21.6c6.8-5.4,15.6-8.2,26.2-8.3Z"/>
        <path class="st15" d="M243.2,140.4l-4.9,13.1h-25.6l38.8-94.9h13.8l38.2,94.9h-25.6l-4.9-13.1h-29.8ZM258.1,100.1l-6.9,18.4h13.8l-6.9-18.4Z"/>
        <path class="st11" d="M351.1,153.6h-13.7l-38.9-94.9h25.6l19.9,52.7,19.8-52.7h25.6l-38.4,94.9Z"/>
        <path class="st12" d="M431.6,95.1h38.2v21.8h-38.2v14.8h41.9v21.8h-64.9V58.7h64.9v21.7h-41.9v14.8Z"/>
        <path class="st13" d="M580.3,80.4v73.2h-23v-73.2h-24.3v-21.7h71.6v21.7h-24.3Z"/>
        <path class="st16" d="M699.2,153.6h-23v-36.6h-29.4v36.6h-23V58.7h23v36.5h29.4v-36.5h23v94.9Z"/>
        <path class="st17" d="M749.6,95.1h38.2v21.8h-38.2v14.8h41.9v21.8h-64.9V58.7h64.9v21.7h-41.9v14.8Z"/>
        <path class="st20" d="M859.1,58.7h34.6c13.5,0,24.9,4.5,34.2,13.6s14,20.4,14,33.8-4.7,24.9-14,33.9c-9.4,9-20.8,13.6-34.2,13.6h-34.6V58.7ZM882.2,131.7h11.5c7.4,0,13.5-2.2,18.2-6.7,4.7-4.5,7-10.8,7-18.9s-2.4-14.5-7-19c-4.7-4.5-10.8-6.8-18.2-6.8h-11.5v51.4Z"/>
        <path class="st19" d="M978.4,140.4l-4.9,13.1h-25.6l38.8-94.9h13.8l38.2,94.9h-25.6l-4.9-13.1h-29.8ZM993.3,100.1l-6.9,18.4h13.8l-6.9-18.4Z"/>
        <path class="st18" d="M1086.2,80.4v73.2h-23v-73.2h-24.3v-21.7h71.6v21.7h-24.3Z"/>
        <path class="st22" d="M1152.6,95.1h38.2v21.8h-38.2v14.8h41.9v21.8h-64.9V58.7h64.9v21.7h-41.9v14.8Z"/>
        <path class="st21" d="M1211.8,135.9c2.3-2.1,5.2-3.1,8.7-3.1s6.3,1,8.7,3.1c2.4,2.1,3.6,4.7,3.6,7.7s-1.2,5.6-3.6,7.7c-2.4,2.1-5.3,3.1-8.7,3.1s-6.3-1-8.7-3.1c-2.4-2.1-3.5-4.7-3.5-7.7s1.2-5.6,3.5-7.7ZM1232.2,58.7v34.3l-1.9,33.1h-19.2l-1.9-32.8v-34.6h23Z"/>
      </g>
    </g>
    <g id="DATE">
      <text class="st124" transform="translate(508.3 1017.3)"><tspan x="0" y="0">23 OCTOBER 2025</tspan></text>
    </g>
    <g id="GALA_AWARDS">
      <path class="st62" d="M386.3,914.1c-2.1,2.1-3.1,4.9-3.1,8.3s1,6.2,3.1,8.3c2.1,2.1,4.6,3.1,7.8,3.1s3.8-.4,5.5-1.2v-5.6h-5.5v-7.5h15.4v16.9c-4.2,4.5-9.3,6.8-15.4,6.8s-10.7-2-14.7-6.1c-4-4.1-6.1-9-6.1-14.7s2-10.7,6.1-14.7c4-4.1,8.9-6.1,14.7-6.1s11.2,2.3,15.4,6.8l-6.4,5.9c-2.5-2.3-5.5-3.4-9-3.4s-5.7,1.1-7.8,3.2ZM439.7,902l16.4,40.8h-11l-2.1-5.7h-12.8l-2.1,5.7h-11l16.7-40.8h5.9ZM439.6,927.7l-3-7.9-3,7.9h5.9ZM473.2,902h-9.9v40.8h26.9v-9.4h-17v-31.4ZM517.6,902l16.4,40.8h-11l-2.1-5.7h-12.8l-2.1,5.7h-11l16.7-40.8h5.9ZM517.5,927.7l-3-7.9-3,7.9h5.9ZM587.2,935l7.1,7.8h-9.4l-2.2-2.4c-2.3,1.6-5.1,2.4-8.6,2.4h-.4c-4.6,0-8.1-1.1-10.5-3.4-2.4-2.3-3.6-5.1-3.6-8.6s.6-4,1.7-5.6c1.1-1.7,2.6-2.9,4.4-3.6l-.9-.9c-2.5-2.8-3.7-5.5-3.7-8.3s1-4.9,3.1-7c2-2,5.1-3.1,9.1-3.1h.8c3.8,0,6.9,1.2,9.2,3.5,2.3,2.4,3.4,5.2,3.4,8.4v.9h-9.4c0-2.5-1.2-3.8-3.7-3.8s-1.7.3-2.3.8c-.7.6-1,1.3-1,2.2s.5,2.3,1.5,3.4l10.1,11.1c.3-.9.5-1.9.5-2.8h6.7c0,3.2-.6,6.2-1.8,8.8ZM576.4,933.4l-6.4-7.1c-.7.7-1,1.6-1,2.5,0,1.4.5,2.6,1.5,3.5,1,.9,2.3,1.4,3.8,1.4s1.5-.1,2.1-.3ZM642.5,902l16.4,40.8h-11l-2.1-5.7h-12.8l-2.1,5.7h-11l16.7-40.8h5.9ZM642.4,927.7l-3-7.9-3,7.9h5.9ZM709.3,902l-8.5,22.7-8.5-22.7h-5.9l-8.5,22.7-8.5-22.7h-11l16.6,40.8h5.9l8.3-20.8,8.4,20.8h5.9l16.6-40.8h-11ZM740.9,902l16.4,40.8h-11l-2.1-5.7h-12.8l-2.1,5.7h-11l16.7-40.8h5.9ZM740.8,927.7l-3-7.9-3,7.9h5.9ZM795.4,937.8l3.2,5h-11.1l-2.3-3.5c-1.2-1.8-2-3-2.5-3.6-.4-.6-1-1.1-1.8-1.5-.7-.4-1.7-.6-3-.6h-2.4v9.2h-9.9v-40.8h14.3c5.7,0,10,1.5,13.1,4.5,3.1,3,4.6,6.8,4.6,11.3s-.7,5.4-2.1,7.6c-1.4,2.2-3.4,3.9-5.9,5.1,1.3,1,3.2,3.5,5.8,7.3ZM788.2,917.8c0-2.1-.7-3.7-2.1-4.8-1.4-1.1-3.2-1.7-5.3-1.7h-5.4v12.9h5.4c2.3,0,4.1-.5,5.4-1.6,1.3-1.1,2-2.7,2-4.8ZM836.5,907.8c4,3.9,6,8.8,6,14.5s-2,10.7-6,14.6c-4,3.9-8.9,5.8-14.7,5.8h-14.9v-40.8h14.9c5.8,0,10.7,2,14.7,5.9ZM832.6,922.4c0-3.5-1-6.2-3-8.2-2-1.9-4.6-2.9-7.8-2.9h-5v22.1h5c3.2,0,5.8-1,7.8-2.9,2-1.9,3-4.6,3-8.1ZM878.4,920.7c-1.4-1-3-1.7-4.8-2.3-1.7-.6-3.7-1-5.9-1.2l-2.6-.2c-.9-.1-1.6-.2-2-.3-.5,0-1-.2-1.7-.4-.7-.2-1.2-.5-1.5-.8-.3-.4-.5-.8-.5-1.3,0-2.2,1.9-3.3,5.8-3.3h.4c1.1,0,2.7.3,4.6,1,1.9.7,3.7,1.5,5.2,2.4l6.5-5.9c-5.3-4.5-10.8-6.8-16.3-6.8h-.4c-4.6,0-8.3,1.3-11.3,3.6s-4.4,5.4-4.4,9.3,1.3,6.4,4,8.2c2.7,1.9,6.1,3,10.4,3.5l2.7.3c1,.1,1.9.2,2.4.4s1.3.3,2,.6,1.3.6,1.6,1.1c.3.5.5,1,.5,1.7,0,2.3-2.1,3.5-6.4,3.6h-.3c-4.4,0-8.2-1.5-11.3-4.5l-6.5,5.9c2,2.3,4.5,4.1,7.5,5.6,3,1.5,6.5,2.2,10.3,2.2h.3c4.9,0,8.8-1.3,11.8-3.6s4.5-5.4,4.5-9.4-.4-4-1.2-5.6c-.8-1.6-1.9-2.9-3.3-3.9ZM934.2,924.4l-16.9-22.5h-5.9v40.8h9.9v-22.5l16.9,22.5h5.9v-40.8h-9.9v22.5ZM955.4,911.3h5v22.1h-5v9.4h19.8v-9.4h-5v-22.1h5v-9.3h-19.8v9.3ZM1004.8,911c3.5,0,6.5,1.1,9,3.4l6.4-5.9c-4.2-4.5-9.3-6.8-15.4-6.8s-10.7,2-14.7,6.1c-4,4.1-6.1,9-6.1,14.7s2,10.7,6.1,14.7c4,4.1,8.9,6.1,14.7,6.1s11.2-2.3,15.4-6.8v-16.9h-15.4v7.5h5.5v5.6c-1.7.8-3.5,1.2-5.5,1.2-3.1,0-5.7-1-7.8-3.1-2.1-2.1-3.1-4.9-3.1-8.3s1-6.2,3.1-8.3c2.1-2.1,4.6-3.2,7.8-3.2ZM1054,917.7h-12.7v-15.7h-9.9v40.8h9.9v-15.7h12.7v15.7h9.9v-40.8h-9.9v15.7ZM1072.2,902v9.3h10.4v31.5h9.9v-31.5h10.4v-9.3h-30.8Z"/>
    </g>
  </g>
</svg>